<svg version="1.1" viewBox="0.0 0.0 960.0 540.0" fill="none" stroke="none" stroke-linecap="square" stroke-miterlimit="10" xmlns:xlink="http://www.w3.org/1999/xlink" xmlns="http://www.w3.org/2000/svg"><clipPath id="g3d2bfa4117_7_75.0"><path d="m0 0l960.0 0l0 540.0l-960.0 0l0 -540.0z" clip-rule="nonzero"/></clipPath><g clip-path="url(#g3d2bfa4117_7_75.0)"><path fill="#d0e0e3" d="m0 0l960.0 0l0 540.0l-960.0 0z" fill-rule="evenodd"/><path fill="#eeeeee" d="m579.7257 348.89557l0 0c0 -15.038116 12.190796 -27.228912 27.228882 -27.228912l150.29816 0c7.2215576 0 14.147339 2.8687744 19.253723 7.9751587c5.1063843 5.106415 7.9751587 12.032196 7.9751587 19.253754l0 108.91229c0 15.038086 -12.190796 27.228882 -27.228882 27.228882l-150.29816 0l0 0c-15.038086 0 -27.228882 -12.190796 -27.228882 -27.228882z" fill-rule="evenodd"/><path stroke="#595959" stroke-width="2.0" stroke-linejoin="round" stroke-linecap="butt" d="m579.7257 348.89557l0 0c0 -15.038116 12.190796 -27.228912 27.228882 -27.228912l150.29816 0c7.2215576 0 14.147339 2.8687744 19.253723 7.9751587c5.1063843 5.106415 7.9751587 12.032196 7.9751587 19.253754l0 108.91229c0 15.038086 -12.190796 27.228882 -27.228882 27.228882l-150.29816 0l0 0c-15.038086 0 -27.228882 -12.190796 -27.228882 -27.228882z" fill-rule="evenodd"/><path fill="#000000" d="m657.35803 409.4942l0 -11.046875l0.1875 -1.203125l-2.0625 0l0 -2.59375l2.0625 0l-0.1875 -1.671875l0 -2.109375q2.109375 0 2.46875 0.296875q0.359375 0.28125 0.359375 1.90625l-0.1875 1.578125l4.421875 0q0 1.78125 -0.3125 2.1875q-0.3125 0.40625 -2.0 0.40625l-2.109375 0l0.1875 1.203125l0 11.046875q0 5.46875 0.28125 7.109375q0.296875 1.625 1.640625 1.625l3.265625 0l0 2.203125l-3.3125 0.234375q-3.3125 0 -4.015625 -2.03125q-0.6875 -2.046875 -0.6875 -9.140625zm22.94513 10.453125q-3.703125 0.828125 -5.171875 0.828125q-1.453125 0 -2.25 -0.078125q-0.78125 -0.078125 -1.4375 -0.390625q-0.640625 -0.3125 -1.125 -0.515625q-0.484375 -0.21875 -0.875 -0.859375q-0.375 -0.65625 -0.625 -1.0625q-0.234375 -0.40625 -0.375 -1.40625q-0.140625 -1.015625 -0.234375 -1.640625q-0.09375 -0.625 -0.140625 -2.046875q-0.046875 -1.421875 -0.046875 -2.28125l0 -5.421875q0 -3.171875 0.140625 -4.109375q0.140625 -0.9375 0.28125 -1.984375q0.140625 -1.0625 0.375 -1.515625q0.25 -0.453125 0.625 -1.125q0.390625 -0.671875 0.875 -0.9375q0.484375 -0.265625 1.125 -0.578125q0.65625 -0.3125 1.4375 -0.40625q0.796875 -0.09375 1.796875 -0.09375q1.015625 0 1.828125 0.140625q0.828125 0.140625 1.375 0.578125q0.546875 0.4375 0.953125 0.828125q0.40625 0.375 0.671875 1.234375q0.265625 0.859375 0.40625 1.46875q0.15625 0.59375 0.21875 1.875q0.078125 1.265625 0.078125 2.03125l0 2.5l0.1875 2.59375l-9.796875 0.234375l0.203125 1.203125q0 6.140625 0.46875 7.109375q0.78125 1.578125 1.78125 1.8125q0.671875 0.203125 2.609375 0.203125q1.953125 0 4.640625 -0.625l0 2.4375zm-9.21875 -18.53125q0 0.875 0 2.59375l-0.1875 1.203125l6.8125 0l-0.234375 -1.25q0 -3.828125 -0.53125 -5.453125q-0.53125 -1.640625 -2.375 -1.640625q-1.84375 0 -2.625 0.984375q-0.765625 0.984375 -0.859375 3.5625zm23.522156 17.765625q-0.578125 0.71875 -1.546875 1.078125q-0.953125 0.359375 -2.34375 0.359375q-1.390625 0 -5.703125 -0.71875l0 -2.546875q0.1875 0 2.421875 0.25q2.234375 0.234375 3.328125 0.234375q2.6875 0 2.6875 -4.984375q0 -0.34375 0 -0.671875q-0.046875 -1.546875 -2.984375 -3.765625q-2.921875 -2.234375 -4.3125 -3.90625q-1.390625 -1.6875 -1.390625 -3.421875q0 -1.734375 0.046875 -2.40625q0.046875 -0.671875 0.328125 -1.671875q0.296875 -1.015625 0.875 -1.4375q1.484375 -1.203125 4.515625 -1.203125l4.5625 0.671875q0 2.109375 -1.734375 2.109375q-0.328125 0 -0.671875 -0.046875l-1.96875 -0.28125q-2.34375 0 -2.875 1.046875q-0.4375 0.921875 -0.4375 2.671875q0 1.75 3.75 4.71875q1.71875 1.296875 2.609375 2.0625q0.890625 0.765625 1.734375 2.015625q0.84375 1.25 0.84375 2.4375q0 1.171875 -0.046875 2.015625q-0.046875 0.828125 -0.21875 1.984375q-0.171875 1.15625 -0.53125 1.921875q-0.359375 0.765625 -0.9375 1.484375zm6.7195435 -9.6875l0 -11.046875l0.1875 -1.203125l-2.0625 0l0 -2.59375l2.0625 0l-0.1875 -1.671875l0 -2.109375q2.109375 0 2.46875 0.296875q0.359375 0.28125 0.359375 1.90625l-0.1875 1.578125l4.421875 0q0 1.78125 -0.3125 2.1875q-0.3125 0.40625 -2.0 0.40625l-2.109375 0l0.1875 1.203125l0 11.046875q0 5.46875 0.28125 7.109375q0.296875 1.625 1.640625 1.625l3.265625 0l0 2.203125l-3.3125 0.234375q-3.3125 0 -4.015625 -2.03125q-0.6875 -2.046875 -0.6875 -9.140625z" fill-rule="nonzero"/><path fill="#eeeeee" d="m175.51837 348.89557l0 0c0 -15.038116 12.190796 -27.228912 27.228897 -27.228912l150.29811 0c7.2215576 0 14.147339 2.8687744 19.253754 7.9751587c5.1063843 5.106415 7.9751587 12.032196 7.9751587 19.253754l0 108.91229c0 15.038086 -12.190796 27.228882 -27.228912 27.228882l-150.29811 0l0 0c-15.038101 0 -27.228897 -12.190796 -27.228897 -27.228882z" fill-rule="evenodd"/><path stroke="#595959" stroke-width="2.0" stroke-linejoin="round" stroke-linecap="butt" d="m175.51837 348.89557l0 0c0 -15.038116 12.190796 -27.228912 27.228897 -27.228912l150.29811 0c7.2215576 0 14.147339 2.8687744 19.253754 7.9751587c5.1063843 5.106415 7.9751587 12.032196 7.9751587 19.253754l0 108.91229c0 15.038086 -12.190796 27.228882 -27.228912 27.228882l-150.29811 0l0 0c-15.038101 0 -27.228897 -12.190796 -27.228897 -27.228882z" fill-rule="evenodd"/><path fill="#000000" d="m246.77338 412.7442q-0.046875 -1.578125 -0.046875 -4.3125q0 -2.734375 0.015625 -3.78125q0.03125 -1.0625 0.078125 -2.53125q0.046875 -1.46875 0.15625 -2.203125q0.125 -0.75 0.34375 -1.734375q0.21875 -0.984375 0.546875 -1.453125q0.34375 -0.484375 0.8125 -1.0625q0.484375 -0.578125 1.109375 -0.765625q1.6875 -0.578125 3.453125 -0.578125l3.5625 1.34375l0 -10.375q2.109375 0 2.4375 0.296875q0.34375 0.28125 0.34375 1.921875l0 32.921875q-2.109375 0 -2.453125 -0.3125q-0.328125 -0.3125 -0.328125 -2.234375l-3.796875 2.890625q-3.21875 0 -4.9375 -1.78125q-1.15625 -1.203125 -1.296875 -6.25zm2.9375 -11.5q-0.109375 1.71875 -0.140625 2.75q-0.015625 1.03125 -0.015625 5.625q0 4.578125 0.421875 6.25q1.015625 2.203125 3.078125 2.359375l3.9375 -2.171875l-0.1875 -1.1875l0 -15.5625l0.1875 -1.1875l-3.9375 -1.25q-1.78125 0 -2.453125 1.1875q-0.765625 1.453125 -0.890625 3.1875zm25.190918 18.96875q-0.671875 0.21875 -1.515625 0.390625q-0.84375 0.171875 -2.015625 0.171875q-1.171875 0 -2.109375 -0.15625q-0.9375 -0.140625 -1.640625 -0.609375q-0.6875 -0.484375 -1.15625 -0.890625q-0.453125 -0.421875 -0.765625 -1.46875q-0.3125 -1.0625 -0.484375 -1.78125q-0.15625 -0.71875 -0.234375 -2.375q-0.0625 -1.65625 -0.09375 -2.703125q-0.015625 -1.0625 -0.015625 -3.359375q0 -2.3125 0.015625 -3.34375q0.03125 -1.03125 0.09375 -2.6875q0.078125 -1.65625 0.234375 -2.34375q0.171875 -0.703125 0.484375 -1.734375q0.3125 -1.03125 0.765625 -1.40625q0.46875 -0.390625 1.1875 -0.828125q1.09375 -0.765625 2.984375 -0.765625q1.90625 0 2.75 0.171875q0.84375 0.15625 1.515625 0.359375q0.671875 0.1875 1.140625 0.796875q0.484375 0.59375 0.8125 1.0q0.34375 0.40625 0.53125 1.4375q0.203125 1.03125 0.3125 1.6875q0.125 0.640625 0.1875 2.1875q0.078125 1.53125 0.078125 2.484375l0 2.96875q0 0 0 0.203125q0 0 0 2.921875q0 3.265625 -0.1875 4.296875q-0.1875 1.03125 -0.390625 2.09375q-0.1875 1.046875 -0.53125 1.46875q-0.328125 0.40625 -0.8125 1.0q-0.46875 0.59375 -1.140625 0.8125zm0.234375 -11.6875l0 -1.625q0 -6.296875 -0.53125 -7.921875q-0.765625 -2.0625 -3.171875 -2.109375q-1.953125 0 -2.625 1.0q-0.390625 0.671875 -0.640625 1.25q-0.234375 0.578125 -0.328125 2.015625q-0.140625 2.109375 -0.140625 4.078125q0 1.96875 0 3.96875q0 1.984375 0.046875 3.421875q0.046875 1.4375 0.40625 3.046875q0.359375 1.609375 1.125 2.09375q0.765625 0.484375 1.921875 0.484375q1.15625 0 1.78125 -0.21875q0.625 -0.21875 1.03125 -0.8125q0.40625 -0.609375 0.625 -1.203125q0.21875 -0.609375 0.3125 -1.90625q0.1875 -1.859375 0.1875 -5.5625zm7.686432 -0.953125l0 -3.078125q0 -3.5 0.15625 -4.40625q0.171875 -0.921875 0.390625 -1.96875q0.21875 -1.0625 0.53125 -1.46875q0.3125 -0.40625 0.765625 -0.984375q0.453125 -0.578125 1.125 -0.765625q1.640625 -0.578125 3.3125 -0.578125l3.984375 0.625q0 2.109375 -1.734375 2.109375q-0.328125 0 -0.671875 -0.046875l-1.578125 -0.140625q-2.453125 0 -2.984375 2.046875q-0.515625 2.03125 -0.515625 7.03125q0 4.984375 0.046875 6.46875q0.046875 1.484375 0.375 3.140625q0.34375 1.65625 1.0625 2.171875q0.71875 0.5 2.015625 0.5l4.171875 -0.484375l0 2.203125l-4.171875 0.828125q-2.59375 0 -3.453125 -0.625q-0.859375 -0.625 -1.296875 -1.03125q-0.4375 -0.421875 -0.75 -1.46875q-0.3125 -1.0625 -0.453125 -1.78125q-0.140625 -0.71875 -0.234375 -2.34375q-0.09375 -2.796875 -0.09375 -5.953125zm24.664642 11.609375q-0.578125 0.71875 -1.546875 1.078125q-0.953125 0.359375 -2.34375 0.359375q-1.390625 0 -5.703125 -0.71875l0 -2.546875q0.1875 0 2.421875 0.25q2.234375 0.234375 3.328125 0.234375q2.6875 0 2.6875 -4.984375q0 -0.34375 0 -0.671875q-0.046875 -1.546875 -2.984375 -3.765625q-2.921875 -2.234375 -4.3125 -3.90625q-1.390625 -1.6875 -1.390625 -3.421875q0 -1.734375 0.046875 -2.40625q0.046875 -0.671875 0.328125 -1.671875q0.296875 -1.015625 0.875 -1.4375q1.484375 -1.203125 4.515625 -1.203125l4.5625 0.671875q0 2.109375 -1.734375 2.109375q-0.328125 0 -0.671875 -0.046875l-1.96875 -0.28125q-2.34375 0 -2.875 1.046875q-0.4375 0.921875 -0.4375 2.671875q0 1.75 3.75 4.71875q1.71875 1.296875 2.609375 2.0625q0.890625 0.765625 1.734375 2.015625q0.84375 1.25 0.84375 2.4375q0 1.171875 -0.046875 2.015625q-0.046875 0.828125 -0.21875 1.984375q-0.171875 1.15625 -0.53125 1.921875q-0.359375 0.765625 -0.9375 1.484375z" fill-rule="nonzero"/><path fill="#ead1dc" d="m175.51837 111.546616l0 0c0 -18.946205 15.3589325 -34.305145 34.305145 -34.305145l357.8149 0c9.098267 0 17.823914 3.6142807 24.257385 10.047745c6.4334717 6.433464 10.0477295 15.159111 10.0477295 24.2574l0 137.21648c0 18.946198 -15.358887 34.305145 -34.305115 34.305145l-357.8149 0c-18.946213 0 -34.305145 -15.358948 -34.305145 -34.305145z" fill-rule="evenodd"/><path stroke="#595959" stroke-width="2.0" stroke-linejoin="round" stroke-linecap="butt" d="m175.51837 111.546616l0 0c0 -18.946205 15.3589325 -34.305145 34.305145 -34.305145l357.8149 0c9.098267 0 17.823914 3.6142807 24.257385 10.047745c6.4334717 6.433464 10.0477295 15.159111 10.0477295 24.2574l0 137.21648c0 18.946198 -15.358887 34.305145 -34.305115 34.305145l-357.8149 0c-18.946213 0 -34.305145 -15.358948 -34.305145 -34.305145z" fill-rule="evenodd"/><path fill="#000000" d="m197.44101 195.03172l0 -23.578125q2.109375 0 2.46875 0.171875q0.375 0.171875 0.375 1.265625l0 0.53125l3.828125 -2.296875q0.828125 0 2.40625 0.328125q0 1.6875 -0.3125 1.953125q-0.3125 0.265625 -2.09375 0.265625l-4.078125 2.25l0.25 1.203125l0 20.109375q-2.125 0 -2.484375 -0.28125q-0.359375 -0.296875 -0.359375 -1.921875zm24.724533 1.71875q-3.703125 0.828125 -5.171875 0.828125q-1.453125 0 -2.25 -0.078125q-0.78125 -0.078125 -1.4375 -0.390625q-0.640625 -0.3125 -1.125 -0.515625q-0.484375 -0.21875 -0.875 -0.859375q-0.375 -0.65625 -0.625 -1.0625q-0.234375 -0.40625 -0.375 -1.40625q-0.140625 -1.015625 -0.234375 -1.640625q-0.09375 -0.625 -0.140625 -2.046875q-0.046875 -1.421875 -0.046875 -2.28125l0 -5.421875q0 -3.171875 0.140625 -4.109375q0.140625 -0.9375 0.28125 -1.984375q0.140625 -1.0625 0.375 -1.515625q0.25 -0.453125 0.625 -1.125q0.390625 -0.671875 0.875 -0.9375q0.484375 -0.265625 1.125 -0.578125q0.65625 -0.3125 1.4375 -0.40625q0.796875 -0.09375 1.796875 -0.09375q1.015625 0 1.828125 0.140625q0.828125 0.140625 1.375 0.578125q0.546875 0.4375 0.953125 0.828125q0.40625 0.375 0.671875 1.234375q0.265625 0.859375 0.40625 1.46875q0.15625 0.59375 0.21875 1.875q0.078125 1.265625 0.078125 2.03125l0 2.5l0.1875 2.59375l-9.796875 0.234375l0.203125 1.203125q0 6.140625 0.46875 7.109375q0.78125 1.578125 1.78125 1.8125q0.671875 0.203125 2.609375 0.203125q1.953125 0 4.640625 -0.625l0 2.4375zm-9.21875 -18.53125q0 0.875 0 2.59375l-0.1875 1.203125l6.8125 0l-0.234375 -1.25q0 -3.828125 -0.53125 -5.453125q-0.53125 -1.640625 -2.375 -1.640625q-1.84375 0 -2.625 0.984375q-0.765625 0.984375 -0.859375 3.5625zm24.72528 16.8125l0 -10.609375q0 -7.34375 -0.4375 -9.046875q-0.421875 -1.703125 -2.59375 -1.703125l-4.703125 1.671875l0.203125 1.203125l0 20.6875q-2.125 0 -2.484375 -0.28125q-0.359375 -0.296875 -0.359375 -1.921875l0 -23.578125q2.109375 0 2.46875 0.171875q0.375 0.171875 0.375 1.265625l4.3125 -1.765625q4.328125 0 5.1875 2.203125q0.859375 2.203125 0.859375 11.140625l0 12.765625q-2.109375 0 -2.46875 -0.28125q-0.359375 -0.296875 -0.359375 -1.921875zm7.9231567 -5.484375q-0.046875 -1.578125 -0.046875 -4.3125q0 -2.734375 0.015625 -3.78125q0.03125 -1.0625 0.078125 -2.53125q0.046875 -1.46875 0.15625 -2.203125q0.125 -0.75 0.34375 -1.734375q0.21875 -0.984375 0.546875 -1.453125q0.34375 -0.484375 0.8125 -1.0625q0.484375 -0.578125 1.109375 -0.765625q1.6875 -0.578125 3.453125 -0.578125l3.5625 1.34375l0 -10.375q2.1093597 0 2.4374847 0.296875q0.34375 0.28125 0.34375 1.921875l0 32.921875q-2.109375 0 -2.4531097 -0.3125q-0.328125 -0.3125 -0.328125 -2.234375l-3.796875 2.890625q-3.21875 0 -4.9375 -1.78125q-1.15625 -1.203125 -1.296875 -6.25zm2.9375 -11.5q-0.109375 1.71875 -0.140625 2.75q-0.015625 1.03125 -0.015625 5.625q0 4.578125 0.421875 6.25q1.015625 2.203125 3.078125 2.359375l3.9375 -2.171875l-0.1875 -1.1875l0 -15.5625l0.1875 -1.1875l-3.9375 -1.25q-1.78125 0 -2.453125 1.1875q-0.765625 1.453125 -0.890625 3.1875zm27.440903 18.703125q-3.703125 0.828125 -5.171875 0.828125q-1.453125 0 -2.25 -0.078125q-0.78125 -0.078125 -1.4375 -0.390625q-0.640625 -0.3125 -1.125 -0.515625q-0.484375 -0.21875 -0.875 -0.859375q-0.375 -0.65625 -0.625 -1.0625q-0.234375 -0.40625 -0.375 -1.40625q-0.140625 -1.015625 -0.234375 -1.640625q-0.09375 -0.625 -0.140625 -2.046875q-0.046875 -1.421875 -0.046875 -2.28125l0 -5.421875q0 -3.171875 0.140625 -4.109375q0.140625 -0.9375 0.28125 -1.984375q0.140625 -1.0625 0.375 -1.515625q0.25 -0.453125 0.625 -1.125q0.390625 -0.671875 0.875 -0.9375q0.484375 -0.265625 1.125 -0.578125q0.65625 -0.3125 1.4375 -0.40625q0.796875 -0.09375 1.796875 -0.09375q1.015625 0 1.828125 0.140625q0.828125 0.140625 1.375 0.578125q0.546875 0.4375 0.953125 0.828125q0.40625 0.375 0.671875 1.234375q0.265625 0.859375 0.40625 1.46875q0.15625 0.59375 0.21875 1.875q0.078125 1.265625 0.078125 2.03125l0 2.5l0.1875 2.59375l-9.796875 0.234375l0.203125 1.203125q0 6.140625 0.46875 7.109375q0.78125 1.578125 1.78125 1.8125q0.671875 0.203125 2.609375 0.203125q1.953125 0 4.640625 -0.625l0 2.4375zm-9.21875 -18.53125q0 0.875 0 2.59375l-0.1875 1.203125l6.8125 0l-0.234375 -1.25q0 -3.828125 -0.53125 -5.453125q-0.53125 -1.640625 -2.375 -1.640625q-1.84375 0 -2.625 0.984375q-0.765625 0.984375 -0.859375 3.5625zm14.350281 16.8125l0 -23.578125q2.109375 0 2.46875 0.171875q0.375 0.171875 0.375 1.265625l0 0.53125l3.828125 -2.296875q0.828125 0 2.40625 0.328125q0 1.6875 -0.3125 1.953125q-0.3125 0.265625 -2.09375 0.265625l-4.078125 2.25l0.25 1.203125l0 20.109375q-2.125 0 -2.484375 -0.28125q-0.359375 -0.296875 -0.359375 -1.921875zm24.724548 1.71875q-3.703125 0.828125 -5.171875 0.828125q-1.453125 0 -2.25 -0.078125q-0.78125 -0.078125 -1.4375 -0.390625q-0.640625 -0.3125 -1.125 -0.515625q-0.484375 -0.21875 -0.875 -0.859375q-0.375 -0.65625 -0.625 -1.0625q-0.234375 -0.40625 -0.375 -1.40625q-0.140625 -1.015625 -0.234375 -1.640625q-0.09375 -0.625 -0.140625 -2.046875q-0.046875 -1.421875 -0.046875 -2.28125l0 -5.421875q0 -3.171875 0.140625 -4.109375q0.140625 -0.9375 0.28125 -1.984375q0.140625 -1.0625 0.375 -1.515625q0.25 -0.453125 0.625 -1.125q0.390625 -0.671875 0.875 -0.9375q0.484375 -0.265625 1.125 -0.578125q0.65625 -0.3125 1.4375 -0.40625q0.796875 -0.09375 1.796875 -0.09375q1.015625 0 1.828125 0.140625q0.828125 0.140625 1.375 0.578125q0.546875 0.4375 0.953125 0.828125q0.40625 0.375 0.671875 1.234375q0.265625 0.859375 0.40625 1.46875q0.15625 0.59375 0.21875 1.875q0.078125 1.265625 0.078125 2.03125l0 2.5l0.1875 2.59375l-9.796875 0.234375l0.203125 1.203125q0 6.140625 0.46875 7.109375q0.78125 1.578125 1.78125 1.8125q0.671875 0.203125 2.609375 0.203125q1.953125 0 4.640625 -0.625l0 2.4375zm-9.21875 -18.53125q0 0.875 0 2.59375l-0.1875 1.203125l6.8125 0l-0.234375 -1.25q0 -3.828125 -0.53125 -5.453125q-0.53125 -1.640625 -2.375 -1.640625q-1.84375 0 -2.625 0.984375q-0.765625 0.984375 -0.859375 3.5625zm14.350281 16.8125l0 -23.578125q2.109375 0 2.46875 0.171875q0.375 0.171875 0.375 1.265625l0 0.53125l3.828125 -2.296875q0.828125 0 2.40625 0.328125q0 1.6875 -0.3125 1.953125q-0.3125 0.265625 -2.09375 0.265625l-4.078125 2.25l0.25 1.203125l0 20.109375q-2.125 0 -2.484375 -0.28125q-0.359375 -0.296875 -0.359375 -1.921875z" fill-rule="nonzero"/><path fill="#000000" fill-opacity="0.0" d="m358.05643 89.2684l0 0c0 -18.946213 15.358948 -34.30515 34.305145 -34.30515l357.81488 0c9.098328 0 17.823975 3.6142845 24.257446 10.047749c6.4334717 6.433464 10.0477295 15.159111 10.0477295 24.2574l0 137.21648c0 18.946213 -15.358948 34.30516 -34.305176 34.30516l-357.81488 0c-18.946198 0 -34.305145 -15.358948 -34.305145 -34.30516z" fill-rule="evenodd"/><path stroke="#595959" stroke-width="2.0" stroke-linejoin="round" stroke-linecap="butt" d="m358.05643 89.2684l0 0c0 -18.946213 15.358948 -34.30515 34.305145 -34.30515l357.81488 0c9.098328 0 17.823975 3.6142845 24.257446 10.047749c6.4334717 6.433464 10.0477295 15.159111 10.0477295 24.2574l0 137.21648c0 18.946213 -15.358948 34.30516 -34.305176 34.30516l-357.81488 0c-18.946198 0 -34.305145 -15.358948 -34.305145 -34.30516z" fill-rule="evenodd"/><path fill="#000000" d="m719.54736 184.55038l-2.15625 0q-1.78125 0 -2.09375 -0.28125q-0.3125 -0.28125 -0.3125 -1.96875l4.5625 -0.328125q2.640625 0 3.3125 -0.96875q0.328125 -0.578125 0.40625 -1.125q0.078125 -0.546875 0.078125 -1.515625q0 -0.953125 -0.078125 -1.390625q-0.078125 -0.4375 -0.40625 -0.859375q-0.578125 -0.8125 -3.171875 -0.8125q-5.65625 0 -6.640625 -0.53125q-0.984375 -0.53125 -0.984375 -3.21875q0 -2.6875 0.59375 -3.765625q0.59375 -1.078125 1.84375 -1.65625q-1.390625 -1.015625 -1.921875 -2.421875q-0.515625 -1.421875 -0.515625 -4.390625q0 -2.984375 0.0625 -4.125q0.078125 -1.15625 0.3125 -2.359375q0.25 -1.203125 0.703125 -1.828125q0.453125 -0.625 1.21875 -1.203125q1.390625 -0.953125 4.75 -0.953125l7.4375 0q0 1.765625 -0.3125 2.078125q-0.3125 0.3125 -2.125 0.3125q0.765625 1.453125 0.90625 2.703125q0.140625 1.234375 0.140625 5.03125q0 3.796875 -0.140625 4.96875q-0.140625 1.171875 -0.75 2.234375q-0.59375 1.046875 -1.828125 1.46875q-1.21875 0.40625 -2.84375 0.40625q-1.625 0 -2.296875 0.03125q-0.671875 0.015625 -1.203125 0.15625q-0.53125 0.140625 -0.78125 0.265625q-0.234375 0.109375 -0.375 0.546875q-0.140625 0.4375 -0.140625 0.71875l0 1.484375q0 0.96875 0.71875 1.15625q0.71875 0.1875 4.453125 0.1875q3.75 0 4.921875 0.96875q1.1875 0.953125 1.1875 4.625q0 3.671875 -1.203125 5.015625q-1.203125 1.34375 -5.328125 1.34375zm-4.65625 -26.53125q0 4.21875 0.78125 5.859375q0.796875 1.625 3.296875 1.625q2.5 0 3.015625 -1.203125q0.53125 -1.203125 0.53125 -5.609375q0 -4.421875 -0.375 -5.53125q-0.625 -1.765625 -3.21875 -1.765625q-2.59375 0 -3.3125 1.203125q-0.71875 1.1875 -0.71875 5.421875zm16.46344 24.328125l0 -33.171875q2.0625 0 2.421875 0.125q0.359375 0.125 0.359375 0.84375l3.84375 -1.296875q3.359375 0 4.9375 2.015625q1.296875 1.625 1.546875 6.375q0.09375 1.828125 0.09375 4.71875q0 2.875 -0.078125 4.53125q-0.0625 1.65625 -0.3125 3.3125q-0.234375 1.65625 -0.671875 2.546875q-0.421875 0.875 -1.15625 1.65625q-1.34375 1.296875 -4.546875 1.296875l-3.65625 -2.21875l0 11.46875q-2.0625 0 -2.421875 -0.28125q-0.359375 -0.28125 -0.359375 -1.921875zm6.328125 -9.59375q2.546875 0 3.296875 -2.234375q0.75 -2.234375 0.75 -8.1875q0 -5.953125 -0.78125 -8.4375q-0.765625 -2.5 -3.203125 -2.5l-3.75 1.1875l0.1875 1.203125l0 15.609375l-0.234375 1.1875l3.734375 2.171875zm11.911865 -10.8125l0 -12.765625q2.109375 0 2.46875 0.265625q0.359375 0.265625 0.359375 1.953125l0 10.453125q0 5.578125 0.3125 7.625q0.3125 2.03125 0.953125 2.65625q0.65625 0.625 1.765625 0.625l4.75 -2.21875l-0.234375 -1.1875l0 -20.171875q2.109375 0 2.46875 0.265625q0.359375 0.265625 0.359375 1.953125l0 23.5625q-2.109375 0 -2.46875 -0.234375q-0.359375 -0.25 -0.359375 -1.6875l-4.328125 2.265625q-3.03125 0 -4.75 -1.875q-1.109375 -1.25 -1.25 -6.34375q-0.046875 -1.578125 -0.046875 -5.140625z" fill-rule="nonzero"/><path fill="#eeeeee" d="m374.96982 115.08978l0 0c0 -15.038101 12.190796 -27.22889 27.228882 -27.22889l150.29813 0c7.2215576 0 14.147339 2.8687515 19.253723 7.9751587c5.1064453 5.106407 7.9751587 12.032181 7.9751587 19.25373l0 108.91229c0 15.038101 -12.190796 27.228897 -27.228882 27.228897l-150.29813 0l0 0c-15.038086 0 -27.228882 -12.190796 -27.228882 -27.228897z" fill-rule="evenodd"/><path stroke="#595959" stroke-width="3.0" stroke-linejoin="round" stroke-linecap="butt" d="m374.96982 115.08978l0 0c0 -15.038101 12.190796 -27.22889 27.228882 -27.22889l150.29813 0c7.2215576 0 14.147339 2.8687515 19.253723 7.9751587c5.1064453 5.106407 7.9751587 12.032181 7.9751587 19.25373l0 108.91229c0 15.038101 -12.190796 27.228897 -27.228882 27.228897l-150.29813 0l0 0c-15.038086 0 -27.228882 -12.190796 -27.228882 -27.228897z" fill-rule="evenodd"/><path fill="#000000" d="m415.9859 173.76656l0 -3.078125q0 -3.5 0.15625 -4.40625q0.171875 -0.921875 0.390625 -1.96875q0.21875 -1.0625 0.53125 -1.46875q0.3125 -0.40625 0.765625 -0.984375q0.453125 -0.578125 1.125 -0.765625q1.640625 -0.578125 3.3125 -0.578125l3.984375 0.625q0 2.109375 -1.734375 2.109375q-0.328125 0 -0.671875 -0.046875l-1.578125 -0.140625q-2.453125 0 -2.984375 2.046875q-0.515625 2.03125 -0.515625 7.03125q0 4.984375 0.046875 6.46875q0.046875 1.484375 0.375 3.140625q0.34375 1.65625 1.0625 2.171875q0.71875 0.5 2.015625 0.5l4.171875 -0.484375l0 2.203125l-4.171875 0.828125q-2.59375 0 -3.453125 -0.625q-0.859375 -0.625 -1.296875 -1.03125q-0.4375 -0.421875 -0.75 -1.46875q-0.3125 -1.0625 -0.453125 -1.78125q-0.140625 -0.71875 -0.234375 -2.34375q-0.09375 -2.796875 -0.09375 -5.953125zm25.055267 12.640625q-0.671875 0.21875 -1.515625 0.390625q-0.84375 0.171875 -2.015625 0.171875q-1.171875 0 -2.109375 -0.15625q-0.9375 -0.140625 -1.640625 -0.609375q-0.6875 -0.484375 -1.15625 -0.890625q-0.453125 -0.421875 -0.765625 -1.46875q-0.3125 -1.0625 -0.484375 -1.78125q-0.15625 -0.71875 -0.234375 -2.375q-0.0625 -1.65625 -0.09375 -2.703125q-0.015625 -1.0625 -0.015625 -3.359375q0 -2.3125 0.015625 -3.34375q0.03125 -1.03125 0.09375 -2.6875q0.078125 -1.65625 0.234375 -2.34375q0.171875 -0.703125 0.484375 -1.734375q0.3125 -1.03125 0.765625 -1.40625q0.46875 -0.390625 1.1875 -0.828125q1.09375 -0.765625 2.984375 -0.765625q1.90625 0 2.75 0.171875q0.84375 0.15625 1.515625 0.359375q0.671875 0.1875 1.140625 0.796875q0.484375 0.59375 0.8125 1.0q0.34375 0.40625 0.53125 1.4375q0.203125 1.03125 0.3125 1.6875q0.125 0.640625 0.1875 2.1875q0.078125 1.53125 0.078125 2.484375l0 2.96875q0 0 0 0.203125q0 0 0 2.921875q0 3.265625 -0.1875 4.296875q-0.1875 1.03125 -0.390625 2.09375q-0.1875 1.046875 -0.53125 1.46875q-0.328125 0.40625 -0.8125 1.0q-0.46875 0.59375 -1.140625 0.8125zm0.234375 -11.6875l0 -1.625q0 -6.296875 -0.53125 -7.921875q-0.765625 -2.0625 -3.171875 -2.109375q-1.953125 0 -2.625 1.0q-0.390625 0.671875 -0.640625 1.25q-0.234375 0.578125 -0.328125 2.015625q-0.140625 2.109375 -0.140625 4.078125q0 1.96875 0 3.96875q0 1.984375 0.046875 3.421875q0.046875 1.4375 0.40625 3.046875q0.359375 1.609375 1.125 2.09375q0.765625 0.484375 1.921875 0.484375q1.15625 0 1.78125 -0.21875q0.625 -0.21875 1.03125 -0.8125q0.40625 -0.609375 0.625 -1.203125q0.21875 -0.609375 0.3125 -1.90625q0.1875 -1.859375 0.1875 -5.5625zm28.702057 9.703125l0 -10.609375q0 0 0 -0.390625q0 -7.09375 -0.4375 -8.71875q-0.421875 -1.640625 -2.734375 -1.640625l-4.453125 1.484375l0.1875 1.203125l0 20.875q-2.0625 0 -2.421875 -0.28125q-0.359375 -0.296875 -0.359375 -1.921875l-0.046875 -10.609375q0 -0.203125 0 -1.328125q0 -1.125 0 -1.9375q0 -0.8125 -0.03125 -1.5625q-0.015625 -0.75 -0.09375 -1.984375q-0.078125 -1.25 -0.265625 -1.78125q-0.1875 -0.53125 -0.53125 -1.15625q-0.578125 -1.0 -2.203125 -1.0l-4.515625 1.671875l0.203125 1.203125l0 20.6875q-2.125 0 -2.484375 -0.28125q-0.359375 -0.296875 -0.359375 -1.921875l0 -23.578125q2.109375 0 2.46875 0.171875q0.375 0.171875 0.375 1.265625l4.3125 -1.765625q3.453125 0 5.09375 2.015625l5.125 -2.015625q4.375 0 5.203125 2.046875q0.84375 2.03125 0.84375 11.296875l0 12.765625q-2.15625 0 -2.515625 -0.28125q-0.359375 -0.296875 -0.359375 -1.921875zm28.944061 0l0 -10.609375q0 0 0 -0.390625q0 -7.09375 -0.4375 -8.71875q-0.421875 -1.640625 -2.734375 -1.640625l-4.453125 1.484375l0.1875 1.203125l0 20.875q-2.0625 0 -2.421875 -0.28125q-0.359375 -0.296875 -0.359375 -1.921875l-0.046875 -10.609375q0 -0.203125 0 -1.328125q0 -1.125 0 -1.9375q0 -0.8125 -0.03125 -1.5625q-0.015625 -0.75 -0.09375 -1.984375q-0.078125 -1.25 -0.265625 -1.78125q-0.1875 -0.53125 -0.53125 -1.15625q-0.578125 -1.0 -2.203125 -1.0l-4.515625 1.671875l0.203125 1.203125l0 20.6875q-2.125 0 -2.484375 -0.28125q-0.359375 -0.296875 -0.359375 -1.921875l0 -23.578125q2.109375 0 2.46875 0.171875q0.375 0.171875 0.375 1.265625l4.3125 -1.765625q3.453125 0 5.09375 2.015625l5.125 -2.015625q4.375 0 5.203125 2.046875q0.84375 2.03125 0.84375 11.296875l0 12.765625q-2.15625 0 -2.515625 -0.28125q-0.359375 -0.296875 -0.359375 -1.921875zm17.959686 1.984375q-0.671875 0.21875 -1.515625 0.390625q-0.84375 0.171875 -2.015625 0.171875q-1.171875 0 -2.109375 -0.15625q-0.9375 -0.140625 -1.640625 -0.609375q-0.6875 -0.484375 -1.15625 -0.890625q-0.453125 -0.421875 -0.765625 -1.46875q-0.3125 -1.0625 -0.484375 -1.78125q-0.15625 -0.71875 -0.234375 -2.375q-0.0625 -1.65625 -0.09375 -2.703125q-0.015625 -1.0625 -0.015625 -3.359375q0 -2.3125 0.015625 -3.34375q0.03125 -1.03125 0.09375 -2.6875q0.078125 -1.65625 0.234375 -2.34375q0.171875 -0.703125 0.484375 -1.734375q0.3125 -1.03125 0.765625 -1.40625q0.46875 -0.390625 1.1875 -0.828125q1.09375 -0.765625 2.984375 -0.765625q1.90625 0 2.75 0.171875q0.84375 0.15625 1.515625 0.359375q0.671875 0.1875 1.140625 0.796875q0.484375 0.59375 0.8125 1.0q0.34375 0.40625 0.53125 1.4375q0.203125 1.03125 0.3125 1.6875q0.125 0.640625 0.1875 2.1875q0.078125 1.53125 0.078125 2.484375l0 2.96875q0 0 0 0.203125q0 0 0 2.921875q0 3.265625 -0.1875 4.296875q-0.1875 1.03125 -0.390625 2.09375q-0.1875 1.046875 -0.53125 1.46875q-0.328125 0.40625 -0.8125 1.0q-0.46875 0.59375 -1.140625 0.8125zm0.234375 -11.6875l0 -1.625q0 -6.296875 -0.53125 -7.921875q-0.765625 -2.0625 -3.171875 -2.109375q-1.953125 0 -2.625 1.0q-0.390625 0.671875 -0.640625 1.25q-0.234375 0.578125 -0.328125 2.015625q-0.140625 2.109375 -0.140625 4.078125q0 1.96875 0 3.96875q0 1.984375 0.046875 3.421875q0.046875 1.4375 0.40625 3.046875q0.359375 1.609375 1.125 2.09375q0.765625 0.484375 1.921875 0.484375q1.15625 0 1.78125 -0.21875q0.625 -0.21875 1.03125 -0.8125q0.40625 -0.609375 0.625 -1.203125q0.21875 -0.609375 0.3125 -1.90625q0.1875 -1.859375 0.1875 -5.5625zm18.530151 9.703125l0 -10.609375q0 -7.34375 -0.4375 -9.046875q-0.421875 -1.703125 -2.59375 -1.703125l-4.703125 1.671875l0.203125 1.203125l0 20.6875q-2.125 0 -2.484375 -0.28125q-0.359375 -0.296875 -0.359375 -1.921875l0 -23.578125q2.109375 0 2.46875 0.171875q0.375 0.171875 0.375 1.265625l4.3125 -1.765625q4.328125 0 5.1875 2.203125q0.859375 2.203125 0.859375 11.140625l0 12.765625q-2.109375 0 -2.46875 -0.28125q-0.359375 -0.296875 -0.359375 -1.921875z" fill-rule="nonzero"/></g></svg>