<svg version="1.1" viewBox="0.0 0.0 960.0 540.0" fill="none" stroke="none" stroke-linecap="square" stroke-miterlimit="10" xmlns:xlink="http://www.w3.org/1999/xlink" xmlns="http://www.w3.org/2000/svg"><clipPath id="g3d4e840e61_4_0.0"><path d="m0 0l960.0 0l0 540.0l-960.0 0l0 -540.0z" clip-rule="nonzero"/></clipPath><g clip-path="url(#g3d4e840e61_4_0.0)"><path fill="#d0e0e3" d="m0 0l960.0 0l0 540.0l-960.0 0z" fill-rule="evenodd"/><path fill="#000000" fill-opacity="0.0" d="m30.202099 29.244095l893.19684 0l0 487.33862l-893.19684 0z" fill-rule="evenodd"/><path stroke="#595959" stroke-width="4.0" stroke-linejoin="round" stroke-linecap="butt" d="m30.202099 29.244095l893.19684 0l0 487.33862l-893.19684 0z" fill-rule="evenodd"/><path fill="#000000" fill-opacity="0.0" d="m62.98833 117.58505l0 0c0 -30.974953 25.110165 -56.08511 56.08511 -56.08511l726.9164 0c14.874695 0 29.140198 5.908947 39.658203 16.426952c10.518005 10.517998 16.42694 24.783463 16.42694 39.658157l0 224.33371c0 30.974945 -25.110168 56.085114 -56.085144 56.085114l-726.9164 0l0 0c-30.974945 0 -56.08511 -25.110168 -56.08511 -56.085114z" fill-rule="evenodd"/><path stroke="#595959" stroke-width="2.0" stroke-linejoin="round" stroke-linecap="butt" d="m62.98833 117.58505l0 0c0 -30.974953 25.110165 -56.08511 56.08511 -56.08511l726.9164 0c14.874695 0 29.140198 5.908947 39.658203 16.426952c10.518005 10.517998 16.42694 24.783463 16.42694 39.658157l0 224.33371c0 30.974945 -25.110168 56.085114 -56.085144 56.085114l-726.9164 0l0 0c-30.974945 0 -56.08511 -25.110168 -56.08511 -56.085114z" fill-rule="evenodd"/><path fill="#000000" d="m431.83606 124.920456q-0.4375 0.09375 -1.78125 0.390625q-1.34375 0.296875 -2.375 0.296875q-1.015625 0 -1.9375 -0.265625q-0.90625 -0.25 -1.578125 -0.625q-0.65625 -0.390625 -1.171875 -1.171875q-0.515625 -0.78125 -0.859375 -1.421875q-0.34375 -0.640625 -0.59375 -1.859375q-0.234375 -1.21875 -0.359375 -2.015625q-0.109375 -0.796875 -0.171875 -2.375q-0.0625 -1.59375 -0.0625 -2.46875l0 -5.15625q0 -3.046875 0.140625 -4.078125q0.140625 -1.046875 0.296875 -2.1875q0.171875 -1.140625 0.421875 -1.734375q0.265625 -0.609375 0.625 -1.40625q0.359375 -0.796875 0.859375 -1.21875q0.5 -0.421875 1.140625 -0.859375q1.203125 -0.71875 3.359375 -0.71875l4.0 0.796875q0 1.171875 -0.4375 1.453125q-0.4375 0.265625 -0.90625 0.265625q-0.453125 0 -0.65625 0l-2.0 -0.234375q-1.671875 0 -2.484375 1.0q-0.46875 0.515625 -0.796875 1.046875q-0.3125 0.515625 -0.5 1.5625q-0.171875 1.03125 -0.296875 1.78125q-0.125 0.734375 -0.1875 2.15625q-0.046875 1.40625 -0.046875 2.25l0 5.078125q0 3.0 0.171875 4.09375q0.1875 1.078125 0.359375 2.125q0.1875 1.03125 0.5 1.546875q0.328125 0.515625 0.796875 1.078125q0.8125 1.0 2.484375 1.0q0.921875 0 2.203125 -0.171875q1.28125 -0.1875 1.84375 -0.234375l0 2.28125zm12.829987 -1.4375l0 -8.84375q0 -5.109375 -0.40625 -7.03125q-0.390625 -1.921875 -2.109375 -1.921875l-3.921875 1.40625l0.15625 1.0l0 15.390625q0 1.359375 -0.296875 1.609375q-0.296875 0.234375 -2.0625 0.234375l0 -29.28125q1.71875 0 2.015625 0.25q0.3125 0.234375 0.3125 1.59375l0 7.15625l3.796875 -1.484375q3.40625 0 4.140625 2.203125q0.734375 2.203125 0.734375 8.921875l0 10.640625q-1.75 0 -2.0625 -0.234375q-0.296875 -0.25 -0.296875 -1.609375zm6.971863 0l0 -19.640625q1.75 0 2.046875 0.140625q0.3125 0.140625 0.3125 1.0625l0 0.4375l3.1875 -1.921875q0.6875 0 2.0 0.28125q0 1.40625 -0.265625 1.625q-0.25 0.21875 -1.734375 0.21875l-3.390625 1.875l0.203125 1.0l0 16.765625q-1.765625 0 -2.0625 -0.234375q-0.296875 -0.25 -0.296875 -1.609375zm18.713104 1.671875q-0.5625 0.171875 -1.265625 0.3125q-0.6875 0.140625 -1.671875 0.140625q-0.984375 0 -1.765625 -0.125q-0.78125 -0.109375 -1.359375 -0.515625q-0.578125 -0.40625 -0.96875 -0.734375q-0.375 -0.34375 -0.640625 -1.21875q-0.25 -0.890625 -0.390625 -1.484375q-0.140625 -0.609375 -0.203125 -1.984375q-0.046875 -1.375 -0.078125 -2.25q-0.015625 -0.890625 -0.015625 -2.8125q0 -1.921875 0.015625 -2.78125q0.03125 -0.859375 0.078125 -2.234375q0.0625 -1.375 0.203125 -1.953125q0.140625 -0.59375 0.390625 -1.453125q0.265625 -0.859375 0.640625 -1.171875q0.390625 -0.328125 0.984375 -0.6875q0.921875 -0.640625 2.5 -0.640625q1.59375 0 2.28125 0.140625q0.703125 0.140625 1.265625 0.3125q0.5625 0.15625 0.953125 0.65625q0.40625 0.5 0.6875 0.84375q0.28125 0.328125 0.4375 1.1875q0.15625 0.859375 0.25 1.40625q0.109375 0.53125 0.171875 1.8125q0.0625 1.28125 0.0625 2.09375l0 2.46875q0 0 0 0.15625q0 0 0 2.453125q0 2.71875 -0.171875 3.578125q-0.15625 0.859375 -0.3125 1.734375q-0.15625 0.875 -0.4375 1.21875q-0.28125 0.34375 -0.6875 0.84375q-0.390625 0.5 -0.953125 0.6875zm0.203125 -9.75l0 -1.359375q0 -5.234375 -0.4375 -6.59375q-0.640625 -1.71875 -2.640625 -1.765625q-1.640625 0 -2.203125 0.84375q-0.328125 0.5625 -0.53125 1.046875q-0.1875 0.46875 -0.265625 1.671875q-0.125 1.765625 -0.125 3.40625q0 1.625 0 3.296875q0 1.65625 0.03125 2.859375q0.046875 1.203125 0.34375 2.546875q0.3125 1.328125 0.9375 1.734375q0.640625 0.390625 1.59375 0.390625q0.96875 0 1.484375 -0.171875q0.53125 -0.1875 0.859375 -0.6875q0.34375 -0.5 0.515625 -1.0q0.1875 -0.5 0.28125 -1.578125q0.15625 -1.5625 0.15625 -4.640625zm23.913147 8.078125l0 -8.84375q0 0 0 -0.3125q0 -5.921875 -0.359375 -7.28125q-0.359375 -1.359375 -2.28125 -1.359375l-3.71875 1.234375l0.15625 1.0l0 17.40625q-1.71875 0 -2.015625 -0.234375q-0.296875 -0.25 -0.296875 -1.609375l-0.046875 -8.84375q0 -0.15625 0 -1.09375q0 -0.9375 0 -1.609375q0 -0.6875 -0.015625 -1.296875q-0.015625 -0.625 -0.078125 -1.671875q-0.0625 -1.046875 -0.21875 -1.484375q-0.15625 -0.4375 -0.4375 -0.953125q-0.484375 -0.84375 -1.84375 -0.84375l-3.765625 1.40625l0.171875 1.0l0 17.234375q-1.765625 0 -2.0625 -0.234375q-0.296875 -0.25 -0.296875 -1.609375l0 -19.640625q1.75 0 2.046875 0.140625q0.3125 0.140625 0.3125 1.0625l3.59375 -1.484375q2.875 0 4.234375 1.6875l4.28125 -1.6875q3.640625 0 4.34375 1.703125q0.703125 1.703125 0.703125 9.421875l0 10.640625q-1.796875 0 -2.109375 -0.234375q-0.296875 -0.25 -0.296875 -1.609375zm9.97934 -23.84375q-0.53125 0.53125 -1.296875 0.53125q-0.765625 0 -1.3125 -0.53125q-0.53125 -0.546875 -0.53125 -1.328125q0 -0.78125 0.53125 -1.28125q0.546875 -0.5 1.3125 -0.5q0.765625 0 1.296875 0.515625q0.546875 0.515625 0.546875 1.28125q0 0.765625 -0.546875 1.3125zm-2.453125 24.0l0 -19.796875q1.765625 0 2.0625 0.21875q0.296875 0.21875 0.296875 1.625l0 19.796875q-1.765625 0 -2.0625 -0.234375q-0.296875 -0.234375 -0.296875 -1.609375zm7.401245 -9.15625l0 -10.640625q1.75 0 2.046875 0.21875q0.3125 0.21875 0.3125 1.625l0 8.71875q0 4.640625 0.25003052 6.34375q0.265625 1.703125 0.796875 2.21875q0.546875 0.515625 1.46875 0.515625l3.96875 -1.84375l-0.203125 -1.0l0 -16.796875q1.75 0 2.046875 0.21875q0.3125 0.21875 0.3125 1.625l0 19.640625q-1.765625 0 -2.0625 -0.203125q-0.296875 -0.203125 -0.296875 -1.390625l-3.609375 1.875q-2.5156555 0 -3.9531555 -1.5625q-0.921875 -1.03125 -1.046875 -5.28125q-0.03125 -1.3125 -0.03125 -4.28125zm32.712494 9.0l0 -8.84375q0 0 0 -0.3125q0 -5.921875 -0.359375 -7.28125q-0.359375 -1.359375 -2.28125 -1.359375l-3.71875 1.234375l0.15625 1.0l0 17.40625q-1.71875 0 -2.015625 -0.234375q-0.296875 -0.25 -0.296875 -1.609375l-0.046875 -8.84375q0 -0.15625 0 -1.09375q0 -0.9375 0 -1.609375q0 -0.6875 -0.015625 -1.296875q-0.015625 -0.625 -0.078125 -1.671875q-0.0625 -1.046875 -0.21875 -1.484375q-0.15625 -0.4375 -0.4375 -0.953125q-0.484375 -0.84375 -1.84375 -0.84375l-3.765625 1.40625l0.171875 1.0l0 17.234375q-1.765625 0 -2.0625 -0.234375q-0.296875 -0.25 -0.296875 -1.609375l0 -19.640625q1.75 0 2.046875 0.140625q0.3125 0.140625 0.3125 1.0625l3.59375 -1.484375q2.875 0 4.234375 1.6875l4.28125 -1.6875q3.640625 0 4.34375 1.703125q0.703125 1.703125 0.703125 9.421875l0 10.640625q-1.796875 0 -2.109375 -0.234375q-0.296875 -0.25 -0.296875 -1.609375z" fill-rule="nonzero"/><path fill="#c9daf8" d="m558.2651 434.65118l0 0c0 -7.4973145 6.077759 -13.575073 13.575073 -13.575073l316.6609 0c3.6003418 0 7.0532227 1.4302368 9.59906 3.9760437c2.5457764 2.5458374 3.9760132 5.9986877 3.9760132 9.59903l0 54.298676c0 7.4973145 -6.077759 13.575073 -13.575073 13.575073l-316.6609 0c-7.4973145 0 -13.575073 -6.077759 -13.575073 -13.575073z" fill-rule="evenodd"/><path stroke="#595959" stroke-width="2.0" stroke-linejoin="round" stroke-linecap="butt" d="m558.2651 434.65118l0 0c0 -7.4973145 6.077759 -13.575073 13.575073 -13.575073l316.6609 0c3.6003418 0 7.0532227 1.4302368 9.59906 3.9760437c2.5457764 2.5458374 3.9760132 5.9986877 3.9760132 9.59903l0 54.298676c0 7.4973145 -6.077759 13.575073 -13.575073 13.575073l-316.6609 0c-7.4973145 0 -13.575073 -6.077759 -13.575073 -13.575073z" fill-rule="evenodd"/><path fill="#000000" d="m630.3938 482.35678l0 -27.640625q1.71875 0 2.015625 0.109375q0.296875 0.09375 0.296875 0.6875l3.203125 -1.078125q2.796875 0 4.125 1.6875q1.078125 1.359375 1.28125 5.3125q0.078125 1.53125 0.078125 3.9375q0 2.390625 -0.0625 3.765625q-0.0625 1.375 -0.265625 2.765625q-0.1875 1.375 -0.5625 2.125q-0.359375 0.734375 -0.953125 1.375q-1.125 1.078125 -3.796875 1.078125l-3.046875 -1.84375l0 9.5625q-1.71875 0 -2.015625 -0.25q-0.296875 -0.234375 -0.296875 -1.59375zm5.28125 -8.0q2.109375 0 2.734375 -1.859375q0.625 -1.859375 0.625 -6.8125q0 -4.96875 -0.640625 -7.046875q-0.640625 -2.078125 -2.6875 -2.078125l-3.109375 1.0l0.15625 1.0l0 13.0l-0.203125 1.0l3.125 1.796875zm10.309387 0.15625l0 -27.59375q1.765625 0 2.0625 0.25q0.296875 0.234375 0.296875 1.59375l0 27.59375q-1.75 0 -2.0625 -0.234375q-0.296875 -0.234375 -0.296875 -1.609375zm13.769348 -13.390625l0 -2.234375q0 -1.609375 -0.390625 -2.03125q-0.375 -0.421875 -1.8125 -0.421875l-2.0 0.40625q-0.40625 0.078125 -0.59375 0.078125q-1.40625 0 -1.40625 -1.796875l4.0 -0.6875q3.0 0 3.640625 0.8125q0.3125 0.390625 0.484375 0.671875q0.1875 0.28125 0.234375 1.0q0.125 1.15625 0.125 2.6875l0 16.59375q-1.796875 0 -2.125 -0.25q-0.3125 -0.265625 -0.3125 -1.75q-0.40625 0.234375 -1.125 0.875q-1.515625 1.40625 -2.5625 1.40625q-2.4375 0 -2.90625 -1.53125q-0.453125 -1.546875 -0.453125 -8.546875q0 -2.6875 2.3125 -3.5625q1.921875 -0.71875 4.890625 -0.71875l0.15625 0l-0.15625 -1.0zm-0.15625 3.234375q-2.328125 0 -3.515625 0.34375q-1.171875 0.34375 -1.171875 1.375q0 7.328125 0.328125 8.0q0.15625 0.28125 0.703125 0.28125q0.5625 0 1.21875 -0.3125q0.671875 -0.328125 1.40625 -0.859375q0.75 -0.546875 1.1875 -0.75l-0.15625 -1.0l0 -6.078125l0.15625 -1.0l-0.15625 0zm6.9143677 2.71875l0 -9.1875l0.15625 -1.0l-1.71875 0l0 -2.171875l1.71875 0l-0.15625 -1.390625l0 -1.765625q1.765625 0 2.0625 0.25q0.296875 0.234375 0.296875 1.59375l-0.15625 1.3125l3.671875 0q0 1.484375 -0.265625 1.828125q-0.25 0.34375 -1.65625 0.34375l-1.75 0l0.15625 1.0l0 9.1875q0 4.5625 0.234375 5.921875q0.25 1.359375 1.359375 1.359375l2.71875 0l0 1.84375l-2.75 0.203125q-2.765625 0 -3.34375 -1.703125q-0.578125 -1.703125 -0.578125 -7.625zm7.597473 -10.1875l0 -2.171875l2.15625 0l-0.1875 -1.203125l0 -0.4375q0 -3.359375 0.265625 -3.875q0.28125 -0.515625 0.59375 -0.953125q0.328125 -0.453125 0.8125 -0.625q0.484375 -0.1875 1.203125 -0.375q1.203125 -0.28125 3.84375 -0.28125l0 1.875q-3.125 0 -3.75 0.625q-0.609375 0.609375 -0.609375 3.609375l0 0.4375l-0.203125 1.203125l3.59375 0l0 2.171875l-3.640625 0l0.203125 1.1875l0 23.84375q-0.046875 1.71875 -0.328125 2.0q-0.265625 0.28125 -2.03125 0.28125l0.046875 -26.125l0.1875 -1.1875l-2.15625 0zm18.880615 19.140625q-0.5625 0.171875 -1.265625 0.3125q-0.6875 0.140625 -1.671875 0.140625q-0.984375 0 -1.765625 -0.125q-0.78125 -0.109375 -1.359375 -0.515625q-0.578125 -0.40625 -0.96875 -0.734375q-0.375 -0.34375 -0.640625 -1.21875q-0.25 -0.890625 -0.390625 -1.484375q-0.140625 -0.609375 -0.203125 -1.984375q-0.046875 -1.375 -0.078125 -2.25q-0.015625 -0.890625 -0.015625 -2.8125q0 -1.921875 0.015625 -2.78125q0.03125 -0.859375 0.078125 -2.234375q0.0625 -1.375 0.203125 -1.953125q0.140625 -0.59375 0.390625 -1.453125q0.265625 -0.859375 0.640625 -1.171875q0.390625 -0.328125 0.984375 -0.6875q0.921875 -0.640625 2.5 -0.640625q1.59375 0 2.28125 0.140625q0.703125 0.140625 1.265625 0.3125q0.5625 0.15625 0.953125 0.65625q0.40625 0.5 0.6875 0.84375q0.28125 0.328125 0.4375 1.1875q0.15625 0.859375 0.25 1.40625q0.109375 0.53125 0.171875 1.8125q0.0625 1.28125 0.0625 2.09375l0 2.46875q0 0 0 0.15625q0 0 0 2.453125q0 2.71875 -0.171875 3.578125q-0.15625 0.859375 -0.3125 1.734375q-0.15625 0.875 -0.4375 1.21875q-0.28125 0.34375 -0.6875 0.84375q-0.390625 0.5 -0.953125 0.6875zm0.203125 -9.75l0 -1.359375q0 -5.234375 -0.4375 -6.59375q-0.640625 -1.71875 -2.640625 -1.765625q-1.640625 0 -2.203125 0.84375q-0.328125 0.5625 -0.53125 1.046875q-0.1875 0.46875 -0.265625 1.671875q-0.125 1.765625 -0.125 3.40625q0 1.625 0 3.296875q0 1.65625 0.03125 2.859375q0.046875 1.203125 0.34375 2.546875q0.3125 1.328125 0.9375 1.734375q0.640625 0.390625 1.59375 0.390625q0.96875 0 1.484375 -0.171875q0.53125 -0.1875 0.859375 -0.6875q0.34375 -0.5 0.515625 -1.0q0.1875 -0.5 0.28125 -1.578125q0.15625 -1.5625 0.15625 -4.640625zm6.803772 8.078125l0 -19.640625q1.75 0 2.046875 0.140625q0.3125 0.140625 0.3125 1.0625l0 0.4375l3.1875 -1.921875q0.6875 0 2.0 0.28125q0 1.40625 -0.265625 1.625q-0.25 0.21875 -1.734375 0.21875l-3.390625 1.875l0.203125 1.0l0 16.765625q-1.765625 0 -2.0625 -0.234375q-0.296875 -0.25 -0.296875 -1.609375zm27.869385 0l0 -8.84375q0 0 0 -0.3125q0 -5.921875 -0.359375 -7.28125q-0.359375 -1.359375 -2.28125 -1.359375l-3.71875 1.234375l0.15625 1.0l0 17.40625q-1.71875 0 -2.015625 -0.234375q-0.296875 -0.25 -0.296875 -1.609375l-0.046875 -8.84375q0 -0.15625 0 -1.09375q0 -0.9375 0 -1.609375q0 -0.6875 -0.015625 -1.296875q-0.015625 -0.625 -0.078125 -1.671875q-0.0625 -1.046875 -0.21875 -1.484375q-0.15625 -0.4375 -0.4375 -0.953125q-0.484375 -0.84375 -1.84375 -0.84375l-3.765625 1.40625l0.171875 1.0l0 17.234375q-1.765625 0 -2.0625 -0.234375q-0.296875 -0.25 -0.296875 -1.609375l0 -19.640625q1.75 0 2.046875 0.140625q0.3125 0.140625 0.3125 1.0625l3.59375 -1.484375q2.875 0 4.234375 1.6875l4.28125 -1.6875q3.640625 0 4.34375 1.703125q0.703125 1.703125 0.703125 9.421875l0 10.640625q-1.796875 0 -2.109375 -0.234375q-0.296875 -0.25 -0.296875 -1.609375zm26.682434 1.890625l-19.671875 0l0 -2.046875l19.671875 0l0 2.046875zm21.95752 -1.890625l0 -8.84375q0 0 0 -0.3125q0 -5.921875 -0.359375 -7.28125q-0.359375 -1.359375 -2.28125 -1.359375l-3.71875 1.234375l0.15625 1.0l0 17.40625q-1.71875 0 -2.015625 -0.234375q-0.296875 -0.25 -0.296875 -1.609375l-0.046875 -8.84375q0 -0.15625 0 -1.09375q0 -0.9375 0 -1.609375q0 -0.6875 -0.015625 -1.296875q-0.015625 -0.625 -0.078125 -1.671875q-0.0625 -1.046875 -0.21875 -1.484375q-0.15625 -0.4375 -0.4375 -0.953125q-0.484375 -0.84375 -1.84375 -0.84375l-3.765625 1.40625l0.171875 1.0l0 17.234375q-1.765625 0 -2.0625 -0.234375q-0.296875 -0.25 -0.296875 -1.609375l0 -19.640625q1.75 0 2.046875 0.140625q0.3125 0.140625 0.3125 1.0625l3.59375 -1.484375q2.875 0 4.234375 1.6875l4.28125 -1.6875q3.640625 0 4.34375 1.703125q0.703125 1.703125 0.703125 9.421875l0 10.640625q-1.796875 0 -2.109375 -0.234375q-0.296875 -0.25 -0.296875 -1.609375zm16.838684 1.4375q-3.078125 0.6875 -4.296875 0.6875q-1.21875 0 -1.875 -0.0625q-0.65625 -0.0625 -1.203125 -0.3125q-0.546875 -0.265625 -0.953125 -0.4375q-0.390625 -0.1875 -0.71875 -0.71875q-0.3125 -0.546875 -0.515625 -0.890625q-0.1875 -0.34375 -0.3125 -1.171875q-0.125 -0.84375 -0.203125 -1.359375q-0.078125 -0.53125 -0.125 -1.703125q-0.03125 -1.1875 -0.03125 -1.90625l0 -4.515625q0 -2.640625 0.109375 -3.421875q0.125 -0.78125 0.25 -1.65625q0.125 -0.890625 0.3125 -1.265625q0.203125 -0.375 0.515625 -0.9375q0.328125 -0.5625 0.71875 -0.78125q0.40625 -0.21875 0.953125 -0.46875q0.546875 -0.265625 1.203125 -0.34375q0.65625 -0.09375 1.5 -0.09375q0.84375 0 1.515625 0.125q0.6875 0.125 1.140625 0.484375q0.46875 0.359375 0.796875 0.6875q0.34375 0.3125 0.5625 1.03125q0.21875 0.71875 0.34375 1.21875q0.125 0.5 0.171875 1.5625q0.0625 1.0625 0.0625 1.703125l0 2.078125l0.15625 2.15625l-8.15625 0.203125l0.15625 1.0q0 5.109375 0.40625 5.921875q0.640625 1.3125 1.484375 1.515625q0.5625 0.15625 2.171875 0.15625q1.625 0 3.859375 -0.515625l0 2.03125zm-7.671875 -15.4375q0 0.71875 0 2.15625l-0.15625 1.0l5.671875 0l-0.203125 -1.03125q0 -3.203125 -0.4375 -4.5625q-0.4375 -1.359375 -1.984375 -1.359375q-1.53125 0 -2.171875 0.828125q-0.640625 0.8125 -0.71875 2.96875zm11.60437 9.4375q-0.046875 -1.3125 -0.046875 -3.59375q0 -2.28125 0.015625 -3.15625q0.03125 -0.890625 0.0625 -2.109375q0.046875 -1.21875 0.140625 -1.828125q0.09375 -0.625 0.28125 -1.4375q0.1875 -0.828125 0.453125 -1.21875q0.28125 -0.40625 0.6875 -0.890625q0.40625 -0.484375 0.921875 -0.640625q1.390625 -0.484375 2.875 -0.484375l2.96875 1.125l0 -8.640625q1.75 0 2.03125 0.25q0.28125 0.234375 0.28125 1.59375l0 27.4375q-1.765625 0 -2.046875 -0.25q-0.265625 -0.265625 -0.265625 -1.875l-3.171875 2.40625q-2.671875 0 -4.109375 -1.484375q-0.96875 -1.0 -1.078125 -5.203125zm2.453125 -9.59375q-0.09375 1.4375 -0.125 2.296875q-0.015625 0.859375 -0.015625 4.6875q0 3.8125 0.359375 5.21875q0.84375 1.84375 2.5625 1.953125l3.28125 -1.796875l-0.15625 -1.0l0 -12.953125l0.15625 -1.0l-3.28125 -1.046875q-1.484375 0 -2.046875 1.0q-0.640625 1.203125 -0.734375 2.640625zm15.994995 -9.6875q-0.53125 0.53125 -1.296875 0.53125q-0.765625 0 -1.3125 -0.53125q-0.53125 -0.546875 -0.53125 -1.328125q0 -0.78125 0.53125 -1.28125q0.546875 -0.5 1.3125 -0.5q0.765625 0 1.296875 0.515625q0.546875 0.515625 0.546875 1.28125q0 0.765625 -0.546875 1.3125zm-2.453125 24.0l0 -19.796875q1.765625 0 2.0625 0.21875q0.296875 0.21875 0.296875 1.625l0 19.796875q-1.765625 0 -2.0625 -0.234375q-0.296875 -0.234375 -0.296875 -1.609375zm14.401245 -13.390625l0 -2.234375q0 -1.609375 -0.390625 -2.03125q-0.375 -0.421875 -1.8125 -0.421875l-2.0 0.40625q-0.40625 0.078125 -0.59375 0.078125q-1.40625 0 -1.40625 -1.796875l4.0 -0.6875q3.0 0 3.640625 0.8125q0.3125 0.390625 0.484375 0.671875q0.1875 0.28125 0.234375 1.0q0.125 1.15625 0.125 2.6875l0 16.59375q-1.796875 0 -2.125 -0.25q-0.3125 -0.265625 -0.3125 -1.75q-0.40625 0.234375 -1.125 0.875q-1.515625 1.40625 -2.5625 1.40625q-2.4375 0 -2.90625 -1.53125q-0.453125 -1.546875 -0.453125 -8.546875q0 -2.6875 2.3125 -3.5625q1.921875 -0.71875 4.890625 -0.71875l0.15625 0l-0.15625 -1.0zm-0.15625 3.234375q-2.328125 0 -3.515625 0.34375q-1.171875 0.34375 -1.171875 1.375q0 7.328125 0.328125 8.0q0.15625 0.28125 0.703125 0.28125q0.5625 0 1.21875 -0.3125q0.671875 -0.328125 1.40625 -0.859375q0.75 -0.546875 1.1875 -0.75l-0.15625 -1.0l0 -6.078125l0.15625 -1.0l-0.15625 0z" fill-rule="nonzero"/><path fill="#ea9999" d="m681.1522 290.4567l0 0c0 -54.289154 45.272156 -98.29921 101.1181 -98.29921l0 0c26.818176 0 52.537964 10.356491 71.50134 28.791168c18.963318 18.434677 29.61676 43.437454 29.61676 69.50804l0 0c0 54.289154 -45.272095 98.299225 -101.1181 98.299225l0 0c-55.845947 0 -101.1181 -44.01007 -101.1181 -98.299225z" fill-rule="evenodd"/><path stroke="#595959" stroke-width="1.0" stroke-linejoin="round" stroke-linecap="butt" d="m681.1522 290.4567l0 0c0 -54.289154 45.272156 -98.29921 101.1181 -98.29921l0 0c26.818176 0 52.537964 10.356491 71.50134 28.791168c18.963318 18.434677 29.61676 43.437454 29.61676 69.50804l0 0c0 54.289154 -45.272095 98.299225 -101.1181 98.299225l0 0c-55.845947 0 -101.1181 -44.01007 -101.1181 -98.299225z" fill-rule="evenodd"/><path fill="#000000" d="m762.0209 307.53668l-0.203125 0q-2.0625 0 -2.40625 -0.28125q-0.328125 -0.296875 -0.375 -1.921875l0.1875 -25.546875l-0.515625 0l-0.203125 0.875l-4.84375 10.21875l-1.15625 2.203125l-1.921875 0l-1.1875 -2.15625l-4.953125 -10.265625l-0.140625 -0.875l-0.484375 0l0.15625 25.546875q0 1.625 -0.34375 1.921875q-0.34375 0.28125 -2.40625 0.28125l-0.1875 0l0 -34.5625l0.234375 0q2.078125 0 2.53125 0.296875q0.453125 0.28125 1.265625 1.90625l6.09375 13.15625l0.71875 0l7.15625 -15.359375l0.234375 0q2.078125 0 2.40625 0.296875q0.34375 0.28125 0.34375 1.90625l0 32.359375zm18.328918 -0.484375q-3.703125 0.828125 -5.171875 0.828125q-1.453125 0 -2.25 -0.078125q-0.78125 -0.078125 -1.4375 -0.390625q-0.640625 -0.3125 -1.125 -0.515625q-0.484375 -0.21875 -0.875 -0.859375q-0.375 -0.65625 -0.625 -1.0625q-0.234375 -0.40625 -0.375 -1.40625q-0.140625 -1.015625 -0.234375 -1.640625q-0.09375 -0.625 -0.140625 -2.046875q-0.046875 -1.421875 -0.046875 -2.28125l0 -5.421875q0 -3.171875 0.140625 -4.109375q0.140625 -0.9375 0.28125 -1.984375q0.140625 -1.0625 0.375 -1.515625q0.25 -0.453125 0.625 -1.125q0.390625 -0.671875 0.875 -0.9375q0.484375 -0.265625 1.125 -0.578125q0.65625 -0.3125 1.4375 -0.40625q0.796875 -0.09375 1.796875 -0.09375q1.015625 0 1.828125 0.140625q0.828125 0.140625 1.375 0.578125q0.546875 0.4375 0.953125 0.828125q0.40625 0.375 0.671875 1.234375q0.265625 0.859375 0.40625 1.46875q0.15625 0.59375 0.21875 1.875q0.078125 1.265625 0.078125 2.03125l0 2.5l0.1875 2.59375l-9.796875 0.234375l0.203125 1.203125q0 6.140625 0.46875 7.109375q0.78125 1.578125 1.78125 1.8125q0.671875 0.203125 2.609375 0.203125q1.953125 0 4.640625 -0.625l0 2.4375zm-9.21875 -18.53125q0 0.875 0 2.59375l-0.1875 1.203125l6.8125 0l-0.234375 -1.25q0 -3.828125 -0.53125 -5.453125q-0.53125 -1.640625 -2.375 -1.640625q-1.84375 0 -2.625 0.984375q-0.765625 0.984375 -0.859375 3.5625zm13.928406 11.328125q-0.046875 -1.578125 -0.046875 -4.3125q0 -2.734375 0.015625 -3.78125q0.03125 -1.0625 0.078125 -2.53125q0.046875 -1.46875 0.15625 -2.203125q0.125 -0.75 0.34375 -1.734375q0.21875 -0.984375 0.546875 -1.453125q0.34375 -0.484375 0.8125 -1.0625q0.484375 -0.578125 1.109375 -0.765625q1.6875 -0.578125 3.453125 -0.578125l3.5625 1.34375l0 -10.375q2.109375 0 2.4375 0.296875q0.34375 0.28125 0.34375 1.921875l0 32.921875q-2.109375 0 -2.453125 -0.3125q-0.328125 -0.3125 -0.328125 -2.234375l-3.796875 2.890625q-3.21875 0 -4.9375 -1.78125q-1.15625 -1.203125 -1.296875 -6.25zm2.9375 -11.5q-0.109375 1.71875 -0.140625 2.75q-0.015625 1.03125 -0.015625 5.625q0 4.578125 0.421875 6.25q1.015625 2.203125 3.078125 2.359375l3.9375 -2.171875l-0.1875 -1.1875l0 -15.5625l0.1875 -1.1875l-3.9375 -1.25q-1.78125 0 -2.453125 1.1875q-0.765625 1.453125 -0.890625 3.1875zm19.206543 -11.640625q-0.640625 0.640625 -1.5625 0.640625q-0.90625 0 -1.5625 -0.640625q-0.640625 -0.65625 -0.640625 -1.59375q0 -0.9375 0.640625 -1.53125q0.65625 -0.609375 1.5625 -0.609375q0.921875 0 1.5625 0.625q0.65625 0.625 0.65625 1.546875q0 0.90625 -0.65625 1.5625zm-2.953125 28.8125l0 -23.765625q2.109375 0 2.46875 0.265625q0.375 0.265625 0.375 1.953125l0 23.75q-2.125 0 -2.484375 -0.28125q-0.359375 -0.296875 -0.359375 -1.921875zm17.290894 -16.078125l0 -2.6875q0 -1.921875 -0.46875 -2.421875q-0.453125 -0.515625 -2.171875 -0.515625l-2.40625 0.484375q-0.484375 0.09375 -0.71875 0.09375q-1.6875 0 -1.6875 -2.15625l4.8125 -0.8125q3.59375 0 4.359375 0.953125q0.390625 0.484375 0.59375 0.828125q0.21875 0.328125 0.265625 1.1875q0.15625 1.390625 0.15625 3.21875l0 19.921875q-2.171875 0 -2.5625 -0.3125q-0.375 -0.3125 -0.375 -2.09375q-0.46875 0.296875 -1.34375 1.0625q-1.8125 1.6875 -3.0625 1.6875q-2.9375 0 -3.484375 -1.84375q-0.546875 -1.859375 -0.546875 -10.265625q0 -3.203125 2.78125 -4.265625q2.296875 -0.859375 5.859375 -0.859375l0.1875 0l-0.1875 -1.203125zm-0.203125 3.890625q-2.78125 0 -4.203125 0.40625q-1.40625 0.40625 -1.40625 1.65625q0 8.78125 0.375 9.59375q0.203125 0.34375 0.875 0.34375q0.671875 0 1.453125 -0.375q0.796875 -0.390625 1.6875 -1.03125q0.890625 -0.65625 1.421875 -0.90625l-0.203125 -1.203125l0 -7.296875l0.203125 -1.1875l-0.203125 0z" fill-rule="nonzero"/><path fill="#f9cb9c" d="m582.6903 143.71654l0 0c0 -40.721214 34.14618 -73.732285 76.2677 -73.732285l0 0c20.227478 0 39.626465 7.768196 53.929443 21.595688c14.3029175 13.827484 22.338257 32.581573 22.338257 52.136597l0 0c0 40.721207 -34.14618 73.732285 -76.2677 73.732285l0 0c-42.12152 0 -76.2677 -33.011078 -76.2677 -73.732285z" fill-rule="evenodd"/><path stroke="#595959" stroke-width="1.0" stroke-linejoin="round" stroke-linecap="butt" d="m582.6903 143.71654l0 0c0 -40.721214 34.14618 -73.732285 76.2677 -73.732285l0 0c20.227478 0 39.626465 7.768196 53.929443 21.595688c14.3029175 13.827484 22.338257 32.581573 22.338257 52.136597l0 0c0 40.721207 -34.14618 73.732285 -76.2677 73.732285l0 0c-42.12152 0 -76.2677 -33.011078 -76.2677 -73.732285z" fill-rule="evenodd"/><path fill="#000000" d="m632.26715 155.12404q-0.34375 0.0625 -1.421875 0.296875q-1.078125 0.234375 -1.890625 0.234375q-0.8125 0 -1.546875 -0.203125q-0.734375 -0.203125 -1.265625 -0.5q-0.53125 -0.3125 -0.953125 -0.9375q-0.40625 -0.625 -0.6875 -1.140625q-0.265625 -0.515625 -0.453125 -1.484375q-0.1875 -0.984375 -0.296875 -1.609375q-0.09375 -0.640625 -0.140625 -1.90625q-0.046875 -1.265625 -0.046875 -1.96875l0 -4.125q0 -2.4375 0.109375 -3.265625q0.109375 -0.84375 0.234375 -1.75q0.140625 -0.90625 0.34375 -1.390625q0.203125 -0.484375 0.484375 -1.125q0.296875 -0.640625 0.703125 -0.96875q0.40625 -0.34375 0.90625 -0.6875q0.96875 -0.578125 2.6875 -0.578125l3.203125 0.640625q0 0.921875 -0.359375 1.15625q-0.34375 0.21875 -0.71875 0.21875q-0.359375 0 -0.515625 0l-1.609375 -0.1875q-1.34375 0 -1.984375 0.796875q-0.375 0.40625 -0.640625 0.828125q-0.25 0.421875 -0.390625 1.25q-0.140625 0.828125 -0.25 1.421875q-0.09375 0.59375 -0.140625 1.734375q-0.046875 1.125 -0.046875 1.796875l0 4.0625q0 2.40625 0.140625 3.28125q0.15625 0.859375 0.296875 1.6875q0.140625 0.828125 0.390625 1.25q0.265625 0.40625 0.640625 0.859375q0.640625 0.796875 1.984375 0.796875q0.734375 0 1.765625 -0.140625q1.03125 -0.140625 1.46875 -0.171875l0 1.828125zm9.564026 0.171875q-0.4375 0.140625 -1.0 0.25q-0.5625 0.109375 -1.34375 0.109375q-0.78125 0 -1.40625 -0.09375q-0.625 -0.09375 -1.09375 -0.40625q-0.46875 -0.328125 -0.765625 -0.59375q-0.296875 -0.28125 -0.515625 -0.984375q-0.203125 -0.703125 -0.3125 -1.171875q-0.109375 -0.484375 -0.171875 -1.59375q-0.046875 -1.109375 -0.0625 -1.8125q-0.015625 -0.703125 -0.015625 -2.234375q0 -1.53125 0.015625 -2.21875q0.015625 -0.6875 0.0625 -1.796875q0.0625 -1.109375 0.171875 -1.5625q0.109375 -0.46875 0.3125 -1.15625q0.21875 -0.6875 0.515625 -0.9375q0.296875 -0.265625 0.78125 -0.546875q0.734375 -0.515625 2.0 -0.515625q1.265625 0 1.828125 0.109375q0.5625 0.109375 1.0 0.25q0.453125 0.125 0.765625 0.53125q0.328125 0.390625 0.546875 0.671875q0.234375 0.265625 0.359375 0.953125q0.125 0.6875 0.203125 1.125q0.078125 0.421875 0.125 1.453125q0.0625 1.015625 0.0625 1.65625l0 1.984375q0 0 0 0.125q0 0 0 1.953125q0 2.171875 -0.140625 2.859375q-0.125 0.6875 -0.25 1.40625q-0.125 0.703125 -0.359375 0.96875q-0.21875 0.265625 -0.546875 0.671875q-0.3125 0.40625 -0.765625 0.546875zm0.171875 -7.796875l0 -1.09375q0 -4.1875 -0.359375 -5.265625q-0.515625 -1.390625 -2.109375 -1.421875q-1.3125 0 -1.765625 0.671875q-0.25 0.453125 -0.421875 0.84375q-0.15625 0.375 -0.21875 1.34375q-0.09375 1.40625 -0.09375 2.71875q0 1.3125 0 2.640625q0 1.328125 0.03125 2.296875q0.03125 0.953125 0.265625 2.03125q0.25 1.0625 0.765625 1.390625q0.515625 0.3125 1.28125 0.3125q0.765625 0 1.171875 -0.140625q0.421875 -0.15625 0.6875 -0.546875q0.28125 -0.40625 0.421875 -0.796875q0.140625 -0.40625 0.203125 -1.265625q0.140625 -1.25 0.140625 -3.71875zm12.343018 6.46875l0 -7.078125q0 -4.890625 -0.296875 -6.03125q-0.28125 -1.140625 -1.71875 -1.140625l-3.125 1.125l0.125 0.796875l0 13.796875q-1.40625 0 -1.65625 -0.1875q-0.234375 -0.203125 -0.234375 -1.28125l0 -15.71875q1.40625 0 1.640625 0.125q0.25 0.109375 0.25 0.84375l2.875 -1.1875q2.875 0 3.453125 1.46875q0.578125 1.46875 0.578125 7.421875l0 8.515625q-1.40625 0 -1.65625 -0.1875q-0.234375 -0.203125 -0.234375 -1.28125zm5.4800415 -5.828125l0 -7.359375l0.125 -0.796875l-1.375 0l0 -1.734375l1.375 0l-0.125 -1.109375l0 -1.421875q1.40625 0 1.640625 0.203125q0.25 0.1875 0.25 1.28125l-0.140625 1.046875l2.953125 0q0 1.1875 -0.21875 1.46875q-0.203125 0.265625 -1.328125 0.265625l-1.40625 0l0.140625 0.796875l0 7.359375q0 3.65625 0.1875 4.75q0.1875 1.078125 1.078125 1.078125l2.1875 0l0 1.46875l-2.21875 0.15625q-2.203125 0 -2.671875 -1.359375q-0.453125 -1.359375 -0.453125 -6.09375zm15.296753 6.984375q-2.46875 0.53125 -3.453125 0.53125q-0.96875 0 -1.5 -0.046875q-0.53125 -0.046875 -0.96875 -0.25q-0.421875 -0.203125 -0.75 -0.34375q-0.3125 -0.15625 -0.578125 -0.578125q-0.25 -0.4375 -0.40625 -0.703125q-0.15625 -0.28125 -0.25 -0.953125q-0.09375 -0.671875 -0.171875 -1.078125q-0.0625 -0.421875 -0.09375 -1.359375q-0.03125 -0.953125 -0.03125 -1.53125l0 -3.609375q0 -2.125 0.09375 -2.734375q0.109375 -0.625 0.203125 -1.328125q0.09375 -0.71875 0.25 -1.015625q0.15625 -0.296875 0.40625 -0.75q0.265625 -0.453125 0.578125 -0.625q0.328125 -0.171875 0.75 -0.375q0.4375 -0.21875 0.96875 -0.28125q0.53125 -0.0625 1.203125 -0.0625q0.671875 0 1.21875 0.09375q0.546875 0.09375 0.90625 0.390625q0.375 0.28125 0.640625 0.546875q0.28125 0.25 0.453125 0.828125q0.171875 0.578125 0.265625 0.984375q0.09375 0.390625 0.140625 1.234375q0.0625 0.84375 0.0625 1.359375l0 1.671875l0.125 1.71875l-6.53125 0.15625l0.125 0.8125q0 4.09375 0.328125 4.734375q0.5 1.046875 1.171875 1.21875q0.453125 0.125 1.75 0.125q1.296875 0 3.09375 -0.421875l0 1.640625zm-6.15625 -12.359375q0 0.578125 0 1.734375l-0.125 0.796875l4.546875 0l-0.15625 -0.828125q0 -2.5625 -0.359375 -3.65625q-0.34375 -1.09375 -1.578125 -1.09375q-1.234375 0 -1.75 0.65625q-0.5 0.65625 -0.578125 2.390625zm16.48352 11.203125l0 -7.078125q0 -4.890625 -0.296875 -6.03125q-0.28125 -1.140625 -1.71875 -1.140625l-3.125 1.125l0.125 0.796875l0 13.796875q-1.40625 0 -1.65625 -0.1875q-0.234375 -0.203125 -0.234375 -1.28125l0 -15.71875q1.40625 0 1.640625 0.125q0.25 0.109375 0.25 0.84375l2.875 -1.1875q2.875 0 3.453125 1.46875q0.578125 1.46875 0.578125 7.421875l0 8.515625q-1.40625 0 -1.65625 -0.1875q-0.234375 -0.203125 -0.234375 -1.28125zm5.4800415 -5.828125l0 -7.359375l0.125 -0.796875l-1.375 0l0 -1.734375l1.375 0l-0.125 -1.109375l0 -1.421875q1.40625 0 1.640625 0.203125q0.25 0.1875 0.25 1.28125l-0.140625 1.046875l2.953125 0q0 1.1875 -0.21875 1.46875q-0.203125 0.265625 -1.328125 0.265625l-1.40625 0l0.140625 0.796875l0 7.359375q0 3.65625 0.1875 4.75q0.1875 1.078125 1.078125 1.078125l2.1875 0l0 1.46875l-2.21875 0.15625q-2.203125 0 -2.671875 -1.359375q-0.453125 -1.359375 -0.453125 -6.09375z" fill-rule="nonzero"/><path fill="#4a86e8" d="m98.51706 113.35433l0 0c0 -16.907745 14.369194 -30.614174 32.094482 -30.614174l0 0c8.511993 0 16.675354 3.2254105 22.694244 8.966682c6.018875 5.741272 9.400253 13.528107 9.400253 21.647491l0 0c0 16.907738 -14.369202 30.614174 -32.094498 30.614174l0 0c-17.725288 0 -32.094482 -13.706436 -32.094482 -30.614174z" fill-rule="evenodd"/><path stroke="#595959" stroke-width="1.0" stroke-linejoin="round" stroke-linecap="butt" d="m98.51706 113.35433l0 0c0 -16.907745 14.369194 -30.614174 32.094482 -30.614174l0 0c8.511993 0 16.675354 3.2254105 22.694244 8.966682c6.018875 5.741272 9.400253 13.528107 9.400253 21.647491l0 0c0 16.907738 -14.369202 30.614174 -32.094498 30.614174l0 0c-17.725288 0 -32.094482 -13.706436 -32.094482 -30.614174z" fill-rule="evenodd"/><path fill="#fce5cd" d="m368.0656 193.13387l0 0c0 -16.907745 14.369202 -30.614182 32.094482 -30.614182l0 0c8.511993 0 16.675354 3.225418 22.694244 8.96669c6.0188904 5.741272 9.400269 13.528107 9.400269 21.647491l0 0c0 16.90773 -14.369202 30.614166 -32.094513 30.614166l0 0c-17.72528 0 -32.094482 -13.706436 -32.094482 -30.614166z" fill-rule="evenodd"/><path stroke="#595959" stroke-width="1.0" stroke-linejoin="round" stroke-linecap="butt" d="m368.0656 193.13387l0 0c0 -16.907745 14.369202 -30.614182 32.094482 -30.614182l0 0c8.511993 0 16.675354 3.225418 22.694244 8.96669c6.0188904 5.741272 9.400269 13.528107 9.400269 21.647491l0 0c0 16.90773 -14.369202 30.614166 -32.094513 30.614166l0 0c-17.72528 0 -32.094482 -13.706436 -32.094482 -30.614166z" fill-rule="evenodd"/><path fill="#a4c2f4" d="m368.0656 270.0l0 0c0 -16.907745 14.369202 -30.614166 32.094482 -30.614166l0 0c8.511993 0 16.675354 3.2254028 22.694244 8.966675c6.0188904 5.741272 9.400269 13.528107 9.400269 21.647491l0 0c0 16.907745 -14.369202 30.614166 -32.094513 30.614166l0 0c-17.72528 0 -32.094482 -13.706421 -32.094482 -30.614166z" fill-rule="evenodd"/><path stroke="#595959" stroke-width="1.0" stroke-linejoin="round" stroke-linecap="butt" d="m368.0656 270.0l0 0c0 -16.907745 14.369202 -30.614166 32.094482 -30.614166l0 0c8.511993 0 16.675354 3.2254028 22.694244 8.966675c6.0188904 5.741272 9.400269 13.528107 9.400269 21.647491l0 0c0 16.907745 -14.369202 30.614166 -32.094513 30.614166l0 0c-17.72528 0 -32.094482 -13.706421 -32.094482 -30.614166z" fill-rule="evenodd"/><path fill="#6fa8dc" d="m368.0656 352.6929l0 0c0 -16.907715 14.369202 -30.614166 32.094482 -30.614166l0 0c8.511993 0 16.675354 3.2254028 22.694244 8.966675c6.0188904 5.741272 9.400269 13.528107 9.400269 21.647491l0 0c0 16.907745 -14.369202 30.614197 -32.094513 30.614197l0 0c-17.72528 0 -32.094482 -13.706451 -32.094482 -30.614197z" fill-rule="evenodd"/><path stroke="#595959" stroke-width="1.0" stroke-linejoin="round" stroke-linecap="butt" d="m368.0656 352.6929l0 0c0 -16.907715 14.369202 -30.614166 32.094482 -30.614166l0 0c8.511993 0 16.675354 3.2254028 22.694244 8.966675c6.0188904 5.741272 9.400269 13.528107 9.400269 21.647491l0 0c0 16.907745 -14.369202 30.614197 -32.094513 30.614197l0 0c-17.72528 0 -32.094482 -13.706451 -32.094482 -30.614197z" fill-rule="evenodd"/><path fill="#fff2cc" d="m98.51706 193.13387l0 0c0 -16.907745 14.369194 -30.614182 32.094482 -30.614182l0 0c8.511993 0 16.675354 3.225418 22.694244 8.96669c6.018875 5.741272 9.400253 13.528107 9.400253 21.647491l0 0c0 16.90773 -14.369202 30.614166 -32.094498 30.614166l0 0c-17.725288 0 -32.094482 -13.706436 -32.094482 -30.614166z" fill-rule="evenodd"/><path stroke="#595959" stroke-width="1.0" stroke-linejoin="round" stroke-linecap="butt" d="m98.51706 193.13387l0 0c0 -16.907745 14.369194 -30.614182 32.094482 -30.614182l0 0c8.511993 0 16.675354 3.225418 22.694244 8.96669c6.018875 5.741272 9.400253 13.528107 9.400253 21.647491l0 0c0 16.90773 -14.369202 30.614166 -32.094498 30.614166l0 0c-17.725288 0 -32.094482 -13.706436 -32.094482 -30.614166z" fill-rule="evenodd"/><path fill="#ffe599" d="m98.51706 272.9134l0 0c0 -16.907745 14.369194 -30.614182 32.094482 -30.614182l0 0c8.511993 0 16.675354 3.225418 22.694244 8.96669c6.018875 5.741272 9.400253 13.528107 9.400253 21.647491l0 0c0 16.907745 -14.369202 30.614166 -32.094498 30.614166l0 0c-17.725288 0 -32.094482 -13.706421 -32.094482 -30.614166z" fill-rule="evenodd"/><path stroke="#595959" stroke-width="1.0" stroke-linejoin="round" stroke-linecap="butt" d="m98.51706 272.9134l0 0c0 -16.907745 14.369194 -30.614182 32.094482 -30.614182l0 0c8.511993 0 16.675354 3.225418 22.694244 8.96669c6.018875 5.741272 9.400253 13.528107 9.400253 21.647491l0 0c0 16.907745 -14.369202 30.614166 -32.094498 30.614166l0 0c-17.725288 0 -32.094482 -13.706421 -32.094482 -30.614166z" fill-rule="evenodd"/><path fill="#d9ead3" d="m98.51706 352.6929l0 0c0 -16.907715 14.369194 -30.614166 32.094482 -30.614166l0 0c8.511993 0 16.675354 3.2254028 22.694244 8.966675c6.018875 5.741272 9.400253 13.528107 9.400253 21.647491l0 0c0 16.907745 -14.369202 30.614197 -32.094498 30.614197l0 0c-17.725288 0 -32.094482 -13.706451 -32.094482 -30.614197z" fill-rule="evenodd"/><path stroke="#595959" stroke-width="1.0" stroke-linejoin="round" stroke-linecap="butt" d="m98.51706 352.6929l0 0c0 -16.907715 14.369194 -30.614166 32.094482 -30.614166l0 0c8.511993 0 16.675354 3.2254028 22.694244 8.966675c6.018875 5.741272 9.400253 13.528107 9.400253 21.647491l0 0c0 16.907745 -14.369202 30.614197 -32.094498 30.614197l0 0c-17.725288 0 -32.094482 -13.706451 -32.094482 -30.614197z" fill-rule="evenodd"/><path fill="#000000" fill-opacity="0.0" d="m175.85826 82.74016l179.05513 0l0 61.228348l-179.05513 0z" fill-rule="evenodd"/><path fill="#000000" d="m187.59264 120.27433l-1.515625 0l0 -13.359375l1.640625 0l0 4.765625q1.046875 -1.296875 2.65625 -1.296875q0.890625 0 1.6875 0.359375q0.796875 0.359375 1.3125 1.015625q0.515625 0.640625 0.796875 1.5625q0.296875 0.921875 0.296875 1.96875q0 2.484375 -1.234375 3.84375q-1.21875 1.359375 -2.953125 1.359375q-1.703125 0 -2.6875 -1.4375l0 1.21875zm-0.015625 -4.90625q0 1.734375 0.484375 2.515625q0.765625 1.265625 2.09375 1.265625q1.078125 0 1.859375 -0.9375q0.78125 -0.9375 0.78125 -2.78125q0 -1.890625 -0.75 -2.796875q-0.75 -0.90625 -1.828125 -0.90625q-1.0625 0 -1.859375 0.9375q-0.78125 0.9375 -0.78125 2.703125zm15.203842 3.71875q-0.921875 0.765625 -1.765625 1.09375q-0.828125 0.3125 -1.796875 0.3125q-1.59375 0 -2.453125 -0.78125q-0.859375 -0.78125 -0.859375 -1.984375q0 -0.71875 0.328125 -1.296875q0.328125 -0.59375 0.84375 -0.9375q0.53125 -0.359375 1.1875 -0.546875q0.46875 -0.125 1.453125 -0.25q1.984375 -0.234375 2.921875 -0.5625q0.015625 -0.34375 0.015625 -0.421875q0 -1.0 -0.46875 -1.421875q-0.625 -0.546875 -1.875 -0.546875q-1.15625 0 -1.703125 0.40625q-0.546875 0.40625 -0.8125 1.421875l-1.609375 -0.21875q0.21875 -1.015625 0.71875 -1.640625q0.5 -0.640625 1.453125 -0.984375q0.953125 -0.34375 2.1875 -0.34375q1.25 0 2.015625 0.296875q0.78125 0.28125 1.140625 0.734375q0.375 0.4375 0.515625 1.109375q0.078125 0.421875 0.078125 1.515625l0 2.1875q0 2.28125 0.109375 2.890625q0.109375 0.59375 0.40625 1.15625l-1.703125 0q-0.265625 -0.515625 -0.328125 -1.1875zm-0.140625 -3.671875q-0.890625 0.375 -2.671875 0.625q-1.015625 0.140625 -1.4375 0.328125q-0.421875 0.1875 -0.65625 0.53125q-0.21875 0.34375 -0.21875 0.78125q0 0.65625 0.5 1.09375q0.5 0.4375 1.453125 0.4375q0.9375 0 1.671875 -0.40625q0.75 -0.421875 1.09375 -1.140625q0.265625 -0.5625 0.265625 -1.640625l0 -0.609375zm3.5475922 1.96875l1.625 -0.25q0.125 0.96875 0.75 1.5q0.625 0.515625 1.75 0.515625q1.125 0 1.671875 -0.453125q0.546875 -0.46875 0.546875 -1.09375q0 -0.546875 -0.484375 -0.875q-0.328125 -0.21875 -1.671875 -0.546875q-1.8125 -0.46875 -2.515625 -0.796875q-0.6875 -0.328125 -1.046875 -0.90625q-0.359375 -0.59375 -0.359375 -1.3125q0 -0.640625 0.296875 -1.1875q0.296875 -0.5625 0.8125 -0.921875q0.375 -0.28125 1.03125 -0.46875q0.671875 -0.203125 1.421875 -0.203125q1.140625 0 2.0 0.328125q0.859375 0.328125 1.265625 0.890625q0.421875 0.5625 0.578125 1.5l-1.609375 0.21875q-0.109375 -0.75 -0.640625 -1.171875q-0.515625 -0.421875 -1.46875 -0.421875q-1.140625 0 -1.625 0.375q-0.46875 0.375 -0.46875 0.875q0 0.3125 0.1875 0.578125q0.203125 0.265625 0.640625 0.4375q0.234375 0.09375 1.4375 0.421875q1.75 0.453125 2.4375 0.75q0.6875 0.296875 1.078125 0.859375q0.390625 0.5625 0.390625 1.40625q0 0.828125 -0.484375 1.546875q-0.46875 0.71875 -1.375 1.125q-0.90625 0.390625 -2.046875 0.390625q-1.875 0 -2.875 -0.78125q-0.984375 -0.78125 -1.25 -2.328125zm16.609375 -0.21875l1.6875 0.203125q-0.40625 1.484375 -1.484375 2.3125q-1.078125 0.8125 -2.765625 0.8125q-2.125 0 -3.375 -1.296875q-1.234375 -1.3125 -1.234375 -3.671875q0 -2.453125 1.25 -3.796875q1.265625 -1.34375 3.265625 -1.34375q1.9375 0 3.15625 1.328125q1.234375 1.3125 1.234375 3.703125q0 0.15625 0 0.4375l-7.21875 0q0.09375 1.59375 0.90625 2.453125q0.8125 0.84375 2.015625 0.84375q0.90625 0 1.546875 -0.46875q0.640625 -0.484375 1.015625 -1.515625zm-5.390625 -2.65625l5.40625 0q-0.109375 -1.21875 -0.625 -1.828125q-0.78125 -0.953125 -2.03125 -0.953125q-1.125 0 -1.90625 0.765625q-0.765625 0.75 -0.84375 2.015625z" fill-rule="nonzero"/><path fill="#000000" fill-opacity="0.0" d="m175.85826 162.51968l179.05513 0l0 61.228348l-179.05513 0z" fill-rule="evenodd"/><path fill="#000000" d="m192.40514 196.50699l1.609375 0.21875q-0.265625 1.65625 -1.359375 2.609375q-1.078125 0.9375 -2.671875 0.9375q-1.984375 0 -3.1875 -1.296875q-1.203125 -1.296875 -1.203125 -3.71875q0 -1.578125 0.515625 -2.75q0.515625 -1.171875 1.578125 -1.75q1.0625 -0.59375 2.3125 -0.59375q1.578125 0 2.578125 0.796875q1.0 0.796875 1.28125 2.265625l-1.59375 0.234375q-0.234375 -0.96875 -0.8125 -1.453125q-0.578125 -0.5 -1.390625 -0.5q-1.234375 0 -2.015625 0.890625q-0.78125 0.890625 -0.78125 2.8125q0 1.953125 0.75 2.84375q0.75 0.875 1.953125 0.875q0.96875 0 1.609375 -0.59375q0.65625 -0.59375 0.828125 -1.828125zm3.015625 3.546875l0 -13.359375l1.640625 0l0 4.796875q1.140625 -1.328125 2.890625 -1.328125q1.078125 0 1.859375 0.421875q0.796875 0.421875 1.140625 1.171875q0.34375 0.75 0.34375 2.171875l0 6.125l-1.640625 0l0 -6.125q0 -1.234375 -0.53125 -1.796875q-0.53125 -0.5625 -1.515625 -0.5625q-0.71875 0 -1.359375 0.390625q-0.640625 0.375 -0.921875 1.015625q-0.265625 0.640625 -0.265625 1.78125l0 5.296875l-1.640625 0zm10.360092 0l0 -9.671875l1.46875 0l0 1.46875q0.5625 -1.03125 1.03125 -1.359375q0.484375 -0.328125 1.0625 -0.328125q0.828125 0 1.6875 0.53125l-0.5625 1.515625q-0.609375 -0.359375 -1.203125 -0.359375q-0.546875 0 -0.96875 0.328125q-0.421875 0.328125 -0.609375 0.890625q-0.28125 0.875 -0.28125 1.921875l0 5.0625l-1.625 0zm5.618927 -4.84375q0 -2.6875 1.484375 -3.96875q1.25 -1.078125 3.046875 -1.078125q2.0 0 3.265625 1.3125q1.265625 1.296875 1.265625 3.609375q0 1.859375 -0.5625 2.9375q-0.5625 1.0625 -1.640625 1.65625q-1.0625 0.59375 -2.328125 0.59375q-2.03125 0 -3.28125 -1.296875q-1.25 -1.3125 -1.25 -3.765625zm1.6875 0q0 1.859375 0.796875 2.796875q0.8125 0.921875 2.046875 0.921875q1.21875 0 2.03125 -0.921875q0.8125 -0.9375 0.8125 -2.84375q0 -1.796875 -0.8125 -2.71875q-0.8125 -0.921875 -2.03125 -0.921875q-1.234375 0 -2.046875 0.921875q-0.796875 0.90625 -0.796875 2.765625zm9.297592 4.84375l0 -9.671875l1.46875 0l0 1.359375q0.453125 -0.71875 1.203125 -1.140625q0.765625 -0.4375 1.71875 -0.4375q1.078125 0 1.765625 0.453125q0.6875 0.4375 0.96875 1.234375q1.15625 -1.6875 2.984375 -1.6875q1.453125 0 2.21875 0.796875q0.78125 0.796875 0.78125 2.453125l0 6.640625l-1.640625 0l0 -6.09375q0 -0.984375 -0.15625 -1.40625q-0.15625 -0.4375 -0.578125 -0.703125q-0.421875 -0.265625 -0.984375 -0.265625q-1.015625 0 -1.6875 0.6875q-0.671875 0.671875 -0.671875 2.15625l0 5.625l-1.640625 0l0 -6.28125q0 -1.09375 -0.40625 -1.640625q-0.40625 -0.546875 -1.3125 -0.546875q-0.6875 0 -1.28125 0.359375q-0.59375 0.359375 -0.859375 1.0625q-0.25 0.703125 -0.25 2.03125l0 5.015625l-1.640625 0zm22.165802 -3.109375l1.6875 0.203125q-0.40625 1.484375 -1.484375 2.3125q-1.078125 0.8125 -2.765625 0.8125q-2.125 0 -3.375 -1.296875q-1.234375 -1.3125 -1.234375 -3.671875q0 -2.453125 1.25 -3.796875q1.265625 -1.34375 3.265625 -1.34375q1.9375 0 3.15625 1.328125q1.234375 1.3125 1.234375 3.703125q0 0.15625 0 0.4375l-7.21875 0q0.09375 1.59375 0.90625 2.453125q0.8125 0.84375 2.015625 0.84375q0.90625 0 1.546875 -0.46875q0.640625 -0.484375 1.015625 -1.515625zm-5.390625 -2.65625l5.40625 0q-0.109375 -1.21875 -0.625 -1.828125q-0.78125 -0.953125 -2.03125 -0.953125q-1.125 0 -1.90625 0.765625q-0.765625 0.75 -0.84375 2.015625z" fill-rule="nonzero"/><path fill="#000000" fill-opacity="0.0" d="m175.85826 242.29921l179.05513 0l0 61.228348l-179.05513 0z" fill-rule="evenodd"/><path fill="#000000" d="m192.40514 276.2865l1.609375 0.21875q-0.265625 1.65625 -1.359375 2.609375q-1.078125 0.9375 -2.671875 0.9375q-1.984375 0 -3.1875 -1.296875q-1.203125 -1.296875 -1.203125 -3.71875q0 -1.578125 0.515625 -2.75q0.515625 -1.171875 1.578125 -1.75q1.0625 -0.59375 2.3125 -0.59375q1.578125 0 2.578125 0.796875q1.0 0.796875 1.28125 2.265625l-1.59375 0.234375q-0.234375 -0.96875 -0.8125 -1.453125q-0.578125 -0.5 -1.390625 -0.5q-1.234375 0 -2.015625 0.890625q-0.78125 0.890625 -0.78125 2.8125q0 1.953125 0.75 2.84375q0.75 0.875 1.953125 0.875q0.96875 0 1.609375 -0.59375q0.65625 -0.59375 0.828125 -1.828125zm2.40625 -1.296875q0 -2.6875 1.484375 -3.96875q1.25 -1.078125 3.046875 -1.078125q2.0 0 3.265625 1.3125q1.265625 1.296875 1.265625 3.609375q0 1.859375 -0.5625 2.9375q-0.5625 1.0625 -1.640625 1.65625q-1.0625 0.59375 -2.328125 0.59375q-2.03125 0 -3.28125 -1.296875q-1.25 -1.3125 -1.25 -3.765625zm1.6875 0q0 1.859375 0.796875 2.796875q0.8125 0.921875 2.046875 0.921875q1.21875 0 2.03125 -0.921875q0.8125 -0.9375 0.8125 -2.84375q0 -1.796875 -0.8125 -2.71875q-0.8125 -0.921875 -2.03125 -0.921875q-1.234375 0 -2.046875 0.921875q-0.796875 0.90625 -0.796875 2.765625zm9.297592 4.84375l0 -9.671875l1.46875 0l0 1.359375q0.453125 -0.71875 1.203125 -1.140625q0.765625 -0.4375 1.71875 -0.4375q1.078125 0 1.765625 0.453125q0.6875 0.4375 0.96875 1.234375q1.15625 -1.6875 2.984375 -1.6875q1.453125 0 2.21875 0.796875q0.78125 0.796875 0.78125 2.453125l0 6.640625l-1.640625 0l0 -6.09375q0 -0.984375 -0.15625 -1.40625q-0.15625 -0.4375 -0.578125 -0.703125q-0.421875 -0.265625 -0.984375 -0.265625q-1.015625 0 -1.6875 0.6875q-0.671875 0.671875 -0.671875 2.15625l0 5.625l-1.640625 0l0 -6.28125q0 -1.09375 -0.40625 -1.640625q-0.40625 -0.546875 -1.3125 -0.546875q-0.6875 0 -1.28125 0.359375q-0.59375 0.359375 -0.859375 1.0625q-0.25 0.703125 -0.25 2.03125l0 5.015625l-1.640625 0zm15.540802 3.703125l0 -13.375l1.484375 0l0 1.25q0.53125 -0.734375 1.1875 -1.09375q0.671875 -0.375 1.625 -0.375q1.234375 0 2.171875 0.640625q0.953125 0.625 1.4375 1.796875q0.484375 1.15625 0.484375 2.546875q0 1.484375 -0.53125 2.671875q-0.53125 1.1875 -1.546875 1.828125q-1.015625 0.625 -2.140625 0.625q-0.8125 0 -1.46875 -0.34375q-0.65625 -0.34375 -1.0625 -0.875l0 4.703125l-1.640625 0zm1.484375 -8.484375q0 1.859375 0.75 2.765625q0.765625 0.890625 1.828125 0.890625q1.09375 0 1.875 -0.921875q0.78125 -0.9375 0.78125 -2.875q0 -1.84375 -0.765625 -2.765625q-0.75 -0.921875 -1.8125 -0.921875q-1.046875 0 -1.859375 0.984375q-0.796875 0.96875 -0.796875 2.84375zm8.281967 -0.0625q0 -2.6875 1.484375 -3.96875q1.25 -1.078125 3.046875 -1.078125q2.0 0 3.265625 1.3125q1.265625 1.296875 1.265625 3.609375q0 1.859375 -0.5625 2.9375q-0.5625 1.0625 -1.640625 1.65625q-1.0625 0.59375 -2.328125 0.59375q-2.03125 0 -3.28125 -1.296875q-1.25 -1.3125 -1.25 -3.765625zm1.6875 0q0 1.859375 0.796875 2.796875q0.8125 0.921875 2.046875 0.921875q1.21875 0 2.03125 -0.921875q0.8125 -0.9375 0.8125 -2.84375q0 -1.796875 -0.8125 -2.71875q-0.8125 -0.921875 -2.03125 -0.921875q-1.234375 0 -2.046875 0.921875q-0.796875 0.90625 -0.796875 2.765625zm9.297592 4.84375l0 -9.671875l1.46875 0l0 1.375q1.0625 -1.59375 3.078125 -1.59375q0.875 0 1.609375 0.3125q0.734375 0.3125 1.09375 0.828125q0.375 0.5 0.515625 1.203125q0.09375 0.453125 0.09375 1.59375l0 5.953125l-1.640625 0l0 -5.890625q0 -1.0 -0.203125 -1.484375q-0.1875 -0.5 -0.671875 -0.796875q-0.484375 -0.296875 -1.140625 -0.296875q-1.046875 0 -1.8125 0.671875q-0.75 0.65625 -0.75 2.515625l0 5.28125l-1.640625 0zm17.000732 -3.109375l1.6875 0.203125q-0.40625 1.484375 -1.484375 2.3125q-1.078125 0.8125 -2.765625 0.8125q-2.1250153 0 -3.3750153 -1.296875q-1.234375 -1.3125 -1.234375 -3.671875q0 -2.453125 1.25 -3.796875q1.265625 -1.34375 3.2656403 -1.34375q1.9375 0 3.15625 1.328125q1.234375 1.3125 1.234375 3.703125q0 0.15625 0 0.4375l-7.2187653 0q0.09375 1.59375 0.90625 2.453125q0.8125 0.84375 2.0156403 0.84375q0.90625 0 1.546875 -0.46875q0.640625 -0.484375 1.015625 -1.515625zm-5.3906403 -2.65625l5.4062653 0q-0.109375 -1.21875 -0.625 -1.828125q-0.78125 -0.953125 -2.03125 -0.953125q-1.1250153 0 -1.9062653 0.765625q-0.765625 0.75 -0.84375 2.015625zm9.141342 5.765625l0 -9.671875l1.46875 0l0 1.375q1.0625 -1.59375 3.078125 -1.59375q0.875 0 1.609375 0.3125q0.734375 0.3125 1.09375 0.828125q0.375 0.5 0.515625 1.203125q0.09375 0.453125 0.09375 1.59375l0 5.953125l-1.640625 0l0 -5.890625q0 -1.0 -0.203125 -1.484375q-0.1875 -0.5 -0.671875 -0.796875q-0.484375 -0.296875 -1.140625 -0.296875q-1.046875 0 -1.8125 0.671875q-0.75 0.65625 -0.75 2.515625l0 5.28125l-1.640625 0zm13.953857 -1.46875l0.234375 1.453125q-0.6875 0.140625 -1.234375 0.140625q-0.890625 0 -1.390625 -0.28125q-0.484375 -0.28125 -0.6875 -0.734375q-0.203125 -0.46875 -0.203125 -1.9375l0 -5.578125l-1.203125 0l0 -1.265625l1.203125 0l0 -2.390625l1.625 -0.984375l0 3.375l1.65625 0l0 1.265625l-1.65625 0l0 5.671875q0 0.6875 0.078125 0.890625q0.09375 0.203125 0.28125 0.328125q0.203125 0.109375 0.578125 0.109375q0.265625 0 0.71875 -0.0625zm0.9489136 -1.421875l1.625 -0.25q0.125 0.96875 0.75 1.5q0.625 0.515625 1.75 0.515625q1.125 0 1.671875 -0.453125q0.546875 -0.46875 0.546875 -1.09375q0 -0.546875 -0.484375 -0.875q-0.328125 -0.21875 -1.671875 -0.546875q-1.8125 -0.46875 -2.515625 -0.796875q-0.6875 -0.328125 -1.046875 -0.90625q-0.359375 -0.59375 -0.359375 -1.3125q0 -0.640625 0.296875 -1.1875q0.296875 -0.5625 0.8125 -0.921875q0.375 -0.28125 1.03125 -0.46875q0.671875 -0.203125 1.421875 -0.203125q1.140625 0 2.0 0.328125q0.859375 0.328125 1.265625 0.890625q0.421875 0.5625 0.578125 1.5l-1.609375 0.21875q-0.109375 -0.75 -0.640625 -1.171875q-0.515625 -0.421875 -1.46875 -0.421875q-1.140625 0 -1.625 0.375q-0.46875 0.375 -0.46875 0.875q0 0.3125 0.1875 0.578125q0.203125 0.265625 0.640625 0.4375q0.234375 0.09375 1.4375 0.421875q1.75 0.453125 2.4375 0.75q0.6875 0.296875 1.078125 0.859375q0.390625 0.5625 0.390625 1.40625q0 0.828125 -0.484375 1.546875q-0.46875 0.71875 -1.375 1.125q-0.90625 0.390625 -2.046875 0.390625q-1.875 0 -2.875 -0.78125q-0.984375 -0.78125 -1.25 -2.328125z" fill-rule="nonzero"/><path fill="#000000" fill-opacity="0.0" d="m175.85826 318.81104l179.05513 0l0 61.228333l-179.05513 0z" fill-rule="evenodd"/><path fill="#000000" d="m185.78014 357.14206l1.59375 0.234375q0.109375 0.75 0.5625 1.078125q0.609375 0.453125 1.671875 0.453125q1.140625 0 1.75 -0.453125q0.625 -0.453125 0.84375 -1.265625q0.125 -0.5 0.109375 -2.109375q-1.0625 1.265625 -2.671875 1.265625q-2.0 0 -3.09375 -1.4375q-1.09375 -1.4375 -1.09375 -3.453125q0 -1.390625 0.5 -2.5625q0.515625 -1.171875 1.453125 -1.796875q0.953125 -0.640625 2.25 -0.640625q1.703125 0 2.8125 1.375l0 -1.15625l1.515625 0l0 8.359375q0 2.265625 -0.46875 3.203125q-0.453125 0.9375 -1.453125 1.484375q-0.984375 0.546875 -2.453125 0.546875q-1.71875 0 -2.796875 -0.78125q-1.0625 -0.765625 -1.03125 -2.34375zm1.359375 -5.8125q0 1.90625 0.75 2.78125q0.765625 0.875 1.90625 0.875q1.125 0 1.890625 -0.859375q0.765625 -0.875 0.765625 -2.734375q0 -1.78125 -0.796875 -2.671875q-0.78125 -0.90625 -1.890625 -0.90625q-1.09375 0 -1.859375 0.890625q-0.765625 0.875 -0.765625 2.625zm9.328842 8.71875l0 -13.375l1.484375 0l0 1.25q0.53125 -0.734375 1.1875 -1.09375q0.671875 -0.375 1.625 -0.375q1.234375 0 2.171875 0.640625q0.953125 0.625 1.4375 1.796875q0.484375 1.15625 0.484375 2.546875q0 1.484375 -0.53125 2.671875q-0.53125 1.1875 -1.546875 1.828125q-1.015625 0.625 -2.140625 0.625q-0.8125 0 -1.46875 -0.34375q-0.65625 -0.34375 -1.0625 -0.875l0 4.703125l-1.640625 0zm1.484375 -8.484375q0 1.859375 0.75 2.765625q0.765625 0.890625 1.828125 0.890625q1.09375 0 1.875 -0.921875q0.78125 -0.9375 0.78125 -2.875q0 -1.84375 -0.765625 -2.765625q-0.75 -0.921875 -1.8125 -0.921875q-1.046875 0 -1.859375 0.984375q-0.796875 0.96875 -0.796875 2.84375zm15.219467 4.78125l0 -1.421875q-1.125 1.640625 -3.0625 1.640625q-0.859375 0 -1.609375 -0.328125q-0.734375 -0.328125 -1.09375 -0.828125q-0.359375 -0.5 -0.5 -1.21875q-0.109375 -0.46875 -0.109375 -1.53125l0 -5.984375l1.640625 0l0 5.359375q0 1.28125 0.109375 1.734375q0.15625 0.640625 0.65625 1.015625q0.5 0.375 1.234375 0.375q0.734375 0 1.375 -0.375q0.65625 -0.390625 0.921875 -1.03125q0.265625 -0.65625 0.265625 -1.890625l0 -5.1875l1.640625 0l0 9.671875l-1.46875 0z" fill-rule="nonzero"/><path fill="#000000" fill-opacity="0.0" d="m445.40683 162.51968l179.05508 0l0 61.228348l-179.05508 0z" fill-rule="evenodd"/><path fill="#000000" d="m455.6412 188.58511l0 -1.890625l1.640625 0l0 1.890625l-1.640625 0zm0 11.46875l0 -9.671875l1.640625 0l0 9.671875l-1.640625 0zm4.144806 3.703125l0 -13.375l1.484375 0l0 1.25q0.53125 -0.734375 1.1875 -1.09375q0.671875 -0.375 1.625 -0.375q1.234375 0 2.171875 0.640625q0.953125 0.625 1.4375 1.796875q0.484375 1.15625 0.484375 2.546875q0 1.484375 -0.53125 2.671875q-0.53125 1.1875 -1.546875 1.828125q-1.015625 0.625 -2.140625 0.625q-0.8125 0 -1.46875 -0.34375q-0.65625 -0.34375 -1.0625 -0.875l0 4.703125l-1.640625 0zm1.484375 -8.484375q0 1.859375 0.75 2.765625q0.765625 0.890625 1.828125 0.890625q1.09375 0 1.875 -0.921875q0.78125 -0.9375 0.78125 -2.875q0 -1.84375 -0.765625 -2.765625q-0.75 -0.921875 -1.8125 -0.921875q-1.046875 0 -1.859375 0.984375q-0.796875 0.96875 -0.796875 2.84375zm15.203857 1.234375l1.609375 0.21875q-0.265625 1.65625 -1.359375 2.609375q-1.078125 0.9375 -2.671875 0.9375q-1.984375 0 -3.1875 -1.296875q-1.203125 -1.296875 -1.203125 -3.71875q0 -1.578125 0.515625 -2.75q0.515625 -1.171875 1.578125 -1.75q1.0625 -0.59375 2.3125 -0.59375q1.578125 0 2.578125 0.796875q1.0 0.796875 1.28125 2.265625l-1.59375 0.234375q-0.234375 -0.96875 -0.8125 -1.453125q-0.578125 -0.5 -1.390625 -0.5q-1.234375 0 -2.015625 0.890625q-0.78125 0.890625 -0.78125 2.8125q0 1.953125 0.75 2.84375q0.75 0.875 1.953125 0.875q0.96875 0 1.609375 -0.59375q0.65625 -0.59375 0.828125 -1.828125z" fill-rule="nonzero"/><path fill="#000000" fill-opacity="0.0" d="m445.40683 239.38583l179.05508 0l0 61.228333l-179.05508 0z" fill-rule="evenodd"/><path fill="#000000" d="m454.98495 274.0294l1.625 -0.25q0.125 0.96875 0.75 1.5q0.625 0.515625 1.75 0.515625q1.125 0 1.671875 -0.453125q0.546875 -0.46875 0.546875 -1.09375q0 -0.546875 -0.484375 -0.875q-0.328125 -0.21875 -1.671875 -0.546875q-1.8125 -0.46875 -2.515625 -0.796875q-0.6875 -0.328125 -1.046875 -0.90625q-0.359375 -0.59375 -0.359375 -1.3125q0 -0.640625 0.296875 -1.1875q0.296875 -0.5625 0.8125 -0.921875q0.375 -0.28125 1.03125 -0.46875q0.671875 -0.203125 1.421875 -0.203125q1.140625 0 2.0 0.328125q0.859375 0.328125 1.265625 0.890625q0.421875 0.5625 0.578125 1.5l-1.609375 0.21875q-0.109375 -0.75 -0.640625 -1.171875q-0.515625 -0.421875 -1.46875 -0.421875q-1.140625 0 -1.625 0.375q-0.46875 0.375 -0.46875 0.875q0 0.3125 0.1875 0.578125q0.203125 0.265625 0.640625 0.4375q0.234375 0.09375 1.4375 0.421875q1.75 0.453125 2.4375 0.75q0.6875 0.296875 1.078125 0.859375q0.390625 0.5625 0.390625 1.40625q0 0.828125 -0.484375 1.546875q-0.46875 0.71875 -1.375 1.125q-0.90625 0.390625 -2.046875 0.390625q-1.875 0 -2.875 -0.78125q-0.984375 -0.78125 -1.25 -2.328125zm16.609375 -0.21875l1.6875 0.203125q-0.40625 1.484375 -1.484375 2.3125q-1.078125 0.8125 -2.765625 0.8125q-2.125 0 -3.375 -1.296875q-1.234375 -1.3125 -1.234375 -3.671875q0 -2.453125 1.25 -3.796875q1.265625 -1.34375 3.265625 -1.34375q1.9375 0 3.15625 1.328125q1.234375 1.3125 1.234375 3.703125q0 0.15625 0 0.4375l-7.21875 0q0.09375 1.59375 0.90625 2.453125q0.8125 0.84375 2.015625 0.84375q0.90625 0 1.546875 -0.46875q0.640625 -0.484375 1.015625 -1.515625zm-5.390625 -2.65625l5.40625 0q-0.109375 -1.21875 -0.625 -1.828125q-0.78125 -0.953125 -2.03125 -0.953125q-1.125 0 -1.90625 0.765625q-0.765625 0.75 -0.84375 2.015625zm9.125702 5.765625l0 -9.671875l1.46875 0l0 1.46875q0.5625 -1.03125 1.03125 -1.359375q0.484375 -0.328125 1.0625 -0.328125q0.828125 0 1.6875 0.53125l-0.5625 1.515625q-0.609375 -0.359375 -1.203125 -0.359375q-0.546875 0 -0.96875 0.328125q-0.421875 0.328125 -0.609375 0.890625q-0.28125 0.875 -0.28125 1.921875l0 5.0625l-1.625 0zm8.915802 0l-3.6875 -9.671875l1.734375 0l2.078125 5.796875q0.328125 0.9375 0.625 1.9375q0.203125 -0.765625 0.609375 -1.828125l2.140625 -5.90625l1.6875 0l-3.65625 9.671875l-1.53125 0zm6.640625 -11.46875l0 -1.890625l1.640625 0l0 1.890625l-1.640625 0zm0 11.46875l0 -9.671875l1.640625 0l0 9.671875l-1.640625 0zm10.457336 -3.546875l1.609375 0.21875q-0.265625 1.65625 -1.359375 2.609375q-1.078125 0.9375 -2.671875 0.9375q-1.984375 0 -3.1875 -1.296875q-1.203125 -1.296875 -1.203125 -3.71875q0 -1.578125 0.515625 -2.75q0.515625 -1.171875 1.578125 -1.75q1.0625 -0.59375 2.3125 -0.59375q1.578125 0 2.578125 0.796875q1.0 0.796875 1.28125 2.265625l-1.59375 0.234375q-0.234375 -0.96875 -0.8125 -1.453125q-0.578125 -0.5 -1.390625 -0.5q-1.234375 0 -2.015625 0.890625q-0.78125 0.890625 -0.78125 2.8125q0 1.953125 0.75 2.84375q0.75 0.875 1.953125 0.875q0.96875 0 1.609375 -0.59375q0.65625 -0.59375 0.828125 -1.828125zm9.640625 0.4375l1.6874695 0.203125q-0.40625 1.484375 -1.4843445 2.3125q-1.078125 0.8125 -2.765625 0.8125q-2.125 0 -3.375 -1.296875q-1.234375 -1.3125 -1.234375 -3.671875q0 -2.453125 1.25 -3.796875q1.265625 -1.34375 3.265625 -1.34375q1.9375 0 3.15625 1.328125q1.2343445 1.3125 1.2343445 3.703125q0 0.15625 0 0.4375l-7.2187195 0q0.09375 1.59375 0.90625 2.453125q0.8125 0.84375 2.015625 0.84375q0.90625 0 1.546875 -0.46875q0.640625 -0.484375 1.015625 -1.515625zm-5.390625 -2.65625l5.40625 0q-0.109375 -1.21875 -0.625 -1.828125q-0.78125 -0.953125 -2.03125 -0.953125q-1.125 0 -1.90625 0.765625q-0.765625 0.75 -0.84375 2.015625zm8.485077 2.875l1.625 -0.25q0.125 0.96875 0.75 1.5q0.625 0.515625 1.75 0.515625q1.125 0 1.671875 -0.453125q0.546875 -0.46875 0.546875 -1.09375q0 -0.546875 -0.484375 -0.875q-0.328125 -0.21875 -1.671875 -0.546875q-1.8125 -0.46875 -2.515625 -0.796875q-0.6875 -0.328125 -1.046875 -0.90625q-0.359375 -0.59375 -0.359375 -1.3125q0 -0.640625 0.296875 -1.1875q0.296875 -0.5625 0.8125 -0.921875q0.375 -0.28125 1.03125 -0.46875q0.671875 -0.203125 1.421875 -0.203125q1.140625 0 2.0 0.328125q0.859375 0.328125 1.265625 0.890625q0.421875 0.5625 0.578125 1.5l-1.609375 0.21875q-0.109375 -0.75 -0.640625 -1.171875q-0.515625 -0.421875 -1.46875 -0.421875q-1.140625 0 -1.625 0.375q-0.46875 0.375 -0.46875 0.875q0 0.3125 0.1875 0.578125q0.203125 0.265625 0.640625 0.4375q0.234375 0.09375 1.4375 0.421875q1.75 0.453125 2.4375 0.75q0.6875 0.296875 1.078125 0.859375q0.390625 0.5625 0.390625 1.40625q0 0.828125 -0.484375 1.546875q-0.46875 0.71875 -1.375 1.125q-0.90625 0.390625 -2.046875 0.390625q-1.875 0 -2.875 -0.78125q-0.984375 -0.78125 -1.25 -2.328125z" fill-rule="nonzero"/><path fill="#000000" fill-opacity="0.0" d="m445.40683 322.55118l179.05508 0l0 61.228363l-179.05508 0z" fill-rule="evenodd"/><path fill="#000000" d="m459.21933 358.6166l0.234375 1.453125q-0.6875 0.140625 -1.234375 0.140625q-0.890625 0 -1.390625 -0.28125q-0.484375 -0.28125 -0.6875 -0.734375q-0.203125 -0.46875 -0.203125 -1.9375l0 -5.578125l-1.203125 0l0 -1.265625l1.203125 0l0 -2.390625l1.625 -0.984375l0 3.375l1.65625 0l0 1.265625l-1.65625 0l0 5.671875q0 0.6875 0.078125 0.890625q0.09375 0.203125 0.28125 0.328125q0.203125 0.109375 0.578125 0.109375q0.265625 0 0.71875 -0.0625zm1.6051636 1.46875l0 -13.359375l1.640625 0l0 4.796875q1.140625 -1.328125 2.890625 -1.328125q1.078125 0 1.859375 0.421875q0.796875 0.421875 1.140625 1.171875q0.34375 0.75 0.34375 2.171875l0 6.125l-1.640625 0l0 -6.125q0 -1.234375 -0.53125 -1.796875q-0.53125 -0.5625 -1.515625 -0.5625q-0.71875 0 -1.359375 0.390625q-0.640625 0.375 -0.921875 1.015625q-0.265625 0.640625 -0.265625 1.78125l0 5.296875l-1.640625 0zm10.375732 -11.46875l0 -1.890625l1.640625 0l0 1.890625l-1.640625 0zm0 11.46875l0 -9.671875l1.640625 0l0 9.671875l-1.640625 0zm4.129181 0l0 -9.671875l1.46875 0l0 1.46875q0.5625 -1.03125 1.03125 -1.359375q0.484375 -0.328125 1.0625 -0.328125q0.828125 0 1.6875 0.53125l-0.5625 1.515625q-0.609375 -0.359375 -1.203125 -0.359375q-0.546875 0 -0.96875 0.328125q-0.421875 0.328125 -0.609375 0.890625q-0.28125 0.875 -0.28125 1.921875l0 5.0625l-1.625 0zm12.493927 0l0 -1.21875q-0.90625 1.4375 -2.703125 1.4375q-1.15625 0 -2.125 -0.640625q-0.96875 -0.640625 -1.5 -1.78125q-0.53125 -1.140625 -0.53125 -2.625q0 -1.453125 0.484375 -2.625q0.484375 -1.1875 1.4375 -1.8125q0.96875 -0.625 2.171875 -0.625q0.875 0 1.546875 0.375q0.6875 0.359375 1.109375 0.953125l0 -4.796875l1.640625 0l0 13.359375l-1.53125 0zm-5.171875 -4.828125q0 1.859375 0.78125 2.78125q0.78125 0.921875 1.84375 0.921875q1.078125 0 1.828125 -0.875q0.75 -0.890625 0.75 -2.6875q0 -1.984375 -0.765625 -2.90625q-0.765625 -0.9375 -1.890625 -0.9375q-1.078125 0 -1.8125 0.890625q-0.734375 0.890625 -0.734375 2.8125zm7.7663574 8.53125l0 -1.1875l10.859375 0l0 1.1875l-10.859375 0zm11.891327 0l0 -13.375l1.484375 0l0 1.25q0.53125 -0.734375 1.1875 -1.09375q0.671875 -0.375 1.625 -0.375q1.234375 0 2.171875 0.640625q0.953125 0.625 1.4375 1.796875q0.484375 1.15625 0.484375 2.546875q0 1.484375 -0.53125 2.671875q-0.53125 1.1875 -1.546875 1.828125q-1.015625 0.625 -2.140625 0.625q-0.8125 0 -1.46875 -0.34375q-0.65625 -0.34375 -1.0625 -0.875l0 4.703125l-1.640625 0zm1.484375 -8.484375q0 1.859375 0.75 2.765625q0.765625 0.890625 1.828125 0.890625q1.09375 0 1.875 -0.921875q0.78125 -0.9375 0.78125 -2.875q0 -1.84375 -0.765625 -2.765625q-0.75 -0.921875 -1.8125 -0.921875q-1.046875 0 -1.859375 0.984375q-0.796875 0.96875 -0.796875 2.84375zm15.203857 3.59375q-0.921875 0.765625 -1.765625 1.09375q-0.828125 0.3125 -1.796875 0.3125q-1.59375 0 -2.453125 -0.78125q-0.859375 -0.78125 -0.859375 -1.984375q0 -0.71875 0.328125 -1.296875q0.328125 -0.59375 0.84375 -0.9375q0.53125 -0.359375 1.1875 -0.546875q0.46875 -0.125 1.453125 -0.25q1.984375 -0.234375 2.921875 -0.5625q0.015625 -0.34375 0.015625 -0.421875q0 -1.0 -0.46875 -1.421875q-0.625 -0.546875 -1.875 -0.546875q-1.15625 0 -1.703125 0.40625q-0.546875 0.40625 -0.8125 1.421875l-1.609375 -0.21875q0.21875 -1.015625 0.71875 -1.640625q0.5 -0.640625 1.453125 -0.984375q0.953125 -0.34375 2.1875 -0.34375q1.25 0 2.015625 0.296875q0.78125 0.28125 1.140625 0.734375q0.375 0.4375 0.515625 1.109375q0.078125 0.421875 0.078125 1.515625l0 2.1875q0 2.28125 0.109375 2.890625q0.109375 0.59375 0.40625 1.15625l-1.703125 0q-0.265625 -0.515625 -0.328125 -1.1875zm-0.140625 -3.671875q-0.890625 0.375 -2.671875 0.625q-1.015625 0.140625 -1.4375 0.328125q-0.421875 0.1875 -0.65625 0.53125q-0.21875 0.34375 -0.21875 0.78125q0 0.65625 0.5 1.09375q0.5 0.4375 1.453125 0.4375q0.9375 0 1.671875 -0.40625q0.75 -0.421875 1.09375 -1.140625q0.265625 -0.5625 0.265625 -1.640625l0 -0.609375zm4.1882324 4.859375l0 -9.671875l1.46875 0l0 1.46875q0.5625 -1.03125 1.03125 -1.359375q0.484375 -0.328125 1.0625 -0.328125q0.828125 0 1.6875 0.53125l-0.5625 1.515625q-0.609375 -0.359375 -1.203125 -0.359375q-0.546875 0 -0.96875 0.328125q-0.421875 0.328125 -0.609375 0.890625q-0.28125 0.875 -0.28125 1.921875l0 5.0625l-1.625 0zm9.8063965 -1.46875l0.234375 1.453125q-0.6875 0.140625 -1.234375 0.140625q-0.890625 0 -1.390625 -0.28125q-0.484375 -0.28125 -0.6875 -0.734375q-0.203125 -0.46875 -0.203125 -1.9375l0 -5.578125l-1.203125 0l0 -1.265625l1.203125 0l0 -2.390625l1.625 -0.984375l0 3.375l1.65625 0l0 1.265625l-1.65625 0l0 5.671875q0 0.6875 0.078125 0.890625q0.09375 0.203125 0.28125 0.328125q0.203125 0.109375 0.578125 0.109375q0.265625 0 0.71875 -0.0625zm1.5270386 5.1875l-0.1875 -1.53125q0.546875 0.140625 0.9375 0.140625q0.546875 0 0.875 -0.1875q0.328125 -0.171875 0.546875 -0.5q0.15625 -0.25 0.5 -1.21875q0.046875 -0.140625 0.140625 -0.40625l-3.671875 -9.6875l1.765625 0l2.015625 5.59375q0.390625 1.078125 0.703125 2.25q0.28125 -1.125 0.671875 -2.203125l2.078125 -5.640625l1.640625 0l-3.6875 9.828125q-0.59375 1.609375 -0.921875 2.203125q-0.4375 0.8125 -1.0 1.1875q-0.5625 0.375 -1.34375 0.375q-0.484375 0 -1.0625 -0.203125zm8.171875 -3.484375l3.875 -13.8125l1.3125 0l-3.859375 13.8125l-1.328125 0zm7.9177246 -0.234375l-1.515625 0l0 -13.359375l1.640625 0l0 4.765625q1.046875 -1.296875 2.65625 -1.296875q0.890625 0 1.6875 0.359375q0.796875 0.359375 1.3125 1.015625q0.515625 0.640625 0.796875 1.5625q0.296875 0.921875 0.296875 1.96875q0 2.484375 -1.234375 3.84375q-1.21875 1.359375 -2.953125 1.359375q-1.703125 0 -2.6875 -1.4375l0 1.21875zm-0.015625 -4.90625q0 1.734375 0.484375 2.515625q0.765625 1.265625 2.09375 1.265625q1.078125 0 1.859375 -0.9375q0.78125 -0.9375 0.78125 -2.78125q0 -1.890625 -0.75 -2.796875q-0.75 -0.90625 -1.828125 -0.90625q-1.0625 0 -1.859375 0.9375q-0.78125 0.9375 -0.78125 2.703125zm8.844421 4.90625l0 -13.359375l1.640625 0l0 13.359375l-1.640625 0zm4.1917114 -11.46875l0 -1.890625l1.640625 0l0 1.890625l-1.640625 0zm0 11.46875l0 -9.671875l1.640625 0l0 9.671875l-1.640625 0zm4.1448364 0l0 -9.671875l1.46875 0l0 1.375q1.0625 -1.59375 3.078125 -1.59375q0.875 0 1.609375 0.3125q0.734375 0.3125 1.09375 0.828125q0.375 0.5 0.515625 1.203125q0.09375 0.453125 0.09375 1.59375l0 5.953125l-1.640625 0l0 -5.890625q0 -1.0 -0.203125 -1.484375q-0.1875 -0.5 -0.671875 -0.796875q-0.484375 -0.296875 -1.140625 -0.296875q-1.046875 0 -1.8125 0.671875q-0.75 0.65625 -0.75 2.515625l0 5.28125l-1.640625 0zm10.375732 0l0 -13.359375l1.640625 0l0 7.625l3.890625 -3.9375l2.109375 0l-3.6875 3.59375l4.0625 6.078125l-2.015625 0l-3.203125 -4.953125l-1.15625 1.125l0 3.828125l-1.640625 0z" fill-rule="nonzero"/><path fill="#000000" fill-opacity="0.0" d="m65.31233 421.0761l323.02362 0l0 81.44882l-323.02362 0z" fill-rule="evenodd"/><path fill="#595959" d="m79.95296 476.20053l-0.328125 0l0 -25.6875l0.171875 -1.0l-4.484375 0l0 -2.109375l11.3125 0l0 2.109375l-4.515625 0l0.15625 1.0l0 23.84375q0 1.359375 -0.296875 1.609375q-0.296875 0.234375 -2.015625 0.234375zm18.913742 -1.84375l0 -8.84375q0 -5.109375 -0.40625 -7.03125q-0.390625 -1.921875 -2.109375 -1.921875l-3.921875 1.40625l0.15625 1.0l0 15.390625q0 1.359375 -0.296875 1.609375q-0.296875 0.234375 -2.0625 0.234375l0 -29.28125q1.71875 0 2.015625 0.25q0.3125 0.234375 0.3125 1.59375l0 7.15625l3.796875 -1.484375q3.40625 0 4.140625 2.203125q0.734375 2.203125 0.734375 8.921875l0 10.640625q-1.75 0 -2.0625 -0.234375q-0.296875 -0.25 -0.296875 -1.609375zm16.799988 1.4375q-3.078125 0.6875 -4.296875 0.6875q-1.21875 0 -1.875 -0.0625q-0.65625 -0.0625 -1.203125 -0.3125q-0.546875 -0.265625 -0.953125 -0.4375q-0.390625 -0.1875 -0.71875 -0.71875q-0.3125 -0.546875 -0.515625 -0.890625q-0.1875 -0.34375 -0.3125 -1.171875q-0.125 -0.84375 -0.203125 -1.359375q-0.078125 -0.53125 -0.125 -1.703125q-0.03125 -1.1875 -0.03125 -1.90625l0 -4.515625q0 -2.640625 0.109375 -3.421875q0.125 -0.78125 0.25 -1.65625q0.125 -0.890625 0.3125 -1.265625q0.203125 -0.375 0.515625 -0.9375q0.328125 -0.5625 0.71875 -0.78125q0.40625 -0.21875 0.953125 -0.46875q0.546875 -0.265625 1.203125 -0.34375q0.65625 -0.09375 1.5 -0.09375q0.84375 0 1.515625 0.125q0.6875 0.125 1.140625 0.484375q0.46875 0.359375 0.796875 0.6875q0.34375 0.3125 0.5625 1.03125q0.21875 0.71875 0.34375 1.21875q0.125 0.5 0.171875 1.5625q0.0625 1.0625 0.0625 1.703125l0 2.078125l0.15625 2.15625l-8.15625 0.203125l0.15625 1.0q0 5.109375 0.40625 5.921875q0.640625 1.3125 1.484375 1.515625q0.5625 0.15625 2.171875 0.15625q1.625 0 3.859375 -0.515625l0 2.03125zm-7.671875 -15.4375q0 0.71875 0 2.15625l-0.15625 1.0l5.671875 0l-0.203125 -1.03125q0 -3.203125 -0.4375 -4.5625q-0.4375 -1.359375 -1.984375 -1.359375q-1.53125 0 -2.171875 0.828125q-0.640625 0.8125 -0.71875 2.96875zm36.673096 14.0l0 -8.84375q0 0 0 -0.3125q0 -5.921875 -0.359375 -7.28125q-0.359375 -1.359375 -2.28125 -1.359375l-3.71875 1.234375l0.15625 1.0l0 17.40625q-1.71875 0 -2.015625 -0.234375q-0.296875 -0.25 -0.296875 -1.609375l-0.046875 -8.84375q0 -0.15625 0 -1.09375q0 -0.9375 0 -1.609375q0 -0.6875 -0.015625 -1.296875q-0.015625 -0.625 -0.078125 -1.671875q-0.0625 -1.046875 -0.21875 -1.484375q-0.15625 -0.4375 -0.4375 -0.953125q-0.484375 -0.84375 -1.84375 -0.84375l-3.765625 1.40625l0.171875 1.0l0 17.234375q-1.765625 0 -2.0625 -0.234375q-0.296875 -0.25 -0.296875 -1.609375l0 -19.640625q1.75 0 2.046875 0.140625q0.3125 0.140625 0.3125 1.0625l3.59375 -1.484375q2.875 0 4.234375 1.6875l4.28125 -1.6875q3.640625 0 4.34375 1.703125q0.703125 1.703125 0.703125 9.421875l0 10.640625q-1.796875 0 -2.109375 -0.234375q-0.296875 -0.25 -0.296875 -1.609375zm14.96373 1.671875q-0.5625 0.171875 -1.265625 0.3125q-0.6875 0.140625 -1.671875 0.140625q-0.984375 0 -1.765625 -0.125q-0.78125 -0.109375 -1.359375 -0.515625q-0.578125 -0.40625 -0.96875 -0.734375q-0.375 -0.34375 -0.640625 -1.21875q-0.25 -0.890625 -0.390625 -1.484375q-0.140625 -0.609375 -0.203125 -1.984375q-0.046875 -1.375 -0.078125 -2.25q-0.015625 -0.890625 -0.015625 -2.8125q0 -1.921875 0.015625 -2.78125q0.03125 -0.859375 0.078125 -2.234375q0.0625 -1.375 0.203125 -1.953125q0.140625 -0.59375 0.390625 -1.453125q0.265625 -0.859375 0.640625 -1.171875q0.390625 -0.328125 0.984375 -0.6875q0.921875 -0.640625 2.5 -0.640625q1.59375 0 2.28125 0.140625q0.703125 0.140625 1.265625 0.3125q0.5625 0.15625 0.953125 0.65625q0.40625 0.5 0.6875 0.84375q0.28125 0.328125 0.4375 1.1875q0.15625 0.859375 0.25 1.40625q0.109375 0.53125 0.171875 1.8125q0.0625 1.28125 0.0625 2.09375l0 2.46875q0 0 0 0.15625q0 0 0 2.453125q0 2.71875 -0.171875 3.578125q-0.15625 0.859375 -0.3125 1.734375q-0.15625 0.875 -0.4375 1.21875q-0.28125 0.34375 -0.6875 0.84375q-0.390625 0.5 -0.953125 0.6875zm0.203125 -9.75l0 -1.359375q0 -5.234375 -0.4375 -6.59375q-0.640625 -1.71875 -2.640625 -1.765625q-1.640625 0 -2.203125 0.84375q-0.328125 0.5625 -0.53125 1.046875q-0.1875 0.46875 -0.265625 1.671875q-0.125 1.765625 -0.125 3.40625q0 1.625 0 3.296875q0 1.65625 0.03125 2.859375q0.046875 1.203125 0.34375 2.546875q0.3125 1.328125 0.9375 1.734375q0.640625 0.390625 1.59375 0.390625q0.96875 0 1.484375 -0.171875q0.53125 -0.1875 0.859375 -0.6875q0.34375 -0.5 0.515625 -1.0q0.1875 -0.5 0.28125 -1.578125q0.15625 -1.5625 0.15625 -4.640625zm6.4443665 3.515625q-0.046875 -1.3125 -0.046875 -3.59375q0 -2.28125 0.015625 -3.15625q0.03125 -0.890625 0.0625 -2.109375q0.046875 -1.21875 0.140625 -1.828125q0.09375 -0.625 0.28125 -1.4375q0.1875 -0.828125 0.453125 -1.21875q0.28125 -0.40625 0.6875 -0.890625q0.40625 -0.484375 0.921875 -0.640625q1.390625 -0.484375 2.875 -0.484375l2.96875 1.125l0 -8.640625q1.75 0 2.03125 0.25q0.28125 0.234375 0.28125 1.59375l0 27.4375q-1.765625 0 -2.046875 -0.25q-0.265625 -0.265625 -0.265625 -1.875l-3.171875 2.40625q-2.671875 0 -4.109375 -1.484375q-0.96875 -1.0 -1.078125 -5.203125zm2.453125 -9.59375q-0.09375 1.4375 -0.125 2.296875q-0.015625 0.859375 -0.015625 4.6875q0 3.8125 0.359375 5.21875q0.84375 1.84375 2.5625 1.953125l3.28125 -1.796875l-0.15625 -1.0l0 -12.953125l0.15625 -1.0l-3.28125 -1.046875q-1.484375 0 -2.046875 1.0q-0.640625 1.203125 -0.734375 2.640625zm12.823105 5.15625l0 -10.640625q1.75 0 2.046875 0.21875q0.3125 0.21875 0.3125 1.625l0 8.71875q0 4.640625 0.25 6.34375q0.265625 1.703125 0.796875 2.21875q0.546875 0.515625 1.46875 0.515625l3.96875 -1.84375l-0.203125 -1.0l0 -16.796875q1.75 0 2.046875 0.21875q0.3125 0.21875 0.3125 1.625l0 19.640625q-1.765625 0 -2.0625 -0.203125q-0.296875 -0.203125 -0.296875 -1.390625l-3.609375 1.875q-2.515625 0 -3.953125 -1.5625q-0.921875 -1.03125 -1.046875 -5.28125q-0.03125 -1.3125 -0.03125 -4.28125zm15.790604 9.15625l0 -27.59375q1.765625 0 2.0625 0.25q0.296875 0.234375 0.296875 1.59375l0 27.59375q-1.75 0 -2.0625 -0.234375q-0.296875 -0.234375 -0.296875 -1.609375zm16.800613 1.28125q-3.078125 0.6875 -4.296875 0.6875q-1.21875 0 -1.875 -0.0625q-0.65625 -0.0625 -1.203125 -0.3125q-0.546875 -0.265625 -0.953125 -0.4375q-0.390625 -0.1875 -0.71875 -0.71875q-0.3125 -0.546875 -0.515625 -0.890625q-0.1875 -0.34375 -0.3125 -1.171875q-0.125 -0.84375 -0.203125 -1.359375q-0.078125 -0.53125 -0.125 -1.703125q-0.03125 -1.1875 -0.03125 -1.90625l0 -4.515625q0 -2.640625 0.109375 -3.421875q0.125 -0.78125 0.25 -1.65625q0.125 -0.890625 0.3125 -1.265625q0.203125 -0.375 0.515625 -0.9375q0.328125 -0.5625 0.71875 -0.78125q0.40625 -0.21875 0.953125 -0.46875q0.546875 -0.265625 1.203125 -0.34375q0.65625 -0.09375 1.5 -0.09375q0.84375 0 1.515625 0.125q0.6875 0.125 1.140625 0.484375q0.46875 0.359375 0.796875 0.6875q0.34375 0.3125 0.5625 1.03125q0.21875 0.71875 0.34375 1.21875q0.125 0.5 0.171875 1.5625q0.0625 1.0625 0.0625 1.703125l0 2.078125l0.15625 2.15625l-8.15625 0.203125l0.15625 1.0q0 5.109375 0.40625 5.921875q0.640625 1.3125 1.484375 1.515625q0.5625 0.15625 2.171875 0.15625q1.625 0 3.859375 -0.515625l0 2.03125zm-7.671875 -15.4375q0 0.71875 0 2.15625l-0.15625 1.0l5.671875 0l-0.203125 -1.03125q0 -3.203125 -0.4375 -4.5625q-0.4375 -1.359375 -1.984375 -1.359375q-1.53125 0 -2.171875 0.828125q-0.640625 0.8125 -0.71875 2.96875zm26.360596 0.765625l0 -2.234375q0 -1.609375 -0.390625 -2.03125q-0.375 -0.421875 -1.8125 -0.421875l-2.0 0.40625q-0.40625 0.078125 -0.59375 0.078125q-1.40625 0 -1.40625 -1.796875l4.0 -0.6875q3.0 0 3.640625 0.8125q0.3125 0.390625 0.484375 0.671875q0.1875 0.28125 0.234375 1.0q0.125 1.15625 0.125 2.6875l0 16.59375q-1.796875 0 -2.125 -0.25q-0.3125 -0.265625 -0.3125 -1.75q-0.40625 0.234375 -1.125 0.875q-1.515625 1.40625 -2.5625 1.40625q-2.4375 0 -2.90625 -1.53125q-0.453125 -1.546875 -0.453125 -8.546875q0 -2.6875 2.3125 -3.5625q1.921875 -0.71875 4.890625 -0.71875l0.15625 0l-0.15625 -1.0zm-0.15625 3.234375q-2.328125 0 -3.515625 0.34375q-1.171875 0.34375 -1.171875 1.375q0 7.328125 0.328125 8.0q0.15625 0.28125 0.703125 0.28125q0.5625 0 1.21875 -0.3125q0.671875 -0.328125 1.40625 -0.859375q0.75 -0.546875 1.1875 -0.75l-0.15625 -1.0l0 -6.078125l0.15625 -1.0l-0.15625 0zm15.679993 10.0l0 -8.84375q0 -6.109375 -0.375 -7.53125q-0.359375 -1.421875 -2.15625 -1.421875l-3.921875 1.40625l0.171875 1.0l0 17.234375q-1.765625 0 -2.0625 -0.234375q-0.296875 -0.25 -0.296875 -1.609375l0 -19.640625q1.75 0 2.046875 0.140625q0.3125 0.140625 0.3125 1.0625l3.59375 -1.484375q3.59375 0 4.3125 1.84375q0.734375 1.84375 0.734375 9.28125l0 10.640625q-1.765625 0 -2.0625 -0.234375q-0.296875 -0.25 -0.296875 -1.609375zm6.599991 -4.5625q-0.046875 -1.3125 -0.046875 -3.59375q0 -2.28125 0.015625 -3.15625q0.03125 -0.890625 0.0625 -2.109375q0.046875 -1.21875 0.140625 -1.828125q0.09375 -0.625 0.28125 -1.4375q0.1875 -0.828125 0.453125 -1.21875q0.28126526 -0.40625 0.68751526 -0.890625q0.40625 -0.484375 0.921875 -0.640625q1.390625 -0.484375 2.875 -0.484375l2.96875 1.125l0 -8.640625q1.75 0 2.03125 0.25q0.28125 0.234375 0.28125 1.59375l0 27.4375q-1.765625 0 -2.046875 -0.25q-0.265625 -0.265625 -0.265625 -1.875l-3.171875 2.40625q-2.671875 0 -4.109375 -1.484375q-0.96876526 -1.0 -1.0781403 -5.203125zm2.4531403 -9.59375q-0.09375 1.4375 -0.125 2.296875q-0.015625 0.859375 -0.015625 4.6875q0 3.8125 0.359375 5.21875q0.84375 1.84375 2.5625 1.953125l3.28125 -1.796875l-0.15625 -1.0l0 -12.953125l0.15625 -1.0l-3.28125 -1.046875q-1.484375 0 -2.046875 1.0q-0.640625 1.203125 -0.734375 2.640625zm20.423096 22.15625l0 -27.640625q1.71875 0 2.015625 0.109375q0.296875 0.09375 0.296875 0.6875l3.203125 -1.078125q2.796875 0 4.125 1.6875q1.078125 1.359375 1.28125 5.3125q0.078125 1.53125 0.078125 3.9375q0 2.390625 -0.0625 3.765625q-0.0625 1.375 -0.265625 2.765625q-0.1875 1.375 -0.5625 2.125q-0.359375 0.734375 -0.953125 1.375q-1.125 1.078125 -3.796875 1.078125l-3.046875 -1.84375l0 9.5625q-1.71875 0 -2.015625 -0.25q-0.296875 -0.234375 -0.296875 -1.59375zm5.28125 -8.0q2.109375 0 2.734375 -1.859375q0.625 -1.859375 0.625 -6.8125q0 -4.96875 -0.640625 -7.046875q-0.640625 -2.078125 -2.6875 -2.078125l-3.109375 1.0l0.15625 1.0l0 13.0l-0.203125 1.0l3.125 1.796875zm16.918732 -13.234375l0 -2.234375q0 -1.609375 -0.390625 -2.03125q-0.375 -0.421875 -1.8125 -0.421875l-2.0 0.40625q-0.40625 0.078125 -0.59375 0.078125q-1.40625 0 -1.40625 -1.796875l4.0 -0.6875q3.0 0 3.640625 0.8125q0.3125 0.390625 0.484375 0.671875q0.1875 0.28125 0.234375 1.0q0.125 1.15625 0.125 2.6875l0 16.59375q-1.796875 0 -2.125 -0.25q-0.3125 -0.265625 -0.3125 -1.75q-0.40625 0.234375 -1.125 0.875q-1.515625 1.40625 -2.5625 1.40625q-2.4375 0 -2.90625 -1.53125q-0.453125 -1.546875 -0.453125 -8.546875q0 -2.6875 2.3125 -3.5625q1.921875 -0.71875 4.890625 -0.71875l0.15625 0l-0.15625 -1.0zm-0.15625 3.234375q-2.328125 0 -3.515625 0.34375q-1.171875 0.34375 -1.171875 1.375q0 7.328125 0.328125 8.0q0.15625 0.28125 0.703125 0.28125q0.5625 0 1.21875 -0.3125q0.671875 -0.328125 1.40625 -0.859375q0.75 -0.546875 1.1875 -0.75l-0.15625 -1.0l0 -6.078125l0.15625 -1.0l-0.15625 0zm6.9143677 2.71875l0 -9.1875l0.15625 -1.0l-1.71875 0l0 -2.171875l1.71875 0l-0.15625 -1.390625l0 -1.765625q1.765625 0 2.0625 0.25q0.296875 0.234375 0.296875 1.59375l-0.15625 1.3125l3.671875 0q0 1.484375 -0.265625 1.828125q-0.25 0.34375 -1.65625 0.34375l-1.75 0l0.15625 1.0l0 9.1875q0 4.5625 0.234375 5.921875q0.25 1.359375 1.359375 1.359375l2.71875 0l0 1.84375l-2.75 0.203125q-2.765625 0 -3.34375 -1.703125q-0.578125 -1.703125 -0.578125 -7.625zm8.878723 -1.59375l0 -2.5625q0 -2.921875 0.140625 -3.671875q0.140625 -0.765625 0.3125 -1.640625q0.1875 -0.890625 0.4375 -1.21875q0.265625 -0.34375 0.640625 -0.828125q0.390625 -0.484375 0.953125 -0.640625q1.359375 -0.484375 2.75 -0.484375l3.328125 0.53125q0 1.75 -1.4375 1.75q-0.28125 0 -0.5625 -0.03125l-1.328125 -0.125q-2.03125 0 -2.484375 1.703125q-0.4375 1.703125 -0.4375 5.859375q0 4.15625 0.046875 5.40625q0.046875 1.234375 0.3125 2.609375q0.28125 1.375 0.875 1.796875q0.609375 0.421875 1.6875 0.421875l3.484375 -0.390625l0 1.828125l-3.484375 0.6875q-2.15625 0 -2.875 -0.515625q-0.71875 -0.53125 -1.078125 -0.859375q-0.359375 -0.34375 -0.625 -1.21875q-0.25 -0.890625 -0.375 -1.484375q-0.125 -0.609375 -0.203125 -1.96875q-0.078125 -2.3125 -0.078125 -4.953125zm21.754395 8.875l0 -8.84375q0 -5.109375 -0.40625 -7.03125q-0.390625 -1.921875 -2.109375 -1.921875l-3.921875 1.40625l0.15625 1.0l0 15.390625q0 1.359375 -0.296875 1.609375q-0.296875 0.234375 -2.0625 0.234375l0 -29.28125q1.71875 0 2.015625 0.25q0.3125 0.234375 0.3125 1.59375l0 7.15625l3.796875 -1.484375q3.40625 0 4.140625 2.203125q0.734375 2.203125 0.734375 8.921875l0 10.640625q-1.75 0 -2.0625 -0.234375q-0.296875 -0.25 -0.296875 -1.609375zm16.799988 1.4375q-3.078125 0.6875 -4.296875 0.6875q-1.21875 0 -1.875 -0.0625q-0.65625 -0.0625 -1.203125 -0.3125q-0.546875 -0.265625 -0.953125 -0.4375q-0.390625 -0.1875 -0.71875 -0.71875q-0.3125 -0.546875 -0.515625 -0.890625q-0.1875 -0.34375 -0.3125 -1.171875q-0.125 -0.84375 -0.203125 -1.359375q-0.078125 -0.53125 -0.125 -1.703125q-0.03125 -1.1875 -0.03125 -1.90625l0 -4.515625q0 -2.640625 0.109375 -3.421875q0.125 -0.78125 0.25 -1.65625q0.125 -0.890625 0.3125 -1.265625q0.203125 -0.375 0.515625 -0.9375q0.328125 -0.5625 0.71875 -0.78125q0.40625 -0.21875 0.953125 -0.46875q0.546875 -0.265625 1.203125 -0.34375q0.65625 -0.09375 1.5 -0.09375q0.84375 0 1.515625 0.125q0.6875 0.125 1.140625 0.484375q0.46875 0.359375 0.796875 0.6875q0.34375 0.3125 0.5625 1.03125q0.21875 0.71875 0.34375 1.21875q0.125 0.5 0.171875 1.5625q0.0625 1.0625 0.0625 1.703125l0 2.078125l0.15625 2.15625l-8.15625 0.203125l0.15625 1.0q0 5.109375 0.40625 5.921875q0.640625 1.3125 1.484375 1.515625q0.5625 0.15625 2.171875 0.15625q1.625 0 3.859375 -0.515625l0 2.03125zm-7.671875 -15.4375q0 0.71875 0 2.15625l-0.15625 1.0l5.671875 0l-0.203125 -1.03125q0 -3.203125 -0.4375 -4.5625q-0.4375 -1.359375 -1.984375 -1.359375q-1.53125 0 -2.171875 0.828125q-0.640625 0.8125 -0.71875 2.96875zm19.588745 14.8125q-0.46875 0.59375 -1.28125 0.890625q-0.796875 0.296875 -1.953125 0.296875q-1.15625 0 -4.75 -0.59375l0 -2.125q0.15625 0 2.015625 0.203125q1.859375 0.203125 2.78125 0.203125q2.234375 0 2.234375 -4.15625q0 -0.28125 0 -0.5625q-0.03125 -1.28125 -2.484375 -3.140625q-2.4375 -1.859375 -3.59375 -3.265625q-1.15625 -1.40625 -1.15625 -2.84375q0 -1.4375 0.03125 -2.0q0.046875 -0.5625 0.28125 -1.390625q0.25 -0.84375 0.71875 -1.203125q1.25 -1.0 3.765625 -1.0l3.796875 0.5625q0 1.75 -1.4375 1.75q-0.28125 0 -0.5625 -0.03125l-1.640625 -0.25q-1.953125 0 -2.390625 0.890625q-0.359375 0.75 -0.359375 2.21875q0 1.453125 3.109375 3.9375q1.4375 1.078125 2.171875 1.71875q0.75 0.640625 1.453125 1.6875q0.703125 1.03125 0.703125 2.015625q0 0.984375 -0.046875 1.6875q-0.03125 0.6875 -0.171875 1.65625q-0.140625 0.953125 -0.453125 1.59375q-0.296875 0.640625 -0.78125 1.25z" fill-rule="nonzero"/></g></svg>