<svg version="1.1" viewBox="0.0 0.0 960.0 540.0" fill="none" stroke="none" stroke-linecap="square" stroke-miterlimit="10" xmlns:xlink="http://www.w3.org/1999/xlink" xmlns="http://www.w3.org/2000/svg"><clipPath id="g3d2bfa4117_7_0.0"><path d="m0 0l960.0 0l0 540.0l-960.0 0l0 -540.0z" clip-rule="nonzero"/></clipPath><g clip-path="url(#g3d2bfa4117_7_0.0)"><path fill="#d0e0e3" d="m0 0l960.0 0l0 540.0l-960.0 0z" fill-rule="evenodd"/><path fill="#d9d2e9" d="m64.56956 131.47672l0 0c0 -9.277412 7.5208206 -16.79824 16.798233 -16.79824l174.34055 0c4.4551544 0 8.7278595 1.7698135 11.878159 4.9200897c3.1502686 3.1502838 4.9200745 7.4229813 4.9200745 11.878151l0 67.19093c0 9.277405 -7.520813 16.798233 -16.798233 16.798233l-174.34055 0c-9.277412 0 -16.798233 -7.5208282 -16.798233 -16.798233z" fill-rule="evenodd"/><path stroke="#595959" stroke-width="2.0" stroke-linejoin="round" stroke-linecap="butt" d="m64.56956 131.47672l0 0c0 -9.277412 7.5208206 -16.79824 16.798233 -16.79824l174.34055 0c4.4551544 0 8.7278595 1.7698135 11.878159 4.9200897c3.1502686 3.1502838 4.9200745 7.4229813 4.9200745 11.878151l0 67.19093c0 9.277405 -7.520813 16.798233 -16.798233 16.798233l-174.34055 0c-9.277412 0 -16.798233 -7.5208282 -16.798233 -16.798233z" fill-rule="evenodd"/><path fill="#000000" d="m99.635895 176.79218q-1.53125 0 -1.65625 -0.25q-0.0625 -0.140625 -0.0625 -0.390625q0 -0.25 3.515625 -22.40625l0.15625 0q1.515625 0 1.640625 0.265625q0.0625 0.125 0.0625 0.390625q0 0.25 -3.484375 22.390625l-0.171875 0zm5.1285095 0l-0.15625 0l3.640625 -23.109375l4.328125 -0.3125q3.03125 0 4.125 0.828125q1.109375 0.828125 1.109375 2.5625q0 1.734375 -0.09375 2.875q-0.09375 1.125 -0.515625 2.421875q-0.40625 1.296875 -1.15625 2.03125q-0.75 0.734375 -2.109375 1.25q-1.359375 0.515625 -3.3125 0.515625l-2.40625 0l0 0.796875l-1.375 8.671875q-0.15625 1.078125 -0.453125 1.28125q-0.28125 0.1875 -1.625 0.1875zm6.140625 -12.765625q3.140625 0 4.03125 -1.953125q0.484375 -1.03125 0.625 -2.0625q0.140625 -1.046875 0.140625 -2.453125q0 -1.40625 -0.71875 -1.875q-0.71875 -0.484375 -2.703125 -0.484375l-2.390625 0l0 0.796875l-1.125 7.234375l-0.265625 0.796875l2.40625 0zm18.875534 -8.609375l-0.375 -0.03125l-1.578125 -0.1875q-0.15625 -0.03125 -0.3125 -0.03125q-1.3125 0 -2.4375 1.734375q-1.109375 1.71875 -1.71875 4.53125q-1.25 5.5625 -1.25 9.796875q0 1.8125 0.59375 2.78125q0.59375 0.953125 2.03125 0.953125q0.734375 0 1.765625 -0.140625q1.046875 -0.140625 1.5 -0.171875l-0.296875 1.828125q-0.34375 0.0625 -1.46875 0.296875q-1.125 0.234375 -1.859375 0.234375q-2.390625 0 -3.375 -1.3125q-0.96875 -1.3125 -0.96875 -3.578125q0 -2.265625 0.1875 -4.515625q0.1875 -2.265625 0.75 -4.984375q0.5625 -2.71875 1.40625 -4.78125q0.859375 -2.078125 2.25 -3.28125q1.390625 -1.21875 2.953125 -1.21875q0.25 0 0.546875 0.03125l3.109375 0.640625q-0.234375 1.40625 -1.453125 1.40625zm10.407776 -2.046875q2.390625 0 3.375 1.296875q1.0 1.296875 1.0 3.515625q0 2.21875 -0.1875 4.4375q-0.1875 2.203125 -0.734375 4.859375q-0.546875 2.65625 -1.375 4.703125q-0.828125 2.046875 -2.296875 3.4375q-1.453125 1.390625 -3.296875 1.390625q-0.171875 0 -5.3125 -0.21875l3.640625 -23.109375l5.1875 -0.3125zm-3.453125 21.828125q1.5 0 2.703125 -1.84375q1.203125 -1.84375 1.796875 -4.5625q1.25 -5.40625 1.25 -9.890625q0 -1.828125 -0.59375 -2.765625q-0.578125 -0.9375 -2.0 -0.9375l-3.25 0l0 0.796875l-2.921875 18.390625l-0.25 0.8125l3.265625 0zm12.416534 1.8125q-1.890625 0 -2.46875 -0.703125q-0.578125 -0.703125 -0.578125 -2.5q0 -1.8125 0.25 -4.046875q0.265625 -2.25 0.828125 -4.734375q0.5625 -2.5 1.6875 -4.15625q1.140625 -1.671875 2.640625 -1.671875q0.484375 0 1.09375 0.203125q0.609375 0.203125 1.4375 0.46875q0.828125 0.25 1.203125 0.375q0.390625 0.125 0.78125 0.296875q0.703125 0.3125 0.703125 0.734375q0 0.125 -2.40625 15.515625q-1.109375 0 -1.46875 -0.109375q-0.34375 -0.109375 -0.28125 -0.5625l0.28125 -2.109375l-3.703125 3.0zm2.546875 -16.0q-1.203125 0 -2.109375 2.6875q-0.890625 2.6875 -1.21875 5.328125q-0.3125 2.640625 -0.3125 4.0q0 1.359375 0.21875 1.734375q0.234375 0.375 1.1875 0.375l3.78125 -2.765625l0 -0.796875l1.4375 -8.859375l0.25 -0.796875q-2.75 -0.90625 -3.234375 -0.90625zm9.0572815 15.9375q-1.4375 0 -2.0 -0.53125q-0.546875 -0.546875 -0.546875 -1.796875q0 -1.25 0.59375 -5.125l1.15625 -7.359375l0.265625 -0.796875l-1.375 0l0.28125 -1.734375l1.375 0l0.125 -1.109375l0.1875 -1.421875q1.578125 0 1.703125 0.265625q0.0625 0.125 0.0625 0.390625q0 0.25 -0.09375 0.828125l-0.359375 1.046875l2.953125 0q-0.1875 1.1875 -0.453125 1.46875q-0.25 0.265625 -1.375 0.265625l-1.40625 0l0 0.796875l-1.15625 7.359375q-0.609375 3.9375 -0.578125 4.484375q0 1.34375 0.9375 1.34375l2.171875 0l-0.21875 1.46875l-2.25 0.15625zm7.499893 0.0625q-1.890625 0 -2.46875 -0.703125q-0.578125 -0.703125 -0.578125 -2.5q0 -1.8125 0.25 -4.046875q0.265625 -2.25 0.828125 -4.734375q0.5625 -2.5 1.6875 -4.15625q1.140625 -1.671875 2.640625 -1.671875q0.484375 0 1.09375 0.203125q0.609375 0.203125 1.4375 0.46875q0.828125 0.25 1.203125 0.375q0.390625 0.125 0.78125 0.296875q0.703125 0.3125 0.703125 0.734375q0 0.125 -2.40625 15.515625q-1.109375 0 -1.46875 -0.109375q-0.34375 -0.109375 -0.28125 -0.5625l0.28125 -2.109375l-3.703125 3.0zm2.546875 -16.0q-1.203125 0 -2.109375 2.6875q-0.890625 2.6875 -1.21875 5.328125q-0.3125 2.640625 -0.3125 4.0q0 1.359375 0.21875 1.734375q0.234375 0.375 1.1875 0.375l3.78125 -2.765625l0 -0.796875l1.4375 -8.859375l0.25 -0.796875q-2.75 -0.90625 -3.234375 -0.90625zm16.354156 -5.65625l-0.40625 -0.03125l-1.765625 -0.1875q-2.234375 0 -3.078125 0.96875q-0.828125 0.96875 -0.828125 2.796875q0 1.125 0.984375 2.390625q1.0 1.265625 2.1875 2.265625q1.1875 0.984375 2.171875 2.375q1.0 1.390625 1.0 2.765625q0 8.28125 -6.71875 8.3125l-4.515625 -0.640625l0.25 -1.78125l4.640625 0.3125q2.625 0 3.484375 -1.75q0.75 -1.484375 0.75 -3.75q0 -1.0 -1.0 -2.25q-0.984375 -1.265625 -2.171875 -2.34375q-1.1875 -1.078125 -2.1875 -2.578125q-0.984375 -1.5 -0.984375 -2.90625q0 -3.046875 1.234375 -4.5q1.234375 -1.453125 4.6875 -1.453125q0.09375 0 0.15625 0l3.296875 0.640625q-0.125 0.796875 -0.40625 1.078125q-0.265625 0.265625 -0.78125 0.265625zm11.371399 16.640625q-0.671875 2.265625 -2.0 3.640625q-1.328125 1.375 -3.265625 1.375q-1.9375 0 -2.734375 -0.765625q-0.78125 -0.765625 -0.78125 -2.921875q0 -2.15625 0.28125 -4.4375q0.296875 -2.296875 0.96875 -4.53125q0.671875 -2.25 2.0 -3.609375q1.328125 -1.359375 3.265625 -1.359375q1.9375 0 2.734375 0.75q0.8125 0.75 0.8125 2.84375q0 2.09375 -0.3125 4.421875q-0.296875 2.3125 -0.96875 4.59375zm-6.390625 2.796875q0.4375 0.53125 1.515625 0.53125q1.09375 0 1.953125 -1.390625q0.875 -1.390625 1.3125 -3.40625q0.9375 -4.0 0.9375 -7.203125q0 -1.21875 -0.4375 -1.734375q-0.4375 -0.515625 -1.53125 -0.515625q-1.078125 0 -1.953125 1.34375q-0.859375 1.34375 -1.296875 3.328125q-0.9375 3.90625 -0.9375 7.296875q0 1.21875 0.4375 1.75zm12.686768 2.21875q-1.828125 0 -2.5625 -0.75q-0.734375 -0.75 -0.734375 -2.34375q0 -1.609375 0.671875 -5.796875l1.375 -8.515625q1.125 0 1.4375 0.078125q0.328125 0.078125 0.328125 0.359375q0 0.265625 -0.125 1.03125l-1.09375 6.984375q-0.609375 4.0 -0.609375 5.015625q0 2.25 1.46875 2.25l3.46875 -2.078125l0 -0.8125l2.046875 -12.828125q1.109375 0 1.421875 0.078125q0.328125 0.078125 0.328125 0.359375q0 0.265625 -0.125 1.03125l-2.46875 15.71875q-1.140625 0 -1.46875 -0.078125q-0.3125 -0.078125 -0.3125 -0.46875l0.1875 -1.34375l-3.234375 2.109375zm13.03067 -16.953125q0 0.0625 -0.0625 0.515625l-0.140625 0.796875q0.609375 -0.328125 1.125 -0.796875q1.34375 -1.21875 2.375 -1.21875q0.46875 0 0.953125 0.25q-0.1875 1.125 -0.421875 1.296875q-0.21875 0.171875 -1.4375 0.171875q-0.1875 0.171875 -1.28125 0.890625q-1.078125 0.71875 -1.71875 1.296875l0 0.796875l-2.015625 12.734375q-1.578125 0 -1.703125 -0.25q-0.0625 -0.140625 -0.0625 -0.390625q0 -0.25 0.09375 -0.828125l2.5 -15.71875q1.1875 0 1.484375 0.0625q0.3125 0.0625 0.3125 0.390625zm12.608002 1.1875l-2.109375 -0.328125q-1.125 0 -1.984375 2.65625q-0.84375 2.65625 -1.171875 5.296875q-0.3125 2.640625 -0.3125 4.015625q0 1.375 0.40625 1.90625q0.40625 0.53125 1.390625 0.53125l2.8125 -0.328125l-0.21875 1.484375l-2.875 0.53125q-1.921875 0 -2.703125 -0.765625q-0.765625 -0.765625 -0.765625 -2.515625q0 -1.765625 0.234375 -3.96875q0.25 -2.21875 0.796875 -4.703125q0.546875 -2.5 1.640625 -4.171875q1.109375 -1.6875 2.578125 -1.6875q0.328125 0 3.625 0.609375q-0.265625 1.4375 -1.34375 1.4375zm9.759277 15.234375q-2.53125 0.53125 -4.25 0.53125q-1.703125 0 -2.515625 -0.734375q-0.796875 -0.734375 -0.796875 -2.21875q0 -1.484375 0.453125 -4.34375q0.453125 -2.875 0.5625 -3.578125q0.109375 -0.703125 0.34375 -1.8125q0.25 -1.125 0.4375 -1.609375q0.1875 -0.484375 0.5 -1.203125q0.328125 -0.71875 0.6875 -0.984375q0.375 -0.28125 0.890625 -0.625q0.796875 -0.515625 2.578125 -0.515625q1.78125 0 2.4375 0.71875q0.65625 0.71875 0.65625 2.21875q0 1.4375 -0.546875 3.390625q-0.359375 1.15625 -1.25 1.90625q-0.890625 0.75 -2.203125 0.75l-3.171875 0l0 0.8125q-0.484375 2.875 -0.484375 4.0q0 1.109375 0.46875 1.59375q0.46875 0.484375 2.03125 0.484375q1.5625 0 3.421875 -0.421875l-0.25 1.640625zm-2.28125 -9.828125q0.703125 0 1.21875 -0.453125q0.515625 -0.453125 0.734375 -1.125q0.421875 -1.203125 0.421875 -2.046875q0 -1.953125 -1.40625 -1.953125q-1.3125 0 -2.015625 0.75q-0.484375 0.5 -0.734375 1.671875q-0.234375 1.171875 -0.390625 2.359375l-0.25 0.796875l2.421875 0z" fill-rule="nonzero"/><path fill="#d9d2e9" d="m64.56956 341.33237l0 0c0 -9.277405 7.5208206 -16.798248 16.798233 -16.798248l174.34055 0c4.4551544 0 8.7278595 1.7698059 11.878159 4.920105c3.1502686 3.1502686 4.9200745 7.4229736 4.9200745 11.878143l0 67.19092c0 9.277405 -7.520813 16.798248 -16.798233 16.798248l-174.34055 0c-9.277412 0 -16.798233 -7.5208435 -16.798233 -16.798248z" fill-rule="evenodd"/><path stroke="#595959" stroke-width="2.0" stroke-linejoin="round" stroke-linecap="butt" d="m64.56956 341.33237l0 0c0 -9.277405 7.5208206 -16.798248 16.798233 -16.798248l174.34055 0c4.4551544 0 8.7278595 1.7698059 11.878159 4.920105c3.1502686 3.1502686 4.9200745 7.4229736 4.9200745 11.878143l0 67.19092c0 9.277405 -7.520813 16.798248 -16.798233 16.798248l-174.34055 0c-9.277412 0 -16.798233 -7.5208435 -16.798233 -16.798248z" fill-rule="evenodd"/><path fill="#000000" d="m85.65188 386.64783q-1.53125 0 -1.65625 -0.25q-0.0625 -0.140625 -0.0625 -0.390625q0 -0.25 3.515625 -22.40625l0.15625 0q1.515625 0 1.640625 0.265625q0.0625 0.125 0.0625 0.390625q0 0.25 -3.484375 22.390625l-0.171875 0zm5.1285095 0l-0.15625 0l3.640625 -23.109375l4.328125 -0.3125q3.03125 0 4.125 0.828125q1.109375 0.828125 1.109375 2.5625q0 1.734375 -0.09375 2.875q-0.09375 1.125 -0.515625 2.421875q-0.40625 1.296875 -1.15625 2.03125q-0.75 0.734375 -2.109375 1.25q-1.359375 0.515625 -3.3125 0.515625l-2.40625 0l0 0.796875l-1.375 8.671875q-0.15625 1.078125 -0.453125 1.28125q-0.28125 0.1875 -1.625 0.1875zm6.140625 -12.765625q3.140625 0 4.03125 -1.953125q0.484375 -1.03125 0.625 -2.0625q0.140625 -1.046875 0.140625 -2.453125q0 -1.40625 -0.71875 -1.875q-0.71875 -0.484375 -2.703125 -0.484375l-2.390625 0l0 0.796875l-1.125 7.234375l-0.265625 0.796875l2.40625 0zm18.875534 -8.609375l-0.375 -0.03125l-1.578125 -0.1875q-0.15625 -0.03125 -0.3125 -0.03125q-1.3125 0 -2.4375 1.734375q-1.109375 1.71875 -1.71875 4.53125q-1.25 5.5625 -1.25 9.796875q0 1.8125 0.59375 2.78125q0.59375 0.953125 2.03125 0.953125q0.734375 0 1.765625 -0.140625q1.046875 -0.140625 1.5 -0.171875l-0.296875 1.828125q-0.34375 0.0625 -1.46875 0.296875q-1.125 0.234375 -1.859375 0.234375q-2.390625 0 -3.375 -1.3125q-0.96875 -1.3125 -0.96875 -3.578125q0 -2.265625 0.1875 -4.515625q0.1875 -2.265625 0.75 -4.984375q0.5625 -2.71875 1.40625 -4.78125q0.859375 -2.078125 2.25 -3.28125q1.390625 -1.21875 2.953125 -1.21875q0.25 0 0.546875 0.03125l3.109375 0.640625q-0.234375 1.40625 -1.453125 1.40625zm15.3296585 21.375q-1.5625 0 -1.6875 -0.25q-0.0625 -0.140625 -0.0625 -0.40625q0 -0.265625 2.78125 -17.84375l-0.15625 0l-0.234375 0.578125l-4.1875076 6.8125l-1.0 1.484375l-1.65625 0l-0.546875 -1.453125l-2.109375 -6.84375l0 -0.578125l-0.15625 0l-2.6875 17.03125q-0.171875 1.078125 -0.4375 1.28125q-0.265625 0.1875 -1.640625 0.1875l-0.140625 0l3.65625 -23.046875l0.15625 0q1.375 0 1.671875 0.203125q0.3125 0.1875 0.640625 1.28125l2.6875 8.765625l0.46875 0l6.4062576 -10.25l0.15625 0q1.5 0 1.640625 0.265625q0.0625 0.125 0.0625 0.390625q0 0.25 -3.5 22.390625l-0.125 0zm12.359909 -0.3125q-2.53125 0.53125 -4.25 0.53125q-1.703125 0 -2.515625 -0.734375q-0.796875 -0.734375 -0.796875 -2.21875q0 -1.484375 0.453125 -4.34375q0.453125 -2.875 0.5625 -3.578125q0.109375 -0.703125 0.34375 -1.8125q0.25 -1.125 0.4375 -1.609375q0.1875 -0.484375 0.5 -1.203125q0.328125 -0.71875 0.6875 -0.984375q0.375 -0.28125 0.890625 -0.625q0.796875 -0.515625 2.578125 -0.515625q1.78125 0 2.4375 0.71875q0.65625 0.71875 0.65625 2.21875q0 1.4375 -0.546875 3.390625q-0.359375 1.15625 -1.25 1.90625q-0.890625 0.75 -2.203125 0.75l-3.171875 0l0 0.8125q-0.484375 2.875 -0.484375 4.0q0 1.109375 0.46875 1.59375q0.46875 0.484375 2.03125 0.484375q1.5625 0 3.421875 -0.421875l-0.25 1.640625zm-2.28125 -9.828125q0.703125 0 1.21875 -0.453125q0.515625 -0.453125 0.734375 -1.125q0.421875 -1.203125 0.421875 -2.046875q0 -1.953125 -1.40625 -1.953125q-1.3125 0 -2.015625 0.75q-0.484375 0.5 -0.734375 1.671875q-0.234375 1.171875 -0.390625 2.359375l-0.25 0.796875l2.421875 0zm9.4835205 10.359375q-1.921875 0 -2.703125 -0.75q-0.765625 -0.75 -0.765625 -2.5q0 -1.765625 0.25 -4.0q0.265625 -2.25 0.828125 -4.734375q0.5625 -2.5 1.6875 -4.15625q1.140625 -1.671875 2.65625 -1.671875l3.359375 0.1875l0.953125 -6.015625q1.53125 0 1.65625 0.25q0.078125 0.125 0.078125 0.390625q0 0.25 -0.109375 0.828125l-3.453125 21.953125q-1.53125 0 -1.65625 -0.25q-0.0625 -0.140625 -0.0625 -0.34375q0 -0.203125 0.125 -1.109375l-2.84375 1.921875zm0.015625 -13.3125q-0.890625 2.6875 -1.21875 5.328125q-0.3125 2.640625 -0.3125 3.96875q0 1.328125 0.421875 1.828125q0.421875 0.5 1.40625 0.5l2.84375 -1.4375l0 -0.8125l1.765625 -11.1875l0.25 -0.8125l-3.03125 -0.0625q-1.21875 0 -2.125 2.6875zm12.619156 -7.03125q-1.09375 0 -1.09375 -1.25q0 -0.640625 0.453125 -1.15625q0.453125 -0.515625 1.125 -0.515625q1.046875 0 1.046875 1.21875q0 0.671875 -0.453125 1.1875q-0.4375 0.515625 -1.078125 0.515625zm-3.9375 20.0q-0.0625 -0.125 -0.0625 -0.375q0 -0.265625 2.625 -16.6875q1.125 0 1.4375 0.078125q0.328125 0.078125 0.328125 0.359375q0 0.265625 -0.140625 1.03125l-2.484375 15.84375q-1.578125 0 -1.703125 -0.25zm9.094131 0.34375q-1.890625 0 -2.46875 -0.703125q-0.578125 -0.703125 -0.578125 -2.5q0 -1.8125 0.25 -4.046875q0.265625 -2.25 0.828125 -4.734375q0.5625 -2.5 1.6875 -4.15625q1.140625 -1.671875 2.640625 -1.671875q0.484375 0 1.09375 0.203125q0.609375 0.203125 1.4375 0.46875q0.828125 0.25 1.203125 0.375q0.390625 0.125 0.78125 0.296875q0.703125 0.3125 0.703125 0.734375q0 0.125 -2.40625 15.515625q-1.109375 0 -1.46875 -0.109375q-0.34375 -0.109375 -0.28125 -0.5625l0.28125 -2.109375l-3.703125 3.0zm2.546875 -16.0q-1.203125 0 -2.109375 2.6875q-0.890625 2.6875 -1.21875 5.328125q-0.3125 2.640625 -0.3125 4.0q0 1.359375 0.21875 1.734375q0.234375 0.375 1.1875 0.375l3.78125 -2.765625l0 -0.796875l1.4375 -8.859375l0.25 -0.796875q-2.75 -0.90625 -3.234375 -0.90625zm6.6979065 15.78125l-0.15625 0l3.640625 -23.109375l4.328125 -0.3125q3.03125 0 4.125 0.828125q1.109375 0.828125 1.109375 2.5625q0 1.734375 -0.09375 2.875q-0.09375 1.125 -0.515625 2.421875q-0.40625 1.296875 -1.15625 2.03125q-0.75 0.734375 -2.109375 1.25q-1.359375 0.515625 -3.3125 0.515625l-2.40625 0l0 0.796875l-1.375 8.671875q-0.15625 1.078125 -0.453125 1.28125q-0.28125 0.1875 -1.625 0.1875zm6.140625 -12.765625q3.140625 0 4.03125 -1.953125q0.484375 -1.03125 0.625 -2.0625q0.140625 -1.046875 0.140625 -2.453125q0 -1.40625 -0.71875 -1.875q-0.71875 -0.484375 -2.703125 -0.484375l-2.390625 0l0 0.796875l-1.125 7.234375l-0.265625 0.796875l2.40625 0zm11.938034 -7.359375q-1.09375 0 -1.09375 -1.25q0 -0.640625 0.453125 -1.15625q0.453125 -0.515625 1.125 -0.515625q1.046875 0 1.046875 1.21875q0 0.671875 -0.453125 1.1875q-0.4375 0.515625 -1.078125 0.515625zm-3.9375 20.0q-0.0625 -0.125 -0.0625 -0.375q0 -0.265625 2.625 -16.6875q1.125 0 1.4375 0.078125q0.328125 0.078125 0.328125 0.359375q0 0.265625 -0.140625 1.03125l-2.484375 15.84375q-1.578125 0 -1.703125 -0.25zm12.703506 -17.28125q1.953125 0 2.734375 0.90625q0.78125 0.890625 0.78125 2.8125q0 1.90625 -0.265625 4.109375q-0.265625 2.1875 -0.828125 4.546875q-0.5625 2.34375 -1.703125 3.90625q-1.140625 1.546875 -2.609375 1.546875q-0.609375 0 -3.234375 -1.671875l-1.203125 7.65625q-1.546875 0 -1.671875 -0.265625q-0.0625 -0.125 -0.0625 -0.390625q0 -0.25 0.09375 -0.828125l3.515625 -22.109375l4.453125 -0.21875zm-2.109375 16.09375q1.15625 0 2.046875 -2.359375q0.890625 -2.375 1.234375 -4.890625q0.359375 -2.515625 0.359375 -4.28125q0 -1.78125 -0.328125 -2.328125q-0.3125 -0.546875 -1.65625 -0.546875l-2.484375 0l0 0.8125l-1.765625 11.1875l-0.28125 0.8125q2.546875 1.59375 2.875 1.59375zm16.034409 1.0q-2.53125 0.53125 -4.25 0.53125q-1.703125 0 -2.515625 -0.734375q-0.796875 -0.734375 -0.796875 -2.21875q0 -1.484375 0.453125 -4.34375q0.453125 -2.875 0.5625 -3.578125q0.109375 -0.703125 0.34375 -1.8125q0.25 -1.125 0.4375 -1.609375q0.1875 -0.484375 0.5 -1.203125q0.328125 -0.71875 0.6875 -0.984375q0.375 -0.28125 0.890625 -0.625q0.796875 -0.515625 2.578125 -0.515625q1.78125 0 2.4375 0.71875q0.65625 0.71875 0.65625 2.21875q0 1.4375 -0.546875 3.390625q-0.359375 1.15625 -1.25 1.90625q-0.890625 0.75 -2.203125 0.75l-3.171875 0l0 0.8125q-0.484375 2.875 -0.484375 4.0q0 1.109375 0.46875 1.59375q0.46875 0.484375 2.03125 0.484375q1.5625 0 3.421875 -0.421875l-0.25 1.640625zm-2.28125 -9.828125q0.703125 0 1.21875 -0.453125q0.515625 -0.453125 0.734375 -1.125q0.421875 -1.203125 0.421875 -2.046875q0 -1.953125 -1.40625 -1.953125q-1.3125 0 -2.015625 0.75q-0.484375 0.5 -0.734375 1.671875q-0.234375 1.171875 -0.390625 2.359375l-0.25 0.796875l2.421875 0zm5.8272705 10.015625q-0.0625 -0.125 -0.0625 -0.375q0 -0.265625 3.578125 -22.921875q1.578125 0 1.703125 0.25q0.0625 0.125 0.0625 0.40625q0 0.265625 -3.578125 22.890625q-1.578125 0 -1.703125 -0.25zm9.795013 -20.0q-1.09375 0 -1.09375 -1.25q0 -0.640625 0.453125 -1.15625q0.453125 -0.515625 1.125 -0.515625q1.046875 0 1.046875 1.21875q0 0.671875 -0.453125 1.1875q-0.4375 0.515625 -1.078125 0.515625zm-3.9375 20.0q-0.0625 -0.125 -0.0625 -0.375q0 -0.265625 2.625 -16.6875q1.125 0 1.4375 0.078125q0.328125 0.078125 0.328125 0.359375q0 0.265625 -0.140625 1.03125l-2.484375 15.84375q-1.578125 0 -1.703125 -0.25zm8.641006 -17.0625q1.1875 0 1.484375 0.0625q0.3125 0.0625 0.3125 0.34375q0 0.265625 -0.140625 1.171875q0.359375 -0.203125 1.0625 -0.703125q1.5 -1.09375 2.078125 -1.09375q1.921875 0 2.640625 0.5625q0.71875 0.5625 0.71875 2.125q0 1.5625 -2.078125 14.71875q-1.34375 0 -1.546875 -0.171875q-0.1875 -0.1875 -0.1875 -0.546875q0 -0.375 0.9375 -6.359375q0.953125 -5.984375 0.953125 -6.953125q0 -0.984375 -0.359375 -1.328125q-0.34375 -0.359375 -0.921875 -0.359375q-0.5625 0 -1.125 0.296875q-0.5625 0.28125 -1.375 0.765625q-0.796875 0.484375 -1.171875 0.671875l0 0.796875l-2.109375 13.1875q-1.34375 0 -1.546875 -0.171875q-0.1875 -0.1875 -0.1875 -0.546875q0 -0.375 0.0625 -0.75l2.5 -15.71875zm17.667526 16.875q-2.53125 0.53125 -4.25 0.53125q-1.703125 0 -2.515625 -0.734375q-0.796875 -0.734375 -0.796875 -2.21875q0 -1.484375 0.453125 -4.34375q0.453125 -2.875 0.5625 -3.578125q0.109375 -0.703125 0.34375 -1.8125q0.25 -1.125 0.4375 -1.609375q0.1875 -0.484375 0.5 -1.203125q0.328125 -0.71875 0.6875 -0.984375q0.375 -0.28125 0.890625 -0.625q0.796875 -0.515625 2.578125 -0.515625q1.78125 0 2.4375 0.71875q0.65623474 0.71875 0.65623474 2.21875q0 1.4375 -0.54685974 3.390625q-0.359375 1.15625 -1.25 1.90625q-0.890625 0.75 -2.203125 0.75l-3.171875 0l0 0.8125q-0.484375 2.875 -0.484375 4.0q0 1.109375 0.46875 1.59375q0.46875 0.484375 2.03125 0.484375q1.5625 0 3.421875 -0.421875l-0.25 1.640625zm-2.28125 -9.828125q0.703125 0 1.21875 -0.453125q0.515625 -0.453125 0.734375 -1.125q0.421875 -1.203125 0.421875 -2.046875q0 -1.953125 -1.40625 -1.953125q-1.3125 0 -2.015625 0.75q-0.484375 0.5 -0.734375 1.671875q-0.234375 1.171875 -0.390625 2.359375l-0.25 0.796875l2.421875 0z" fill-rule="nonzero"/><path fill="#d9d2e9" d="m350.12598 341.33237l0 0c0 -9.277405 7.5208435 -16.798248 16.798248 -16.798248l226.15158 0c4.455139 0 8.727844 1.7698059 11.878113 4.920105c3.1502686 3.1502686 4.920105 7.4229736 4.920105 11.878143l0 67.19092c0 9.277405 -7.520813 16.798248 -16.798218 16.798248l-226.15158 0l0 0c-9.277405 0 -16.798248 -7.5208435 -16.798248 -16.798248z" fill-rule="evenodd"/><path stroke="#595959" stroke-width="2.0" stroke-linejoin="round" stroke-linecap="butt" d="m350.12598 341.33237l0 0c0 -9.277405 7.5208435 -16.798248 16.798248 -16.798248l226.15158 0c4.455139 0 8.727844 1.7698059 11.878113 4.920105c3.1502686 3.1502686 4.920105 7.4229736 4.920105 11.878143l0 67.19092c0 9.277405 -7.520813 16.798248 -16.798218 16.798248l-226.15158 0l0 0c-9.277405 0 -16.798248 -7.5208435 -16.798248 -16.798248z" fill-rule="evenodd"/><path fill="#000000" d="m369.04227 386.64783l-0.15625 0l3.640625 -23.109375l4.328125 -0.3125q3.03125 0 4.125 0.828125q1.109375 0.828125 1.109375 2.5625q0 1.734375 -0.09375 2.875q-0.09375 1.125 -0.515625 2.421875q-0.40625 1.296875 -1.15625 2.03125q-0.75 0.734375 -2.109375 1.25q-1.359375 0.515625 -3.3125 0.515625l-2.40625 0l0 0.796875l-1.375 8.671875q-0.15625 1.078125 -0.453125 1.28125q-0.28125 0.1875 -1.625 0.1875zm6.140625 -12.765625q3.140625 0 4.03125 -1.953125q0.484375 -1.03125 0.625 -2.0625q0.140625 -1.046875 0.140625 -2.453125q0 -1.40625 -0.71875 -1.875q-0.71875 -0.484375 -2.703125 -0.484375l-2.390625 0l0 0.796875l-1.125 7.234375l-0.265625 0.796875l2.40625 0zm8.063019 12.640625q-0.0625 -0.125 -0.0625 -0.375q0 -0.265625 3.578125 -22.921875q1.578125 0 1.703125 0.25q0.0625 0.125 0.0625 0.40625q0 0.265625 -3.578125 22.890625q-1.578125 0 -1.703125 -0.25zm8.935638 0.34375q-1.890625 0 -2.46875 -0.703125q-0.578125 -0.703125 -0.578125 -2.5q0 -1.8125 0.25 -4.046875q0.265625 -2.25 0.828125 -4.734375q0.5625 -2.5 1.6875 -4.15625q1.140625 -1.671875 2.640625 -1.671875q0.484375 0 1.09375 0.203125q0.609375 0.203125 1.4375 0.46875q0.828125 0.25 1.203125 0.375q0.390625 0.125 0.78125 0.296875q0.703125 0.3125 0.703125 0.734375q0 0.125 -2.40625 15.515625q-1.109375 0 -1.46875 -0.109375q-0.34375 -0.109375 -0.28125 -0.5625l0.28125 -2.109375l-3.703125 3.0zm2.546875 -16.0q-1.203125 0 -2.109375 2.6875q-0.890625 2.6875 -1.21875 5.328125q-0.3125 2.640625 -0.3125 4.0q0 1.359375 0.21875 1.734375q0.234375 0.375 1.1875 0.375l3.78125 -2.765625l0 -0.796875l1.4375 -8.859375l0.25 -0.796875q-2.75 -0.90625 -3.234375 -0.90625zm9.0572815 15.9375q-1.4375 0 -2.0 -0.53125q-0.546875 -0.546875 -0.546875 -1.796875q0 -1.25 0.59375 -5.125l1.15625 -7.359375l0.265625 -0.796875l-1.375 0l0.28125 -1.734375l1.375 0l0.125 -1.109375l0.1875 -1.421875q1.578125 0 1.703125 0.265625q0.0625 0.125 0.0625 0.390625q0 0.25 -0.09375 0.828125l-0.359375 1.046875l2.953125 0q-0.1875 1.1875 -0.453125 1.46875q-0.25 0.265625 -1.375 0.265625l-1.40625 0l0 0.796875l-1.15625 7.359375q-0.609375 3.9375 -0.578125 4.484375q0 1.34375 0.9375 1.34375l2.171875 0l-0.21875 1.46875l-2.25 0.15625zm7.3905334 -17.34375l0 -0.953125l0.078125 -0.359375q0.46875 -3.0 1.015625 -3.546875q0.859375 -0.921875 1.609375 -1.0625q1.625 -0.28125 3.546875 -0.28125l-0.21875 1.5q-2.5 0 -3.078125 0.5q-0.578125 0.5 -0.96875 2.890625l-0.34375 1.3125l2.875 0l-0.28125 1.734375l-2.921875 0l0 0.953125l-2.296875 14.5q-0.546875 3.078125 -0.9375 3.71875q-0.375 0.640625 -0.859375 1.1875q-0.46875 0.5625 -1.046875 0.859375q-1.4375 0.640625 -3.453125 0.640625l0.21875 -1.421875q1.25 0 2.0 -0.265625q0.75 -0.265625 1.1875 -1.015625q0.453125 -0.734375 0.640625 -1.484375q0.203125 -0.75 0.421875 -2.21875l2.25 -14.5l0.3125 -0.953125l-1.71875 0l0.28125 -1.734375l1.6875 0zm13.485748 12.390625q-0.671875 2.265625 -2.0 3.640625q-1.328125 1.375 -3.265625 1.375q-1.9375 0 -2.734375 -0.765625q-0.78125 -0.765625 -0.78125 -2.921875q0 -2.15625 0.28125 -4.4375q0.296875 -2.296875 0.96875 -4.53125q0.671875 -2.25 2.0 -3.609375q1.328125 -1.359375 3.265625 -1.359375q1.9375 0 2.734375 0.75q0.8125 0.75 0.8125 2.84375q0 2.09375 -0.3125 4.421875q-0.296875 2.3125 -0.96875 4.59375zm-6.390625 2.796875q0.4375 0.53125 1.515625 0.53125q1.09375 0 1.953125 -1.390625q0.875 -1.390625 1.3125 -3.40625q0.9375 -4.0 0.9375 -7.203125q0 -1.21875 -0.4375 -1.734375q-0.4375 -0.515625 -1.53125 -0.515625q-1.078125 0 -1.953125 1.34375q-0.859375 1.34375 -1.296875 3.328125q-0.9375 3.90625 -0.9375 7.296875q0 1.21875 0.4375 1.75zm13.077393 -14.734375q0 0.0625 -0.0625 0.515625l-0.140625 0.796875q0.609375 -0.328125 1.125 -0.796875q1.34375 -1.21875 2.375 -1.21875q0.46875 0 0.953125 0.25q-0.1875 1.125 -0.421875 1.296875q-0.21875 0.171875 -1.4375 0.171875q-0.1875 0.171875 -1.28125 0.890625q-1.078125 0.71875 -1.71875 1.296875l0 0.796875l-2.015625 12.734375q-1.578125 0 -1.703125 -0.25q-0.0625 -0.140625 -0.0625 -0.390625q0 -0.25 0.09375 -0.828125l2.5 -15.71875q1.1875 0 1.484375 0.0625q0.3125 0.0625 0.3125 0.390625zm8.608032 0q0 0.0625 -0.03125 0.28125q-0.171875 0.734375 -0.171875 0.90625q0.78125 -0.734375 1.75 -1.296875q0.96875 -0.5625 1.453125 -0.5625q1.25 0 2.140625 0.578125q0.90625 0.578125 0.90625 1.5625q2.65625 -2.140625 3.765625 -2.140625q1.953125 0 2.671875 0.5q0.734375 0.484375 0.734375 1.953125q0 1.453125 -2.125 14.953125q-0.375 0 -0.625 0q-0.234375 0 -0.453125 -0.015625q-0.203125 -0.015625 -0.25 -0.03125q-0.046875 -0.015625 -0.171875 -0.0625q-0.125 -0.046875 -0.140625 -0.125q-0.015625 -0.078125 -0.078125 -0.1875q-0.0625 -0.125 -0.046875 -0.265625q0.015625 -0.140625 0.03125 -0.328125q0.015625 -0.203125 0.9375 -6.125q0.9375 -5.921875 0.9375 -6.90625q0 -1.0 -0.375 -1.328125q-0.375 -0.34375 -1.015625 -0.34375q-0.625 0 -1.171875 0.296875q-0.546875 0.28125 -1.296875 0.796875q-0.75 0.515625 -1.109375 0.703125l0 0.796875l-2.046875 13.125q-0.09375 0 -0.6875 0q-0.59375 0 -0.8125 -0.15625q-0.203125 -0.15625 -0.203125 -0.53125q0 -0.375 0.203125 -1.734375q0.21875 -1.359375 0.578125 -3.703125q0.375 -2.359375 0.53125 -3.34375q0.171875 -1.0 0.296875 -1.984375q0.21875 -1.4375 0.21875 -2.34375q0 -0.921875 -0.375 -1.421875q-0.359375 -0.5 -1.25 -0.5q-0.484375 0 -1.71875 0.8125q-1.234375 0.796875 -1.578125 0.984375l0 0.796875l-2.046875 13.125q-1.578125 0 -1.703125 -0.25q-0.0625 -0.140625 -0.0625 -0.390625q0 -0.25 0.09375 -0.828125l2.5 -15.71875q1.1875 0 1.484375 0.0625q0.3125 0.0625 0.3125 0.390625zm29.015411 16.734375q-1.5625 0 -1.6875 -0.25q-0.0625 -0.140625 -0.0625 -0.40625q0 -0.265625 2.78125 -17.84375l-0.15625 0l-0.234375 0.578125l-4.1875 6.8125l-1.0 1.484375l-1.65625 0l-0.546875 -1.453125l-2.109375 -6.84375l0 -0.578125l-0.15625 0l-2.6875 17.03125q-0.171875 1.078125 -0.4375 1.28125q-0.265625 0.1875 -1.640625 0.1875l-0.140625 0l3.65625 -23.046875l0.15625 0q1.375 0 1.671875 0.203125q0.3125 0.1875 0.640625 1.28125l2.6875 8.765625l0.46875 0l6.40625 -10.25l0.15625 0q1.5 0 1.640625 0.265625q0.0625 0.125 0.0625 0.390625q0 0.25 -3.5 22.390625l-0.125 0zm12.359894 -0.3125q-2.53125 0.53125 -4.25 0.53125q-1.703125 0 -2.515625 -0.734375q-0.796875 -0.734375 -0.796875 -2.21875q0 -1.484375 0.453125 -4.34375q0.453125 -2.875 0.5625 -3.578125q0.109375 -0.703125 0.34375 -1.8125q0.25 -1.125 0.4375 -1.609375q0.1875 -0.484375 0.5 -1.203125q0.328125 -0.71875 0.6875 -0.984375q0.375 -0.28125 0.890625 -0.625q0.796875 -0.515625 2.578125 -0.515625q1.78125 0 2.4375 0.71875q0.65625 0.71875 0.65625 2.21875q0 1.4375 -0.546875 3.390625q-0.359375 1.15625 -1.25 1.90625q-0.890625 0.75 -2.203125 0.75l-3.171875 0l0 0.8125q-0.484375 2.875 -0.484375 4.0q0 1.109375 0.46875 1.59375q0.46875 0.484375 2.03125 0.484375q1.5625 0 3.421875 -0.421875l-0.25 1.640625zm-2.28125 -9.828125q0.703125 0 1.21875 -0.453125q0.515625 -0.453125 0.734375 -1.125q0.421875 -1.203125 0.421875 -2.046875q0 -1.953125 -1.40625 -1.953125q-1.3125 0 -2.015625 0.75q-0.484375 0.5 -0.734375 1.671875q-0.234375 1.171875 -0.390625 2.359375l-0.25 0.796875l2.421875 0zm9.4835205 10.359375q-1.921875 0 -2.703125 -0.75q-0.765625 -0.75 -0.765625 -2.5q0 -1.765625 0.25 -4.0q0.265625 -2.25 0.828125 -4.734375q0.5625 -2.5 1.6875 -4.15625q1.140625 -1.671875 2.65625 -1.671875l3.359375 0.1875l0.953125 -6.015625q1.53125 0 1.65625 0.25q0.078125 0.125 0.078125 0.390625q0 0.25 -0.109375 0.828125l-3.453125 21.953125q-1.53125 0 -1.65625 -0.25q-0.0625 -0.140625 -0.0625 -0.34375q0 -0.203125 0.125 -1.109375l-2.84375 1.921875zm0.015625 -13.3125q-0.890625 2.6875 -1.21875 5.328125q-0.3125 2.640625 -0.3125 3.96875q0 1.328125 0.421875 1.828125q0.421875 0.5 1.40625 0.5l2.84375 -1.4375l0 -0.8125l1.765625 -11.1875l0.25 -0.8125l-3.03125 -0.0625q-1.21875 0 -2.125 2.6875zm12.619171 -7.03125q-1.09375 0 -1.09375 -1.25q0 -0.640625 0.453125 -1.15625q0.453125 -0.515625 1.125 -0.515625q1.046875 0 1.046875 1.21875q0 0.671875 -0.453125 1.1875q-0.4375 0.515625 -1.078125 0.515625zm-3.9375 20.0q-0.0625 -0.125 -0.0625 -0.375q0 -0.265625 2.625 -16.6875q1.125 0 1.4375 0.078125q0.328125 0.078125 0.328125 0.359375q0 0.265625 -0.140625 1.03125l-2.484375 15.84375q-1.578125 0 -1.703125 -0.25zm9.094116 0.34375q-1.890625 0 -2.46875 -0.703125q-0.578125 -0.703125 -0.578125 -2.5q0 -1.8125 0.25 -4.046875q0.265625 -2.25 0.828125 -4.734375q0.5625 -2.5 1.6875 -4.15625q1.140625 -1.671875 2.640625 -1.671875q0.484375 0 1.09375 0.203125q0.609375 0.203125 1.4375 0.46875q0.8281555 0.25 1.2031555 0.375q0.390625 0.125 0.78125 0.296875q0.703125 0.3125 0.703125 0.734375q0 0.125 -2.4062805 15.515625q-1.109375 0 -1.46875 -0.109375q-0.34375 -0.109375 -0.28125 -0.5625l0.28125 -2.109375l-3.703125 3.0zm2.546875 -16.0q-1.203125 0 -2.109375 2.6875q-0.890625 2.6875 -1.21875 5.328125q-0.3125 2.640625 -0.3125 4.0q0 1.359375 0.21875 1.734375q0.234375 0.375 1.1875 0.375l3.78125 -2.765625l0 -0.796875l1.4375 -8.859375l0.25003052 -0.796875q-2.7500305 -0.90625 -3.2344055 -0.90625zm6.6979065 15.78125l-0.15625 0l3.640625 -23.109375l4.328125 -0.3125q3.03125 0 4.125 0.828125q1.109375 0.828125 1.109375 2.5625q0 1.734375 -0.09375 2.875q-0.09375 1.125 -0.515625 2.421875q-0.40625 1.296875 -1.15625 2.03125q-0.75 0.734375 -2.109375 1.25q-1.359375 0.515625 -3.3125 0.515625l-2.40625 0l0 0.796875l-1.375 8.671875q-0.15625 1.078125 -0.453125 1.28125q-0.28125 0.1875 -1.625 0.1875zm6.140625 -12.765625q3.140625 0 4.03125 -1.953125q0.484375 -1.03125 0.625 -2.0625q0.140625 -1.046875 0.140625 -2.453125q0 -1.40625 -0.71875 -1.875q-0.71875 -0.484375 -2.703125 -0.484375l-2.390625 0l0 0.796875l-1.125 7.234375l-0.265625 0.796875l2.40625 0zm11.938049 -7.359375q-1.09375 0 -1.09375 -1.25q0 -0.640625 0.453125 -1.15625q0.453125 -0.515625 1.125 -0.515625q1.046875 0 1.046875 1.21875q0 0.671875 -0.453125 1.1875q-0.4375 0.515625 -1.078125 0.515625zm-3.9375 20.0q-0.0625 -0.125 -0.0625 -0.375q0 -0.265625 2.625 -16.6875q1.125 0 1.4375 0.078125q0.328125 0.078125 0.328125 0.359375q0 0.265625 -0.140625 1.03125l-2.484375 15.84375q-1.578125 0 -1.703125 -0.25zm12.703491 -17.28125q1.953125 0 2.734375 0.90625q0.78125 0.890625 0.78125 2.8125q0 1.90625 -0.265625 4.109375q-0.265625 2.1875 -0.828125 4.546875q-0.5625 2.34375 -1.703125 3.90625q-1.140625 1.546875 -2.609375 1.546875q-0.609375 0 -3.234375 -1.671875l-1.203125 7.65625q-1.546875 0 -1.671875 -0.265625q-0.0625 -0.125 -0.0625 -0.390625q0 -0.25 0.09375 -0.828125l3.515625 -22.109375l4.453125 -0.21875zm-2.109375 16.09375q1.15625 0 2.046875 -2.359375q0.890625 -2.375 1.234375 -4.890625q0.359375 -2.515625 0.359375 -4.28125q0 -1.78125 -0.328125 -2.328125q-0.3125 -0.546875 -1.65625 -0.546875l-2.484375 0l0 0.8125l-1.765625 11.1875l-0.28125 0.8125q2.546875 1.59375 2.875 1.59375zm16.034424 1.0q-2.53125 0.53125 -4.25 0.53125q-1.703125 0 -2.515625 -0.734375q-0.796875 -0.734375 -0.796875 -2.21875q0 -1.484375 0.453125 -4.34375q0.453125 -2.875 0.5625 -3.578125q0.109375 -0.703125 0.34375 -1.8125q0.25 -1.125 0.4375 -1.609375q0.1875 -0.484375 0.5 -1.203125q0.328125 -0.71875 0.6875 -0.984375q0.375 -0.28125 0.890625 -0.625q0.796875 -0.515625 2.578125 -0.515625q1.78125 0 2.4375 0.71875q0.65625 0.71875 0.65625 2.21875q0 1.4375 -0.546875 3.390625q-0.359375 1.15625 -1.25 1.90625q-0.890625 0.75 -2.203125 0.75l-3.171875 0l0 0.8125q-0.484375 2.875 -0.484375 4.0q0 1.109375 0.46875 1.59375q0.46875 0.484375 2.03125 0.484375q1.5625 0 3.421875 -0.421875l-0.25 1.640625zm-2.28125 -9.828125q0.703125 0 1.21875 -0.453125q0.515625 -0.453125 0.734375 -1.125q0.421875 -1.203125 0.421875 -2.046875q0 -1.953125 -1.40625 -1.953125q-1.3125 0 -2.015625 0.75q-0.484375 0.5 -0.734375 1.671875q-0.234375 1.171875 -0.390625 2.359375l-0.25 0.796875l2.421875 0zm5.8272705 10.015625q-0.0625 -0.125 -0.0625 -0.375q0 -0.265625 3.578125 -22.921875q1.578125 0 1.703125 0.25q0.0625 0.125 0.0625 0.40625q0 0.265625 -3.578125 22.890625q-1.578125 0 -1.703125 -0.25zm9.794983 -20.0q-1.09375 0 -1.09375 -1.25q0 -0.640625 0.453125 -1.15625q0.453125 -0.515625 1.125 -0.515625q1.046875 0 1.046875 1.21875q0 0.671875 -0.453125 1.1875q-0.4375 0.515625 -1.078125 0.515625zm-3.9375 20.0q-0.0625 -0.125 -0.0625 -0.375q0 -0.265625 2.625 -16.6875q1.125 0 1.4375 0.078125q0.328125 0.078125 0.328125 0.359375q0 0.265625 -0.140625 1.03125l-2.484375 15.84375q-1.578125 0 -1.703125 -0.25zm8.641052 -17.0625q1.1875 0 1.484375 0.0625q0.3125 0.0625 0.3125 0.34375q0 0.265625 -0.140625 1.171875q0.359375 -0.203125 1.0625 -0.703125q1.5 -1.09375 2.078125 -1.09375q1.921875 0 2.640625 0.5625q0.71875 0.5625 0.71875 2.125q0 1.5625 -2.078125 14.71875q-1.34375 0 -1.546875 -0.171875q-0.1875 -0.1875 -0.1875 -0.546875q0 -0.375 0.9375 -6.359375q0.953125 -5.984375 0.953125 -6.953125q0 -0.984375 -0.359375 -1.328125q-0.34375 -0.359375 -0.921875 -0.359375q-0.5625 0 -1.125 0.296875q-0.5625 0.28125 -1.375 0.765625q-0.796875 0.484375 -1.171875 0.671875l0 0.796875l-2.109375 13.1875q-1.34375 0 -1.546875 -0.171875q-0.1875 -0.1875 -0.1875 -0.546875q0 -0.375 0.0625 -0.75l2.5 -15.71875zm17.66748 16.875q-2.53125 0.53125 -4.25 0.53125q-1.703125 0 -2.515625 -0.734375q-0.796875 -0.734375 -0.796875 -2.21875q0 -1.484375 0.453125 -4.34375q0.453125 -2.875 0.5625 -3.578125q0.109375 -0.703125 0.34375 -1.8125q0.25 -1.125 0.4375 -1.609375q0.1875 -0.484375 0.5 -1.203125q0.328125 -0.71875 0.6875 -0.984375q0.375 -0.28125 0.890625 -0.625q0.796875 -0.515625 2.578125 -0.515625q1.78125 0 2.4375 0.71875q0.65625 0.71875 0.65625 2.21875q0 1.4375 -0.546875 3.390625q-0.359375 1.15625 -1.25 1.90625q-0.890625 0.75 -2.203125 0.75l-3.171875 0l0 0.8125q-0.484375 2.875 -0.484375 4.0q0 1.109375 0.46875 1.59375q0.46875 0.484375 2.03125 0.484375q1.5625 0 3.421875 -0.421875l-0.25 1.640625zm-2.28125 -9.828125q0.703125 0 1.21875 -0.453125q0.515625 -0.453125 0.734375 -1.125q0.421875 -1.203125 0.421875 -2.046875q0 -1.953125 -1.40625 -1.953125q-1.3125 0 -2.015625 0.75q-0.484375 0.5 -0.734375 1.671875q-0.234375 1.171875 -0.390625 2.359375l-0.25 0.796875l2.421875 0z" fill-rule="nonzero"/><path fill="#d9ead3" d="m687.4934 131.47672l0 0c0 -9.277412 7.520874 -16.79824 16.798279 -16.79824l174.34052 0c4.4552 0 8.727844 1.7698135 11.878174 4.9200897c3.1502686 3.1502838 4.920044 7.4229813 4.920044 11.878151l0 67.19093c0 9.277405 -7.520813 16.798233 -16.798218 16.798233l-174.34052 0c-9.277405 0 -16.798279 -7.5208282 -16.798279 -16.798233z" fill-rule="evenodd"/><path stroke="#595959" stroke-width="4.0" stroke-linejoin="round" stroke-linecap="butt" d="m687.4934 131.47672l0 0c0 -9.277412 7.520874 -16.79824 16.798279 -16.79824l174.34052 0c4.4552 0 8.727844 1.7698135 11.878174 4.9200897c3.1502686 3.1502838 4.920044 7.4229813 4.920044 11.878151l0 67.19093c0 9.277405 -7.520813 16.798233 -16.798218 16.798233l-174.34052 0c-9.277405 0 -16.798279 -7.5208282 -16.798279 -16.798233z" fill-rule="evenodd"/><path fill="#000000" d="m747.3618 159.57343q0 0.796875 -0.578125 1.34375q-0.5625 0.546875 -1.359375 0.546875q-0.78125 0 -1.34375 -0.5625q-0.5625 -0.5625 -0.5625 -1.296875q0 -0.734375 0.625 -2.265625q0.625 -1.53125 1.265625 -2.75l0.640625 -1.21875l1.734375 1.046875l0.21875 0.546875q-0.640625 2.078125 -0.640625 4.609375zm-4.671875 0q0 0.796875 -0.578125 1.34375q-0.5625 0.546875 -1.359375 0.546875q-0.78125 0 -1.34375 -0.5625q-0.5625 -0.5625 -0.5625 -1.296875q0 -0.734375 0.625 -2.265625q0.625 -1.53125 1.265625 -2.75l0.640625 -1.21875l1.734375 1.046875l0.21875 0.546875q-0.640625 2.078125 -0.640625 4.609375zm19.42694 -1.390625q0.28125 1.84375 0.328125 3.078125q0.0625 1.234375 0.0625 3.25l0 2.75q0 2.359375 -0.171875 3.4375q-0.15625 1.0625 -0.34375 2.046875q-0.1875 0.96875 -0.484375 1.484375q-0.28125 0.515625 -0.71875 1.140625q-0.4375 0.625 -0.96875 0.90625q-1.34375 0.734375 -3.078125 0.734375l-6.078125 -0.21875l0 -23.109375l6.078125 -0.3125q1.65625 0 2.796875 0.65625q1.140625 0.65625 1.71875 1.484375q0.578125 0.828125 0.859375 2.671875zm-5.375 15.984375q1.0625 0 1.5625 -0.734375q0.296875 -0.421875 0.5 -0.796875q0.203125 -0.390625 0.3125 -1.15625q0.125 -0.765625 0.203125 -1.3125q0.078125 -0.546875 0.109375 -1.578125q0.03125 -1.046875 0.03125 -1.65625l0 -3.671875q0 -2.25 -0.109375 -2.96875q-0.109375 -0.71875 -0.234375 -1.46875q-0.109375 -0.75 -0.3125 -1.109375q-0.203125 -0.375 -0.5 -0.765625q-0.5 -0.734375 -1.5625 -0.734375l-3.296875 0l0.25 0.796875l0 16.359375l-0.28125 0.796875l3.328125 0zm13.797485 0.125q2.171875 0 4.40625 -0.3125l0 2.5q-2.96875 0.53125 -4.21875 0.53125q-1.25 0 -2.0 -0.171875q-0.75 -0.171875 -1.296875 -0.40625q-0.546875 -0.25 -0.90625 -0.828125q-0.34375 -0.578125 -0.53125 -1.0625q-0.1875 -0.5 -0.296875 -1.53125q-0.125 -1.375 -0.125 -2.921875q0 -1.546875 0 -2.609375l0 -1.65625q0 -2.28125 0.125 -2.84375q0.140625 -0.5625 0.296875 -1.21875q0.15625 -0.65625 0.40625 -0.921875q0.265625 -0.265625 0.625 -0.625q0.375 -0.375 0.859375 -0.515625q1.5 -0.3125 2.671875 -0.3125q1.1875 0 2.03125 0.375q0.859375 0.359375 1.3125 0.90625q0.46875 0.546875 0.734375 1.53125q0.40625 1.5625 0.40625 4.09375l0.109375 2.1875l-6.984375 0.15625l0.25 0.734375q0 3.171875 0.296875 4.046875q0.3125 0.875 1.828125 0.875zm1.65625 -9.109375q-0.03125 -1.765625 -0.34375 -2.421875q-0.296875 -0.65625 -1.453125 -0.65625q-1.140625 0 -1.484375 0.578125q-0.328125 0.578125 -0.328125 2.5l-0.265625 0.703125l4.203125 0l-0.328125 -0.703125zm8.346802 0.09375q-0.03125 0.828125 -0.03125 2.84375q0 2.015625 0.03125 2.875q0.046875 0.84375 0.21875 1.78125q0.171875 0.9375 0.5625 1.234375q0.40625 0.28125 1.0625 0.28125q0.65625 0 1.21875 -0.109375q0.5625 -0.109375 1.234375 -0.28125q0.671875 -0.1875 1.125 -0.25l0 2.5q-0.296875 0.0625 -1.515625 0.46875q-1.203125 0.390625 -2.0 0.390625q-0.78125 0 -1.40625 -0.109375q-0.625 -0.109375 -1.125 -0.25q-0.484375 -0.140625 -0.84375 -0.546875q-0.34375 -0.40625 -0.59375 -0.6875q-0.234375 -0.28125 -0.390625 -0.984375q-0.15625 -0.71875 -0.25 -1.15625q-0.078125 -0.453125 -0.125 -1.484375q-0.046875 -1.046875 -0.046875 -1.65625l0 -3.96875q0 -2.171875 0.125 -2.859375q0.140625 -0.6875 0.296875 -1.390625q0.15625 -0.703125 0.390625 -0.96875q0.25 -0.28125 0.59375 -0.65625q0.359375 -0.390625 0.875 -0.53125q1.234375 -0.375 2.515625 -0.375l3.625 0.765625q-0.265625 1.828125 -0.515625 2.046875q-0.25 0.21875 -0.734375 0.21875q-0.484375 0 -1.15625 -0.09375l-1.21875 -0.21875q-0.734375 0 -1.140625 0.265625q-0.390625 0.25 -0.5625 1.15625q-0.171875 0.90625 -0.21875 1.75zm7.8129883 3.0q0 0 0 -1.984375q0 -1.984375 0.09375 -2.65625q0.09375 -0.671875 0.21875 -1.328125q0.140625 -0.65625 0.3125 -0.953125q0.171875 -0.3125 0.4375 -0.71875q0.28125 -0.421875 0.625 -0.578125q0.359375 -0.15625 0.84375 -0.359375q0.796875 -0.3125 2.328125 -0.3125q1.546875 0 2.484375 0.375q0.953125 0.359375 1.46875 0.828125q0.53125 0.453125 0.75 1.78125q0.234375 1.328125 0.28125 2.359375q0.046875 1.015625 0.046875 2.78125l0 2.40625q0 2.046875 -0.09375 2.71875q-0.09375 0.671875 -0.234375 1.34375q-0.125 0.671875 -0.296875 0.984375q-0.171875 0.296875 -0.453125 0.734375q-0.265625 0.421875 -0.640625 0.609375q-0.359375 0.171875 -0.84375 0.359375q-0.765625 0.34375 -2.046875 0.34375q-1.28125 0 -1.96875 -0.09375q-0.6875 -0.09375 -1.21875 -0.40625q-0.515625 -0.328125 -0.875 -0.609375q-0.359375 -0.296875 -0.59375 -0.984375q-0.234375 -0.6875 -0.375 -1.15625q-0.125 -0.484375 -0.15625 -1.578125q-0.09375 -1.828125 -0.09375 -3.90625zm4.9375 -6.171875q-1.453125 0 -1.78125 1.171875q-0.3125 1.15625 -0.3125 4.03125q0 2.859375 0.03125 3.71875q0.046875 0.84375 0.234375 1.78125q0.1875 0.9375 0.609375 1.21875q0.4375 0.265625 1.21875 0.265625q1.4375 0 1.75 -1.203125q0.328125 -1.21875 0.328125 -4.09375q0 -2.890625 -0.03125 -3.71875q-0.03125 -0.84375 -0.234375 -1.734375q-0.1875 -0.890625 -0.625 -1.15625q-0.421875 -0.28125 -1.1875 -0.28125zm7.8618164 9.5625q-0.03125 -1.046875 -0.03125 -3.40625q0 -2.375 0.046875 -3.4375q0.046875 -1.0625 0.28125 -2.390625q0.25 -1.328125 0.796875 -1.828125q1.28125 -1.21875 3.9375 -1.21875l1.78125 0.640625l0 -6.28125q2.15625 0 2.5 0.25q0.359375 0.234375 0.359375 1.703125l0 21.09375q-1.921875 0 -2.375 -0.15625q-0.453125 -0.15625 -0.484375 -0.9375l-1.9375 1.3125q-2.53125 0 -3.84375 -1.171875q-0.875 -0.8125 -1.03125 -4.171875zm7.140625 1.578125l-0.328125 -1.03125l0 -8.578125l0.296875 -0.890625l-2.5 -0.640625q-1.21875 0.09375 -1.515625 1.34375q-0.28125 1.25 -0.28125 4.96875q0 3.703125 0.296875 4.65625q0.34375 1.1875 1.53125 1.21875l2.5 -1.046875zm10.724121 1.046875q2.171875 0 4.40625 -0.3125l0 2.5q-2.96875 0.53125 -4.21875 0.53125q-1.25 0 -2.0 -0.171875q-0.75 -0.171875 -1.296875 -0.40625q-0.546875 -0.25 -0.90625 -0.828125q-0.34375 -0.578125 -0.53125 -1.0625q-0.1875 -0.5 -0.296875 -1.53125q-0.125 -1.375 -0.125 -2.921875q0 -1.546875 0 -2.609375l0 -1.65625q0 -2.28125 0.125 -2.84375q0.140625 -0.5625 0.296875 -1.21875q0.15625 -0.65625 0.40625 -0.921875q0.265625 -0.265625 0.625 -0.625q0.375 -0.375 0.859375 -0.515625q1.5 -0.3125 2.671875 -0.3125q1.1875 0 2.03125 0.375q0.859375 0.359375 1.3125 0.90625q0.46875 0.546875 0.734375 1.53125q0.40625 1.5625 0.40625 4.09375l0.109375 2.1875l-6.984375 0.15625l0.25 0.734375q0 3.171875 0.296875 4.046875q0.3125 0.875 1.828125 0.875zm1.65625 -9.109375q-0.03125 -1.765625 -0.34375 -2.421875q-0.296875 -0.65625 -1.453125 -0.65625q-1.140625 0 -1.484375 0.578125q-0.328125 0.578125 -0.328125 2.5l-0.265625 0.703125l4.203125 0l-0.328125 -0.703125zm8.674927 11.609375q-2.140625 0 -2.515625 -0.234375q-0.359375 -0.25 -0.359375 -1.6875l0 -15.265625q2.109375 0 2.453125 0.140625q0.359375 0.125 0.359375 0.859375l2.046875 -1.21875q0.921875 0 1.6875 0.1875l0.515625 0.03125q0 1.828125 -0.265625 2.171875q-0.25 0.328125 -1.625 0.328125l-2.625 0.890625l0.328125 0.90625l0 12.890625zm6.628235 -21.5q0 -0.796875 0.5625 -1.359375q0.578125 -0.5625 1.34375 -0.5625q0.78125 0 1.34375 0.578125q0.578125 0.578125 0.578125 1.28125q0 1.28125 -1.90625 5.046875l-0.609375 1.21875l-1.734375 -1.0625l-0.21875 -0.5625q0.640625 -2.3125 0.640625 -4.578125zm4.640625 0q0 -0.796875 0.5625 -1.359375q0.578125 -0.5625 1.359375 -0.5625q0.796875 0 1.34375 0.578125q0.5625 0.578125 0.5625 1.296875q0 0.71875 -0.625 2.25q-0.609375 1.53125 -1.25 2.78125l-0.640625 1.21875l-1.796875 -1.09375l-0.15625 -0.53125q0.640625 -2.3125 0.640625 -4.578125z" fill-rule="nonzero"/><path fill="#d9ead3" d="m687.4934 341.33237l0 0c0 -9.277405 7.520874 -16.798248 16.798279 -16.798248l174.34052 0c4.4552 0 8.727844 1.7698059 11.878174 4.920105c3.1502686 3.1502686 4.920044 7.4229736 4.920044 11.878143l0 67.19092c0 9.277405 -7.520813 16.798248 -16.798218 16.798248l-174.34052 0c-9.277405 0 -16.798279 -7.5208435 -16.798279 -16.798248z" fill-rule="evenodd"/><path stroke="#595959" stroke-width="4.0" stroke-linejoin="round" stroke-linecap="butt" d="m687.4934 341.33237l0 0c0 -9.277405 7.520874 -16.798248 16.798279 -16.798248l174.34052 0c4.4552 0 8.727844 1.7698059 11.878174 4.920105c3.1502686 3.1502686 4.920044 7.4229736 4.920044 11.878143l0 67.19092c0 9.277405 -7.520813 16.798248 -16.798218 16.798248l-174.34052 0c-9.277405 0 -16.798279 -7.5208435 -16.798279 -16.798248z" fill-rule="evenodd"/><path fill="#000000" d="m725.6178 369.42908q0 0.796875 -0.578125 1.34375q-0.5625 0.546875 -1.359375 0.546875q-0.78125 0 -1.34375 -0.5625q-0.5625 -0.5625 -0.5625 -1.296875q0 -0.734375 0.625 -2.265625q0.625 -1.53125 1.265625 -2.75l0.640625 -1.21875l1.734375 1.046875l0.21875 0.546875q-0.640625 2.078125 -0.640625 4.609375zm-4.671875 0q0 0.796875 -0.578125 1.34375q-0.5625 0.546875 -1.359375 0.546875q-0.78125 0 -1.34375 -0.5625q-0.5625 -0.5625 -0.5625 -1.296875q0 -0.734375 0.625 -2.265625q0.625 -1.53125 1.265625 -2.75l0.640625 -1.21875l1.734375 1.046875l0.21875 0.546875q-0.640625 2.078125 -0.640625 4.609375zm17.02063 -3.09375l-3.890625 0l0.28125 0.796875l0 17.5625q0 1.46875 -0.3125 1.71875q-0.296875 0.234375 -2.015625 0.234375l-0.78125 0l0 -19.515625l0.234375 -0.796875l-3.84375 0l0 -2.734375l10.328125 0l0 2.734375zm5.287903 20.3125q-2.140625 0 -2.515625 -0.234375q-0.359375 -0.25 -0.359375 -1.6875l0 -15.265625q2.109375 0 2.453125 0.140625q0.359375 0.125 0.359375 0.859375l2.046875 -1.21875q0.921875 0 1.6875 0.1875l0.515625 0.03125q0 1.828125 -0.265625 2.171875q-0.25 0.328125 -1.625 0.328125l-2.625 0.890625l0.328125 0.90625l0 12.890625zm12.315796 -13.21875l0.03125 -0.859375q0 -0.453125 -0.09375 -0.484375q-0.09375 -0.03125 -0.21875 -0.140625q-0.125 -0.109375 -0.34375 -0.046875q-0.203125 0.0625 -0.484375 0.03125l-1.734375 0.21875q-0.671875 0.09375 -1.15625 0.09375q-0.46875 0 -0.734375 -0.21875q-0.25 -0.21875 -0.515625 -2.046875l3.71875 -0.734375q2.265625 0 2.84375 0.34375q0.578125 0.328125 0.828125 0.5625q0.265625 0.21875 0.359375 0.890625q0.15625 0.828125 0.15625 2.625l0 12.984375q-1.859375 0 -2.34375 -0.1875q-0.46875 -0.203125 -0.5 -0.9375l-2.65625 1.34375q-0.890625 0 -1.328125 -0.015625q-0.4375 -0.015625 -0.875 -0.265625q-0.421875 -0.25 -0.5625 -0.5q-0.140625 -0.265625 -0.28125 -1.09375q-0.15625 -1.0 -0.15625 -4.078125l0 -2.203125q0 -3.609375 6.3125 -3.75l-0.265625 -0.765625l0 -0.765625zm-3.03125 10.71875q0.03125 0 3.234375 -1.21875l-0.328125 -0.921875l0 -3.8125l0.25 -0.734375q-1.3125 0.03125 -2.3125 0.265625q-0.984375 0.21875 -0.984375 0.609375l-0.03125 4.21875q0 1.59375 0.171875 1.59375zm15.927734 -6.046875l0.03125 -2.8125q0 -1.28125 -0.0625 -1.921875q-0.125 -1.34375 -1.5 -1.40625l-2.953125 0.859375l0.296875 0.90625l0 12.921875q-2.140625 0 -2.5 -0.234375q-0.34375 -0.25 -0.34375 -1.6875l0 -15.265625q1.84375 0 2.328125 0.109375q0.484375 0.09375 0.515625 0.5625l2.359375 -0.890625q1.953125 0 2.5625 0.265625q0.609375 0.25 0.921875 0.4375q0.328125 0.1875 0.578125 0.78125q0.265625 0.59375 0.359375 1.09375q0.09375 0.484375 0.1875 1.578125q0.109375 1.5625 0.109375 4.734375l0 8.515625q-2.15625 0 -2.53125 -0.234375q-0.359375 -0.25 -0.359375 -1.6875l0 -6.625zm5.6394043 5.734375q2.875 0.3125 3.796875 0.3125q0.9375 0 1.21875 -0.15625q0.296875 -0.15625 0.4375 -0.328125q0.140625 -0.1875 0.203125 -0.65625q0.09375 -0.671875 0.09375 -1.703125q0 -0.765625 -2.875 -2.9375q-1.09375 -0.8125 -2.0 -2.0q-0.90625 -1.203125 -0.90625 -2.25q0 -1.0625 0.03125 -1.578125q0.03125 -0.515625 0.265625 -1.265625q0.234375 -0.75 0.6875 -1.109375q1.25 -0.921875 3.625 -0.921875l3.734375 0.765625q-0.25 1.859375 -0.5 2.0625q-0.234375 0.203125 -0.734375 0.203125q-0.484375 0 -1.15625 -0.09375l-1.25 -0.21875q-1.3125 0 -1.609375 0.578125q-0.21875 0.453125 -0.21875 1.1875q0 0.734375 0.921875 1.5625q0.9375 0.828125 2.0625 1.609375q1.140625 0.765625 2.0625 1.90625q0.9375 1.125 0.9375 2.25q0 1.109375 -0.03125 1.6875q-0.03125 0.578125 -0.28125 1.515625q-0.234375 0.921875 -0.6875 1.40625q-0.4375 0.46875 -1.359375 0.84375q-0.90625 0.359375 -1.890625 0.359375q-0.96875 0 -1.65625 -0.078125q-0.6875 -0.078125 -1.609375 -0.234375q-0.90625 -0.15625 -1.3125 -0.21875l0 -2.5zm17.760315 -14.375l0 2.6875l-3.203125 0l0.3125 0.9375l0 17.3125q-0.03125 1.6875 -0.375 1.953125q-0.328125 0.28125 -2.46875 0.28125l0.03125 -19.546875l0.296875 -0.9375l-1.765625 0l0 -2.6875l1.765625 0l-0.296875 -0.796875l0 -1.59375q0 -0.484375 0.09375 -1.203125q0.09375 -0.71875 0.1875 -0.921875q0.109375 -0.21875 0.4375 -0.578125q0.34375 -0.375 0.65625 -0.4375q0.328125 -0.0625 1.046875 -0.1875q0.71875 -0.140625 1.421875 -0.140625l1.921875 0l0 2.28125q-2.171875 0 -2.546875 0.359375q-0.375 0.34375 -0.375 2.484375l-0.3125 0.734375l3.171875 0zm2.0089722 8.671875q0 0 0 -1.984375q0 -1.984375 0.09375 -2.65625q0.09375 -0.671875 0.21875 -1.328125q0.140625 -0.65625 0.3125 -0.953125q0.171875 -0.3125 0.4375 -0.71875q0.28125 -0.421875 0.625 -0.578125q0.359375 -0.15625 0.84375 -0.359375q0.796875 -0.3125 2.328125 -0.3125q1.546875 0 2.484375 0.375q0.953125 0.359375 1.46875 0.828125q0.53125 0.453125 0.75 1.78125q0.234375 1.328125 0.28125 2.359375q0.046875 1.015625 0.046875 2.78125l0 2.40625q0 2.046875 -0.09375 2.71875q-0.09375 0.671875 -0.234375 1.34375q-0.125 0.671875 -0.296875 0.984375q-0.171875 0.296875 -0.453125 0.734375q-0.265625 0.421875 -0.640625 0.609375q-0.359375 0.171875 -0.84375 0.359375q-0.765625 0.34375 -2.046875 0.34375q-1.28125 0 -1.96875 -0.09375q-0.6875 -0.09375 -1.21875 -0.40625q-0.515625 -0.328125 -0.875 -0.609375q-0.359375 -0.296875 -0.59375 -0.984375q-0.234375 -0.6875 -0.375 -1.15625q-0.125 -0.484375 -0.15625 -1.578125q-0.09375 -1.828125 -0.09375 -3.90625zm4.9375 -6.171875q-1.453125 0 -1.78125 1.171875q-0.3125 1.15625 -0.3125 4.03125q0 2.859375 0.03125 3.71875q0.046875 0.84375 0.234375 1.78125q0.1875 0.9375 0.609375 1.21875q0.4375 0.265625 1.21875 0.265625q1.4375 0 1.75 -1.203125q0.328125 -1.21875 0.328125 -4.09375q0 -2.890625 -0.03125 -3.71875q-0.03125 -0.84375 -0.234375 -1.734375q-0.1875 -0.890625 -0.625 -1.15625q-0.421875 -0.28125 -1.1875 -0.28125zm11.033691 14.6875q-2.140625 0 -2.515625 -0.234375q-0.359375 -0.25 -0.359375 -1.6875l0 -15.265625q2.109375 0 2.453125 0.140625q0.359375 0.125 0.359375 0.859375l2.046875 -1.21875q0.921875 0 1.6875 0.1875l0.515625 0.03125q0 1.828125 -0.265625 2.171875q-0.25 0.328125 -1.625 0.328125l-2.625 0.890625l0.328125 0.90625l0 12.890625zm16.159485 0q-2.140625 0 -2.5 -0.234375q-0.34375 -0.25 -0.34375 -1.6875l-0.03125 -7.84375l0 -1.25q0 -0.734375 0.015625 -1.109375q0.015625 -0.390625 -0.015625 -0.875q-0.03125 -0.5 -0.125 -0.734375q-0.078125 -0.25 -0.203125 -0.5q-0.21875 -0.453125 -0.953125 -0.453125l-2.859375 0.828125l0.296875 0.9375l0 12.921875q-2.140625 0 -2.5 -0.234375q-0.34375 -0.25 -0.34375 -1.6875l0 -15.265625q1.75 0 2.234375 0.109375q0.484375 0.09375 0.578125 0.5625l2.390625 -0.890625q1.421875 0 2.15625 0.25q0.734375 0.234375 1.3125 0.90625l2.9375 -1.15625q1.890625 0 2.546875 0.28125q0.65625 0.265625 0.953125 0.453125q0.3125 0.1875 0.546875 0.796875q0.234375 0.609375 0.34375 1.09375q0.125 0.484375 0.1875 1.59375q0.09375 1.671875 0.09375 4.671875l0 8.515625q-2.171875 0 -2.53125 -0.234375q-0.34375 -0.25 -0.34375 -1.6875l0 -6.625q0 -4.40625 -0.09375 -4.921875q-0.171875 -0.9375 -0.90625 -1.125q-0.25 -0.0625 -0.640625 -0.09375l-2.484375 0.734375l0.28125 0.890625l0 13.0625zm14.757446 -2.5q2.171875 0 4.40625 -0.3125l0 2.5q-2.96875 0.53125 -4.21875 0.53125q-1.25 0 -2.0 -0.171875q-0.75 -0.171875 -1.296875 -0.40625q-0.546875 -0.25 -0.90625 -0.828125q-0.34375 -0.578125 -0.53125 -1.0625q-0.1875 -0.5 -0.296875 -1.53125q-0.125 -1.375 -0.125 -2.921875q0 -1.546875 0 -2.609375l0 -1.65625q0 -2.28125 0.125 -2.84375q0.140625 -0.5625 0.296875 -1.21875q0.15625 -0.65625 0.40625 -0.921875q0.265625 -0.265625 0.625 -0.625q0.375 -0.375 0.859375 -0.515625q1.5 -0.3125 2.671875 -0.3125q1.1875 0 2.03125 0.375q0.859375 0.359375 1.3125 0.90625q0.46875 0.546875 0.734375 1.53125q0.40625 1.5625 0.40625 4.09375l0.109375 2.1875l-6.984375 0.15625l0.25 0.734375q0 3.171875 0.296875 4.046875q0.3125 0.875 1.828125 0.875zm1.65625 -9.109375q-0.03125 -1.765625 -0.34375 -2.421875q-0.296875 -0.65625 -1.453125 -0.65625q-1.140625 0 -1.484375 0.578125q-0.328125 0.578125 -0.328125 2.5l-0.265625 0.703125l4.203125 0l-0.328125 -0.703125zm8.674866 11.609375q-2.140625 0 -2.515625 -0.234375q-0.359375 -0.25 -0.359375 -1.6875l0 -15.265625q2.109375 0 2.453125 0.140625q0.359375 0.125 0.359375 0.859375l2.046875 -1.21875q0.921875 0 1.6875 0.1875l0.515625 0.03125q0 1.828125 -0.265625 2.171875q-0.25 0.328125 -1.625 0.328125l-2.625 0.890625l0.328125 0.90625l0 12.890625zm6.628296 -21.5q0 -0.796875 0.5625 -1.359375q0.578125 -0.5625 1.34375 -0.5625q0.78125 0 1.34375 0.578125q0.578125 0.578125 0.578125 1.28125q0 1.28125 -1.90625 5.046875l-0.609375 1.21875l-1.734375 -1.0625l-0.21875 -0.5625q0.640625 -2.3125 0.640625 -4.578125zm4.640625 0q0 -0.796875 0.5625 -1.359375q0.578125 -0.5625 1.359375 -0.5625q0.796875 0 1.34375 0.578125q0.5625 0.578125 0.5625 1.296875q0 0.71875 -0.625 2.25q-0.609375 1.53125 -1.25 2.78125l-0.640625 1.21875l-1.796875 -1.09375l-0.15625 -0.53125q0.640625 -2.3125 0.640625 -4.578125z" fill-rule="nonzero"/><path fill="#000000" fill-opacity="0.0" d="m272.50656 165.07217l77.60629 0" fill-rule="evenodd"/><path stroke="#595959" stroke-width="4.0" stroke-linejoin="round" stroke-linecap="butt" d="m272.50656 165.07217l53.606293 0" fill-rule="evenodd"/><path fill="#595959" stroke="#595959" stroke-width="4.0" stroke-linecap="butt" d="m326.11285 171.67911l18.152405 -6.6069336l-18.152405 -6.6069183z" fill-rule="evenodd"/><path fill="#000000" fill-opacity="0.0" d="m609.88715 165.07217l77.60626 0" fill-rule="evenodd"/><path stroke="#595959" stroke-width="4.0" stroke-linejoin="round" stroke-linecap="butt" d="m609.88715 165.07217l53.606262 0" fill-rule="evenodd"/><path fill="#595959" stroke="#595959" stroke-width="4.0" stroke-linecap="butt" d="m663.49347 171.67911l18.152344 -6.6069336l-18.152344 -6.6069183z" fill-rule="evenodd"/><path fill="#000000" fill-opacity="0.0" d="m687.4934 374.92783l-77.60626 0" fill-rule="evenodd"/><path stroke="#595959" stroke-width="4.0" stroke-linejoin="round" stroke-linecap="butt" d="m687.4934 374.92783l-53.606262 0" fill-rule="evenodd"/><path fill="#595959" stroke="#595959" stroke-width="4.0" stroke-linecap="butt" d="m633.88715 368.3209l-18.152405 6.6069336l18.152405 6.6069336z" fill-rule="evenodd"/><path fill="#000000" fill-opacity="0.0" d="m350.12598 374.92783l-77.60629 0" fill-rule="evenodd"/><path stroke="#595959" stroke-width="4.0" stroke-linejoin="round" stroke-linecap="butt" d="m350.12598 374.92783l-53.606293 0" fill-rule="evenodd"/><path fill="#595959" stroke="#595959" stroke-width="4.0" stroke-linecap="butt" d="m296.51968 368.3209l-18.152405 6.6069336l18.152405 6.6069336z" fill-rule="evenodd"/><path fill="#000000" fill-opacity="0.0" d="m791.4619 215.46588l0 109.07086" fill-rule="evenodd"/><path stroke="#595959" stroke-width="4.0" stroke-linejoin="round" stroke-linecap="butt" d="m791.4619 215.46588l0 85.07086" fill-rule="evenodd"/><path fill="#595959" stroke="#595959" stroke-width="4.0" stroke-linecap="butt" d="m784.85504 300.53674l6.6068726 18.152405l6.6069336 -18.152405z" fill-rule="evenodd"/><path fill="#d9ead3" d="m350.12598 131.47672l0 0c0 -9.277412 7.5208435 -16.79824 16.798248 -16.79824l226.15158 0c4.455139 0 8.727844 1.7698135 11.878113 4.9200897c3.1502686 3.1502838 4.920105 7.4229813 4.920105 11.878151l0 67.19093c0 9.277405 -7.520813 16.798233 -16.798218 16.798233l-226.15158 0l0 0c-9.277405 0 -16.798248 -7.5208282 -16.798248 -16.798233z" fill-rule="evenodd"/><path stroke="#595959" stroke-width="4.0" stroke-linejoin="round" stroke-linecap="butt" d="m350.12598 131.47672l0 0c0 -9.277412 7.5208435 -16.79824 16.798248 -16.79824l226.15158 0c4.455139 0 8.727844 1.7698135 11.878113 4.9200897c3.1502686 3.1502838 4.920105 7.4229813 4.920105 11.878151l0 67.19093c0 9.277405 -7.520813 16.798233 -16.798218 16.798233l-226.15158 0l0 0c-9.277405 0 -16.798248 -7.5208282 -16.798248 -16.798233z" fill-rule="evenodd"/><path fill="#000000" d="m376.01178 159.57343q0 0.796875 -0.578125 1.34375q-0.5625 0.546875 -1.359375 0.546875q-0.78125 0 -1.34375 -0.5625q-0.5625 -0.5625 -0.5625 -1.296875q0 -0.734375 0.625 -2.265625q0.625 -1.53125 1.265625 -2.75l0.640625 -1.21875l1.734375 1.046875l0.21875 0.546875q-0.640625 2.078125 -0.640625 4.609375zm-4.671875 0q0 0.796875 -0.578125 1.34375q-0.5625 0.546875 -1.359375 0.546875q-0.78125 0 -1.34375 -0.5625q-0.5625 -0.5625 -0.5625 -1.296875q0 -0.734375 0.625 -2.265625q0.625 -1.53125 1.265625 -2.75l0.640625 -1.21875l1.734375 1.046875l0.21875 0.546875q-0.640625 2.078125 -0.640625 4.609375zm19.42688 -1.390625q0.28125 1.84375 0.328125 3.078125q0.0625 1.234375 0.0625 3.25l0 2.75q0 2.359375 -0.171875 3.4375q-0.15625 1.0625 -0.34375 2.046875q-0.1875 0.96875 -0.484375 1.484375q-0.28125 0.515625 -0.71875 1.140625q-0.4375 0.625 -0.96875 0.90625q-1.34375 0.734375 -3.078125 0.734375l-6.078125 -0.21875l0 -23.109375l6.078125 -0.3125q1.65625 0 2.796875 0.65625q1.140625 0.65625 1.71875 1.484375q0.578125 0.828125 0.859375 2.671875zm-5.375 15.984375q1.0625 0 1.5625 -0.734375q0.296875 -0.421875 0.5 -0.796875q0.203125 -0.390625 0.3125 -1.15625q0.125 -0.765625 0.203125 -1.3125q0.078125 -0.546875 0.109375 -1.578125q0.03125 -1.046875 0.03125 -1.65625l0 -3.671875q0 -2.25 -0.109375 -2.96875q-0.109375 -0.71875 -0.234375 -1.46875q-0.109375 -0.75 -0.3125 -1.109375q-0.203125 -0.375 -0.5 -0.765625q-0.5 -0.734375 -1.5625 -0.734375l-3.296875 0l0.25 0.796875l0 16.359375l-0.28125 0.796875l3.328125 0zm14.844421 -10.59375l0.03125 -0.859375q0 -0.453125 -0.09375 -0.484375q-0.09375 -0.03125 -0.21875 -0.140625q-0.125 -0.109375 -0.34375 -0.046875q-0.203125 0.0625 -0.484375 0.03125l-1.734375 0.21875q-0.671875 0.09375 -1.15625 0.09375q-0.46875 0 -0.734375 -0.21875q-0.25 -0.21875 -0.515625 -2.046875l3.71875 -0.734375q2.265625 0 2.84375 0.34375q0.578125 0.328125 0.828125 0.5625q0.265625 0.21875 0.359375 0.890625q0.15625 0.828125 0.15625 2.625l0 12.984375q-1.859375 0 -2.34375 -0.1875q-0.46875 -0.203125 -0.5 -0.9375l-2.65625 1.34375q-0.890625 0 -1.328125 -0.015625q-0.4375 -0.015625 -0.875 -0.265625q-0.421875 -0.25 -0.5625 -0.5q-0.140625 -0.265625 -0.28125 -1.09375q-0.15625 -1.0 -0.15625 -4.078125l0 -2.203125q0 -3.609375 6.3125 -3.75l-0.265625 -0.765625l0 -0.765625zm-3.03125 10.71875q0.03125 0 3.234375 -1.21875l-0.328125 -0.921875l0 -3.8125l0.25 -0.734375q-1.3125 0.03125 -2.3125 0.265625q-0.984375 0.21875 -0.984375 0.609375l-0.03125 4.21875q0 1.59375 0.171875 1.59375zm15.03714 -14.6875q0 1.828125 -0.34375 2.265625q-0.328125 0.421875 -1.96875 0.421875l-0.921875 0l0.28125 0.796875l0 6.34375q0 2.71875 0.203125 3.734375q0.21875 1.0 0.890625 1.125l2.4375 0l0 2.5l-2.59375 0.15625q-1.609375 0 -2.125 -0.3125q-0.5 -0.328125 -0.765625 -0.515625q-0.25 -0.1875 -0.4375 -0.78125q-0.1875 -0.59375 -0.296875 -0.953125q-0.09375 -0.375 -0.140625 -1.34375q-0.046875 -0.984375 -0.046875 -1.625l0 -8.328125l0.265625 -0.796875l-1.703125 0l0 -2.6875l1.703125 0l-0.265625 -1.1875l0 -1.625q2.140625 0 2.5 0.21875q0.375 0.203125 0.375 1.515625l-0.25 1.078125l3.203125 0zm8.698151 3.96875l0.03125 -0.859375q0 -0.453125 -0.09375 -0.484375q-0.09375 -0.03125 -0.21875 -0.140625q-0.125 -0.109375 -0.34375 -0.046875q-0.203125 0.0625 -0.484375 0.03125l-1.734375 0.21875q-0.671875 0.09375 -1.15625 0.09375q-0.46875 0 -0.734375 -0.21875q-0.25 -0.21875 -0.515625 -2.046875l3.71875 -0.734375q2.265625 0 2.84375 0.34375q0.578125 0.328125 0.828125 0.5625q0.265625 0.21875 0.359375 0.890625q0.15625 0.828125 0.15625 2.625l0 12.984375q-1.859375 0 -2.34375 -0.1875q-0.46875 -0.203125 -0.5 -0.9375l-2.65625 1.34375q-0.890625 0 -1.328125 -0.015625q-0.4375 -0.015625 -0.875 -0.265625q-0.421875 -0.25 -0.5625 -0.5q-0.140625 -0.265625 -0.28125 -1.09375q-0.15625 -1.0 -0.15625 -4.078125l0 -2.203125q0 -3.609375 6.3125 -3.75l-0.265625 -0.765625l0 -0.765625zm-3.03125 10.71875q0.03125 0 3.234375 -1.21875l-0.328125 -0.921875l0 -3.8125l0.25 -0.734375q-1.3125 0.03125 -2.3125 0.265625q-0.984375 0.21875 -0.984375 0.609375l-0.03125 4.21875q0 1.59375 0.171875 1.59375zm14.4921875 -0.671875q3.203125 0.328125 4.671875 0.328125q1.46875 0 2.03125 -0.21875q0.5625 -0.234375 0.84375 -0.53125q0.296875 -0.3125 0.421875 -0.921875q0.15625 -0.765625 0.15625 -1.875q0 -1.125 -0.546875 -1.953125q-0.546875 -0.84375 -1.015625 -1.25q-0.453125 -0.421875 -1.671875 -1.46875q-1.21875 -1.0625 -1.71875 -1.53125q-0.484375 -0.46875 -1.375 -1.453125q-1.640625 -1.796875 -1.640625 -3.75q0 -3.390625 0.703125 -4.15625q1.09375 -1.125 2.34375 -1.296875q1.25 -0.171875 2.65625 -0.171875l4.34375 0.921875q-0.25 1.828125 -0.734375 2.140625q-0.21875 0.203125 -0.78125 0.203125q-0.5625 0 -1.453125 -0.203125l-1.21875 -0.21875q-1.890625 0 -2.3125 0.765625q-0.25 0.421875 -0.296875 0.78125q-0.046875 0.34375 -0.046875 1.046875q0 1.3125 3.234375 4.03125q1.53125 1.21875 2.390625 2.046875q0.875 0.828125 1.640625 2.015625q0.765625 1.1875 0.765625 2.25q0 1.046875 -0.015625 1.609375q-0.015625 0.5625 -0.125 1.546875q-0.109375 0.96875 -0.34375 1.515625q-0.21875 0.53125 -0.671875 1.234375q-0.4375 0.703125 -1.078125 1.0625q-1.640625 0.890625 -3.90625 0.890625q-1.28125 0 -2.984375 -0.296875q-1.6875 -0.3125 -2.265625 -0.375l0 -2.71875zm14.108276 -5.34375q0 0 0 -1.984375q0 -1.984375 0.09375 -2.65625q0.09375 -0.671875 0.21875 -1.328125q0.140625 -0.65625 0.3125 -0.953125q0.171875 -0.3125 0.4375 -0.71875q0.28125 -0.421875 0.625 -0.578125q0.359375 -0.15625 0.84375 -0.359375q0.796875 -0.3125 2.328125 -0.3125q1.546875 0 2.484375 0.375q0.953125 0.359375 1.46875 0.828125q0.53125 0.453125 0.75 1.78125q0.234375 1.328125 0.28125 2.359375q0.046875 1.015625 0.046875 2.78125l0 2.40625q0 2.046875 -0.09375 2.71875q-0.09375 0.671875 -0.234375 1.34375q-0.125 0.671875 -0.296875 0.984375q-0.171875 0.296875 -0.453125 0.734375q-0.265625 0.421875 -0.640625 0.609375q-0.359375 0.171875 -0.84375 0.359375q-0.765625 0.34375 -2.046875 0.34375q-1.28125 0 -1.96875 -0.09375q-0.6875 -0.09375 -1.21875 -0.40625q-0.515625 -0.328125 -0.875 -0.609375q-0.359375 -0.296875 -0.59375 -0.984375q-0.234375 -0.6875 -0.375 -1.15625q-0.125 -0.484375 -0.15625 -1.578125q-0.09375 -1.828125 -0.09375 -3.90625zm4.9375 -6.171875q-1.453125 0 -1.78125 1.171875q-0.3125 1.15625 -0.3125 4.03125q0 2.859375 0.03125 3.71875q0.046875 0.84375 0.234375 1.78125q0.1875 0.9375 0.609375 1.21875q0.4375 0.265625 1.21875 0.265625q1.4375 0 1.75 -1.203125q0.328125 -1.21875 0.328125 -4.09375q0 -2.890625 -0.03125 -3.71875q-0.03125 -0.84375 -0.234375 -1.734375q-0.1875 -0.890625 -0.625 -1.15625q-0.421875 -0.28125 -1.1875 -0.28125zm15.37738 11.078125l-0.3125 -0.96875l0 -12.609375q2.140625 0 2.5 0.25q0.375 0.234375 0.375 1.671875l0 15.265625q-1.890625 0 -2.375 -0.109375q-0.46875 -0.109375 -0.5 -0.75l-2.046875 1.078125q-2.53125 0 -3.9375 -1.25q-0.890625 -0.765625 -1.03125 -4.21875q-0.0625 -1.046875 -0.0625 -3.421875l0 -8.515625q2.15625 0 2.5 0.25q0.359375 0.234375 0.359375 1.671875l0 6.53125q0 3.75 0.171875 4.359375q0.171875 0.59375 0.359375 1.046875q0.328125 0.765625 1.3125 0.828125l2.6875 -1.109375zm8.808289 3.609375q-2.140625 0 -2.515625 -0.234375q-0.359375 -0.25 -0.359375 -1.6875l0 -15.265625q2.109375 0 2.453125 0.140625q0.359375 0.125 0.359375 0.859375l2.046875 -1.21875q0.921875 0 1.6875 0.1875l0.515625 0.03125q0 1.828125 -0.265625 2.171875q-0.25 0.328125 -1.625 0.328125l-2.625 0.890625l0.328125 0.90625l0 12.890625zm9.14389 -11.515625q-0.03125 0.828125 -0.03125 2.84375q0 2.015625 0.03125 2.875q0.046875 0.84375 0.21875 1.78125q0.171875 0.9375 0.5625 1.234375q0.40625 0.28125 1.0625 0.28125q0.65625 0 1.21875 -0.109375q0.5625 -0.109375 1.234375 -0.28125q0.671875 -0.1875 1.125 -0.25l0 2.5q-0.296875 0.0625 -1.515625 0.46875q-1.203125 0.390625 -2.0 0.390625q-0.78125 0 -1.40625 -0.109375q-0.625 -0.109375 -1.125 -0.25q-0.484375 -0.140625 -0.84375 -0.546875q-0.34375 -0.40625 -0.59375 -0.6875q-0.234375 -0.28125 -0.390625 -0.984375q-0.15625 -0.71875 -0.25 -1.15625q-0.078125 -0.453125 -0.125 -1.484375q-0.046875 -1.046875 -0.046875 -1.65625l0 -3.96875q0 -2.171875 0.125 -2.859375q0.140625 -0.6875 0.296875 -1.390625q0.15625 -0.703125 0.390625 -0.96875q0.25 -0.28125 0.59375 -0.65625q0.359375 -0.390625 0.875 -0.53125q1.234375 -0.375 2.515625 -0.375l3.625 0.765625q-0.265625 1.828125 -0.515625 2.046875q-0.25 0.21875 -0.734375 0.21875q-0.484375 0 -1.15625 -0.09375l-1.21875 -0.21875q-0.734375 0 -1.140625 0.265625q-0.390625 0.25 -0.5625 1.15625q-0.171875 0.90625 -0.21875 1.75zm12.813019 9.015625q2.171875 0 4.40625 -0.3125l0 2.5q-2.96875 0.53125 -4.21875 0.53125q-1.25 0 -2.0 -0.171875q-0.75 -0.171875 -1.296875 -0.40625q-0.546875 -0.25 -0.90625 -0.828125q-0.34375 -0.578125 -0.53125 -1.0625q-0.1875 -0.5 -0.296875 -1.53125q-0.125 -1.375 -0.125 -2.921875q0 -1.546875 0 -2.609375l0 -1.65625q0 -2.28125 0.125 -2.84375q0.140625 -0.5625 0.296875 -1.21875q0.15625 -0.65625 0.40625 -0.921875q0.265625 -0.265625 0.625 -0.625q0.375 -0.375 0.859375 -0.515625q1.5 -0.3125 2.671875 -0.3125q1.1875 0 2.03125 0.375q0.859375 0.359375 1.3125 0.90625q0.46875 0.546875 0.734375 1.53125q0.40625 1.5625 0.40625 4.09375l0.109375 2.1875l-6.984375 0.15625l0.25 0.734375q0 3.171875 0.296875 4.046875q0.3125 0.875 1.828125 0.875zm1.65625 -9.109375q-0.03125 -1.765625 -0.34375 -2.421875q-0.296875 -0.65625 -1.453125 -0.65625q-1.140625 0 -1.484375 0.578125q-0.328125 0.578125 -0.328125 2.5l-0.265625 0.703125l4.203125 0l-0.328125 -0.703125zm12.801758 11.609375l-0.7655945 0l0 -23.078125l4.5780945 -0.34375q2.875 0 3.96875 0.828125q0.40625 0.328125 0.6875 0.578125q0.296875 0.25 0.484375 0.765625l0.265625 0.890625q0.21875 0.609375 0.21875 1.609375l0 1.859375q0 4.609375 -1.3125 5.75q-0.578125 0.515625 -1.5 0.609375l5.09375 10.53125l-1.0625 0q-1.59375 0 -2.171875 -0.296875q-0.578125 -0.3125 -1.0625 -1.40625l-3.9375 -8.734375l-1.5 0l0.28125 0.8125l0.03125 7.671875q0 1.46875 -0.28125 1.71875q-0.28125 0.234375 -2.015625 0.234375zm3.875 -13.28125q1.71875 0 2.09375 -0.703125q0.375 -0.703125 0.375 -2.296875q0 -1.609375 -0.03125 -2.03125q-0.015625 -0.4375 -0.140625 -1.0q-0.125 -0.5625 -0.375 -0.75q-0.671875 -0.515625 -1.921875 -0.515625l-1.890625 0l0.28125 0.796875l0 5.765625l-0.25 0.734375l1.859375 0zm14.915039 10.78125q2.171875 0 4.40625 -0.3125l0 2.5q-2.96875 0.53125 -4.21875 0.53125q-1.25 0 -2.0 -0.171875q-0.75 -0.171875 -1.296875 -0.40625q-0.546875 -0.25 -0.90625 -0.828125q-0.34375 -0.578125 -0.53125 -1.0625q-0.1875 -0.5 -0.296875 -1.53125q-0.125 -1.375 -0.125 -2.921875q0 -1.546875 0 -2.609375l0 -1.65625q0 -2.28125 0.125 -2.84375q0.140625 -0.5625 0.296875 -1.21875q0.15625 -0.65625 0.40625 -0.921875q0.265625 -0.265625 0.625 -0.625q0.375 -0.375 0.859375 -0.515625q1.5 -0.3125 2.671875 -0.3125q1.1875 0 2.03125 0.375q0.859375 0.359375 1.3125 0.90625q0.46875 0.546875 0.734375 1.53125q0.40625 1.5625 0.40625 4.09375l0.109375 2.1875l-6.984375 0.15625l0.25 0.734375q0 3.171875 0.296875 4.046875q0.3125 0.875 1.828125 0.875zm1.65625 -9.109375q-0.03125 -1.765625 -0.34375 -2.421875q-0.296875 -0.65625 -1.453125 -0.65625q-1.140625 0 -1.484375 0.578125q-0.328125 0.578125 -0.328125 2.5l-0.265625 0.703125l4.203125 0l-0.328125 -0.703125zm11.518616 -1.609375l0.03125 -0.859375q0 -0.453125 -0.09375 -0.484375q-0.09375 -0.03125 -0.21875 -0.140625q-0.125 -0.109375 -0.34375 -0.046875q-0.203125 0.0625 -0.484375 0.03125l-1.734375 0.21875q-0.671875 0.09375 -1.15625 0.09375q-0.46875 0 -0.734375 -0.21875q-0.25 -0.21875 -0.515625 -2.046875l3.71875 -0.734375q2.265625 0 2.84375 0.34375q0.578125 0.328125 0.828125 0.5625q0.265625 0.21875 0.359375 0.890625q0.15625 0.828125 0.15625 2.625l0 12.984375q-1.859375 0 -2.34375 -0.1875q-0.46875 -0.203125 -0.5 -0.9375l-2.65625 1.34375q-0.890625 0 -1.328125 -0.015625q-0.4375 -0.015625 -0.875 -0.265625q-0.421875 -0.25 -0.5625 -0.5q-0.140625 -0.265625 -0.28125 -1.09375q-0.15625 -1.0 -0.15625 -4.078125l0 -2.203125q0 -3.609375 6.3125 -3.75l-0.265625 -0.765625l0 -0.765625zm-3.03125 10.71875q0.03125 0 3.234375 -1.21875l-0.328125 -0.921875l0 -3.8125l0.25 -0.734375q-1.3125 0.03125 -2.3125 0.265625q-0.984375 0.21875 -0.984375 0.609375l-0.03125 4.21875q0 1.59375 0.171875 1.59375zm8.59967 -2.625q-0.03125 -1.046875 -0.03125 -3.40625q0 -2.375 0.046875 -3.4375q0.046875 -1.0625 0.28125 -2.390625q0.25 -1.328125 0.796875 -1.828125q1.28125 -1.21875 3.9375 -1.21875l1.78125 0.640625l0 -6.28125q2.15625 0 2.5 0.25q0.359375 0.234375 0.359375 1.703125l0 21.09375q-1.921875 0 -2.375 -0.15625q-0.453125 -0.15625 -0.484375 -0.9375l-1.9375 1.3125q-2.53125 0 -3.84375 -1.171875q-0.875 -0.8125 -1.03125 -4.171875zm7.140625 1.578125l-0.328125 -1.03125l0 -8.578125l0.296875 -0.890625l-2.5 -0.640625q-1.21875 0.09375 -1.515625 1.34375q-0.28125 1.25 -0.28125 4.96875q0 3.703125 0.296875 4.65625q0.34375 1.1875 1.53125 1.21875l2.5 -1.046875zm10.724182 1.046875q2.171875 0 4.40625 -0.3125l0 2.5q-2.96875 0.53125 -4.21875 0.53125q-1.25 0 -2.0 -0.171875q-0.75 -0.171875 -1.296875 -0.40625q-0.546875 -0.25 -0.90625 -0.828125q-0.34375 -0.578125 -0.53125 -1.0625q-0.1875 -0.5 -0.296875 -1.53125q-0.125 -1.375 -0.125 -2.921875q0 -1.546875 0 -2.609375l0 -1.65625q0 -2.28125 0.125 -2.84375q0.140625 -0.5625 0.296875 -1.21875q0.15625 -0.65625 0.40625 -0.921875q0.265625 -0.265625 0.625 -0.625q0.375 -0.375 0.859375 -0.515625q1.5 -0.3125 2.671875 -0.3125q1.1875 0 2.03125 0.375q0.859375 0.359375 1.3125 0.90625q0.46875 0.546875 0.734375 1.53125q0.40625 1.5625 0.40625 4.09375l0.109375 2.1875l-6.984375 0.15625l0.25 0.734375q0 3.171875 0.296875 4.046875q0.3125 0.875 1.828125 0.875zm1.65625 -9.109375q-0.03125 -1.765625 -0.34375 -2.421875q-0.296875 -0.65625 -1.453125 -0.65625q-1.140625 0 -1.484375 0.578125q-0.328125 0.578125 -0.328125 2.5l-0.265625 0.703125l4.203125 0l-0.328125 -0.703125zm8.674866 11.609375q-2.140625 0 -2.515625 -0.234375q-0.359375 -0.25 -0.359375 -1.6875l0 -15.265625q2.109375 0 2.453125 0.140625q0.359375 0.125 0.359375 0.859375l2.046875 -1.21875q0.921875 0 1.6875 0.1875l0.515625 0.03125q0 1.828125 -0.265625 2.171875q-0.25 0.328125 -1.625 0.328125l-2.625 0.890625l0.328125 0.90625l0 12.890625zm6.628296 -21.5q0 -0.796875 0.5625 -1.359375q0.578125 -0.5625 1.34375 -0.5625q0.78125 0 1.34375 0.578125q0.578125 0.578125 0.578125 1.28125q0 1.28125 -1.90625 5.046875l-0.609375 1.21875l-1.734375 -1.0625l-0.21875 -0.5625q0.640625 -2.3125 0.640625 -4.578125zm4.640625 0q0 -0.796875 0.5625 -1.359375q0.578125 -0.5625 1.359375 -0.5625q0.796875 0 1.34375 0.578125q0.5625 0.578125 0.5625 1.296875q0 0.71875 -0.625 2.25q-0.609375 1.53125 -1.25 2.78125l-0.640625 1.21875l-1.796875 -1.09375l-0.15625 -0.53125q0.640625 -2.3125 0.640625 -4.578125z" fill-rule="nonzero"/></g></svg>