<svg version="1.1" viewBox="0.0 0.0 960.0 540.0" fill="none" stroke="none" stroke-linecap="square" stroke-miterlimit="10" xmlns:xlink="http://www.w3.org/1999/xlink" xmlns="http://www.w3.org/2000/svg"><clipPath id="g3d2bfa4117_5_225.0"><path d="m0 0l960.0 0l0 540.0l-960.0 0l0 -540.0z" clip-rule="nonzero"/></clipPath><g clip-path="url(#g3d2bfa4117_5_225.0)"><path fill="#d0e0e3" d="m0 0l960.0 0l0 540.0l-960.0 0z" fill-rule="evenodd"/><path fill="#000000" fill-opacity="0.0" d="m25.874016 169.53378l0 0c0 -26.953766 21.85035 -48.804123 48.804123 -48.804123l810.6437 0c12.943665 0 25.357178 5.1418457 34.509766 14.294403c9.152527 9.152542 14.294373 21.566055 14.294373 34.50972l0 195.21063c0 26.953796 -21.850342 48.80414 -48.80414 48.80414l-810.6437 0c-26.953773 0 -48.804123 -21.850342 -48.804123 -48.80414z" fill-rule="evenodd"/><path stroke="#595959" stroke-width="1.0" stroke-linejoin="round" stroke-linecap="butt" d="m25.874016 169.53378l0 0c0 -26.953766 21.85035 -48.804123 48.804123 -48.804123l810.6437 0c12.943665 0 25.357178 5.1418457 34.509766 14.294403c9.152527 9.152542 14.294373 21.566055 14.294373 34.50972l0 195.21063c0 26.953796 -21.850342 48.80414 -48.80414 48.80414l-810.6437 0c-26.953773 0 -48.804123 -21.850342 -48.804123 -48.80414z" fill-rule="evenodd"/><path fill="#d9ead3" d="m696.59845 165.87465l0 0c0 -17.316864 14.038086 -31.354965 31.35492 -31.354965l125.41608 0l0 0c8.315857 0 16.291138 3.3034668 22.171326 9.183655c5.880188 5.8802032 9.183655 13.8554535 9.183655 22.17131l0 201.44756c0 17.316864 -14.038086 31.35495 -31.35498 31.35495l-125.41608 0c-17.316833 0 -31.35492 -14.038086 -31.35492 -31.35495z" fill-rule="evenodd"/><path stroke="#595959" stroke-width="1.0" stroke-linejoin="round" stroke-linecap="butt" d="m696.59845 165.87465l0 0c0 -17.316864 14.038086 -31.354965 31.35492 -31.354965l125.41608 0l0 0c8.315857 0 16.291138 3.3034668 22.171326 9.183655c5.880188 5.8802032 9.183655 13.8554535 9.183655 22.17131l0 201.44756c0 17.316864 -14.038086 31.35495 -31.35498 31.35495l-125.41608 0c-17.316833 0 -31.35492 -14.038086 -31.35492 -31.35495z" fill-rule="evenodd"/><path fill="#000000" d="m718.0945 175.74324l-0.125 0q-1.03125 0 -1.21875 -0.140625q-0.171875 -0.140625 -0.171875 -0.96875l0 -16.171875l0.125 0q1.03125 0 1.203125 0.15625q0.1875 0.140625 0.1875 0.953125l0 16.171875zm3.7213745 0l-0.125 0l0 -17.328125l3.21875 -0.234375q2.8125 0 3.625 0.953125q0.3125 0.390625 0.46875 0.6875q0.15625 0.28125 0.25 0.875q0.09375 0.765625 0.09375 2.0q0 1.234375 -0.03125 1.765625q-0.03125 0.53125 -0.265625 1.234375q-0.234375 0.703125 -0.6875 1.015625q-1.125 0.828125 -3.453125 0.828125l-1.796875 0l0.09375 0.59375l0 6.5q0 0.828125 -0.203125 0.96875q-0.1875 0.140625 -1.1875 0.140625zm3.09375 -9.578125q1.515625 0 1.9375 -0.265625q0.421875 -0.28125 0.578125 -0.46875q0.171875 -0.203125 0.25 -0.671875q0.09375 -0.484375 0.09375 -0.8125q0.015625 -0.34375 0.015625 -1.078125q0 -0.75 -0.015625 -1.078125q0 -0.34375 -0.09375 -0.828125q-0.078125 -0.484375 -0.25 -0.671875q-0.15625 -0.1875 -0.46875 -0.40625q-0.53125 -0.34375 -2.046875 -0.34375l-1.796875 0l0.09375 0.609375l0 5.421875l-0.09375 0.59375l1.796875 0zm14.094055 9.34375q-0.265625 0.046875 -1.078125 0.234375q-0.796875 0.171875 -1.421875 0.171875q-0.609375 0 -1.15625 -0.15625q-0.546875 -0.15625 -0.953125 -0.375q-0.390625 -0.234375 -0.703125 -0.703125q-0.3125 -0.46875 -0.515625 -0.84375q-0.203125 -0.390625 -0.34375 -1.125q-0.140625 -0.734375 -0.21875 -1.21875q-0.078125 -0.484375 -0.109375 -1.421875q-0.03125 -0.953125 -0.03125 -1.484375l0 -3.09375q0 -1.828125 0.078125 -2.4375q0.09375 -0.625 0.1875 -1.3125q0.09375 -0.6875 0.25 -1.046875q0.15625 -0.359375 0.359375 -0.84375q0.21875 -0.484375 0.515625 -0.734375q0.3125 -0.25 0.6875 -0.515625q0.734375 -0.421875 2.015625 -0.421875l2.40625 0.46875q0 0.703125 -0.265625 0.875q-0.265625 0.15625 -0.546875 0.15625q-0.265625 0 -0.390625 0l-1.203125 -0.140625q-1.0 0 -1.484375 0.609375q-0.28125 0.3125 -0.484375 0.625q-0.1875 0.3125 -0.296875 0.9375q-0.109375 0.609375 -0.1875 1.0625q-0.0625 0.4375 -0.09375 1.296875q-0.03125 0.84375 -0.03125 1.359375l0 3.046875q0 1.796875 0.09375 2.453125q0.109375 0.640625 0.21875 1.265625q0.109375 0.625 0.296875 0.9375q0.203125 0.3125 0.484375 0.640625q0.484375 0.59375 1.484375 0.59375q0.5625 0 1.328125 -0.09375q0.765625 -0.109375 1.109375 -0.140625l0 1.375zm13.141724 0.234375l-0.09375 0q-1.03125 0 -1.203125 -0.140625q-0.15625 -0.140625 -0.1875 -0.96875l0.09375 -12.765625l-0.265625 0l-0.09375 0.4375l-2.421875 5.109375l-0.578125 1.109375l-0.953125 0l-0.609375 -1.078125l-2.46875 -5.140625l-0.0625 -0.4375l-0.25 0l0.078125 12.765625q0 0.828125 -0.171875 0.96875q-0.171875 0.140625 -1.203125 0.140625l-0.09375 0l0 -17.28125l0.125 0q1.03125 0 1.25 0.15625q0.234375 0.140625 0.640625 0.953125l3.046875 6.578125l0.359375 0l3.578125 -7.6875l0.125 0q1.03125 0 1.1875 0.15625q0.171875 0.140625 0.171875 0.953125l0 16.171875zm9.172241 -0.234375q-1.84375 0.40625 -2.578125 0.40625q-0.734375 0 -1.140625 -0.046875q-0.390625 -0.03125 -0.71875 -0.1875q-0.3125 -0.15625 -0.5625 -0.265625q-0.234375 -0.109375 -0.421875 -0.421875q-0.1875 -0.328125 -0.3125 -0.53125q-0.125 -0.203125 -0.203125 -0.703125q-0.0625 -0.515625 -0.109375 -0.828125q-0.046875 -0.3125 -0.078125 -1.015625q-0.015625 -0.703125 -0.015625 -1.140625l0 -2.71875q0 -1.578125 0.0625 -2.046875q0.078125 -0.46875 0.140625 -0.984375q0.078125 -0.53125 0.203125 -0.765625q0.125 -0.234375 0.3125 -0.5625q0.1875 -0.34375 0.421875 -0.46875q0.25 -0.125 0.5625 -0.28125q0.328125 -0.15625 0.71875 -0.203125q0.40625 -0.0625 0.90625 -0.0625q0.515625 0 0.921875 0.078125q0.40625 0.078125 0.671875 0.296875q0.28125 0.203125 0.484375 0.40625q0.203125 0.1875 0.328125 0.625q0.140625 0.421875 0.203125 0.734375q0.078125 0.296875 0.109375 0.9375q0.046875 0.625 0.046875 1.015625l0 1.234375l0.09375 1.296875l-4.890625 0.125l0.09375 0.59375q0 3.078125 0.234375 3.5625q0.390625 0.78125 0.890625 0.90625q0.34375 0.09375 1.3125 0.09375q0.96875 0 2.3125 -0.3125l0 1.234375zm-4.609375 -9.265625q0 0.421875 0 1.296875l-0.09375 0.59375l3.40625 0l-0.125 -0.625q0 -1.921875 -0.265625 -2.734375q-0.25 -0.8125 -1.1875 -0.8125q-0.921875 0 -1.3125 0.5q-0.375 0.484375 -0.421875 1.78125zm6.956299 5.65625q-0.015625 -0.78125 -0.015625 -2.15625q0 -1.375 0 -1.890625q0.015625 -0.53125 0.03125 -1.265625q0.03125 -0.734375 0.09375 -1.09375q0.0625 -0.375 0.171875 -0.859375q0.109375 -0.5 0.265625 -0.734375q0.171875 -0.25 0.40625 -0.53125q0.25 -0.296875 0.5625 -0.390625q0.84375 -0.296875 1.734375 -0.296875l1.765625 0.671875l0 -5.171875q1.0625 0 1.21875 0.140625q0.171875 0.140625 0.171875 0.953125l0 16.46875q-1.046875 0 -1.21875 -0.15625q-0.171875 -0.15625 -0.171875 -1.109375l-1.890625 1.4375q-1.609375 0 -2.46875 -0.890625q-0.578125 -0.59375 -0.65625 -3.125zm1.484375 -5.75q-0.0625 0.859375 -0.078125 1.375q-0.015625 0.515625 -0.015625 2.8125q0 2.28125 0.21875 3.125q0.515625 1.109375 1.546875 1.171875l1.96875 -1.078125l-0.109375 -0.59375l0 -7.78125l0.109375 -0.59375l-1.96875 -0.625q-0.890625 0 -1.234375 0.59375q-0.375 0.71875 -0.4375 1.59375zm9.5876465 -5.828125q-0.3125 0.328125 -0.78125 0.328125q-0.453125 0 -0.78125 -0.328125q-0.3125 -0.328125 -0.3125 -0.796875q0 -0.46875 0.3125 -0.765625q0.328125 -0.296875 0.78125 -0.296875q0.46875 0 0.78125 0.3125q0.328125 0.3125 0.328125 0.765625q0 0.453125 -0.328125 0.78125zm-1.46875 14.40625l0 -11.875q1.0625 0 1.234375 0.140625q0.1875 0.125 0.1875 0.96875l0 11.875q-1.0625 0 -1.25 -0.140625q-0.171875 -0.140625 -0.171875 -0.96875zm8.637573 -8.03125l0 -1.34375q0 -0.96875 -0.234375 -1.21875q-0.21875 -0.25 -1.078125 -0.25l-1.203125 0.25q-0.234375 0.046875 -0.359375 0.046875q-0.84375 0 -0.84375 -1.078125l2.40625 -0.421875q1.796875 0 2.1875 0.484375q0.1875 0.234375 0.296875 0.40625q0.109375 0.171875 0.125 0.609375q0.078125 0.6875 0.078125 1.609375l0 9.953125q-1.078125 0 -1.28125 -0.15625q-0.1875 -0.15625 -0.1875 -1.046875q-0.234375 0.140625 -0.671875 0.53125q-0.90625 0.84375 -1.53125 0.84375q-1.46875 0 -1.75 -0.921875q-0.265625 -0.9375 -0.265625 -5.125q0 -1.609375 1.390625 -2.140625q1.15625 -0.4375 2.921875 -0.4375l0.09375 0l-0.09375 -0.59375zm-0.09375 1.9375q-1.390625 0 -2.109375 0.203125q-0.703125 0.203125 -0.703125 0.828125q0 4.390625 0.203125 4.8125q0.09375 0.15625 0.421875 0.15625q0.34375 0 0.734375 -0.1875q0.40625 -0.1875 0.84375 -0.515625q0.4375 -0.328125 0.703125 -0.4375l-0.09375 -0.609375l0 -3.640625l0.09375 -0.609375l-0.09375 0zm4.708008 7.109375l-0.125 0l0 -17.328125l3.21875 -0.234375q2.8125 0 3.625 0.953125q0.3125 0.390625 0.46875 0.6875q0.15625 0.28125 0.25 0.875q0.09375 0.765625 0.09375 2.0q0 1.234375 -0.03125 1.765625q-0.03125 0.53125 -0.265625 1.234375q-0.234375 0.703125 -0.6875 1.015625q-1.125 0.828125 -3.453125 0.828125l-1.796875 0l0.09375 0.59375l0 6.5q0 0.828125 -0.203125 0.96875q-0.1875 0.140625 -1.1875 0.140625zm3.09375 -9.578125q1.515625 0 1.9375 -0.265625q0.421875 -0.28125 0.578125 -0.46875q0.171875 -0.203125 0.25 -0.671875q0.09375 -0.484375 0.09375 -0.8125q0.015625 -0.34375 0.015625 -1.078125q0 -0.75 -0.015625 -1.078125q0 -0.34375 -0.09375 -0.828125q-0.078125 -0.484375 -0.25 -0.671875q-0.15625 -0.1875 -0.46875 -0.40625q-0.53125 -0.34375 -2.046875 -0.34375l-1.796875 0l0.09375 0.609375l0 5.421875l-0.09375 0.59375l1.796875 0zm9.219055 -5.84375q-0.3125 0.328125 -0.78125 0.328125q-0.453125 0 -0.78125 -0.328125q-0.3125 -0.328125 -0.3125 -0.796875q0 -0.46875 0.3125 -0.765625q0.328125 -0.296875 0.78125 -0.296875q0.46875 0 0.78125 0.3125q0.328125 0.3125 0.328125 0.765625q0 0.453125 -0.328125 0.78125zm-1.46875 14.40625l0 -11.875q1.0625 0 1.234375 0.140625q0.1875 0.125 0.1875 0.96875l0 11.875q-1.0625 0 -1.25 -0.140625q-0.171875 -0.140625 -0.171875 -0.96875zm4.4345093 4.71875l0 -16.59375q1.046875 0 1.21875 0.0625q0.1875 0.0625 0.1875 0.421875l1.90625 -0.65625q1.6875 0 2.484375 1.015625q0.640625 0.8125 0.765625 3.1875q0.046875 0.921875 0.046875 2.359375q0 1.4375 -0.046875 2.265625q-0.03125 0.828125 -0.15625 1.65625q-0.109375 0.828125 -0.328125 1.28125q-0.21875 0.4375 -0.578125 0.8125q-0.671875 0.65625 -2.28125 0.65625l-1.8125 -1.109375l0 5.734375q-1.03125 0 -1.21875 -0.140625q-0.1875 -0.140625 -0.1875 -0.953125zm3.171875 -4.8125q1.28125 0 1.640625 -1.109375q0.375 -1.125 0.375 -4.09375q0 -2.96875 -0.390625 -4.21875q-0.375 -1.25 -1.59375 -1.25l-1.875 0.59375l0.09375 0.609375l0 7.796875l-0.125 0.59375l1.875 1.078125zm11.979309 0.875q-1.84375 0.40625 -2.578125 0.40625q-0.734375 0 -1.140625 -0.046875q-0.390625 -0.03125 -0.71875 -0.1875q-0.3125 -0.15625 -0.5625 -0.265625q-0.234375 -0.109375 -0.421875 -0.421875q-0.1875 -0.328125 -0.3125 -0.53125q-0.125 -0.203125 -0.203125 -0.703125q-0.0625 -0.515625 -0.109375 -0.828125q-0.046875 -0.3125 -0.078125 -1.015625q-0.015625 -0.703125 -0.015625 -1.140625l0 -2.71875q0 -1.578125 0.0625 -2.046875q0.078125 -0.46875 0.140625 -0.984375q0.078125 -0.53125 0.203125 -0.765625q0.125 -0.234375 0.3125 -0.5625q0.1875 -0.34375 0.421875 -0.46875q0.25 -0.125 0.5625 -0.28125q0.328125 -0.15625 0.71875 -0.203125q0.40625 -0.0625 0.90625 -0.0625q0.515625 0 0.921875 0.078125q0.40625 0.078125 0.671875 0.296875q0.28125 0.203125 0.484375 0.40625q0.203125 0.1875 0.328125 0.625q0.140625 0.421875 0.203125 0.734375q0.078125 0.296875 0.109375 0.9375q0.046875 0.625 0.046875 1.015625l0 1.234375l0.09375 1.296875l-4.890625 0.125l0.09375 0.59375q0 3.078125 0.234375 3.5625q0.390625 0.78125 0.890625 0.90625q0.34375 0.09375 1.3125 0.09375q0.96875 0 2.3125 -0.3125l0 1.234375zm-4.609375 -9.265625q0 0.421875 0 1.296875l-0.09375 0.59375l3.40625 0l-0.125 -0.625q0 -1.921875 -0.265625 -2.734375q-0.25 -0.8125 -1.1875 -0.8125q-0.921875 0 -1.3125 0.5q-0.375 0.484375 -0.421875 1.78125zm7.30011 8.484375l0 -16.546875q1.046875 0 1.21875 0.140625q0.1875 0.140625 0.1875 0.953125l0 16.5625q-1.046875 0 -1.234375 -0.140625q-0.171875 -0.140625 -0.171875 -0.96875zm5.9522705 -14.40625q-0.3125 0.328125 -0.78125 0.328125q-0.453125 0 -0.78125 -0.328125q-0.3125 -0.328125 -0.3125 -0.796875q0 -0.46875 0.3125 -0.765625q0.328125 -0.296875 0.78125 -0.296875q0.46875 0 0.78125 0.3125q0.328125 0.3125 0.328125 0.765625q0 0.453125 -0.328125 0.78125zm-1.46875 14.40625l0 -11.875q1.0625 0 1.234375 0.140625q0.1875 0.125 0.1875 0.96875l0 11.875q-1.0625 0 -1.25 -0.140625q-0.171875 -0.140625 -0.171875 -0.96875zm9.746948 -0.09375l0 -5.296875q0 -3.671875 -0.21875 -4.515625q-0.21875 -0.859375 -1.296875 -0.859375l-2.34375 0.84375l0.09375 0.59375l0 10.34375q-1.0625 0 -1.25 -0.140625q-0.171875 -0.140625 -0.171875 -0.96875l0 -11.78125q1.0625 0 1.234375 0.09375q0.1875 0.078125 0.1875 0.625l2.15625 -0.890625q2.15625 0 2.59375 1.109375q0.4375 1.109375 0.4375 5.5625l0 6.390625q-1.0625 0 -1.25 -0.140625q-0.171875 -0.140625 -0.171875 -0.96875zm10.078735 0.875q-1.84375 0.40625 -2.578125 0.40625q-0.734375 0 -1.140625 -0.046875q-0.390625 -0.03125 -0.71875 -0.1875q-0.3125 -0.15625 -0.5625 -0.265625q-0.234375 -0.109375 -0.421875 -0.421875q-0.1875 -0.328125 -0.3125 -0.53125q-0.125 -0.203125 -0.203125 -0.703125q-0.0625 -0.515625 -0.109375 -0.828125q-0.046875 -0.3125 -0.078125 -1.015625q-0.015625 -0.703125 -0.015625 -1.140625l0 -2.71875q0 -1.578125 0.0625 -2.046875q0.078125 -0.46875 0.140625 -0.984375q0.078125 -0.53125 0.203125 -0.765625q0.125 -0.234375 0.3125 -0.5625q0.1875 -0.34375 0.421875 -0.46875q0.25 -0.125 0.5625 -0.28125q0.328125 -0.15625 0.71875 -0.203125q0.40625 -0.0625 0.90625 -0.0625q0.515625 0 0.921875 0.078125q0.40625 0.078125 0.671875 0.296875q0.28125 0.203125 0.484375 0.40625q0.203125 0.1875 0.328125 0.625q0.140625 0.421875 0.203125 0.734375q0.078125 0.296875 0.109375 0.9375q0.046875 0.625 0.046875 1.015625l0 1.234375l0.09375 1.296875l-4.890625 0.125l0.09375 0.59375q0 3.078125 0.234375 3.5625q0.390625 0.78125 0.890625 0.90625q0.34375 0.09375 1.3125 0.09375q0.96875 0 2.3125 -0.3125l0 1.234375zm-4.609375 -9.265625q0 0.421875 0 1.296875l-0.09375 0.59375l3.40625 0l-0.125 -0.625q0 -1.921875 -0.265625 -2.734375q-0.25 -0.8125 -1.1875 -0.8125q-0.921875 0 -1.3125 0.5q-0.375 0.484375 -0.421875 1.78125z" fill-rule="nonzero"/><path fill="#000000" d="m720.4695 207.38387q-0.859375 0 -1.515625 -0.125q-0.640625 -0.109375 -1.140625 -0.515625q-0.484375 -0.390625 -0.8125 -0.734375q-0.328125 -0.328125 -0.546875 -1.171875q-0.203125 -0.84375 -0.328125 -1.40625q-0.125 -0.5625 -0.171875 -1.859375q-0.0625 -1.9375 -0.0625 -4.4375q0 -2.5 0.015625 -3.5625q0.03125 -1.0625 0.15625 -2.578125q0.140625 -1.53125 0.40625 -2.171875q0.28125 -0.65625 0.78125 -1.390625q0.5 -0.734375 1.296875 -0.96875q0.796875 -0.25 1.921875 -0.25q0 0.84375 -0.15625 0.984375q-0.15625 0.140625 -1.046875 0.140625q-1.265625 0 -1.578125 1.984375q-0.296875 1.984375 -0.296875 7.140625q0 0.234375 0 0.671875q0 5.3125 0.28125 7.21875q0.296875 1.90625 1.59375 1.90625q0.890625 0 1.046875 0.140625q0.15625 0.140625 0.15625 0.984375zm8.014465 -10.015625q0 -1.03125 0.140625 -1.203125q0.15625 -0.1875 0.96875 -0.1875l0.40625 0l0 8.53125q-0.359375 0.046875 -1.0625 0.15625q-1.390625 0.25 -2.1875 0.25q-0.78125 0 -1.34375 -0.15625q-0.546875 -0.15625 -0.9375 -0.375q-0.390625 -0.234375 -0.703125 -0.703125q-0.3125 -0.46875 -0.53125 -0.84375q-0.203125 -0.390625 -0.34375 -1.125q-0.140625 -0.734375 -0.21875 -1.21875q-0.0625 -0.484375 -0.109375 -1.421875q-0.03125 -0.953125 -0.03125 -1.484375l0 -3.09375q0 -1.828125 0.078125 -2.4375q0.09375 -0.625 0.1875 -1.3125q0.09375 -0.6875 0.25 -1.046875q0.15625 -0.359375 0.375 -0.84375q0.21875 -0.484375 0.515625 -0.734375q0.296875 -0.25 0.6875 -0.515625q0.71875 -0.421875 2.015625 -0.421875l2.875 0.46875q0 0.703125 -0.265625 0.875q-0.265625 0.15625 -0.546875 0.15625q-0.265625 0 -0.390625 0l-1.671875 -0.140625q-1.015625 0 -1.484375 0.609375q-0.296875 0.3125 -0.484375 0.625q-0.1875 0.3125 -0.296875 0.9375q-0.109375 0.609375 -0.1875 1.0625q-0.0625 0.4375 -0.109375 1.296875q-0.03125 0.84375 -0.03125 1.359375l0 3.0625q0 1.828125 0.109375 2.484375q0.109375 0.65625 0.21875 1.296875q0.109375 0.640625 0.296875 0.984375q0.1875 0.328125 0.484375 0.65625q0.5 0.625 1.484375 0.625q0.734375 0 1.9375 -0.234375l-0.09375 -0.609375l0 -5.328125zm4.2664795 11.078125l0 -16.59375q1.046875 0 1.21875 0.0625q0.1875 0.0625 0.1875 0.421875l1.90625 -0.65625q1.6875 0 2.484375 1.015625q0.640625 0.8125 0.765625 3.1875q0.046875 0.921875 0.046875 2.359375q0 1.4375 -0.046875 2.265625q-0.03125 0.828125 -0.15625 1.65625q-0.109375 0.828125 -0.328125 1.28125q-0.21875 0.4375 -0.578125 0.8125q-0.671875 0.65625 -2.28125 0.65625l-1.8125 -1.109375l0 5.734375q-1.03125 0 -1.21875 -0.140625q-0.1875 -0.140625 -0.1875 -0.953125zm3.171875 -4.8125q1.28125 0 1.640625 -1.109375q0.375 -1.125 0.375 -4.09375q0 -2.96875 -0.390625 -4.21875q-0.375 -1.25 -1.59375 -1.25l-1.875 0.59375l0.09375 0.609375l0 7.796875l-0.125 0.59375l1.875 1.078125zm5.94812 -5.390625l0 -6.390625q1.0625 0 1.234375 0.140625q0.1875 0.125 0.1875 0.96875l0 5.234375q0 2.78125 0.15625 3.796875q0.15625 1.015625 0.484375 1.328125q0.328125 0.3125 0.875 0.3125l2.375 -1.09375l-0.125 -0.609375l0 -10.078125q1.0625 0 1.234375 0.140625q0.1875 0.125 0.1875 0.96875l0 11.78125q-1.0625 0 -1.25 -0.109375q-0.171875 -0.125 -0.171875 -0.84375l-2.15625 1.125q-1.515625 0 -2.375 -0.9375q-0.546875 -0.625 -0.625 -3.171875q-0.03125 -0.796875 -0.03125 -2.5625zm14.409302 6.5l-0.125 0l0 -17.328125l3.21875 -0.234375q2.8125 0 3.625 0.953125q0.3125 0.390625 0.46875 0.6875q0.15625 0.28125 0.25 0.875q0.09375 0.765625 0.09375 2.0q0 1.234375 -0.03125 1.765625q-0.03125 0.53125 -0.265625 1.234375q-0.234375 0.703125 -0.6875 1.015625q-1.125 0.828125 -3.453125 0.828125l-1.796875 0l0.09375 0.59375l0 6.5q0 0.828125 -0.203125 0.96875q-0.1875 0.140625 -1.1875 0.140625zm3.09375 -9.578125q1.515625 0 1.9375 -0.265625q0.421875 -0.28125 0.578125 -0.46875q0.171875 -0.203125 0.25 -0.671875q0.09375 -0.484375 0.09375 -0.8125q0.015625 -0.34375 0.015625 -1.078125q0 -0.75 -0.015625 -1.078125q0 -0.34375 -0.09375 -0.828125q-0.078125 -0.484375 -0.25 -0.671875q-0.15625 -0.1875 -0.46875 -0.40625q-0.53125 -0.34375 -2.046875 -0.34375l-1.796875 0l0.09375 0.609375l0 5.421875l-0.09375 0.59375l1.796875 0zm7.437866 8.46875l0 -11.78125q1.0625 0 1.234375 0.09375q0.1875 0.078125 0.1875 0.625l0 0.265625l1.921875 -1.15625q0.40625 0 1.1875 0.171875q0 0.84375 -0.15625 0.984375q-0.15625 0.125 -1.03125 0.125l-2.046875 1.125l0.125 0.59375l0 10.0625q-1.0625 0 -1.25 -0.140625q-0.171875 -0.140625 -0.171875 -0.96875zm11.221558 1.0q-0.328125 0.109375 -0.75 0.1875q-0.40625 0.09375 -1.0 0.09375q-0.59375 0 -1.0625 -0.078125q-0.46875 -0.0625 -0.8125 -0.296875q-0.34375 -0.25 -0.578125 -0.453125q-0.21875 -0.203125 -0.375 -0.734375q-0.15625 -0.53125 -0.25 -0.890625q-0.078125 -0.359375 -0.125 -1.1875q-0.03125 -0.828125 -0.046875 -1.359375q0 -0.53125 0 -1.671875q0 -1.15625 0 -1.671875q0.015625 -0.515625 0.046875 -1.34375q0.046875 -0.828125 0.125 -1.171875q0.09375 -0.359375 0.25 -0.875q0.15625 -0.515625 0.375 -0.703125q0.234375 -0.1875 0.59375 -0.40625q0.546875 -0.390625 1.5 -0.390625q0.953125 0 1.359375 0.09375q0.421875 0.078125 0.75 0.171875q0.34375 0.09375 0.578125 0.40625q0.25 0.296875 0.421875 0.5q0.171875 0.203125 0.265625 0.71875q0.09375 0.515625 0.15625 0.84375q0.0625 0.3125 0.09375 1.09375q0.03125 0.765625 0.03125 1.25l0 1.484375q0 0 0 0.09375q0 0 0 1.46875q0 1.625 -0.09375 2.140625q-0.09375 0.515625 -0.1875 1.046875q-0.09375 0.53125 -0.265625 0.734375q-0.171875 0.203125 -0.421875 0.5q-0.234375 0.296875 -0.578125 0.40625zm0.140625 -5.84375l0 -0.8125q0 -3.140625 -0.265625 -3.96875q-0.390625 -1.03125 -1.59375 -1.046875q-0.984375 0 -1.3125 0.5q-0.203125 0.34375 -0.328125 0.625q-0.109375 0.28125 -0.15625 1.015625q-0.078125 1.046875 -0.078125 2.03125q0 0.984375 0 1.984375q0 1.0 0.015625 1.71875q0.03125 0.71875 0.21875 1.53125q0.1875 0.796875 0.5625 1.03125q0.390625 0.234375 0.953125 0.234375q0.578125 0 0.890625 -0.09375q0.3125 -0.109375 0.515625 -0.40625q0.203125 -0.3125 0.3125 -0.609375q0.109375 -0.296875 0.15625 -0.953125q0.109375 -0.9375 0.109375 -2.78125zm3.8353882 -0.484375l0 -1.53125q0 -1.75 0.078125 -2.203125q0.09375 -0.453125 0.1875 -0.984375q0.109375 -0.53125 0.265625 -0.734375q0.15625 -0.203125 0.390625 -0.484375q0.234375 -0.296875 0.5625 -0.390625q0.8125 -0.296875 1.65625 -0.296875l2.0 0.3125q0 1.0625 -0.875 1.0625q-0.171875 0 -0.328125 -0.03125l-0.796875 -0.0625q-1.21875 0 -1.484375 1.015625q-0.265625 1.015625 -0.265625 3.515625q0 2.5 0.015625 3.25q0.03125 0.734375 0.1875 1.5625q0.171875 0.828125 0.53125 1.078125q0.375 0.25 1.015625 0.25l2.09375 -0.234375l0 1.109375l-2.09375 0.40625q-1.296875 0 -1.734375 -0.3125q-0.421875 -0.3125 -0.640625 -0.515625q-0.21875 -0.203125 -0.375 -0.734375q-0.15625 -0.53125 -0.234375 -0.890625q-0.0625 -0.359375 -0.109375 -1.171875q-0.046875 -1.390625 -0.046875 -2.984375zm13.652588 6.203125q-1.84375 0.40625 -2.578125 0.40625q-0.734375 0 -1.140625 -0.046875q-0.390625 -0.03125 -0.71875 -0.1875q-0.3125 -0.15625 -0.5625 -0.265625q-0.234375 -0.109375 -0.421875 -0.421875q-0.1875 -0.328125 -0.3125 -0.53125q-0.125 -0.203125 -0.203125 -0.703125q-0.0625 -0.515625 -0.109375 -0.828125q-0.046875 -0.3125 -0.078125 -1.015625q-0.015625 -0.703125 -0.015625 -1.140625l0 -2.71875q0 -1.578125 0.0625 -2.046875q0.078125 -0.46875 0.140625 -0.984375q0.078125 -0.53125 0.203125 -0.765625q0.125 -0.234375 0.3125 -0.5625q0.1875 -0.34375 0.421875 -0.46875q0.25 -0.125 0.5625 -0.28125q0.328125 -0.15625 0.71875 -0.203125q0.40625 -0.0625 0.90625 -0.0625q0.515625 0 0.921875 0.078125q0.40625 0.078125 0.671875 0.296875q0.28125 0.203125 0.484375 0.40625q0.203125 0.1875 0.328125 0.625q0.140625 0.421875 0.203125 0.734375q0.078125 0.296875 0.109375 0.9375q0.046875 0.625 0.046875 1.015625l0 1.234375l0.09375 1.296875l-4.890625 0.125l0.09375 0.59375q0 3.078125 0.234375 3.5625q0.390625 0.78125 0.890625 0.90625q0.34375 0.09375 1.3125 0.09375q0.96875 0 2.3125 -0.3125l0 1.234375zm-4.609375 -9.265625q0 0.421875 0 1.296875l-0.09375 0.59375l3.40625 0l-0.125 -0.625q0 -1.921875 -0.265625 -2.734375q-0.25 -0.8125 -1.1875 -0.8125q-0.921875 0 -1.3125 0.5q-0.375 0.484375 -0.421875 1.78125zm11.753235 8.875q-0.28125 0.359375 -0.765625 0.546875q-0.46875 0.171875 -1.171875 0.171875q-0.6875 0 -2.859375 -0.359375l0 -1.265625q0.09375 0 1.203125 0.125q1.125 0.109375 1.6875 0.109375q1.34375 0 1.34375 -2.5q0 -0.15625 0 -0.328125q-0.03125 -0.765625 -1.5 -1.875q-1.453125 -1.125 -2.15625 -1.96875q-0.6875 -0.84375 -0.6875 -1.703125q0 -0.859375 0.015625 -1.1875q0.03125 -0.34375 0.171875 -0.84375q0.140625 -0.515625 0.4375 -0.734375q0.734375 -0.59375 2.25 -0.59375l2.28125 0.328125q0 1.0625 -0.859375 1.0625q-0.171875 0 -0.34375 -0.015625l-0.984375 -0.15625q-1.171875 0 -1.4375 0.53125q-0.21875 0.453125 -0.21875 1.328125q0 0.875 1.875 2.375q0.859375 0.640625 1.296875 1.03125q0.453125 0.375 0.875 1.0q0.421875 0.625 0.421875 1.21875q0 0.578125 -0.03125 1.0q-0.015625 0.421875 -0.109375 1.0q-0.078125 0.578125 -0.265625 0.96875q-0.171875 0.375 -0.46875 0.734375zm8.01593 0q-0.28125 0.359375 -0.765625 0.546875q-0.46875 0.171875 -1.171875 0.171875q-0.6875 0 -2.859375 -0.359375l0 -1.265625q0.09375 0 1.203125 0.125q1.125 0.109375 1.6875 0.109375q1.34375 0 1.34375 -2.5q0 -0.15625 0 -0.328125q-0.03125 -0.765625 -1.5 -1.875q-1.453125 -1.125 -2.15625 -1.96875q-0.6875 -0.84375 -0.6875 -1.703125q0 -0.859375 0.015625 -1.1875q0.03125 -0.34375 0.171875 -0.84375q0.140625 -0.515625 0.4375 -0.734375q0.734375 -0.59375 2.25 -0.59375l2.28125 0.328125q0 1.0625 -0.859375 1.0625q-0.171875 0 -0.34375 -0.015625l-0.984375 -0.15625q-1.171875 0 -1.4375 0.53125q-0.21875 0.453125 -0.21875 1.328125q0 0.875 1.875 2.375q0.859375 0.640625 1.296875 1.03125q0.453125 0.375 0.875 1.0q0.421875 0.625 0.421875 1.21875q0 0.578125 -0.03125 1.0q-0.015625 0.421875 -0.109375 1.0q-0.078125 0.578125 -0.265625 0.96875q-0.171875 0.375 -0.46875 0.734375zm2.2659912 3.265625q0 -0.84375 0.15625 -0.984375q0.15625 -0.140625 1.046875 -0.140625q1.265625 0 1.5625 -1.875q0.3125 -1.890625 0.3125 -7.46875q0 -5.59375 -0.25 -7.140625q-0.453125 -2.328125 -1.625 -2.4375q-0.890625 0 -1.046875 -0.140625q-0.15625 -0.140625 -0.15625 -0.984375q1.125 0 1.90625 0.25q0.796875 0.234375 1.296875 0.96875q0.515625 0.734375 0.78125 1.390625q0.28125 0.640625 0.40625 2.140625q0.1875 2.09375 0.1875 4.90625q0 2.796875 -0.015625 3.609375q0 0.796875 -0.046875 2.09375q-0.046875 1.296875 -0.171875 1.859375q-0.125 0.5625 -0.34375 1.40625q-0.203125 0.84375 -0.53125 1.171875q-0.328125 0.34375 -0.828125 0.734375q-0.484375 0.40625 -1.140625 0.515625q-0.640625 0.125 -1.5 0.125z" fill-rule="nonzero"/><path fill="#d9d2e9" d="m75.509186 168.63847l0 0c0 -18.841843 15.27433 -34.116165 34.116165 -34.116165l136.46059 0l0 0c9.048172 0 17.725739 3.5943756 24.12378 9.992401c6.3980103 6.3980103 9.992371 15.075592 9.992371 24.123764l0 195.92516c0 18.841827 -15.2743225 34.11615 -34.11615 34.11615l-136.46059 0c-18.841835 0 -34.116165 -15.2743225 -34.116165 -34.11615z" fill-rule="evenodd"/><path stroke="#595959" stroke-width="1.0" stroke-linejoin="round" stroke-linecap="butt" d="m75.509186 168.63847l0 0c0 -18.841843 15.27433 -34.116165 34.116165 -34.116165l136.46059 0l0 0c9.048172 0 17.725739 3.5943756 24.12378 9.992401c6.3980103 6.3980103 9.992371 15.075592 9.992371 24.123764l0 195.92516c0 18.841827 -15.2743225 34.11615 -34.11615 34.11615l-136.46059 0c-18.841835 0 -34.116165 -15.2743225 -34.116165 -34.11615z" fill-rule="evenodd"/><path fill="#000000" d="m97.81397 176.5546l-0.125 0q-1.03125 0 -1.21875 -0.140625q-0.171875 -0.140625 -0.171875 -0.96875l0 -16.171875l0.125 0q1.03125 0 1.203125 0.15625q0.1875 0.140625 0.1875 0.953125l0 16.171875zm3.7213593 0l-0.125 0l0 -17.328125l3.21875 -0.234375q2.8125 0 3.625 0.953125q0.3125 0.390625 0.46875 0.6875q0.15625 0.28125 0.25 0.875q0.09375 0.765625 0.09375 2.0q0 1.234375 -0.03125 1.765625q-0.03125 0.53125 -0.265625 1.234375q-0.234375 0.703125 -0.6875 1.015625q-1.125 0.828125 -3.453125 0.828125l-1.796875 0l0.09375 0.59375l0 6.5q0 0.828125 -0.203125 0.96875q-0.1875 0.140625 -1.1875 0.140625zm3.09375 -9.578125q1.515625 0 1.9375 -0.265625q0.421875 -0.28125 0.578125 -0.46875q0.171875 -0.203125 0.25 -0.671875q0.09375 -0.484375 0.09375 -0.8125q0.015625 -0.34375 0.015625 -1.078125q0 -0.75 -0.015625 -1.078125q0 -0.34375 -0.09375 -0.828125q-0.078125 -0.484375 -0.25 -0.671875q-0.15625 -0.1875 -0.46875 -0.40625q-0.53125 -0.34375 -2.046875 -0.34375l-1.796875 0l0.09375 0.609375l0 5.421875l-0.09375 0.59375l1.796875 0zm14.094086 9.34375q-0.265625 0.046875 -1.078125 0.234375q-0.796875 0.171875 -1.421875 0.171875q-0.609375 0 -1.15625 -0.15625q-0.546875 -0.15625 -0.953125 -0.375q-0.390625 -0.234375 -0.703125 -0.703125q-0.3125 -0.46875 -0.515625 -0.84375q-0.203125 -0.390625 -0.34375 -1.125q-0.140625 -0.734375 -0.21875 -1.21875q-0.078125 -0.484375 -0.109375 -1.421875q-0.03125 -0.953125 -0.03125 -1.484375l0 -3.09375q0 -1.828125 0.078125 -2.4375q0.09375 -0.625 0.1875 -1.3125q0.09375 -0.6875 0.25 -1.046875q0.15625 -0.359375 0.359375 -0.84375q0.21875 -0.484375 0.515625 -0.734375q0.3125 -0.25 0.6875 -0.515625q0.734375 -0.421875 2.015625 -0.421875l2.40625 0.46875q0 0.703125 -0.265625 0.875q-0.265625 0.15625 -0.546875 0.15625q-0.265625 0 -0.390625 0l-1.203125 -0.140625q-1.0 0 -1.484375 0.609375q-0.28125 0.3125 -0.484375 0.625q-0.1875 0.3125 -0.296875 0.9375q-0.109375 0.609375 -0.1875 1.0625q-0.0625 0.4375 -0.09375 1.296875q-0.03125 0.84375 -0.03125 1.359375l0 3.046875q0 1.796875 0.09375 2.453125q0.109375 0.640625 0.21875 1.265625q0.109375 0.625 0.296875 0.9375q0.203125 0.3125 0.484375 0.640625q0.484375 0.59375 1.484375 0.59375q0.5625 0 1.328125 -0.09375q0.765625 -0.109375 1.109375 -0.140625l0 1.375zm13.141716 0.234375l-0.09375 0q-1.03125 0 -1.203125 -0.140625q-0.15625 -0.140625 -0.1875 -0.96875l0.09375 -12.765625l-0.265625 0l-0.09375 0.4375l-2.4218674 5.109375l-0.578125 1.109375l-0.953125 0l-0.609375 -1.078125l-2.46875 -5.140625l-0.0625 -0.4375l-0.25 0l0.078125 12.765625q0 0.828125 -0.171875 0.96875q-0.171875 0.140625 -1.203125 0.140625l-0.09375 0l0 -17.28125l0.125 0q1.03125 0 1.25 0.15625q0.234375 0.140625 0.640625 0.953125l3.046875 6.578125l0.359375 0l3.5781174 -7.6875l0.125 0q1.03125 0 1.1875 0.15625q0.171875 0.140625 0.171875 0.953125l0 16.171875zm9.172211 -0.234375q-1.84375 0.40625 -2.578125 0.40625q-0.734375 0 -1.140625 -0.046875q-0.390625 -0.03125 -0.71875 -0.1875q-0.3125 -0.15625 -0.5625 -0.265625q-0.234375 -0.109375 -0.421875 -0.421875q-0.1875 -0.328125 -0.3125 -0.53125q-0.125 -0.203125 -0.203125 -0.703125q-0.0625 -0.515625 -0.109375 -0.828125q-0.046875 -0.3125 -0.078125 -1.015625q-0.015625 -0.703125 -0.015625 -1.140625l0 -2.71875q0 -1.578125 0.0625 -2.046875q0.078125 -0.46875 0.140625 -0.984375q0.078125 -0.53125 0.203125 -0.765625q0.125 -0.234375 0.3125 -0.5625q0.1875 -0.34375 0.421875 -0.46875q0.25 -0.125 0.5625 -0.28125q0.328125 -0.15625 0.71875 -0.203125q0.40625 -0.0625 0.90625 -0.0625q0.515625 0 0.921875 0.078125q0.40625 0.078125 0.671875 0.296875q0.28125 0.203125 0.484375 0.40625q0.203125 0.1875 0.328125 0.625q0.140625 0.421875 0.203125 0.734375q0.078125 0.296875 0.109375 0.9375q0.046875 0.625 0.046875 1.015625l0 1.234375l0.09375 1.296875l-4.890625 0.125l0.09375 0.59375q0 3.078125 0.234375 3.5625q0.390625 0.78125 0.890625 0.90625q0.34375 0.09375 1.3125 0.09375q0.96875 0 2.3125 -0.3125l0 1.234375zm-4.609375 -9.265625q0 0.421875 0 1.296875l-0.09375 0.59375l3.40625 0l-0.125 -0.625q0 -1.921875 -0.265625 -2.734375q-0.25 -0.8125 -1.1875 -0.8125q-0.921875 0 -1.3125 0.5q-0.375 0.484375 -0.421875 1.78125zm6.9563446 5.65625q-0.015625 -0.78125 -0.015625 -2.15625q0 -1.375 0 -1.890625q0.015625 -0.53125 0.03125 -1.265625q0.03125 -0.734375 0.09375 -1.09375q0.0625 -0.375 0.171875 -0.859375q0.109375 -0.5 0.265625 -0.734375q0.171875 -0.25 0.40625 -0.53125q0.25 -0.296875 0.5625 -0.390625q0.84375 -0.296875 1.734375 -0.296875l1.765625 0.671875l0 -5.171875q1.0625 0 1.21875 0.140625q0.171875 0.140625 0.171875 0.953125l0 16.46875q-1.046875 0 -1.21875 -0.15625q-0.171875 -0.15625 -0.171875 -1.109375l-1.890625 1.4375q-1.609375 0 -2.46875 -0.890625q-0.578125 -0.59375 -0.65625 -3.125zm1.484375 -5.75q-0.0625 0.859375 -0.078125 1.375q-0.015625 0.515625 -0.015625 2.8125q0 2.28125 0.21875 3.125q0.515625 1.109375 1.546875 1.171875l1.96875 -1.078125l-0.109375 -0.59375l0 -7.78125l0.109375 -0.59375l-1.96875 -0.625q-0.890625 0 -1.234375 0.59375q-0.375 0.71875 -0.4375 1.59375zm9.587601 -5.828125q-0.3125 0.328125 -0.78125 0.328125q-0.453125 0 -0.78125 -0.328125q-0.3125 -0.328125 -0.3125 -0.796875q0 -0.46875 0.3125 -0.765625q0.328125 -0.296875 0.78125 -0.296875q0.46875 0 0.78125 0.3125q0.328125 0.3125 0.328125 0.765625q0 0.453125 -0.328125 0.78125zm-1.46875 14.40625l0 -11.875q1.0625 0 1.234375 0.140625q0.1875 0.125 0.1875 0.96875l0 11.875q-1.0625 0 -1.25 -0.140625q-0.171875 -0.140625 -0.171875 -0.96875zm8.637604 -8.03125l0 -1.34375q0 -0.96875 -0.234375 -1.21875q-0.21875 -0.25 -1.078125 -0.25l-1.203125 0.25q-0.234375 0.046875 -0.359375 0.046875q-0.84375 0 -0.84375 -1.078125l2.40625 -0.421875q1.796875 0 2.1875 0.484375q0.1875 0.234375 0.296875 0.40625q0.109375 0.171875 0.125 0.609375q0.078125 0.6875 0.078125 1.609375l0 9.953125q-1.078125 0 -1.28125 -0.15625q-0.1875 -0.15625 -0.1875 -1.046875q-0.234375 0.140625 -0.671875 0.53125q-0.90625 0.84375 -1.53125 0.84375q-1.46875 0 -1.75 -0.921875q-0.265625 -0.9375 -0.265625 -5.125q0 -1.609375 1.390625 -2.140625q1.15625 -0.4375 2.921875 -0.4375l0.09375 0l-0.09375 -0.59375zm-0.09375 1.9375q-1.390625 0 -2.109375 0.203125q-0.703125 0.203125 -0.703125 0.828125q0 4.390625 0.203125 4.8125q0.09375 0.15625 0.421875 0.15625q0.34375 0 0.734375 -0.1875q0.40625 -0.1875 0.84375 -0.515625q0.4375 -0.328125 0.703125 -0.4375l-0.09375 -0.609375l0 -3.640625l0.09375 -0.609375l-0.09375 0zm4.7079773 7.109375l-0.125 0l0 -17.328125l3.21875 -0.234375q2.8125 0 3.625 0.953125q0.3125 0.390625 0.46875 0.6875q0.15625 0.28125 0.25 0.875q0.09375 0.765625 0.09375 2.0q0 1.234375 -0.03125 1.765625q-0.03125 0.53125 -0.265625 1.234375q-0.234375 0.703125 -0.6875 1.015625q-1.125 0.828125 -3.453125 0.828125l-1.796875 0l0.09375 0.59375l0 6.5q0 0.828125 -0.203125 0.96875q-0.1875 0.140625 -1.1875 0.140625zm3.09375 -9.578125q1.515625 0 1.9375 -0.265625q0.421875 -0.28125 0.578125 -0.46875q0.171875 -0.203125 0.25 -0.671875q0.09375 -0.484375 0.09375 -0.8125q0.015625 -0.34375 0.015625 -1.078125q0 -0.75 -0.015625 -1.078125q0 -0.34375 -0.09375 -0.828125q-0.078125 -0.484375 -0.25 -0.671875q-0.15625 -0.1875 -0.46875 -0.40625q-0.53125 -0.34375 -2.046875 -0.34375l-1.796875 0l0.09375 0.609375l0 5.421875l-0.09375 0.59375l1.796875 0zm9.219086 -5.84375q-0.3125 0.328125 -0.78125 0.328125q-0.453125 0 -0.78125 -0.328125q-0.3125 -0.328125 -0.3125 -0.796875q0 -0.46875 0.3125 -0.765625q0.328125 -0.296875 0.78125 -0.296875q0.46875 0 0.78125 0.3125q0.328125 0.3125 0.328125 0.765625q0 0.453125 -0.328125 0.78125zm-1.46875 14.40625l0 -11.875q1.0625 0 1.234375 0.140625q0.1875 0.125 0.1875 0.96875l0 11.875q-1.0625 0 -1.25 -0.140625q-0.171875 -0.140625 -0.171875 -0.96875zm4.4344788 4.71875l0 -16.59375q1.046875 0 1.21875 0.0625q0.1875 0.0625 0.1875 0.421875l1.90625 -0.65625q1.6875 0 2.484375 1.015625q0.640625 0.8125 0.765625 3.1875q0.046875 0.921875 0.046875 2.359375q0 1.4375 -0.046875 2.265625q-0.03125 0.828125 -0.15625 1.65625q-0.109375 0.828125 -0.328125 1.28125q-0.21875 0.4375 -0.578125 0.8125q-0.671875 0.65625 -2.28125 0.65625l-1.8125 -1.109375l0 5.734375q-1.03125 0 -1.21875 -0.140625q-0.1875 -0.140625 -0.1875 -0.953125zm3.171875 -4.8125q1.28125 0 1.640625 -1.109375q0.375 -1.125 0.375 -4.09375q0 -2.96875 -0.390625 -4.21875q-0.375 -1.25 -1.59375 -1.25l-1.875 0.59375l0.09375 0.609375l0 7.796875l-0.125 0.59375l1.875 1.078125zm11.979355 0.875q-1.84375 0.40625 -2.578125 0.40625q-0.734375 0 -1.140625 -0.046875q-0.390625 -0.03125 -0.71875 -0.1875q-0.3125 -0.15625 -0.5625 -0.265625q-0.234375 -0.109375 -0.421875 -0.421875q-0.1875 -0.328125 -0.3125 -0.53125q-0.125 -0.203125 -0.203125 -0.703125q-0.0625 -0.515625 -0.109375 -0.828125q-0.046875 -0.3125 -0.078125 -1.015625q-0.015625 -0.703125 -0.015625 -1.140625l0 -2.71875q0 -1.578125 0.0625 -2.046875q0.078125 -0.46875 0.140625 -0.984375q0.078125 -0.53125 0.203125 -0.765625q0.125 -0.234375 0.3125 -0.5625q0.1875 -0.34375 0.421875 -0.46875q0.25 -0.125 0.5625 -0.28125q0.328125 -0.15625 0.71875 -0.203125q0.40625 -0.0625 0.90625 -0.0625q0.515625 0 0.921875 0.078125q0.40625 0.078125 0.671875 0.296875q0.28125 0.203125 0.484375 0.40625q0.203125 0.1875 0.328125 0.625q0.140625 0.421875 0.203125 0.734375q0.078125 0.296875 0.109375 0.9375q0.046875 0.625 0.046875 1.015625l0 1.234375l0.09375 1.296875l-4.890625 0.125l0.09375 0.59375q0 3.078125 0.234375 3.5625q0.390625 0.78125 0.890625 0.90625q0.34375 0.09375 1.3125 0.09375q0.96875 0 2.3125 -0.3125l0 1.234375zm-4.609375 -9.265625q0 0.421875 0 1.296875l-0.09375 0.59375l3.40625 0l-0.125 -0.625q0 -1.921875 -0.265625 -2.734375q-0.25 -0.8125 -1.1875 -0.8125q-0.921875 0 -1.3125 0.5q-0.375 0.484375 -0.421875 1.78125zm7.3000946 8.484375l0 -16.546875q1.046875 0 1.21875 0.140625q0.1875 0.140625 0.1875 0.953125l0 16.5625q-1.046875 0 -1.234375 -0.140625q-0.171875 -0.140625 -0.171875 -0.96875zm5.95224 -14.40625q-0.3125 0.328125 -0.78125 0.328125q-0.453125 0 -0.78125 -0.328125q-0.3125 -0.328125 -0.3125 -0.796875q0 -0.46875 0.3125 -0.765625q0.328125 -0.296875 0.78125 -0.296875q0.46875 0 0.78125 0.3125q0.328125 0.3125 0.328125 0.765625q0 0.453125 -0.328125 0.78125zm-1.46875 14.40625l0 -11.875q1.0625 0 1.234375 0.140625q0.1875 0.125 0.1875 0.96875l0 11.875q-1.0625 0 -1.25 -0.140625q-0.171875 -0.140625 -0.171875 -0.96875zm9.746979 -0.09375l0 -5.296875q0 -3.671875 -0.21875 -4.515625q-0.21875 -0.859375 -1.296875 -0.859375l-2.34375 0.84375l0.09375 0.59375l0 10.34375q-1.0625 0 -1.25 -0.140625q-0.171875 -0.140625 -0.171875 -0.96875l0 -11.78125q1.0625 0 1.234375 0.09375q0.1875 0.078125 0.1875 0.625l2.15625 -0.890625q2.15625 0 2.59375 1.109375q0.4375 1.109375 0.4375 5.5625l0 6.390625q-1.0625 0 -1.25 -0.140625q-0.171875 -0.140625 -0.171875 -0.96875zm10.07872 0.875q-1.84375 0.40625 -2.578125 0.40625q-0.734375 0 -1.140625 -0.046875q-0.390625 -0.03125 -0.71875 -0.1875q-0.3125 -0.15625 -0.5625 -0.265625q-0.234375 -0.109375 -0.421875 -0.421875q-0.1875 -0.328125 -0.3125 -0.53125q-0.125 -0.203125 -0.203125 -0.703125q-0.0625 -0.515625 -0.109375 -0.828125q-0.046875 -0.3125 -0.078125 -1.015625q-0.015625 -0.703125 -0.015625 -1.140625l0 -2.71875q0 -1.578125 0.0625 -2.046875q0.078125 -0.46875 0.140625 -0.984375q0.078125 -0.53125 0.203125 -0.765625q0.125 -0.234375 0.3125 -0.5625q0.1875 -0.34375 0.421875 -0.46875q0.25 -0.125 0.5625 -0.28125q0.328125 -0.15625 0.71875 -0.203125q0.40625 -0.0625 0.90625 -0.0625q0.515625 0 0.921875 0.078125q0.40625 0.078125 0.671875 0.296875q0.28125 0.203125 0.484375 0.40625q0.203125 0.1875 0.328125 0.625q0.140625 0.421875 0.203125 0.734375q0.078125 0.296875 0.109375 0.9375q0.046875 0.625 0.046875 1.015625l0 1.234375l0.09375 1.296875l-4.890625 0.125l0.09375 0.59375q0 3.078125 0.234375 3.5625q0.390625 0.78125 0.890625 0.90625q0.34375 0.09375 1.3125 0.09375q0.96875 0 2.3125 -0.3125l0 1.234375zm-4.609375 -9.265625q0 0.421875 0 1.296875l-0.09375 0.59375l3.40625 0l-0.125 -0.625q0 -1.921875 -0.265625 -2.734375q-0.25 -0.8125 -1.1875 -0.8125q-0.921875 0 -1.3125 0.5q-0.375 0.484375 -0.421875 1.78125zm14.90947 9.5l-0.09375 0q-1.03125 0 -1.21875 -0.140625q-0.171875 -0.140625 -0.171875 -0.96875l0 -6.953125l0.09375 -0.59375l-4.59375 0l0.09375 0.59375l0 6.953125q0 0.828125 -0.1875 0.96875q-0.171875 0.140625 -1.203125 0.140625l-0.09375 0l0 -17.28125l0.09375 0q1.03125 0 1.203125 0.15625q0.1875 0.140625 0.1875 0.953125l0 5.546875l-0.09375 0.59375l4.59375 0l-0.09375 -0.59375l0 -6.65625l0.09375 0q1.03125 0 1.203125 0.15625q0.1875 0.140625 0.1875 0.953125l0 16.171875zm7.999222 -0.109375q-0.328125 0.109375 -0.75 0.1875q-0.40625 0.09375 -1.0 0.09375q-0.59375 0 -1.0625 -0.078125q-0.46875 -0.0625 -0.8125 -0.296875q-0.34375 -0.25 -0.578125 -0.453125q-0.21875 -0.203125 -0.375 -0.734375q-0.15625 -0.53125 -0.25 -0.890625q-0.078125 -0.359375 -0.125 -1.1875q-0.03125 -0.828125 -0.046875 -1.359375q0 -0.53125 0 -1.671875q0 -1.15625 0 -1.671875q0.015625 -0.515625 0.046875 -1.34375q0.046875 -0.828125 0.125 -1.171875q0.09375 -0.359375 0.25 -0.875q0.15625 -0.515625 0.375 -0.703125q0.234375 -0.1875 0.59375 -0.40625q0.546875 -0.390625 1.5 -0.390625q0.953125 0 1.359375 0.09375q0.421875 0.078125 0.75 0.171875q0.34375 0.09375 0.578125 0.40625q0.25 0.296875 0.421875 0.5q0.171875 0.203125 0.265625 0.71875q0.09375 0.515625 0.15625 0.84375q0.0625 0.3125 0.09375 1.09375q0.03125 0.765625 0.03125 1.25l0 1.484375q0 0 0 0.09375q0 0 0 1.46875q0 1.625 -0.09375 2.140625q-0.09375 0.515625 -0.1875 1.046875q-0.09375 0.53125 -0.265625 0.734375q-0.171875 0.203125 -0.421875 0.5q-0.234375 0.296875 -0.578125 0.40625zm0.140625 -5.84375l0 -0.8125q0 -3.140625 -0.265625 -3.96875q-0.390625 -1.03125 -1.59375 -1.046875q-0.984375 0 -1.3125 0.5q-0.203125 0.34375 -0.328125 0.625q-0.109375 0.28125 -0.15625 1.015625q-0.078125 1.046875 -0.078125 2.03125q0 0.984375 0 1.984375q0 1.0 0.015625 1.71875q0.03125 0.71875 0.21875 1.53125q0.1875 0.796875 0.5625 1.03125q0.390625 0.234375 0.953125 0.234375q0.578125 0 0.890625 -0.09375q0.3125 -0.109375 0.515625 -0.40625q0.203125 -0.3125 0.3125 -0.609375q0.109375 -0.296875 0.15625 -0.953125q0.109375 -0.9375 0.109375 -2.78125zm8.647842 5.328125q-0.28125 0.359375 -0.765625 0.546875q-0.46875 0.171875 -1.171875 0.171875q-0.6875 0 -2.859375 -0.359375l0 -1.265625q0.09375 0 1.203125 0.125q1.125 0.109375 1.6875 0.109375q1.34375 0 1.34375 -2.5q0 -0.15625 0 -0.328125q-0.03125 -0.765625 -1.5 -1.875q-1.453125 -1.125 -2.15625 -1.96875q-0.6875 -0.84375 -0.6875 -1.703125q0 -0.859375 0.015625 -1.1875q0.03125 -0.34375 0.171875 -0.84375q0.140625 -0.515625 0.4375 -0.734375q0.734375 -0.59375 2.25 -0.59375l2.28125 0.328125q0 1.0625 -0.859375 1.0625q-0.171875 0 -0.34375 -0.015625l-0.984375 -0.15625q-1.171875 0 -1.4375 0.53125q-0.21875 0.453125 -0.21875 1.328125q0 0.875 1.875 2.375q0.859375 0.640625 1.296875 1.03125q0.453125 0.375 0.875 1.0q0.421875 0.625 0.421875 1.21875q0 0.578125 -0.03125 1.0q-0.015625 0.421875 -0.109375 1.0q-0.078125 0.578125 -0.265625 0.96875q-0.171875 0.375 -0.46875 0.734375zm3.375351 -4.84375l0 -5.515625l0.09375 -0.609375l-1.03125 0l0 -1.296875l1.03125 0l-0.09375 -0.84375l0 -1.046875q1.046875 0 1.21875 0.140625q0.1875 0.140625 0.1875 0.953125l-0.09375 0.796875l2.203125 0q0 0.890625 -0.15625 1.09375q-0.15625 0.203125 -0.984375 0.203125l-1.0625 0l0.09375 0.609375l0 5.515625q0 2.734375 0.140625 3.546875q0.15625 0.8125 0.828125 0.8125l1.625 0l0 1.109375l-1.65625 0.125q-1.65625 0 -2.0 -1.015625q-0.34375 -1.03125 -0.34375 -4.578125z" fill-rule="nonzero"/><path fill="#000000" d="m100.18897 208.19522q-0.859375 0 -1.515625 -0.125q-0.640625 -0.109375 -1.140625 -0.515625q-0.484375 -0.390625 -0.8125 -0.734375q-0.328125 -0.328125 -0.546875 -1.171875q-0.203125 -0.84375 -0.328125 -1.40625q-0.125 -0.5625 -0.171875 -1.859375q-0.0625 -1.9375 -0.0625 -4.4375q0 -2.5 0.015625 -3.5625q0.03125 -1.0625 0.15625 -2.578125q0.140625 -1.53125 0.40625 -2.171875q0.28125 -0.65625 0.78125 -1.390625q0.5 -0.734375 1.296875 -0.96875q0.796875 -0.25 1.921875 -0.25q0 0.84375 -0.15625 0.984375q-0.15625 0.140625 -1.046875 0.140625q-1.265625 0 -1.578125 1.984375q-0.296875 1.984375 -0.296875 7.140625q0 0.234375 0 0.671875q0 5.3125 0.28125 7.21875q0.296875 1.90625 1.59375 1.90625q0.890625 0 1.046875 0.140625q0.15625 0.140625 0.15625 0.984375zm10.155106 -2.640625q-1.234375 0 -1.515625 -0.140625q-0.28125 -0.140625 -0.640625 -0.96875l-3.25 -7.09375l-1.265625 0l0.09375 0.59375l0 6.5l0.03125 0q0 0.828125 -0.1875 0.96875q-0.1875 0.140625 -1.21875 0.140625l-0.140625 0l0 -17.328125l2.734375 -0.234375q2.5 0 3.21875 0.953125q0.296875 0.390625 0.4375 0.6875q0.140625 0.28125 0.21875 0.875q0.09375 0.796875 0.09375 1.9375q0 1.140625 -0.046875 1.734375q-0.03125 0.578125 -0.171875 1.21875q-0.140625 0.625 -0.40625 0.984375q-0.609375 0.84375 -1.875 0.9375l3.984375 8.234375l-0.09375 0zm-5.359375 -9.578125q1.234375 0 1.90625 -0.453125q0.40625 -0.3125 0.46875 -1.578125q0.03125 -0.390625 0.03125 -1.28125q0 -0.890625 -0.03125 -1.265625q-0.015625 -0.390625 -0.125 -0.890625q-0.109375 -0.5 -0.34375 -0.703125q-0.671875 -0.453125 -1.90625 -0.453125l-1.21875 0l0 6.03125l-0.09375 0.59375l1.3125 0zm13.6844635 9.34375q-1.84375 0.40625 -2.578125 0.40625q-0.734375 0 -1.140625 -0.046875q-0.390625 -0.03125 -0.71875 -0.1875q-0.3125 -0.15625 -0.5625 -0.265625q-0.234375 -0.109375 -0.421875 -0.421875q-0.1875 -0.328125 -0.3125 -0.53125q-0.125 -0.203125 -0.203125 -0.703125q-0.0625 -0.515625 -0.109375 -0.828125q-0.046875 -0.3125 -0.078125 -1.015625q-0.015625 -0.703125 -0.015625 -1.140625l0 -2.71875q0 -1.578125 0.0625 -2.046875q0.078125 -0.46875 0.140625 -0.984375q0.078125 -0.53125 0.203125 -0.765625q0.125 -0.234375 0.3125 -0.5625q0.1875 -0.34375 0.421875 -0.46875q0.25 -0.125 0.5625 -0.28125q0.328125 -0.15625 0.71875 -0.203125q0.40625 -0.0625 0.90625 -0.0625q0.515625 0 0.921875 0.078125q0.40625 0.078125 0.671875 0.296875q0.28125 0.203125 0.484375 0.40625q0.203125 0.1875 0.328125 0.625q0.140625 0.421875 0.203125 0.734375q0.078125 0.296875 0.109375 0.9375q0.046875 0.625 0.046875 1.015625l0 1.234375l0.09375 1.296875l-4.890625 0.125l0.09375 0.59375q0 3.078125 0.234375 3.5625q0.390625 0.78125 0.890625 0.90625q0.34375 0.09375 1.3125 0.09375q0.96875 0 2.3125 -0.3125l0 1.234375zm-4.609375 -9.265625q0 0.421875 0 1.296875l-0.09375 0.59375l3.40625 0l-0.125 -0.625q0 -1.921875 -0.265625 -2.734375q-0.25 -0.8125 -1.1875 -0.8125q-0.921875 0 -1.3125 0.5q-0.375 0.484375 -0.421875 1.78125zm12.362595 8.390625l0 -5.296875q0 -3.671875 -0.21875 -4.515625q-0.21875 -0.859375 -1.296875 -0.859375l-2.34375 0.84375l0.09375 0.59375l0 10.34375q-1.0625 0 -1.25 -0.140625q-0.171875 -0.140625 -0.171875 -0.96875l0 -11.78125q1.0625 0 1.234375 0.09375q0.1875 0.078125 0.1875 0.625l2.15625 -0.890625q2.15625 0 2.59375 1.109375q0.4375 1.109375 0.4375 5.5625l0 6.390625q-1.0625 0 -1.25 -0.140625q-0.171875 -0.140625 -0.171875 -0.96875zm3.9537125 -2.734375q-0.015625 -0.78125 -0.015625 -2.15625q0 -1.375 0 -1.890625q0.015625 -0.53125 0.03125 -1.265625q0.03125 -0.734375 0.09375 -1.09375q0.0625 -0.375 0.171875 -0.859375q0.109375 -0.5 0.265625 -0.734375q0.171875 -0.25 0.40625 -0.53125q0.25 -0.296875 0.5625 -0.390625q0.84375 -0.296875 1.734375 -0.296875l1.765625 0.671875l0 -5.171875q1.0625 0 1.21875 0.140625q0.171875 0.140625 0.171875 0.953125l0 16.46875q-1.046875 0 -1.21875 -0.15625q-0.171875 -0.15625 -0.171875 -1.109375l-1.890625 1.4375q-1.609375 0 -2.46875 -0.890625q-0.578125 -0.59375 -0.65625 -3.125zm1.484375 -5.75q-0.0625 0.859375 -0.078125 1.375q-0.015625 0.515625 -0.015625 2.8125q0 2.28125 0.21875 3.125q0.515625 1.109375 1.546875 1.171875l1.96875 -1.078125l-0.109375 -0.59375l0 -7.78125l0.109375 -0.59375l-1.96875 -0.625q-0.890625 0 -1.234375 0.59375q-0.375 0.71875 -0.4375 1.59375zm13.712601 9.359375q-1.84375 0.40625 -2.578125 0.40625q-0.734375 0 -1.140625 -0.046875q-0.390625 -0.03125 -0.71875 -0.1875q-0.3125 -0.15625 -0.5625 -0.265625q-0.234375 -0.109375 -0.421875 -0.421875q-0.1875 -0.328125 -0.3125 -0.53125q-0.125 -0.203125 -0.203125 -0.703125q-0.0625 -0.515625 -0.109375 -0.828125q-0.046875 -0.3125 -0.078125 -1.015625q-0.015625 -0.703125 -0.015625 -1.140625l0 -2.71875q0 -1.578125 0.0625 -2.046875q0.078125 -0.46875 0.140625 -0.984375q0.078125 -0.53125 0.203125 -0.765625q0.125 -0.234375 0.3125 -0.5625q0.1875 -0.34375 0.421875 -0.46875q0.25 -0.125 0.5625 -0.28125q0.328125 -0.15625 0.71875 -0.203125q0.40625 -0.0625 0.90625 -0.0625q0.515625 0 0.921875 0.078125q0.40625 0.078125 0.671875 0.296875q0.28125 0.203125 0.484375 0.40625q0.203125 0.1875 0.328125 0.625q0.140625 0.421875 0.203125 0.734375q0.078125 0.296875 0.109375 0.9375q0.046875 0.625 0.046875 1.015625l0 1.234375l0.09375 1.296875l-4.890625 0.125l0.09375 0.59375q0 3.078125 0.234375 3.5625q0.390625 0.78125 0.890625 0.90625q0.34375 0.09375 1.3125 0.09375q0.96875 0 2.3125 -0.3125l0 1.234375zm-4.609375 -9.265625q0 0.421875 0 1.296875l-0.09375 0.59375l3.40625 0l-0.125 -0.625q0 -1.921875 -0.265625 -2.734375q-0.25 -0.8125 -1.1875 -0.8125q-0.921875 0 -1.3125 0.5q-0.375 0.484375 -0.421875 1.78125zm7.1750946 8.390625l0 -11.78125q1.0625 0 1.234375 0.09375q0.1875 0.078125 0.1875 0.625l0 0.265625l1.921875 -1.15625q0.40625 0 1.1875 0.171875q0 0.84375 -0.15625 0.984375q-0.15625 0.125 -1.03125 0.125l-2.046875 1.125l0.125 0.59375l0 10.0625q-1.0625 0 -1.25 -0.140625q-0.171875 -0.140625 -0.171875 -0.96875zm12.362228 0.875q-1.84375 0.40625 -2.578125 0.40625q-0.734375 0 -1.140625 -0.046875q-0.390625 -0.03125 -0.71875 -0.1875q-0.3125 -0.15625 -0.5625 -0.265625q-0.234375 -0.109375 -0.421875 -0.421875q-0.1875 -0.328125 -0.3125 -0.53125q-0.125 -0.203125 -0.203125 -0.703125q-0.0625 -0.515625 -0.109375 -0.828125q-0.046875 -0.3125 -0.078125 -1.015625q-0.015625 -0.703125 -0.015625 -1.140625l0 -2.71875q0 -1.578125 0.0625 -2.046875q0.078125 -0.46875 0.140625 -0.984375q0.078125 -0.53125 0.203125 -0.765625q0.125 -0.234375 0.3125 -0.5625q0.1875 -0.34375 0.421875 -0.46875q0.25 -0.125 0.5625 -0.28125q0.328125 -0.15625 0.71875 -0.203125q0.40625 -0.0625 0.90625 -0.0625q0.515625 0 0.921875 0.078125q0.40625 0.078125 0.671875 0.296875q0.28125 0.203125 0.484375 0.40625q0.203125 0.1875 0.328125 0.625q0.140625 0.421875 0.203125 0.734375q0.078125 0.296875 0.109375 0.9375q0.046875 0.625 0.046875 1.015625l0 1.234375l0.09375 1.296875l-4.890625 0.125l0.09375 0.59375q0 3.078125 0.234375 3.5625q0.390625 0.78125 0.890625 0.90625q0.34375 0.09375 1.3125 0.09375q0.96875 0 2.3125 -0.3125l0 1.234375zm-4.609375 -9.265625q0 0.421875 0 1.296875l-0.09375 0.59375l3.40625 0l-0.125 -0.625q0 -1.921875 -0.265625 -2.734375q-0.25 -0.8125 -1.1875 -0.8125q-0.921875 0 -1.3125 0.5q-0.375 0.484375 -0.421875 1.78125zm7.1750946 8.390625l0 -11.78125q1.0625 0 1.234375 0.09375q0.1875 0.078125 0.1875 0.625l0 0.265625l1.921875 -1.15625q0.40625 0 1.1875 0.171875q0 0.84375 -0.15625 0.984375q-0.15625 0.125 -1.03125 0.125l-2.046875 1.125l0.125 0.59375l0 10.0625q-1.0625 0 -1.25 -0.140625q-0.171875 -0.140625 -0.171875 -0.96875zm11.500336 1.109375l-0.125 0l0 -17.328125l3.21875 -0.234375q2.8125 0 3.625 0.953125q0.3125 0.390625 0.46875 0.6875q0.15625 0.28125 0.25 0.875q0.09375 0.765625 0.09375 2.0q0 1.234375 -0.03125 1.765625q-0.03125 0.53125 -0.265625 1.234375q-0.234375 0.703125 -0.6875 1.015625q-1.125 0.828125 -3.453125 0.828125l-1.796875 0l0.09375 0.59375l0 6.5q0 0.828125 -0.203125 0.96875q-0.1875 0.140625 -1.1875 0.140625zm3.09375 -9.578125q1.515625 0 1.9375 -0.265625q0.421875 -0.28125 0.578125 -0.46875q0.171875 -0.203125 0.25 -0.671875q0.09375 -0.484375 0.09375 -0.8125q0.015625 -0.34375 0.015625 -1.078125q0 -0.75 -0.015625 -1.078125q0 -0.34375 -0.09375 -0.828125q-0.078125 -0.484375 -0.25 -0.671875q-0.15625 -0.1875 -0.46875 -0.40625q-0.53125 -0.34375 -2.046875 -0.34375l-1.796875 0l0.09375 0.609375l0 5.421875l-0.09375 0.59375l1.796875 0zm7.4378357 8.46875l0 -11.78125q1.0625 0 1.234375 0.09375q0.1875 0.078125 0.1875 0.625l0 0.265625l1.921875 -1.15625q0.40625 0 1.1875 0.171875q0 0.84375 -0.15625 0.984375q-0.15625 0.125 -1.03125 0.125l-2.046875 1.125l0.125 0.59375l0 10.0625q-1.0625 0 -1.25 -0.140625q-0.171875 -0.140625 -0.171875 -0.96875zm11.221603 1.0q-0.328125 0.109375 -0.75 0.1875q-0.40625 0.09375 -1.0 0.09375q-0.59375 0 -1.0625 -0.078125q-0.46875 -0.0625 -0.8125 -0.296875q-0.34375 -0.25 -0.578125 -0.453125q-0.21875 -0.203125 -0.375 -0.734375q-0.15625 -0.53125 -0.25 -0.890625q-0.078125 -0.359375 -0.125 -1.1875q-0.03125 -0.828125 -0.046875 -1.359375q0 -0.53125 0 -1.671875q0 -1.15625 0 -1.671875q0.015625 -0.515625 0.046875 -1.34375q0.046875 -0.828125 0.125 -1.171875q0.09375 -0.359375 0.25 -0.875q0.15625 -0.515625 0.375 -0.703125q0.234375 -0.1875 0.59375 -0.40625q0.546875 -0.390625 1.5 -0.390625q0.953125 0 1.359375 0.09375q0.421875 0.078125 0.75 0.171875q0.34375 0.09375 0.578125 0.40625q0.25 0.296875 0.421875 0.5q0.171875 0.203125 0.265625 0.71875q0.09375 0.515625 0.15625 0.84375q0.0625 0.3125 0.09375 1.09375q0.03125 0.765625 0.03125 1.25l0 1.484375q0 0 0 0.09375q0 0 0 1.46875q0 1.625 -0.09375 2.140625q-0.09375 0.515625 -0.1875 1.046875q-0.09375 0.53125 -0.265625 0.734375q-0.171875 0.203125 -0.421875 0.5q-0.234375 0.296875 -0.578125 0.40625zm0.140625 -5.84375l0 -0.8125q0 -3.140625 -0.265625 -3.96875q-0.390625 -1.03125 -1.59375 -1.046875q-0.984375 0 -1.3125 0.5q-0.203125 0.34375 -0.328125 0.625q-0.109375 0.28125 -0.15625 1.015625q-0.078125 1.046875 -0.078125 2.03125q0 0.984375 0 1.984375q0 1.0 0.015625 1.71875q0.03125 0.71875 0.21875 1.53125q0.1875 0.796875 0.5625 1.03125q0.390625 0.234375 0.953125 0.234375q0.578125 0 0.890625 -0.09375q0.3125 -0.109375 0.515625 -0.40625q0.203125 -0.3125 0.3125 -0.609375q0.109375 -0.296875 0.15625 -0.953125q0.109375 -0.9375 0.109375 -2.78125zm3.8353424 -0.484375l0 -1.53125q0 -1.75 0.078125 -2.203125q0.09375 -0.453125 0.1875 -0.984375q0.109375 -0.53125 0.265625 -0.734375q0.15625 -0.203125 0.390625 -0.484375q0.234375 -0.296875 0.5625 -0.390625q0.8125 -0.296875 1.65625 -0.296875l2.0 0.3125q0 1.0625 -0.875 1.0625q-0.171875 0 -0.328125 -0.03125l-0.796875 -0.0625q-1.21875 0 -1.484375 1.015625q-0.265625 1.015625 -0.265625 3.515625q0 2.5 0.015625 3.25q0.03125 0.734375 0.1875 1.5625q0.171875 0.828125 0.53125 1.078125q0.375 0.25 1.015625 0.25l2.09375 -0.234375l0 1.109375l-2.09375 0.40625q-1.296875 0 -1.734375 -0.3125q-0.421875 -0.3125 -0.640625 -0.515625q-0.21875 -0.203125 -0.375 -0.734375q-0.15625 -0.53125 -0.234375 -0.890625q-0.0625 -0.359375 -0.109375 -1.171875q-0.046875 -1.390625 -0.046875 -2.984375zm13.652603 6.203125q-1.84375 0.40625 -2.578125 0.40625q-0.734375 0 -1.140625 -0.046875q-0.390625 -0.03125 -0.71875 -0.1875q-0.3125 -0.15625 -0.5625 -0.265625q-0.234375 -0.109375 -0.421875 -0.421875q-0.1875 -0.328125 -0.3125 -0.53125q-0.125 -0.203125 -0.203125 -0.703125q-0.0625 -0.515625 -0.109375 -0.828125q-0.046875 -0.3125 -0.078125 -1.015625q-0.015625 -0.703125 -0.015625 -1.140625l0 -2.71875q0 -1.578125 0.0625 -2.046875q0.078125 -0.46875 0.140625 -0.984375q0.078125 -0.53125 0.203125 -0.765625q0.125 -0.234375 0.3125 -0.5625q0.1875 -0.34375 0.421875 -0.46875q0.25 -0.125 0.5625 -0.28125q0.328125 -0.15625 0.71875 -0.203125q0.40625 -0.0625 0.90625 -0.0625q0.515625 0 0.921875 0.078125q0.40625 0.078125 0.671875 0.296875q0.28125 0.203125 0.484375 0.40625q0.203125 0.1875 0.328125 0.625q0.140625 0.421875 0.203125 0.734375q0.078125 0.296875 0.109375 0.9375q0.046875 0.625 0.046875 1.015625l0 1.234375l0.09375 1.296875l-4.890625 0.125l0.09375 0.59375q0 3.078125 0.234375 3.5625q0.390625 0.78125 0.890625 0.90625q0.34375 0.09375 1.3125 0.09375q0.96875 0 2.3125 -0.3125l0 1.234375zm-4.609375 -9.265625q0 0.421875 0 1.296875l-0.09375 0.59375l3.40625 0l-0.125 -0.625q0 -1.921875 -0.265625 -2.734375q-0.25 -0.8125 -1.1875 -0.8125q-0.921875 0 -1.3125 0.5q-0.375 0.484375 -0.421875 1.78125zm11.75322 8.875q-0.28125 0.359375 -0.765625 0.546875q-0.46875 0.171875 -1.171875 0.171875q-0.6875 0 -2.859375 -0.359375l0 -1.265625q0.09375 0 1.203125 0.125q1.125 0.109375 1.6875 0.109375q1.34375 0 1.34375 -2.5q0 -0.15625 0 -0.328125q-0.03125 -0.765625 -1.5 -1.875q-1.453125 -1.125 -2.15625 -1.96875q-0.6875 -0.84375 -0.6875 -1.703125q0 -0.859375 0.015625 -1.1875q0.03125 -0.34375 0.171875 -0.84375q0.140625 -0.515625 0.4375 -0.734375q0.734375 -0.59375 2.25 -0.59375l2.28125 0.328125q0 1.0625 -0.859375 1.0625q-0.171875 0 -0.34375 -0.015625l-0.984375 -0.15625q-1.171875 0 -1.4375 0.53125q-0.21875 0.453125 -0.21875 1.328125q0 0.875 1.875 2.375q0.859375 0.640625 1.296875 1.03125q0.453125 0.375 0.875 1.0q0.421875 0.625 0.421875 1.21875q0 0.578125 -0.03125 1.0q-0.015625 0.421875 -0.109375 1.0q-0.078125 0.578125 -0.265625 0.96875q-0.171875 0.375 -0.46875 0.734375zm8.015976 0q-0.28125 0.359375 -0.765625 0.546875q-0.46875 0.171875 -1.171875 0.171875q-0.6875 0 -2.859375 -0.359375l0 -1.265625q0.09375 0 1.203125 0.125q1.125 0.109375 1.6875 0.109375q1.34375 0 1.34375 -2.5q0 -0.15625 0 -0.328125q-0.03125 -0.765625 -1.5 -1.875q-1.453125 -1.125 -2.15625 -1.96875q-0.6875 -0.84375 -0.6875 -1.703125q0 -0.859375 0.015625 -1.1875q0.03125 -0.34375 0.171875 -0.84375q0.140625 -0.515625 0.4375 -0.734375q0.734375 -0.59375 2.25 -0.59375l2.28125 0.328125q0 1.0625 -0.859375 1.0625q-0.171875 0 -0.34375 -0.015625l-0.984375 -0.15625q-1.171875 0 -1.4375 0.53125q-0.21875 0.453125 -0.21875 1.328125q0 0.875 1.875 2.375q0.859375 0.640625 1.296875 1.03125q0.453125 0.375 0.875 1.0q0.421875 0.625 0.421875 1.21875q0 0.578125 -0.03125 1.0q-0.015625 0.421875 -0.109375 1.0q-0.078125 0.578125 -0.265625 0.96875q-0.171875 0.375 -0.46875 0.734375zm2.265976 3.265625q0 -0.84375 0.15625 -0.984375q0.15625 -0.140625 1.046875 -0.140625q1.265625 0 1.5625 -1.875q0.3125 -1.890625 0.3125 -7.46875q0 -5.59375 -0.25 -7.140625q-0.453125 -2.328125 -1.625 -2.4375q-0.890625 0 -1.046875 -0.140625q-0.15625 -0.140625 -0.15625 -0.984375q1.125 0 1.90625 0.25q0.796875 0.234375 1.296875 0.96875q0.515625 0.734375 0.78125 1.390625q0.28125 0.640625 0.40625 2.140625q0.1875 2.09375 0.1875 4.90625q0 2.796875 -0.015625 3.609375q0 0.796875 -0.046875 2.09375q-0.046875 1.296875 -0.171875 1.859375q-0.125 0.5625 -0.34375 1.40625q-0.203125 0.84375 -0.53125 1.171875q-0.328125 0.34375 -0.828125 0.734375q-0.484375 0.40625 -1.140625 0.515625q-0.640625 0.125 -1.5 0.125z" fill-rule="nonzero"/><path fill="#e6b8af" d="m287.0315 252.56693l378.86615 0l0 -13.165344l26.330688 26.330688l-26.330688 26.330719l0 -13.165344l-378.86615 0z" fill-rule="evenodd"/><path stroke="#595959" stroke-width="1.0" stroke-linejoin="round" stroke-linecap="butt" d="m287.0315 252.56693l378.86615 0l0 -13.165344l26.330688 26.330688l-26.330688 26.330719l0 -13.165344l-378.86615 0z" fill-rule="evenodd"/><path fill="#000000" d="m296.87524 268.3554l1.65625 -0.140625q0.125 1.0 0.546875 1.640625q0.4375 0.640625 1.34375 1.046875q0.921875 0.390625 2.0625 0.390625q1.0 0 1.78125 -0.296875q0.78125 -0.296875 1.15625 -0.8125q0.375 -0.53125 0.375 -1.15625q0 -0.625 -0.375 -1.09375q-0.359375 -0.46875 -1.1875 -0.796875q-0.546875 -0.203125 -2.390625 -0.640625q-1.828125 -0.453125 -2.5625 -0.84375q-0.96875 -0.5 -1.4375 -1.234375q-0.46875 -0.75 -0.46875 -1.671875q0 -1.0 0.578125 -1.875q0.578125 -0.890625 1.671875 -1.34375q1.109375 -0.453125 2.453125 -0.453125q1.484375 0 2.609375 0.484375q1.140625 0.46875 1.75 1.40625q0.609375 0.921875 0.65625 2.09375l-1.6875 0.125q-0.140625 -1.265625 -0.9375 -1.90625q-0.78125 -0.65625 -2.3125 -0.65625q-1.609375 0 -2.34375 0.59375q-0.734375 0.59375 -0.734375 1.421875q0 0.71875 0.53125 1.171875q0.5 0.46875 2.65625 0.96875q2.15625 0.484375 2.953125 0.84375q1.171875 0.53125 1.71875 1.359375q0.5625 0.828125 0.5625 1.90625q0 1.0625 -0.609375 2.015625q-0.609375 0.9375 -1.75 1.46875q-1.140625 0.515625 -2.578125 0.515625q-1.8125 0 -3.046875 -0.53125q-1.21875 -0.53125 -1.921875 -1.59375q-0.6875 -1.0625 -0.71875 -2.40625zm19.459198 1.1875l1.6875 0.203125q-0.40625 1.484375 -1.484375 2.3125q-1.078125 0.8125 -2.765625 0.8125q-2.125 0 -3.375 -1.296875q-1.234375 -1.3125 -1.234375 -3.671875q0 -2.453125 1.25 -3.796875q1.265625 -1.34375 3.265625 -1.34375q1.9375 0 3.15625 1.328125q1.234375 1.3125 1.234375 3.703125q0 0.15625 0 0.4375l-7.21875 0q0.09375 1.59375 0.90625 2.453125q0.8125 0.84375 2.015625 0.84375q0.90625 0 1.546875 -0.46875q0.640625 -0.484375 1.015625 -1.515625zm-5.390625 -2.65625l5.40625 0q-0.109375 -1.21875 -0.625 -1.828125q-0.78125 -0.953125 -2.03125 -0.953125q-1.125 0 -1.90625 0.765625q-0.765625 0.75 -0.84375 2.015625zm15.766357 2.65625l1.6875 0.203125q-0.40625 1.484375 -1.484375 2.3125q-1.078125 0.8125 -2.765625 0.8125q-2.125 0 -3.375 -1.296875q-1.234375 -1.3125 -1.234375 -3.671875q0 -2.453125 1.25 -3.796875q1.265625 -1.34375 3.265625 -1.34375q1.9375 0 3.15625 1.328125q1.234375 1.3125 1.234375 3.703125q0 0.15625 0 0.4375l-7.21875 0q0.09375 1.59375 0.90625 2.453125q0.8125 0.84375 2.015625 0.84375q0.90625 0 1.546875 -0.46875q0.640625 -0.484375 1.015625 -1.515625zm-5.390625 -2.65625l5.40625 0q-0.109375 -1.21875 -0.625 -1.828125q-0.78125 -0.953125 -2.03125 -0.953125q-1.125 0 -1.90625 0.765625q-0.765625 0.75 -0.84375 2.015625zm9.141327 5.765625l0 -13.359375l1.640625 0l0 7.625l3.890625 -3.9375l2.109375 0l-3.6875 3.59375l4.0625 6.078125l-2.015625 0l-3.203125 -4.953125l-1.15625 1.125l0 3.828125l-1.640625 0z" fill-rule="nonzero"/><path fill="#000000" fill-opacity="0.0" d="m287.03018 173.17323l378.86612 0l0 -13.1653595l26.33075 26.330704l-26.33075 26.330719l0 -13.1653595l-378.86612 0z" fill-rule="evenodd"/><path stroke="#595959" stroke-width="1.0" stroke-linejoin="round" stroke-linecap="butt" d="m287.03018 173.17323l378.86612 0l0 -13.1653595l26.33075 26.330704l-26.33075 26.330719l0 -13.1653595l-378.86612 0z" fill-rule="evenodd"/><path fill="#000000" d="m299.7958 191.25858l-3.53125 -13.359375l1.8125 0l2.03125 8.765625q0.328125 1.375 0.5625 2.71875q0.5 -2.140625 0.59375 -2.46875l2.546875 -9.015625l2.125 0l1.921875 6.765625q0.71875 2.515625 1.03125 4.71875q0.265625 -1.265625 0.671875 -2.890625l2.09375 -8.59375l1.78125 0l-3.671875 13.359375l-1.703125 0l-2.8125 -10.171875q-0.359375 -1.28125 -0.421875 -1.5625q-0.203125 0.90625 -0.390625 1.5625l-2.828125 10.171875l-1.8125 0zm15.077423 -11.46875l0 -1.890625l1.640625 0l0 1.890625l-1.640625 0zm0 11.46875l0 -9.671875l1.640625 0l0 9.671875l-1.640625 0zm4.097931 0l0 -13.359375l1.640625 0l0 13.359375l-1.640625 0zm4.1448364 0l0 -13.359375l1.640625 0l0 13.359375l-1.640625 0zm3.801056 -4.296875l1.65625 -0.140625q0.125 1.0 0.546875 1.640625q0.4375 0.640625 1.34375 1.046875q0.921875 0.390625 2.0625 0.390625q1.0 0 1.78125 -0.296875q0.78125 -0.296875 1.15625 -0.8125q0.375 -0.53125 0.375 -1.15625q0 -0.625 -0.375 -1.09375q-0.359375 -0.46875 -1.1875 -0.796875q-0.546875 -0.203125 -2.390625 -0.640625q-1.828125 -0.453125 -2.5625 -0.84375q-0.96875 -0.5 -1.4375 -1.234375q-0.46875 -0.75 -0.46875 -1.671875q0 -1.0 0.578125 -1.875q0.578125 -0.890625 1.671875 -1.34375q1.109375 -0.453125 2.453125 -0.453125q1.484375 0 2.609375 0.484375q1.140625 0.46875 1.75 1.40625q0.609375 0.921875 0.65625 2.09375l-1.6875 0.125q-0.140625 -1.265625 -0.9375 -1.90625q-0.78125 -0.65625 -2.3125 -0.65625q-1.609375 0 -2.34375 0.59375q-0.734375 0.59375 -0.734375 1.421875q0 0.71875 0.53125 1.171875q0.5 0.46875 2.65625 0.96875q2.15625 0.484375 2.953125 0.84375q1.171875 0.53125 1.71875 1.359375q0.5625 0.828125 0.5625 1.90625q0 1.0625 -0.609375 2.015625q-0.609375 0.9375 -1.75 1.46875q-1.140625 0.515625 -2.578125 0.515625q-1.8125 0 -3.046875 -0.53125q-1.21875 -0.53125 -1.921875 -1.59375q-0.6875 -1.0625 -0.71875 -2.40625zm19.459198 1.1875l1.6875 0.203125q-0.40625 1.484375 -1.484375 2.3125q-1.078125 0.8125 -2.765625 0.8125q-2.125 0 -3.375 -1.296875q-1.234375 -1.3125 -1.234375 -3.671875q0 -2.453125 1.25 -3.796875q1.265625 -1.34375 3.265625 -1.34375q1.9375 0 3.15625 1.328125q1.234375 1.3125 1.234375 3.703125q0 0.15625 0 0.4375l-7.21875 0q0.09375 1.59375 0.90625 2.453125q0.8125 0.84375 2.015625 0.84375q0.90625 0 1.546875 -0.46875q0.640625 -0.484375 1.015625 -1.515625zm-5.390625 -2.65625l5.40625 0q-0.109375 -1.21875 -0.625 -1.828125q-0.78125 -0.953125 -2.03125 -0.953125q-1.125 0 -1.90625 0.765625q-0.765625 0.75 -0.84375 2.015625zm15.766357 2.65625l1.6875 0.203125q-0.40625 1.484375 -1.484375 2.3125q-1.078125 0.8125 -2.765625 0.8125q-2.125 0 -3.375 -1.296875q-1.234375 -1.3125 -1.234375 -3.671875q0 -2.453125 1.25 -3.796875q1.265625 -1.34375 3.265625 -1.34375q1.9375 0 3.15625 1.328125q1.234375 1.3125 1.234375 3.703125q0 0.15625 0 0.4375l-7.21875 0q0.09375 1.59375 0.90625 2.453125q0.8125 0.84375 2.015625 0.84375q0.90625 0 1.546875 -0.46875q0.640625 -0.484375 1.015625 -1.515625zm-5.390625 -2.65625l5.40625 0q-0.109375 -1.21875 -0.625 -1.828125q-0.78125 -0.953125 -2.03125 -0.953125q-1.125 0 -1.90625 0.765625q-0.765625 0.75 -0.84375 2.015625zm9.141327 5.765625l0 -13.359375l1.640625 0l0 7.625l3.890625 -3.9375l2.109375 0l-3.6875 3.59375l4.0625 6.078125l-2.015625 0l-3.203125 -4.953125l-1.15625 1.125l0 3.828125l-1.640625 0z" fill-rule="nonzero"/><path fill="#e6b8af" d="m287.03018 345.12598l26.330719 -26.330688l0 13.165344l376.40942 0l0 26.330719l-376.40942 0l0 13.165344z" fill-rule="evenodd"/><path stroke="#595959" stroke-width="1.0" stroke-linejoin="round" stroke-linecap="butt" d="m287.03018 345.12598l26.330719 -26.330688l0 13.165344l376.40942 0l0 26.330719l-376.40942 0l0 13.165344z" fill-rule="evenodd"/><path fill="#000000" d="m622.4844 345.7491l1.65625 -0.140625q0.125 1.0 0.546875 1.640625q0.4375 0.640625 1.34375 1.046875q0.921875 0.390625 2.0625 0.390625q1.0 0 1.78125 -0.296875q0.78125 -0.296875 1.15625 -0.8125q0.375 -0.53125 0.375 -1.15625q0 -0.625 -0.375 -1.09375q-0.359375 -0.46875 -1.1875 -0.796875q-0.546875 -0.203125 -2.390625 -0.640625q-1.828125 -0.453125 -2.5625 -0.84375q-0.96875 -0.5 -1.4375 -1.234375q-0.46875 -0.75 -0.46875 -1.671875q0 -1.0 0.578125 -1.875q0.578125 -0.890625 1.671875 -1.34375q1.109375 -0.453125 2.453125 -0.453125q1.484375 0 2.609375 0.484375q1.140625 0.46875 1.75 1.40625q0.609375 0.921875 0.65625 2.09375l-1.6875 0.125q-0.140625 -1.265625 -0.9375 -1.90625q-0.78125 -0.65625 -2.3125 -0.65625q-1.609375 0 -2.34375 0.59375q-0.734375 0.59375 -0.734375 1.421875q0 0.71875 0.53125 1.171875q0.5 0.46875 2.65625 0.96875q2.15625 0.484375 2.953125 0.84375q1.171875 0.53125 1.71875 1.359375q0.5625 0.828125 0.5625 1.90625q0 1.0625 -0.609375 2.015625q-0.609375 0.9375 -1.75 1.46875q-1.140625 0.515625 -2.578125 0.515625q-1.8125 0 -3.046875 -0.53125q-1.21875 -0.53125 -1.921875 -1.59375q-0.6875 -1.0625 -0.71875 -2.40625zm12.2247925 -0.546875q0 -2.6875 1.484375 -3.96875q1.25 -1.078125 3.046875 -1.078125q2.0 0 3.265625 1.3125q1.265625 1.296875 1.265625 3.609375q0 1.859375 -0.5625 2.9375q-0.5625 1.0625 -1.640625 1.65625q-1.0625 0.59375 -2.328125 0.59375q-2.03125 0 -3.28125 -1.296875q-1.25 -1.3125 -1.25 -3.765625zm1.6875 0q0 1.859375 0.796875 2.796875q0.8125 0.921875 2.046875 0.921875q1.21875 0 2.03125 -0.921875q0.8125 -0.9375 0.8125 -2.84375q0 -1.796875 -0.8125 -2.71875q-0.8125 -0.921875 -2.03125 -0.921875q-1.234375 0 -2.046875 0.921875q-0.796875 0.90625 -0.796875 2.765625zm15.625732 4.84375l0 -1.421875q-1.125 1.640625 -3.0625 1.640625q-0.859375 0 -1.609375 -0.328125q-0.734375 -0.328125 -1.09375 -0.828125q-0.359375 -0.5 -0.5 -1.21875q-0.109375 -0.46875 -0.109375 -1.53125l0 -5.984375l1.640625 0l0 5.359375q0 1.28125 0.109375 1.734375q0.15625 0.640625 0.65625 1.015625q0.5 0.375 1.234375 0.375q0.734375 0 1.375 -0.375q0.65625 -0.390625 0.921875 -1.03125q0.265625 -0.65625 0.265625 -1.890625l0 -5.1875l1.640625 0l0 9.671875l-1.46875 0zm3.7351074 0.796875l1.59375 0.234375q0.109375 0.75 0.5625 1.078125q0.609375 0.453125 1.671875 0.453125q1.140625 0 1.75 -0.453125q0.625 -0.453125 0.84375 -1.265625q0.125 -0.5 0.109375 -2.109375q-1.0625 1.265625 -2.671875 1.265625q-2.0 0 -3.09375 -1.4375q-1.09375 -1.4375 -1.09375 -3.453125q0 -1.390625 0.5 -2.5625q0.515625 -1.171875 1.453125 -1.796875q0.953125 -0.640625 2.25 -0.640625q1.703125 0 2.8125 1.375l0 -1.15625l1.515625 0l0 8.359375q0 2.265625 -0.46875 3.203125q-0.453125 0.9375 -1.453125 1.484375q-0.984375 0.546875 -2.453125 0.546875q-1.71875 0 -2.796875 -0.78125q-1.0625 -0.765625 -1.03125 -2.34375zm1.359375 -5.8125q0 1.90625 0.75 2.78125q0.765625 0.875 1.90625 0.875q1.125 0 1.890625 -0.859375q0.765625 -0.875 0.765625 -2.734375q0 -1.78125 -0.796875 -2.671875q-0.78125 -0.90625 -1.890625 -0.90625q-1.09375 0 -1.859375 0.890625q-0.765625 0.875 -0.765625 2.625zm9.328857 5.015625l0 -13.359375l1.640625 0l0 4.796875q1.140625 -1.328125 2.890625 -1.328125q1.078125 0 1.859375 0.421875q0.796875 0.421875 1.140625 1.171875q0.34375 0.75 0.34375 2.171875l0 6.125l-1.640625 0l0 -6.125q0 -1.234375 -0.53125 -1.796875q-0.53125 -0.5625 -1.515625 -0.5625q-0.71875 0 -1.359375 0.390625q-0.640625 0.375 -0.921875 1.015625q-0.265625 0.640625 -0.265625 1.78125l0 5.296875l-1.640625 0zm13.953796 -1.46875l0.234375 1.453125q-0.6875 0.140625 -1.234375 0.140625q-0.890625 0 -1.390625 -0.28125q-0.484375 -0.28125 -0.6875 -0.734375q-0.203125 -0.46875 -0.203125 -1.9375l0 -5.578125l-1.203125 0l0 -1.265625l1.203125 0l0 -2.390625l1.625 -0.984375l0 3.375l1.65625 0l0 1.265625l-1.65625 0l0 5.671875q0 0.6875 0.078125 0.890625q0.09375 0.203125 0.28125 0.328125q0.203125 0.109375 0.578125 0.109375q0.265625 0 0.71875 -0.0625z" fill-rule="nonzero"/></g></svg>