<svg version="1.1" viewBox="0.0 0.0 960.0 540.0" fill="none" stroke="none" stroke-linecap="square" stroke-miterlimit="10" xmlns:xlink="http://www.w3.org/1999/xlink" xmlns="http://www.w3.org/2000/svg"><clipPath id="g3d2bfa4117_5_252.0"><path d="m0 0l960.0 0l0 540.0l-960.0 0l0 -540.0z" clip-rule="nonzero"/></clipPath><g clip-path="url(#g3d2bfa4117_5_252.0)"><path fill="#d0e0e3" d="m0 0l960.0 0l0 540.0l-960.0 0z" fill-rule="evenodd"/><path fill="#000000" fill-opacity="0.0" d="m25.874016 203.16602l0 0c0 -18.456238 14.961742 -33.417984 33.41799 -33.417984l841.416 0c8.862976 0 17.362976 3.520813 23.630066 9.787903c6.26709 6.26709 9.787903 14.76709 9.787903 23.630081l0 133.66797c0 18.456238 -14.961731 33.41797 -33.41797 33.41797l-841.416 0l0 0c-18.45625 0 -33.41799 -14.961731 -33.41799 -33.41797z" fill-rule="evenodd"/><path stroke="#595959" stroke-width="1.0" stroke-linejoin="round" stroke-linecap="butt" d="m25.874016 203.16602l0 0c0 -18.456238 14.961742 -33.417984 33.41799 -33.417984l841.416 0c8.862976 0 17.362976 3.520813 23.630066 9.787903c6.26709 6.26709 9.787903 14.76709 9.787903 23.630081l0 133.66797c0 18.456238 -14.961731 33.41797 -33.41797 33.41797l-841.416 0l0 0c-18.45625 0 -33.41799 -14.961731 -33.41799 -33.41797z" fill-rule="evenodd"/><path fill="#d9ead3" d="m696.59845 217.1344l0 0c0 -15.038101 12.190735 -27.228882 27.228882 -27.228882l133.66821 0c7.2214966 0 14.147278 2.868744 19.253723 7.9751587c5.1063843 5.1063995 7.9751587 12.032181 7.9751587 19.253723l0 108.91229c0 15.038116 -12.190796 27.228912 -27.228882 27.228912l-133.66821 0l0 0c-15.038147 0 -27.228882 -12.190796 -27.228882 -27.228912z" fill-rule="evenodd"/><path stroke="#595959" stroke-width="1.0" stroke-linejoin="round" stroke-linecap="butt" d="m696.59845 217.1344l0 0c0 -15.038101 12.190735 -27.228882 27.228882 -27.228882l133.66821 0c7.2214966 0 14.147278 2.868744 19.253723 7.9751587c5.1063843 5.1063995 7.9751587 12.032181 7.9751587 19.253723l0 108.91229c0 15.038116 -12.190796 27.228912 -27.228882 27.228912l-133.66821 0l0 0c-15.038147 0 -27.228882 -12.190796 -27.228882 -27.228912z" fill-rule="evenodd"/><path fill="#000000" d="m716.886 229.92058l-0.125 0q-1.03125 0 -1.21875 -0.140625q-0.171875 -0.140625 -0.171875 -0.96875l0 -16.171875l0.125 0q1.03125 0 1.203125 0.15625q0.1875 0.140625 0.1875 0.953125l0 16.171875zm3.7213745 0l-0.125 0l0 -17.328125l3.21875 -0.234375q2.8125 0 3.625 0.953125q0.3125 0.390625 0.46875 0.6875q0.15625 0.28125 0.25 0.875q0.09375 0.765625 0.09375 2.0q0 1.234375 -0.03125 1.765625q-0.03125 0.53125 -0.265625 1.234375q-0.234375 0.703125 -0.6875 1.015625q-1.125 0.828125 -3.453125 0.828125l-1.796875 0l0.09375 0.59375l0 6.5q0 0.828125 -0.203125 0.96875q-0.1875 0.140625 -1.1875 0.140625zm3.09375 -9.578125q1.515625 0 1.9375 -0.265625q0.421875 -0.28125 0.578125 -0.46875q0.171875 -0.203125 0.25 -0.671875q0.09375 -0.484375 0.09375 -0.8125q0.015625 -0.34375 0.015625 -1.078125q0 -0.75 -0.015625 -1.078125q0 -0.34375 -0.09375 -0.828125q-0.078125 -0.484375 -0.25 -0.671875q-0.15625 -0.1875 -0.46875 -0.40625q-0.53125 -0.34375 -2.046875 -0.34375l-1.796875 0l0.09375 0.609375l0 5.421875l-0.09375 0.59375l1.796875 0zm14.094055 9.34375q-0.265625 0.046875 -1.078125 0.234375q-0.796875 0.171875 -1.421875 0.171875q-0.609375 0 -1.15625 -0.15625q-0.546875 -0.15625 -0.953125 -0.375q-0.390625 -0.234375 -0.703125 -0.703125q-0.3125 -0.46875 -0.515625 -0.84375q-0.203125 -0.390625 -0.34375 -1.125q-0.140625 -0.734375 -0.21875 -1.21875q-0.078125 -0.484375 -0.109375 -1.421875q-0.03125 -0.953125 -0.03125 -1.484375l0 -3.09375q0 -1.828125 0.078125 -2.4375q0.09375 -0.625 0.1875 -1.3125q0.09375 -0.6875 0.25 -1.046875q0.15625 -0.359375 0.359375 -0.84375q0.21875 -0.484375 0.515625 -0.734375q0.3125 -0.25 0.6875 -0.515625q0.734375 -0.421875 2.015625 -0.421875l2.40625 0.46875q0 0.703125 -0.265625 0.875q-0.265625 0.15625 -0.546875 0.15625q-0.265625 0 -0.390625 0l-1.203125 -0.140625q-1.0 0 -1.484375 0.609375q-0.28125 0.3125 -0.484375 0.625q-0.1875 0.3125 -0.296875 0.9375q-0.109375 0.609375 -0.1875 1.0625q-0.0625 0.4375 -0.09375 1.296875q-0.03125 0.84375 -0.03125 1.359375l0 3.046875q0 1.796875 0.09375 2.453125q0.109375 0.640625 0.21875 1.265625q0.109375 0.625 0.296875 0.9375q0.203125 0.3125 0.484375 0.640625q0.484375 0.59375 1.484375 0.59375q0.5625 0 1.328125 -0.09375q0.765625 -0.109375 1.109375 -0.140625l0 1.375zm13.141724 0.234375l-0.09375 0q-1.03125 0 -1.203125 -0.140625q-0.15625 -0.140625 -0.1875 -0.96875l0.09375 -12.765625l-0.265625 0l-0.09375 0.4375l-2.421875 5.109375l-0.578125 1.109375l-0.953125 0l-0.609375 -1.078125l-2.46875 -5.140625l-0.0625 -0.4375l-0.25 0l0.078125 12.765625q0 0.828125 -0.171875 0.96875q-0.171875 0.140625 -1.203125 0.140625l-0.09375 0l0 -17.28125l0.125 0q1.03125 0 1.25 0.15625q0.234375 0.140625 0.640625 0.953125l3.046875 6.578125l0.359375 0l3.578125 -7.6875l0.125 0q1.03125 0 1.1875 0.15625q0.171875 0.140625 0.171875 0.953125l0 16.171875zm9.172241 -0.234375q-1.84375 0.40625 -2.578125 0.40625q-0.734375 0 -1.140625 -0.046875q-0.390625 -0.03125 -0.71875 -0.1875q-0.3125 -0.15625 -0.5625 -0.265625q-0.234375 -0.109375 -0.421875 -0.421875q-0.1875 -0.328125 -0.3125 -0.53125q-0.125 -0.203125 -0.203125 -0.703125q-0.0625 -0.515625 -0.109375 -0.828125q-0.046875 -0.3125 -0.078125 -1.015625q-0.015625 -0.703125 -0.015625 -1.140625l0 -2.71875q0 -1.578125 0.0625 -2.046875q0.078125 -0.46875 0.140625 -0.984375q0.078125 -0.53125 0.203125 -0.765625q0.125 -0.234375 0.3125 -0.5625q0.1875 -0.34375 0.421875 -0.46875q0.25 -0.125 0.5625 -0.28125q0.328125 -0.15625 0.71875 -0.203125q0.40625 -0.0625 0.90625 -0.0625q0.515625 0 0.921875 0.078125q0.40625 0.078125 0.671875 0.296875q0.28125 0.203125 0.484375 0.40625q0.203125 0.1875 0.328125 0.625q0.140625 0.421875 0.203125 0.734375q0.078125 0.296875 0.109375 0.9375q0.046875 0.625 0.046875 1.015625l0 1.234375l0.09375 1.296875l-4.890625 0.125l0.09375 0.59375q0 3.078125 0.234375 3.5625q0.390625 0.78125 0.890625 0.90625q0.34375 0.09375 1.3125 0.09375q0.96875 0 2.3125 -0.3125l0 1.234375zm-4.609375 -9.265625q0 0.421875 0 1.296875l-0.09375 0.59375l3.40625 0l-0.125 -0.625q0 -1.921875 -0.265625 -2.734375q-0.25 -0.8125 -1.1875 -0.8125q-0.921875 0 -1.3125 0.5q-0.375 0.484375 -0.421875 1.78125zm6.95636 5.65625q-0.015625 -0.78125 -0.015625 -2.15625q0 -1.375 0 -1.890625q0.015625 -0.53125 0.03125 -1.265625q0.03125 -0.734375 0.09375 -1.09375q0.0625 -0.375 0.171875 -0.859375q0.109375 -0.5 0.265625 -0.734375q0.171875 -0.25 0.40625 -0.53125q0.25 -0.296875 0.5625 -0.390625q0.84375 -0.296875 1.734375 -0.296875l1.765625 0.671875l0 -5.171875q1.0625 0 1.21875 0.140625q0.171875 0.140625 0.171875 0.953125l0 16.46875q-1.046875 0 -1.21875 -0.15625q-0.171875 -0.15625 -0.171875 -1.109375l-1.890625 1.4375q-1.609375 0 -2.46875 -0.890625q-0.578125 -0.59375 -0.65625 -3.125zm1.484375 -5.75q-0.0625 0.859375 -0.078125 1.375q-0.015625 0.515625 -0.015625 2.8125q0 2.28125 0.21875 3.125q0.515625 1.109375 1.546875 1.171875l1.96875 -1.078125l-0.109375 -0.59375l0 -7.78125l0.109375 -0.59375l-1.96875 -0.625q-0.890625 0 -1.234375 0.59375q-0.375 0.71875 -0.4375 1.59375zm9.587585 -5.828125q-0.3125 0.328125 -0.78125 0.328125q-0.453125 0 -0.78125 -0.328125q-0.3125 -0.328125 -0.3125 -0.796875q0 -0.46875 0.3125 -0.765625q0.328125 -0.296875 0.78125 -0.296875q0.46875 0 0.78125 0.3125q0.328125 0.3125 0.328125 0.765625q0 0.453125 -0.328125 0.78125zm-1.46875 14.40625l0 -11.875q1.0625 0 1.234375 0.140625q0.1875 0.125 0.1875 0.96875l0 11.875q-1.0625 0 -1.25 -0.140625q-0.171875 -0.140625 -0.171875 -0.96875zm8.637573 -8.03125l0 -1.34375q0 -0.96875 -0.234375 -1.21875q-0.21875 -0.25 -1.078125 -0.25l-1.203125 0.25q-0.234375 0.046875 -0.359375 0.046875q-0.84375 0 -0.84375 -1.078125l2.40625 -0.421875q1.796875 0 2.1875 0.484375q0.1875 0.234375 0.296875 0.40625q0.109375 0.171875 0.125 0.609375q0.078125 0.6875 0.078125 1.609375l0 9.953125q-1.078125 0 -1.28125 -0.15625q-0.1875 -0.15625 -0.1875 -1.046875q-0.234375 0.140625 -0.671875 0.53125q-0.90625 0.84375 -1.53125 0.84375q-1.46875 0 -1.75 -0.921875q-0.265625 -0.9375 -0.265625 -5.125q0 -1.609375 1.390625 -2.140625q1.15625 -0.4375 2.921875 -0.4375l0.09375 0l-0.09375 -0.59375zm-0.09375 1.9375q-1.390625 0 -2.109375 0.203125q-0.703125 0.203125 -0.703125 0.828125q0 4.390625 0.203125 4.8125q0.09375 0.15625 0.421875 0.15625q0.34375 0 0.734375 -0.1875q0.40625 -0.1875 0.84375 -0.515625q0.4375 -0.328125 0.703125 -0.4375l-0.09375 -0.609375l0 -3.640625l0.09375 -0.609375l-0.09375 0zm4.708008 7.109375l-0.125 0l0 -17.328125l3.21875 -0.234375q2.8125 0 3.625 0.953125q0.3125 0.390625 0.46875 0.6875q0.15625 0.28125 0.25 0.875q0.09375 0.765625 0.09375 2.0q0 1.234375 -0.03125 1.765625q-0.03125 0.53125 -0.265625 1.234375q-0.234375 0.703125 -0.6875 1.015625q-1.125 0.828125 -3.453125 0.828125l-1.796875 0l0.09375 0.59375l0 6.5q0 0.828125 -0.203125 0.96875q-0.1875 0.140625 -1.1875 0.140625zm3.09375 -9.578125q1.515625 0 1.9375 -0.265625q0.421875 -0.28125 0.578125 -0.46875q0.171875 -0.203125 0.25 -0.671875q0.09375 -0.484375 0.09375 -0.8125q0.015625 -0.34375 0.015625 -1.078125q0 -0.75 -0.015625 -1.078125q0 -0.34375 -0.09375 -0.828125q-0.078125 -0.484375 -0.25 -0.671875q-0.15625 -0.1875 -0.46875 -0.40625q-0.53125 -0.34375 -2.046875 -0.34375l-1.796875 0l0.09375 0.609375l0 5.421875l-0.09375 0.59375l1.796875 0zm9.219055 -5.84375q-0.3125 0.328125 -0.78125 0.328125q-0.453125 0 -0.78125 -0.328125q-0.3125 -0.328125 -0.3125 -0.796875q0 -0.46875 0.3125 -0.765625q0.328125 -0.296875 0.78125 -0.296875q0.46875 0 0.78125 0.3125q0.328125 0.3125 0.328125 0.765625q0 0.453125 -0.328125 0.78125zm-1.46875 14.40625l0 -11.875q1.0625 0 1.234375 0.140625q0.1875 0.125 0.1875 0.96875l0 11.875q-1.0625 0 -1.25 -0.140625q-0.171875 -0.140625 -0.171875 -0.96875zm4.4345093 4.71875l0 -16.59375q1.046875 0 1.21875 0.0625q0.1875 0.0625 0.1875 0.421875l1.90625 -0.65625q1.6875 0 2.484375 1.015625q0.640625 0.8125 0.765625 3.1875q0.046875 0.921875 0.046875 2.359375q0 1.4375 -0.046875 2.265625q-0.03125 0.828125 -0.15625 1.65625q-0.109375 0.828125 -0.328125 1.28125q-0.21875 0.4375 -0.578125 0.8125q-0.671875 0.65625 -2.28125 0.65625l-1.8125 -1.109375l0 5.734375q-1.03125 0 -1.21875 -0.140625q-0.1875 -0.140625 -0.1875 -0.953125zm3.171875 -4.8125q1.28125 0 1.640625 -1.109375q0.375 -1.125 0.375 -4.09375q0 -2.96875 -0.390625 -4.21875q-0.375 -1.25 -1.59375 -1.25l-1.875 0.59375l0.09375 0.609375l0 7.796875l-0.125 0.59375l1.875 1.078125zm11.97937 0.875q-1.84375 0.40625 -2.578125 0.40625q-0.734375 0 -1.140625 -0.046875q-0.390625 -0.03125 -0.71875 -0.1875q-0.3125 -0.15625 -0.5625 -0.265625q-0.234375 -0.109375 -0.421875 -0.421875q-0.1875 -0.328125 -0.3125 -0.53125q-0.125 -0.203125 -0.203125 -0.703125q-0.0625 -0.515625 -0.109375 -0.828125q-0.046875 -0.3125 -0.078125 -1.015625q-0.015625 -0.703125 -0.015625 -1.140625l0 -2.71875q0 -1.578125 0.0625 -2.046875q0.078125 -0.46875 0.140625 -0.984375q0.078125 -0.53125 0.203125 -0.765625q0.125 -0.234375 0.3125 -0.5625q0.1875 -0.34375 0.421875 -0.46875q0.25 -0.125 0.5625 -0.28125q0.328125 -0.15625 0.71875 -0.203125q0.40625 -0.0625 0.90625 -0.0625q0.515625 0 0.921875 0.078125q0.40625 0.078125 0.671875 0.296875q0.28125 0.203125 0.484375 0.40625q0.203125 0.1875 0.328125 0.625q0.140625 0.421875 0.203125 0.734375q0.078125 0.296875 0.109375 0.9375q0.046875 0.625 0.046875 1.015625l0 1.234375l0.09375 1.296875l-4.890625 0.125l0.09375 0.59375q0 3.078125 0.234375 3.5625q0.390625 0.78125 0.890625 0.90625q0.34375 0.09375 1.3125 0.09375q0.96875 0 2.3125 -0.3125l0 1.234375zm-4.609375 -9.265625q0 0.421875 0 1.296875l-0.09375 0.59375l3.40625 0l-0.125 -0.625q0 -1.921875 -0.265625 -2.734375q-0.25 -0.8125 -1.1875 -0.8125q-0.921875 0 -1.3125 0.5q-0.375 0.484375 -0.421875 1.78125zm7.300049 8.484375l0 -16.546875q1.046875 0 1.21875 0.140625q0.1875 0.140625 0.1875 0.953125l0 16.5625q-1.046875 0 -1.234375 -0.140625q-0.171875 -0.140625 -0.171875 -0.96875zm5.9522705 -14.40625q-0.3125 0.328125 -0.78125 0.328125q-0.453125 0 -0.78125 -0.328125q-0.3125 -0.328125 -0.3125 -0.796875q0 -0.46875 0.3125 -0.765625q0.328125 -0.296875 0.78125 -0.296875q0.46875 0 0.78125 0.3125q0.328125 0.3125 0.328125 0.765625q0 0.453125 -0.328125 0.78125zm-1.46875 14.40625l0 -11.875q1.0625 0 1.234375 0.140625q0.1875 0.125 0.1875 0.96875l0 11.875q-1.0625 0 -1.25 -0.140625q-0.171875 -0.140625 -0.171875 -0.96875zm9.746948 -0.09375l0 -5.296875q0 -3.671875 -0.21875 -4.515625q-0.21875 -0.859375 -1.296875 -0.859375l-2.34375 0.84375l0.09375 0.59375l0 10.34375q-1.0625 0 -1.25 -0.140625q-0.171875 -0.140625 -0.171875 -0.96875l0 -11.78125q1.0625 0 1.234375 0.09375q0.1875 0.078125 0.1875 0.625l2.15625 -0.890625q2.15625 0 2.59375 1.109375q0.4375 1.109375 0.4375 5.5625l0 6.390625q-1.0625 0 -1.25 -0.140625q-0.171875 -0.140625 -0.171875 -0.96875zm10.078735 0.875q-1.84375 0.40625 -2.578125 0.40625q-0.734375 0 -1.140625 -0.046875q-0.390625 -0.03125 -0.71875 -0.1875q-0.3125 -0.15625 -0.5625 -0.265625q-0.234375 -0.109375 -0.421875 -0.421875q-0.1875 -0.328125 -0.3125 -0.53125q-0.125 -0.203125 -0.203125 -0.703125q-0.0625 -0.515625 -0.109375 -0.828125q-0.046875 -0.3125 -0.078125 -1.015625q-0.015625 -0.703125 -0.015625 -1.140625l0 -2.71875q0 -1.578125 0.0625 -2.046875q0.078125 -0.46875 0.140625 -0.984375q0.078125 -0.53125 0.203125 -0.765625q0.125 -0.234375 0.3125 -0.5625q0.1875 -0.34375 0.421875 -0.46875q0.25 -0.125 0.5625 -0.28125q0.328125 -0.15625 0.71875 -0.203125q0.40625 -0.0625 0.90625 -0.0625q0.515625 0 0.921875 0.078125q0.40625 0.078125 0.671875 0.296875q0.28125 0.203125 0.484375 0.40625q0.203125 0.1875 0.328125 0.625q0.140625 0.421875 0.203125 0.734375q0.078125 0.296875 0.109375 0.9375q0.046875 0.625 0.046875 1.015625l0 1.234375l0.09375 1.296875l-4.890625 0.125l0.09375 0.59375q0 3.078125 0.234375 3.5625q0.390625 0.78125 0.890625 0.90625q0.34375 0.09375 1.3125 0.09375q0.96875 0 2.3125 -0.3125l0 1.234375zm-4.609375 -9.265625q0 0.421875 0 1.296875l-0.09375 0.59375l3.40625 0l-0.125 -0.625q0 -1.921875 -0.265625 -2.734375q-0.25 -0.8125 -1.1875 -0.8125q-0.921875 0 -1.3125 0.5q-0.375 0.484375 -0.421875 1.78125z" fill-rule="nonzero"/><path fill="#000000" d="m719.261 261.56122q-0.859375 0 -1.515625 -0.125q-0.640625 -0.109375 -1.140625 -0.515625q-0.484375 -0.390625 -0.8125 -0.734375q-0.328125 -0.328125 -0.546875 -1.171875q-0.203125 -0.84375 -0.328125 -1.40625q-0.125 -0.5625 -0.171875 -1.8593903q-0.0625 -1.9375 -0.0625 -4.4375q0 -2.5 0.015625 -3.5625q0.03125 -1.0625 0.15625 -2.578125q0.140625 -1.53125 0.40625 -2.171875q0.28125 -0.65625 0.78125 -1.390625q0.5 -0.734375 1.296875 -0.96875q0.796875 -0.25 1.921875 -0.25q0 0.84375 -0.15625 0.984375q-0.15625 0.140625 -1.046875 0.140625q-1.265625 0 -1.578125 1.984375q-0.296875 1.984375 -0.296875 7.140625q0 0.234375 0 0.671875q0 5.3125153 0.28125 7.2187653q0.296875 1.90625 1.59375 1.90625q0.890625 0 1.046875 0.140625q0.15625 0.140625 0.15625 0.984375zm8.014465 -10.01564q0 -1.03125 0.140625 -1.203125q0.15625 -0.1875 0.96875 -0.1875l0.40625 0l0 8.531265q-0.359375 0.046875 -1.0625 0.15625q-1.390625 0.25 -2.1875 0.25q-0.78125 0 -1.34375 -0.15625q-0.546875 -0.15625 -0.9375 -0.375q-0.390625 -0.234375 -0.703125 -0.703125q-0.3125 -0.46875 -0.53125 -0.84375q-0.203125 -0.390625 -0.34375 -1.1250153q-0.140625 -0.734375 -0.21875 -1.21875q-0.0625 -0.484375 -0.109375 -1.421875q-0.03125 -0.953125 -0.03125 -1.484375l0 -3.09375q0 -1.828125 0.078125 -2.4375q0.09375 -0.625 0.1875 -1.3125q0.09375 -0.6875 0.25 -1.046875q0.15625 -0.359375 0.375 -0.84375q0.21875 -0.484375 0.515625 -0.734375q0.296875 -0.25 0.6875 -0.515625q0.71875 -0.421875 2.015625 -0.421875l2.875 0.46875q0 0.703125 -0.265625 0.875q-0.265625 0.15625 -0.546875 0.15625q-0.265625 0 -0.390625 0l-1.671875 -0.140625q-1.015625 0 -1.484375 0.609375q-0.296875 0.3125 -0.484375 0.625q-0.1875 0.3125 -0.296875 0.9375q-0.109375 0.609375 -0.1875 1.0625q-0.0625 0.4375 -0.109375 1.296875q-0.03125 0.84375 -0.03125 1.359375l0 3.0625q0 1.828125 0.109375 2.484375q0.109375 0.65625 0.21875 1.296875q0.109375 0.64064026 0.296875 0.98439026q0.1875 0.328125 0.484375 0.65625q0.5 0.625 1.484375 0.625q0.734375 0 1.9375 -0.234375l-0.09375 -0.609375l0 -5.3281403zm4.2664795 11.07814l0 -16.593765q1.046875 0 1.21875 0.0625q0.1875 0.0625 0.1875 0.421875l1.90625 -0.65625q1.6875 0 2.484375 1.015625q0.640625 0.8125 0.765625 3.1875q0.046875 0.921875 0.046875 2.359375q0 1.4375 -0.046875 2.265625q-0.03125 0.828125 -0.15625 1.6562653q-0.109375 0.828125 -0.328125 1.28125q-0.21875 0.4375 -0.578125 0.8125q-0.671875 0.65625 -2.28125 0.65625l-1.8125 -1.109375l0 5.734375q-1.03125 0 -1.21875 -0.140625q-0.1875 -0.140625 -0.1875 -0.953125zm3.171875 -4.8125q1.28125 0 1.640625 -1.109375q0.375 -1.1250153 0.375 -4.0937653q0 -2.96875 -0.390625 -4.21875q-0.375 -1.25 -1.59375 -1.25l-1.875 0.59375l0.09375 0.609375l0 7.7968903l-0.125 0.59375l1.875 1.078125zm5.94812 -5.3906403l0 -6.390625q1.0625 0 1.234375 0.140625q0.1875 0.125 0.1875 0.96875l0 5.234375q0 2.78125 0.15625 3.7968903q0.15625 1.015625 0.484375 1.328125q0.328125 0.3125 0.875 0.3125l2.375 -1.09375l-0.125 -0.609375l0 -10.07814q1.0625 0 1.234375 0.140625q0.1875 0.125 0.1875 0.96875l0 11.781265q-1.0625 0 -1.25 -0.109375q-0.171875 -0.125 -0.171875 -0.84375l-2.15625 1.125q-1.515625 0 -2.375 -0.9375q-0.546875 -0.625 -0.625 -3.1718903q-0.03125 -0.796875 -0.03125 -2.5625zm14.409302 6.5000153l-0.125 0l0 -17.32814l3.21875 -0.234375q2.8125 0 3.625 0.953125q0.3125 0.390625 0.46875 0.6875q0.15625 0.28125 0.25 0.875q0.09375 0.765625 0.09375 2.0q0 1.234375 -0.03125 1.765625q-0.03125 0.53125 -0.265625 1.234375q-0.234375 0.703125 -0.6875 1.015625q-1.125 0.828125 -3.453125 0.828125l-1.796875 0l0.09375 0.59375l0 6.5000153q0 0.828125 -0.203125 0.96875q-0.1875 0.140625 -1.1875 0.140625zm3.09375 -9.57814q1.515625 0 1.9375 -0.265625q0.421875 -0.28125 0.578125 -0.46875q0.171875 -0.203125 0.25 -0.671875q0.09375 -0.484375 0.09375 -0.8125q0.015625 -0.34375 0.015625 -1.078125q0 -0.75 -0.015625 -1.078125q0 -0.34375 -0.09375 -0.828125q-0.078125 -0.484375 -0.25 -0.671875q-0.15625 -0.1875 -0.46875 -0.40625q-0.53125 -0.34375 -2.046875 -0.34375l-1.796875 0l0.09375 0.609375l0 5.421875l-0.09375 0.59375l1.796875 0zm7.437866 8.468765l0 -11.781265q1.0625 0 1.234375 0.09375q0.1875 0.078125 0.1875 0.625l0 0.265625l1.921875 -1.15625q0.40625 0 1.1875 0.171875q0 0.84375 -0.15625 0.984375q-0.15625 0.125 -1.03125 0.125l-2.046875 1.125l0.125 0.59375l0 10.062515q-1.0625 0 -1.25 -0.140625q-0.171875 -0.140625 -0.171875 -0.96875zm11.221619 1.0q-0.328125 0.109375 -0.75 0.1875q-0.40625 0.09375 -1.0 0.09375q-0.59375 0 -1.0625 -0.078125q-0.46875 -0.0625 -0.8125 -0.296875q-0.34375 -0.25 -0.578125 -0.453125q-0.21875 -0.203125 -0.375 -0.734375q-0.15625 -0.53125 -0.25 -0.890625q-0.078125 -0.359375 -0.125 -1.1875153q-0.03125 -0.828125 -0.046875 -1.359375q0 -0.53125 0 -1.671875q0 -1.15625 0 -1.671875q0.015625 -0.515625 0.046875 -1.34375q0.046875 -0.828125 0.125 -1.171875q0.09375 -0.359375 0.25 -0.875q0.15625 -0.515625 0.375 -0.703125q0.234375 -0.1875 0.59375 -0.40625q0.546875 -0.390625 1.5 -0.390625q0.953125 0 1.359375 0.09375q0.421875 0.078125 0.75 0.171875q0.34375 0.09375 0.578125 0.40625q0.25 0.296875 0.421875 0.5q0.171875 0.203125 0.265625 0.71875q0.09375 0.515625 0.15625 0.84375q0.0625 0.3125 0.09375 1.09375q0.03125 0.765625 0.03125 1.25l0 1.484375q0 0 0 0.09375q0 0 0 1.46875q0 1.625 -0.09375 2.1406403q-0.09375 0.515625 -0.1875 1.046875q-0.09375 0.53125 -0.265625 0.734375q-0.171875 0.203125 -0.421875 0.5q-0.234375 0.296875 -0.578125 0.40625zm0.140625 -5.8437653l0 -0.8125q0 -3.140625 -0.265625 -3.96875q-0.390625 -1.03125 -1.59375 -1.046875q-0.984375 0 -1.3125 0.5q-0.203125 0.34375 -0.328125 0.625q-0.109375 0.28125 -0.15625 1.015625q-0.078125 1.046875 -0.078125 2.03125q0 0.984375 0 1.984375q0 1.0 0.015625 1.71875q0.03125 0.71875 0.21875 1.5312653q0.1875 0.796875 0.5625 1.03125q0.390625 0.234375 0.953125 0.234375q0.578125 0 0.890625 -0.09375q0.3125 -0.109375 0.515625 -0.40625q0.203125 -0.3125 0.3125 -0.609375q0.109375 -0.296875 0.15625 -0.95314026q0.109375 -0.9375 0.109375 -2.78125zm3.8353271 -0.484375l0 -1.53125q0 -1.75 0.078125 -2.203125q0.09375 -0.453125 0.1875 -0.984375q0.109375 -0.53125 0.265625 -0.734375q0.15625 -0.203125 0.390625 -0.484375q0.234375 -0.296875 0.5625 -0.390625q0.8125 -0.296875 1.65625 -0.296875l2.0 0.3125q0 1.0625 -0.875 1.0625q-0.171875 0 -0.328125 -0.03125l-0.796875 -0.0625q-1.21875 0 -1.484375 1.015625q-0.265625 1.015625 -0.265625 3.515625q0 2.5 0.015625 3.25q0.03125 0.734375 0.1875 1.5625153q0.171875 0.828125 0.53125 1.078125q0.375 0.25 1.015625 0.25l2.09375 -0.234375l0 1.109375l-2.09375 0.40625q-1.296875 0 -1.734375 -0.3125q-0.421875 -0.3125 -0.640625 -0.515625q-0.21875 -0.203125 -0.375 -0.734375q-0.15625 -0.53125 -0.234375 -0.890625q-0.0625 -0.359375 -0.109375 -1.1718903q-0.046875 -1.390625 -0.046875 -2.984375zm13.652588 6.2031403q-1.84375 0.40625 -2.578125 0.40625q-0.734375 0 -1.140625 -0.046875q-0.390625 -0.03125 -0.71875 -0.1875q-0.3125 -0.15625 -0.5625 -0.265625q-0.234375 -0.109375 -0.421875 -0.421875q-0.1875 -0.328125 -0.3125 -0.53125q-0.125 -0.203125 -0.203125 -0.703125q-0.0625 -0.515625 -0.109375 -0.828125q-0.046875 -0.31251526 -0.078125 -1.0156403q-0.015625 -0.703125 -0.015625 -1.140625l0 -2.71875q0 -1.578125 0.0625 -2.046875q0.078125 -0.46875 0.140625 -0.984375q0.078125 -0.53125 0.203125 -0.765625q0.125 -0.234375 0.3125 -0.5625q0.1875 -0.34375 0.421875 -0.46875q0.25 -0.125 0.5625 -0.28125q0.328125 -0.15625 0.71875 -0.203125q0.40625 -0.0625 0.90625 -0.0625q0.515625 0 0.921875 0.078125q0.40625 0.078125 0.671875 0.296875q0.28125 0.203125 0.484375 0.40625q0.203125 0.1875 0.328125 0.625q0.140625 0.421875 0.203125 0.734375q0.078125 0.296875 0.109375 0.9375q0.046875 0.625 0.046875 1.015625l0 1.234375l0.09375 1.296875l-4.890625 0.125l0.09375 0.59375q0 3.0781403 0.234375 3.5625153q0.390625 0.78125 0.890625 0.90625q0.34375 0.09375 1.3125 0.09375q0.96875 0 2.3125 -0.3125l0 1.234375zm-4.609375 -9.26564q0 0.421875 0 1.296875l-0.09375 0.59375l3.40625 0l-0.125 -0.625q0 -1.921875 -0.265625 -2.734375q-0.25 -0.8125 -1.1875 -0.8125q-0.921875 0 -1.3125 0.5q-0.375 0.484375 -0.421875 1.78125zm11.753235 8.875015q-0.28125 0.359375 -0.765625 0.546875q-0.46875 0.171875 -1.171875 0.171875q-0.6875 0 -2.859375 -0.359375l0 -1.265625q0.09375 0 1.203125 0.125q1.125 0.109375 1.6875 0.109375q1.34375 0 1.34375 -2.5000153q0 -0.15625 0 -0.328125q-0.03125 -0.765625 -1.5 -1.875q-1.453125 -1.125 -2.15625 -1.96875q-0.6875 -0.84375 -0.6875 -1.703125q0 -0.859375 0.015625 -1.1875q0.03125 -0.34375 0.171875 -0.84375q0.140625 -0.515625 0.4375 -0.734375q0.734375 -0.59375 2.25 -0.59375l2.28125 0.328125q0 1.0625 -0.859375 1.0625q-0.171875 0 -0.34375 -0.015625l-0.984375 -0.15625q-1.171875 0 -1.4375 0.53125q-0.21875 0.453125 -0.21875 1.328125q0 0.875 1.875 2.375q0.859375 0.640625 1.296875 1.03125q0.453125 0.375 0.875 1.0q0.421875 0.625 0.421875 1.21875q0 0.578125 -0.03125 1.0q-0.015625 0.42189026 -0.109375 1.0000153q-0.078125 0.578125 -0.265625 0.96875q-0.171875 0.375 -0.46875 0.734375zm8.015991 0q-0.28125 0.359375 -0.765625 0.546875q-0.46875 0.171875 -1.171875 0.171875q-0.6875 0 -2.859375 -0.359375l0 -1.265625q0.09375 0 1.203125 0.125q1.125 0.109375 1.6875 0.109375q1.34375 0 1.34375 -2.5000153q0 -0.15625 0 -0.328125q-0.03125 -0.765625 -1.5 -1.875q-1.453125 -1.125 -2.15625 -1.96875q-0.6875 -0.84375 -0.6875 -1.703125q0 -0.859375 0.015625 -1.1875q0.03125 -0.34375 0.171875 -0.84375q0.140625 -0.515625 0.4375 -0.734375q0.734375 -0.59375 2.25 -0.59375l2.28125 0.328125q0 1.0625 -0.859375 1.0625q-0.171875 0 -0.34375 -0.015625l-0.984375 -0.15625q-1.171875 0 -1.4375 0.53125q-0.21875 0.453125 -0.21875 1.328125q0 0.875 1.875 2.375q0.859375 0.640625 1.296875 1.03125q0.453125 0.375 0.875 1.0q0.421875 0.625 0.421875 1.21875q0 0.578125 -0.03125 1.0q-0.015625 0.42189026 -0.109375 1.0000153q-0.078125 0.578125 -0.265625 0.96875q-0.171875 0.375 -0.46875 0.734375zm2.2659302 3.265625q0 -0.84375 0.15625 -0.984375q0.15625 -0.140625 1.046875 -0.140625q1.265625 0 1.5625 -1.875q0.3125 -1.890625 0.3125 -7.4687653q0 -5.59375 -0.25 -7.140625q-0.453125 -2.328125 -1.625 -2.4375q-0.890625 0 -1.046875 -0.140625q-0.15625 -0.140625 -0.15625 -0.984375q1.125 0 1.90625 0.25q0.796875 0.234375 1.296875 0.96875q0.515625 0.734375 0.78125 1.390625q0.28125 0.640625 0.40625 2.140625q0.1875 2.09375 0.1875 4.90625q0 2.796875 -0.015625 3.609375q0 0.796875 -0.046875 2.09375q-0.046875 1.2968903 -0.171875 1.8593903q-0.125 0.5625 -0.34375 1.40625q-0.203125 0.84375 -0.53125 1.171875q-0.328125 0.34375 -0.828125 0.734375q-0.484375 0.40625 -1.140625 0.515625q-0.640625 0.125 -1.5 0.125z" fill-rule="nonzero"/><path fill="#d9d2e9" d="m75.509186 217.1344l0 0c0 -15.038101 12.190788 -27.228882 27.22889 -27.228882l150.23514 0c7.2215576 0 14.147339 2.868744 19.253723 7.9751587c5.106415 5.1063995 7.9751587 12.032181 7.9751587 19.253723l0 108.91229c0 15.038116 -12.190765 27.228912 -27.228882 27.228912l-150.23514 0l0 0c-15.038101 0 -27.22889 -12.190796 -27.22889 -27.228912z" fill-rule="evenodd"/><path stroke="#595959" stroke-width="1.0" stroke-linejoin="round" stroke-linecap="butt" d="m75.509186 217.1344l0 0c0 -15.038101 12.190788 -27.228882 27.22889 -27.228882l150.23514 0c7.2215576 0 14.147339 2.868744 19.253723 7.9751587c5.106415 5.1063995 7.9751587 12.032181 7.9751587 19.253723l0 108.91229c0 15.038116 -12.190765 27.228912 -27.228882 27.228912l-150.23514 0l0 0c-15.038101 0 -27.22889 -12.190796 -27.22889 -27.228912z" fill-rule="evenodd"/><path fill="#000000" d="m95.79675 229.92058l-0.125 0q-1.03125 0 -1.21875 -0.140625q-0.171875 -0.140625 -0.171875 -0.96875l0 -16.171875l0.125 0q1.03125 0 1.203125 0.15625q0.1875 0.140625 0.1875 0.953125l0 16.171875zm3.7213593 0l-0.125 0l0 -17.328125l3.21875 -0.234375q2.8125 0 3.625 0.953125q0.3125 0.390625 0.46875 0.6875q0.15625 0.28125 0.25 0.875q0.09375 0.765625 0.09375 2.0q0 1.234375 -0.03125 1.765625q-0.03125 0.53125 -0.265625 1.234375q-0.234375 0.703125 -0.6875 1.015625q-1.125 0.828125 -3.453125 0.828125l-1.796875 0l0.09375 0.59375l0 6.5q0 0.828125 -0.203125 0.96875q-0.1875 0.140625 -1.1875 0.140625zm3.09375 -9.578125q1.515625 0 1.9375 -0.265625q0.421875 -0.28125 0.578125 -0.46875q0.171875 -0.203125 0.25 -0.671875q0.09375 -0.484375 0.09375 -0.8125q0.015625 -0.34375 0.015625 -1.078125q0 -0.75 -0.015625 -1.078125q0 -0.34375 -0.09375 -0.828125q-0.078125 -0.484375 -0.25 -0.671875q-0.15625 -0.1875 -0.46875 -0.40625q-0.53125 -0.34375 -2.046875 -0.34375l-1.796875 0l0.09375 0.609375l0 5.421875l-0.09375 0.59375l1.796875 0zm14.094086 9.34375q-0.265625 0.046875 -1.078125 0.234375q-0.796875 0.171875 -1.421875 0.171875q-0.609375 0 -1.15625 -0.15625q-0.546875 -0.15625 -0.953125 -0.375q-0.390625 -0.234375 -0.703125 -0.703125q-0.3125 -0.46875 -0.515625 -0.84375q-0.203125 -0.390625 -0.34375 -1.125q-0.140625 -0.734375 -0.21875 -1.21875q-0.078125 -0.484375 -0.109375 -1.421875q-0.03125 -0.953125 -0.03125 -1.484375l0 -3.09375q0 -1.828125 0.078125 -2.4375q0.09375 -0.625 0.1875 -1.3125q0.09375 -0.6875 0.25 -1.046875q0.15625 -0.359375 0.359375 -0.84375q0.21875 -0.484375 0.515625 -0.734375q0.3125 -0.25 0.6875 -0.515625q0.734375 -0.421875 2.015625 -0.421875l2.40625 0.46875q0 0.703125 -0.265625 0.875q-0.265625 0.15625 -0.546875 0.15625q-0.265625 0 -0.390625 0l-1.203125 -0.140625q-1.0 0 -1.484375 0.609375q-0.28125 0.3125 -0.484375 0.625q-0.1875 0.3125 -0.296875 0.9375q-0.109375 0.609375 -0.1875 1.0625q-0.0625 0.4375 -0.09375 1.296875q-0.03125 0.84375 -0.03125 1.359375l0 3.046875q0 1.796875 0.09375 2.453125q0.109375 0.640625 0.21875 1.265625q0.109375 0.625 0.296875 0.9375q0.203125 0.3125 0.484375 0.640625q0.484375 0.59375 1.484375 0.59375q0.5625 0 1.328125 -0.09375q0.765625 -0.109375 1.109375 -0.140625l0 1.375zm13.141724 0.234375l-0.09375 0q-1.03125 0 -1.203125 -0.140625q-0.15625 -0.140625 -0.1875 -0.96875l0.09375 -12.765625l-0.265625 0l-0.09375 0.4375l-2.421875 5.109375l-0.578125 1.109375l-0.953125 0l-0.609375 -1.078125l-2.46875 -5.140625l-0.0625 -0.4375l-0.25 0l0.078125 12.765625q0 0.828125 -0.171875 0.96875q-0.171875 0.140625 -1.203125 0.140625l-0.09375 0l0 -17.28125l0.125 0q1.03125 0 1.25 0.15625q0.234375 0.140625 0.640625 0.953125l3.046875 6.578125l0.359375 0l3.578125 -7.6875l0.125 0q1.03125 0 1.1875 0.15625q0.171875 0.140625 0.171875 0.953125l0 16.171875zm9.172211 -0.234375q-1.84375 0.40625 -2.578125 0.40625q-0.734375 0 -1.140625 -0.046875q-0.390625 -0.03125 -0.71875 -0.1875q-0.3125 -0.15625 -0.5625 -0.265625q-0.234375 -0.109375 -0.421875 -0.421875q-0.1875 -0.328125 -0.3125 -0.53125q-0.125 -0.203125 -0.203125 -0.703125q-0.0625 -0.515625 -0.109375 -0.828125q-0.046875 -0.3125 -0.078125 -1.015625q-0.015625 -0.703125 -0.015625 -1.140625l0 -2.71875q0 -1.578125 0.0625 -2.046875q0.078125 -0.46875 0.140625 -0.984375q0.078125 -0.53125 0.203125 -0.765625q0.125 -0.234375 0.3125 -0.5625q0.1875 -0.34375 0.421875 -0.46875q0.25 -0.125 0.5625 -0.28125q0.328125 -0.15625 0.71875 -0.203125q0.40625 -0.0625 0.90625 -0.0625q0.515625 0 0.921875 0.078125q0.40625 0.078125 0.671875 0.296875q0.28125 0.203125 0.484375 0.40625q0.203125 0.1875 0.328125 0.625q0.140625 0.421875 0.203125 0.734375q0.078125 0.296875 0.109375 0.9375q0.046875 0.625 0.046875 1.015625l0 1.234375l0.09375 1.296875l-4.890625 0.125l0.09375 0.59375q0 3.078125 0.234375 3.5625q0.390625 0.78125 0.890625 0.90625q0.34375 0.09375 1.3125 0.09375q0.96875 0 2.3125 -0.3125l0 1.234375zm-4.609375 -9.265625q0 0.421875 0 1.296875l-0.09375 0.59375l3.40625 0l-0.125 -0.625q0 -1.921875 -0.265625 -2.734375q-0.25 -0.8125 -1.1875 -0.8125q-0.921875 0 -1.3125 0.5q-0.375 0.484375 -0.421875 1.78125zm6.9563446 5.65625q-0.015625 -0.78125 -0.015625 -2.15625q0 -1.375 0 -1.890625q0.015625 -0.53125 0.03125 -1.265625q0.03125 -0.734375 0.09375 -1.09375q0.0625 -0.375 0.171875 -0.859375q0.109375 -0.5 0.265625 -0.734375q0.171875 -0.25 0.40625 -0.53125q0.25 -0.296875 0.5625 -0.390625q0.84375 -0.296875 1.734375 -0.296875l1.765625 0.671875l0 -5.171875q1.0625 0 1.21875 0.140625q0.171875 0.140625 0.171875 0.953125l0 16.46875q-1.046875 0 -1.21875 -0.15625q-0.171875 -0.15625 -0.171875 -1.109375l-1.890625 1.4375q-1.609375 0 -2.46875 -0.890625q-0.578125 -0.59375 -0.65625 -3.125zm1.484375 -5.75q-0.0625 0.859375 -0.078125 1.375q-0.015625 0.515625 -0.015625 2.8125q0 2.28125 0.21875 3.125q0.515625 1.109375 1.546875 1.171875l1.96875 -1.078125l-0.109375 -0.59375l0 -7.78125l0.109375 -0.59375l-1.96875 -0.625q-0.890625 0 -1.234375 0.59375q-0.375 0.71875 -0.4375 1.59375zm9.587601 -5.828125q-0.3125 0.328125 -0.78125 0.328125q-0.453125 0 -0.78125 -0.328125q-0.3125 -0.328125 -0.3125 -0.796875q0 -0.46875 0.3125 -0.765625q0.328125 -0.296875 0.78125 -0.296875q0.46875 0 0.78125 0.3125q0.328125 0.3125 0.328125 0.765625q0 0.453125 -0.328125 0.78125zm-1.46875 14.40625l0 -11.875q1.0625 0 1.234375 0.140625q0.1875 0.125 0.1875 0.96875l0 11.875q-1.0625 0 -1.25 -0.140625q-0.171875 -0.140625 -0.171875 -0.96875zm8.637604 -8.03125l0 -1.34375q0 -0.96875 -0.234375 -1.21875q-0.21875 -0.25 -1.078125 -0.25l-1.203125 0.25q-0.234375 0.046875 -0.359375 0.046875q-0.84375 0 -0.84375 -1.078125l2.40625 -0.421875q1.796875 0 2.1875 0.484375q0.1875 0.234375 0.296875 0.40625q0.109375 0.171875 0.125 0.609375q0.078125 0.6875 0.078125 1.609375l0 9.953125q-1.078125 0 -1.28125 -0.15625q-0.1875 -0.15625 -0.1875 -1.046875q-0.234375 0.140625 -0.671875 0.53125q-0.90625 0.84375 -1.53125 0.84375q-1.46875 0 -1.75 -0.921875q-0.265625 -0.9375 -0.265625 -5.125q0 -1.609375 1.390625 -2.140625q1.15625 -0.4375 2.921875 -0.4375l0.09375 0l-0.09375 -0.59375zm-0.09375 1.9375q-1.390625 0 -2.109375 0.203125q-0.703125 0.203125 -0.703125 0.828125q0 4.390625 0.203125 4.8125q0.09375 0.15625 0.421875 0.15625q0.34375 0 0.734375 -0.1875q0.40625 -0.1875 0.84375 -0.515625q0.4375 -0.328125 0.703125 -0.4375l-0.09375 -0.609375l0 -3.640625l0.09375 -0.609375l-0.09375 0zm4.7079773 7.109375l-0.125 0l0 -17.328125l3.21875 -0.234375q2.8125 0 3.625 0.953125q0.3125 0.390625 0.46875 0.6875q0.15625 0.28125 0.25 0.875q0.09375 0.765625 0.09375 2.0q0 1.234375 -0.03125 1.765625q-0.03125 0.53125 -0.265625 1.234375q-0.234375 0.703125 -0.6875 1.015625q-1.125 0.828125 -3.453125 0.828125l-1.796875 0l0.09375 0.59375l0 6.5q0 0.828125 -0.203125 0.96875q-0.1875 0.140625 -1.1875 0.140625zm3.09375 -9.578125q1.515625 0 1.9375 -0.265625q0.421875 -0.28125 0.578125 -0.46875q0.171875 -0.203125 0.25 -0.671875q0.09375 -0.484375 0.09375 -0.8125q0.015625 -0.34375 0.015625 -1.078125q0 -0.75 -0.015625 -1.078125q0 -0.34375 -0.09375 -0.828125q-0.078125 -0.484375 -0.25 -0.671875q-0.15625 -0.1875 -0.46875 -0.40625q-0.53125 -0.34375 -2.046875 -0.34375l-1.796875 0l0.09375 0.609375l0 5.421875l-0.09375 0.59375l1.796875 0zm9.219086 -5.84375q-0.3125 0.328125 -0.78125 0.328125q-0.453125 0 -0.78125 -0.328125q-0.3125 -0.328125 -0.3125 -0.796875q0 -0.46875 0.3125 -0.765625q0.328125 -0.296875 0.78125 -0.296875q0.46875 0 0.78125 0.3125q0.328125 0.3125 0.328125 0.765625q0 0.453125 -0.328125 0.78125zm-1.46875 14.40625l0 -11.875q1.0625 0 1.234375 0.140625q0.1875 0.125 0.1875 0.96875l0 11.875q-1.0625 0 -1.25 -0.140625q-0.171875 -0.140625 -0.171875 -0.96875zm4.4344788 4.71875l0 -16.59375q1.046875 0 1.21875 0.0625q0.1875 0.0625 0.1875 0.421875l1.90625 -0.65625q1.6875 0 2.484375 1.015625q0.640625 0.8125 0.765625 3.1875q0.046875 0.921875 0.046875 2.359375q0 1.4375 -0.046875 2.265625q-0.03125 0.828125 -0.15625 1.65625q-0.109375 0.828125 -0.328125 1.28125q-0.21875 0.4375 -0.578125 0.8125q-0.671875 0.65625 -2.28125 0.65625l-1.8125 -1.109375l0 5.734375q-1.03125 0 -1.21875 -0.140625q-0.1875 -0.140625 -0.1875 -0.953125zm3.171875 -4.8125q1.28125 0 1.640625 -1.109375q0.375 -1.125 0.375 -4.09375q0 -2.96875 -0.390625 -4.21875q-0.375 -1.25 -1.59375 -1.25l-1.875 0.59375l0.09375 0.609375l0 7.796875l-0.125 0.59375l1.875 1.078125zm11.979355 0.875q-1.84375 0.40625 -2.578125 0.40625q-0.734375 0 -1.140625 -0.046875q-0.390625 -0.03125 -0.71875 -0.1875q-0.3125 -0.15625 -0.5625 -0.265625q-0.234375 -0.109375 -0.421875 -0.421875q-0.1875 -0.328125 -0.3125 -0.53125q-0.125 -0.203125 -0.203125 -0.703125q-0.0625 -0.515625 -0.109375 -0.828125q-0.046875 -0.3125 -0.078125 -1.015625q-0.015625 -0.703125 -0.015625 -1.140625l0 -2.71875q0 -1.578125 0.0625 -2.046875q0.078125 -0.46875 0.140625 -0.984375q0.078125 -0.53125 0.203125 -0.765625q0.125 -0.234375 0.3125 -0.5625q0.1875 -0.34375 0.421875 -0.46875q0.25 -0.125 0.5625 -0.28125q0.328125 -0.15625 0.71875 -0.203125q0.40625 -0.0625 0.90625 -0.0625q0.515625 0 0.921875 0.078125q0.40625 0.078125 0.671875 0.296875q0.28125 0.203125 0.484375 0.40625q0.203125 0.1875 0.328125 0.625q0.140625 0.421875 0.203125 0.734375q0.078125 0.296875 0.109375 0.9375q0.046875 0.625 0.046875 1.015625l0 1.234375l0.09375 1.296875l-4.890625 0.125l0.09375 0.59375q0 3.078125 0.234375 3.5625q0.390625 0.78125 0.890625 0.90625q0.34375 0.09375 1.3125 0.09375q0.96875 0 2.3125 -0.3125l0 1.234375zm-4.609375 -9.265625q0 0.421875 0 1.296875l-0.09375 0.59375l3.40625 0l-0.125 -0.625q0 -1.921875 -0.265625 -2.734375q-0.25 -0.8125 -1.1875 -0.8125q-0.921875 0 -1.3125 0.5q-0.375 0.484375 -0.421875 1.78125zm7.3000946 8.484375l0 -16.546875q1.046875 0 1.21875 0.140625q0.1875 0.140625 0.1875 0.953125l0 16.5625q-1.046875 0 -1.234375 -0.140625q-0.171875 -0.140625 -0.171875 -0.96875zm5.95224 -14.40625q-0.3125 0.328125 -0.78125 0.328125q-0.453125 0 -0.78125 -0.328125q-0.3125 -0.328125 -0.3125 -0.796875q0 -0.46875 0.3125 -0.765625q0.328125 -0.296875 0.78125 -0.296875q0.46875 0 0.78125 0.3125q0.328125 0.3125 0.328125 0.765625q0 0.453125 -0.328125 0.78125zm-1.46875 14.40625l0 -11.875q1.0625 0 1.234375 0.140625q0.1875 0.125 0.1875 0.96875l0 11.875q-1.0625 0 -1.25 -0.140625q-0.171875 -0.140625 -0.171875 -0.96875zm9.746979 -0.09375l0 -5.296875q0 -3.671875 -0.21875 -4.515625q-0.21875 -0.859375 -1.296875 -0.859375l-2.34375 0.84375l0.09375 0.59375l0 10.34375q-1.0625 0 -1.25 -0.140625q-0.171875 -0.140625 -0.171875 -0.96875l0 -11.78125q1.0625 0 1.234375 0.09375q0.1875 0.078125 0.1875 0.625l2.15625 -0.890625q2.15625 0 2.59375 1.109375q0.4375 1.109375 0.4375 5.5625l0 6.390625q-1.0625 0 -1.25 -0.140625q-0.171875 -0.140625 -0.171875 -0.96875zm10.07872 0.875q-1.84375 0.40625 -2.578125 0.40625q-0.734375 0 -1.140625 -0.046875q-0.390625 -0.03125 -0.71875 -0.1875q-0.3125 -0.15625 -0.5625 -0.265625q-0.234375 -0.109375 -0.421875 -0.421875q-0.1875 -0.328125 -0.3125 -0.53125q-0.125 -0.203125 -0.203125 -0.703125q-0.0625 -0.515625 -0.109375 -0.828125q-0.046875 -0.3125 -0.078125 -1.015625q-0.015625 -0.703125 -0.015625 -1.140625l0 -2.71875q0 -1.578125 0.0625 -2.046875q0.078125 -0.46875 0.140625 -0.984375q0.078125 -0.53125 0.203125 -0.765625q0.125 -0.234375 0.3125 -0.5625q0.1875 -0.34375 0.421875 -0.46875q0.25 -0.125 0.5625 -0.28125q0.328125 -0.15625 0.71875 -0.203125q0.40625 -0.0625 0.90625 -0.0625q0.515625 0 0.921875 0.078125q0.40625 0.078125 0.671875 0.296875q0.28125 0.203125 0.484375 0.40625q0.203125 0.1875 0.328125 0.625q0.140625 0.421875 0.203125 0.734375q0.078125 0.296875 0.109375 0.9375q0.046875 0.625 0.046875 1.015625l0 1.234375l0.09375 1.296875l-4.890625 0.125l0.09375 0.59375q0 3.078125 0.234375 3.5625q0.390625 0.78125 0.890625 0.90625q0.34375 0.09375 1.3125 0.09375q0.96875 0 2.3125 -0.3125l0 1.234375zm-4.609375 -9.265625q0 0.421875 0 1.296875l-0.09375 0.59375l3.40625 0l-0.125 -0.625q0 -1.921875 -0.265625 -2.734375q-0.25 -0.8125 -1.1875 -0.8125q-0.921875 0 -1.3125 0.5q-0.375 0.484375 -0.421875 1.78125zm14.90947 9.5l-0.09375 0q-1.03125 0 -1.21875 -0.140625q-0.171875 -0.140625 -0.171875 -0.96875l0 -6.953125l0.09375 -0.59375l-4.59375 0l0.09375 0.59375l0 6.953125q0 0.828125 -0.1875 0.96875q-0.171875 0.140625 -1.203125 0.140625l-0.09375 0l0 -17.28125l0.09375 0q1.03125 0 1.203125 0.15625q0.1875 0.140625 0.1875 0.953125l0 5.546875l-0.09375 0.59375l4.59375 0l-0.09375 -0.59375l0 -6.65625l0.09375 0q1.03125 0 1.203125 0.15625q0.1875 0.140625 0.1875 0.953125l0 16.171875zm7.999222 -0.109375q-0.328125 0.109375 -0.75 0.1875q-0.40625 0.09375 -1.0 0.09375q-0.59375 0 -1.0625 -0.078125q-0.46875 -0.0625 -0.8125 -0.296875q-0.34375 -0.25 -0.578125 -0.453125q-0.21875 -0.203125 -0.375 -0.734375q-0.15625 -0.53125 -0.25 -0.890625q-0.078125 -0.359375 -0.125 -1.1875q-0.03125 -0.828125 -0.046875 -1.359375q0 -0.53125 0 -1.671875q0 -1.15625 0 -1.671875q0.015625 -0.515625 0.046875 -1.34375q0.046875 -0.828125 0.125 -1.171875q0.09375 -0.359375 0.25 -0.875q0.15625 -0.515625 0.375 -0.703125q0.234375 -0.1875 0.59375 -0.40625q0.546875 -0.390625 1.5 -0.390625q0.953125 0 1.359375 0.09375q0.421875 0.078125 0.75 0.171875q0.34375 0.09375 0.578125 0.40625q0.25 0.296875 0.421875 0.5q0.171875 0.203125 0.265625 0.71875q0.09375 0.515625 0.15625 0.84375q0.0625 0.3125 0.09375 1.09375q0.03125 0.765625 0.03125 1.25l0 1.484375q0 0 0 0.09375q0 0 0 1.46875q0 1.625 -0.09375 2.140625q-0.09375 0.515625 -0.1875 1.046875q-0.09375 0.53125 -0.265625 0.734375q-0.171875 0.203125 -0.421875 0.5q-0.234375 0.296875 -0.578125 0.40625zm0.140625 -5.84375l0 -0.8125q0 -3.140625 -0.265625 -3.96875q-0.390625 -1.03125 -1.59375 -1.046875q-0.984375 0 -1.3125 0.5q-0.203125 0.34375 -0.328125 0.625q-0.109375 0.28125 -0.15625 1.015625q-0.078125 1.046875 -0.078125 2.03125q0 0.984375 0 1.984375q0 1.0 0.015625 1.71875q0.03125 0.71875 0.21875 1.53125q0.1875 0.796875 0.5625 1.03125q0.390625 0.234375 0.953125 0.234375q0.578125 0 0.890625 -0.09375q0.3125 -0.109375 0.515625 -0.40625q0.203125 -0.3125 0.3125 -0.609375q0.109375 -0.296875 0.15625 -0.953125q0.109375 -0.9375 0.109375 -2.78125zm8.647842 5.328125q-0.28125 0.359375 -0.765625 0.546875q-0.46875 0.171875 -1.171875 0.171875q-0.6875 0 -2.859375 -0.359375l0 -1.265625q0.09375 0 1.203125 0.125q1.125 0.109375 1.6875 0.109375q1.34375 0 1.34375 -2.5q0 -0.15625 0 -0.328125q-0.03125 -0.765625 -1.5 -1.875q-1.453125 -1.125 -2.15625 -1.96875q-0.6875 -0.84375 -0.6875 -1.703125q0 -0.859375 0.015625 -1.1875q0.03125 -0.34375 0.171875 -0.84375q0.140625 -0.515625 0.4375 -0.734375q0.734375 -0.59375 2.25 -0.59375l2.28125 0.328125q0 1.0625 -0.859375 1.0625q-0.171875 0 -0.34375 -0.015625l-0.984375 -0.15625q-1.171875 0 -1.4375 0.53125q-0.21875 0.453125 -0.21875 1.328125q0 0.875 1.875 2.375q0.859375 0.640625 1.296875 1.03125q0.453125 0.375 0.875 1.0q0.421875 0.625 0.421875 1.21875q0 0.578125 -0.03125 1.0q-0.015625 0.421875 -0.109375 1.0q-0.078125 0.578125 -0.265625 0.96875q-0.171875 0.375 -0.46875 0.734375zm3.375351 -4.84375l0 -5.515625l0.09375 -0.609375l-1.03125 0l0 -1.296875l1.03125 0l-0.09375 -0.84375l0 -1.046875q1.046875 0 1.21875 0.140625q0.1875 0.140625 0.1875 0.953125l-0.09375 0.796875l2.203125 0q0 0.890625 -0.15625 1.09375q-0.15625 0.203125 -0.984375 0.203125l-1.0625 0l0.09375 0.609375l0 5.515625q0 2.734375 0.140625 3.546875q0.15625 0.8125 0.828125 0.8125l1.625 0l0 1.109375l-1.65625 0.125q-1.65625 0 -2.0 -1.015625q-0.34375 -1.03125 -0.34375 -4.578125z" fill-rule="nonzero"/><path fill="#000000" d="m98.17175 261.56122q-0.859375 0 -1.515625 -0.125q-0.640625 -0.109375 -1.140625 -0.515625q-0.484375 -0.390625 -0.8125 -0.734375q-0.328125 -0.328125 -0.546875 -1.171875q-0.203125 -0.84375 -0.328125 -1.40625q-0.125 -0.5625 -0.171875 -1.8593903q-0.0625 -1.9375 -0.0625 -4.4375q0 -2.5 0.015625 -3.5625q0.03125 -1.0625 0.15625 -2.578125q0.140625 -1.53125 0.40625 -2.171875q0.28125 -0.65625 0.78125 -1.390625q0.5 -0.734375 1.296875 -0.96875q0.796875 -0.25 1.921875 -0.25q0 0.84375 -0.15625 0.984375q-0.15625 0.140625 -1.046875 0.140625q-1.265625 0 -1.578125 1.984375q-0.296875 1.984375 -0.296875 7.140625q0 0.234375 0 0.671875q0 5.3125153 0.28125 7.2187653q0.296875 1.90625 1.59375 1.90625q0.890625 0 1.046875 0.140625q0.15625 0.140625 0.15625 0.984375zm10.155106 -2.640625q-1.234375 0 -1.515625 -0.140625q-0.28125 -0.140625 -0.640625 -0.96875l-3.25 -7.0937653l-1.265625 0l0.09375 0.59375l0 6.5000153l0.03125 0q0 0.828125 -0.1875 0.96875q-0.1875 0.140625 -1.21875 0.140625l-0.140625 0l0 -17.32814l2.734375 -0.234375q2.5 0 3.21875 0.953125q0.296875 0.390625 0.4375 0.6875q0.140625 0.28125 0.21875 0.875q0.09375 0.796875 0.09375 1.9375q0 1.140625 -0.046875 1.734375q-0.03125 0.578125 -0.171875 1.21875q-0.140625 0.625 -0.40625 0.984375q-0.609375 0.84375 -1.875 0.9375l3.984375 8.23439l-0.09375 0zm-5.359375 -9.57814q1.234375 0 1.90625 -0.453125q0.40625 -0.3125 0.46875 -1.578125q0.03125 -0.390625 0.03125 -1.28125q0 -0.890625 -0.03125 -1.265625q-0.015625 -0.390625 -0.125 -0.890625q-0.109375 -0.5 -0.34375 -0.703125q-0.671875 -0.453125 -1.90625 -0.453125l-1.21875 0l0 6.03125l-0.09375 0.59375l1.3125 0zm13.6844635 9.343765q-1.84375 0.40625 -2.578125 0.40625q-0.734375 0 -1.140625 -0.046875q-0.390625 -0.03125 -0.71875 -0.1875q-0.3125 -0.15625 -0.5625 -0.265625q-0.234375 -0.109375 -0.421875 -0.421875q-0.1875 -0.328125 -0.3125 -0.53125q-0.125 -0.203125 -0.203125 -0.703125q-0.0625 -0.515625 -0.109375 -0.828125q-0.046875 -0.31251526 -0.078125 -1.0156403q-0.015625 -0.703125 -0.015625 -1.140625l0 -2.71875q0 -1.578125 0.0625 -2.046875q0.078125 -0.46875 0.140625 -0.984375q0.078125 -0.53125 0.203125 -0.765625q0.125 -0.234375 0.3125 -0.5625q0.1875 -0.34375 0.421875 -0.46875q0.25 -0.125 0.5625 -0.28125q0.328125 -0.15625 0.71875 -0.203125q0.40625 -0.0625 0.90625 -0.0625q0.515625 0 0.921875 0.078125q0.40625 0.078125 0.671875 0.296875q0.28125 0.203125 0.484375 0.40625q0.203125 0.1875 0.328125 0.625q0.140625 0.421875 0.203125 0.734375q0.078125 0.296875 0.109375 0.9375q0.046875 0.625 0.046875 1.015625l0 1.234375l0.09375 1.296875l-4.890625 0.125l0.09375 0.59375q0 3.0781403 0.234375 3.5625153q0.390625 0.78125 0.890625 0.90625q0.34375 0.09375 1.3125 0.09375q0.96875 0 2.3125 -0.3125l0 1.234375zm-4.609375 -9.26564q0 0.421875 0 1.296875l-0.09375 0.59375l3.40625 0l-0.125 -0.625q0 -1.921875 -0.265625 -2.734375q-0.25 -0.8125 -1.1875 -0.8125q-0.921875 0 -1.3125 0.5q-0.375 0.484375 -0.421875 1.78125zm12.362595 8.39064l0 -5.2968903q0 -3.671875 -0.21875 -4.515625q-0.21875 -0.859375 -1.296875 -0.859375l-2.34375 0.84375l0.09375 0.59375l0 10.343765q-1.0625 0 -1.25 -0.140625q-0.171875 -0.140625 -0.171875 -0.96875l0 -11.781265q1.0625 0 1.234375 0.09375q0.1875 0.078125 0.1875 0.625l2.15625 -0.890625q2.15625 0 2.59375 1.109375q0.4375 1.109375 0.4375 5.5625l0 6.3906403q-1.0625 0 -1.25 -0.140625q-0.171875 -0.140625 -0.171875 -0.96875zm3.95372 -2.7343903q-0.015625 -0.78125 -0.015625 -2.15625q0 -1.375 0 -1.890625q0.015625 -0.53125 0.03125 -1.265625q0.03125 -0.734375 0.09375 -1.09375q0.0625 -0.375 0.171875 -0.859375q0.109375 -0.5 0.265625 -0.734375q0.171875 -0.25 0.40625 -0.53125q0.25 -0.296875 0.5625 -0.390625q0.84375 -0.296875 1.734375 -0.296875l1.765625 0.671875l0 -5.171875q1.0625 0 1.21875 0.140625q0.171875 0.140625 0.171875 0.953125l0 16.468765q-1.046875 0 -1.21875 -0.15625q-0.171875 -0.15625 -0.171875 -1.109375l-1.890625 1.4375q-1.609375 0 -2.46875 -0.890625q-0.578125 -0.59375 -0.65625 -3.1250153zm1.484375 -5.75q-0.0625 0.859375 -0.078125 1.375q-0.015625 0.515625 -0.015625 2.8125q0 2.28125 0.21875 3.1250153q0.515625 1.109375 1.546875 1.171875l1.96875 -1.078125l-0.109375 -0.59375l0 -7.7812653l0.109375 -0.59375l-1.96875 -0.625q-0.890625 0 -1.234375 0.59375q-0.375 0.71875 -0.4375 1.59375zm13.712601 9.35939q-1.84375 0.40625 -2.578125 0.40625q-0.734375 0 -1.140625 -0.046875q-0.390625 -0.03125 -0.71875 -0.1875q-0.3125 -0.15625 -0.5625 -0.265625q-0.234375 -0.109375 -0.421875 -0.421875q-0.1875 -0.328125 -0.3125 -0.53125q-0.125 -0.203125 -0.203125 -0.703125q-0.0625 -0.515625 -0.109375 -0.828125q-0.046875 -0.31251526 -0.078125 -1.0156403q-0.015625 -0.703125 -0.015625 -1.140625l0 -2.71875q0 -1.578125 0.0625 -2.046875q0.078125 -0.46875 0.140625 -0.984375q0.078125 -0.53125 0.203125 -0.765625q0.125 -0.234375 0.3125 -0.5625q0.1875 -0.34375 0.421875 -0.46875q0.25 -0.125 0.5625 -0.28125q0.328125 -0.15625 0.71875 -0.203125q0.40625 -0.0625 0.90625 -0.0625q0.515625 0 0.921875 0.078125q0.40625 0.078125 0.671875 0.296875q0.28125 0.203125 0.484375 0.40625q0.203125 0.1875 0.328125 0.625q0.140625 0.421875 0.203125 0.734375q0.078125 0.296875 0.109375 0.9375q0.046875 0.625 0.046875 1.015625l0 1.234375l0.09375 1.296875l-4.890625 0.125l0.09375 0.59375q0 3.0781403 0.234375 3.5625153q0.390625 0.78125 0.890625 0.90625q0.34375 0.09375 1.3125 0.09375q0.96875 0 2.3125 -0.3125l0 1.234375zm-4.609375 -9.26564q0 0.421875 0 1.296875l-0.09375 0.59375l3.40625 0l-0.125 -0.625q0 -1.921875 -0.265625 -2.734375q-0.25 -0.8125 -1.1875 -0.8125q-0.921875 0 -1.3125 0.5q-0.375 0.484375 -0.421875 1.78125zm7.1750946 8.39064l0 -11.781265q1.0625 0 1.234375 0.09375q0.1875 0.078125 0.1875 0.625l0 0.265625l1.921875 -1.15625q0.40625 0 1.1875 0.171875q0 0.84375 -0.15625 0.984375q-0.15625 0.125 -1.03125 0.125l-2.046875 1.125l0.125 0.59375l0 10.062515q-1.0625 0 -1.25 -0.140625q-0.171875 -0.140625 -0.171875 -0.96875zm12.362228 0.875q-1.84375 0.40625 -2.578125 0.40625q-0.734375 0 -1.140625 -0.046875q-0.390625 -0.03125 -0.71875 -0.1875q-0.3125 -0.15625 -0.5625 -0.265625q-0.234375 -0.109375 -0.421875 -0.421875q-0.1875 -0.328125 -0.3125 -0.53125q-0.125 -0.203125 -0.203125 -0.703125q-0.0625 -0.515625 -0.109375 -0.828125q-0.046875 -0.31251526 -0.078125 -1.0156403q-0.015625 -0.703125 -0.015625 -1.140625l0 -2.71875q0 -1.578125 0.0625 -2.046875q0.078125 -0.46875 0.140625 -0.984375q0.078125 -0.53125 0.203125 -0.765625q0.125 -0.234375 0.3125 -0.5625q0.1875 -0.34375 0.421875 -0.46875q0.25 -0.125 0.5625 -0.28125q0.328125 -0.15625 0.71875 -0.203125q0.40625 -0.0625 0.90625 -0.0625q0.515625 0 0.921875 0.078125q0.40625 0.078125 0.671875 0.296875q0.28125 0.203125 0.484375 0.40625q0.203125 0.1875 0.328125 0.625q0.140625 0.421875 0.203125 0.734375q0.078125 0.296875 0.109375 0.9375q0.046875 0.625 0.046875 1.015625l0 1.234375l0.09375 1.296875l-4.890625 0.125l0.09375 0.59375q0 3.0781403 0.234375 3.5625153q0.390625 0.78125 0.890625 0.90625q0.34375 0.09375 1.3125 0.09375q0.96875 0 2.3125 -0.3125l0 1.234375zm-4.609375 -9.26564q0 0.421875 0 1.296875l-0.09375 0.59375l3.40625 0l-0.125 -0.625q0 -1.921875 -0.265625 -2.734375q-0.25 -0.8125 -1.1875 -0.8125q-0.921875 0 -1.3125 0.5q-0.375 0.484375 -0.421875 1.78125zm7.1750946 8.39064l0 -11.781265q1.0625 0 1.234375 0.09375q0.1875 0.078125 0.1875 0.625l0 0.265625l1.921875 -1.15625q0.40625 0 1.1875 0.171875q0 0.84375 -0.15625 0.984375q-0.15625 0.125 -1.03125 0.125l-2.046875 1.125l0.125 0.59375l0 10.062515q-1.0625 0 -1.25 -0.140625q-0.171875 -0.140625 -0.171875 -0.96875zm11.500336 1.109375l-0.125 0l0 -17.32814l3.21875 -0.234375q2.8125 0 3.625 0.953125q0.3125 0.390625 0.46875 0.6875q0.15625 0.28125 0.25 0.875q0.09375 0.765625 0.09375 2.0q0 1.234375 -0.03125 1.765625q-0.03125 0.53125 -0.265625 1.234375q-0.234375 0.703125 -0.6875 1.015625q-1.125 0.828125 -3.453125 0.828125l-1.796875 0l0.09375 0.59375l0 6.5000153q0 0.828125 -0.203125 0.96875q-0.1875 0.140625 -1.1875 0.140625zm3.09375 -9.57814q1.515625 0 1.9375 -0.265625q0.421875 -0.28125 0.578125 -0.46875q0.171875 -0.203125 0.25 -0.671875q0.09375 -0.484375 0.09375 -0.8125q0.015625 -0.34375 0.015625 -1.078125q0 -0.75 -0.015625 -1.078125q0 -0.34375 -0.09375 -0.828125q-0.078125 -0.484375 -0.25 -0.671875q-0.15625 -0.1875 -0.46875 -0.40625q-0.53125 -0.34375 -2.046875 -0.34375l-1.796875 0l0.09375 0.609375l0 5.421875l-0.09375 0.59375l1.796875 0zm7.4378357 8.468765l0 -11.781265q1.0625 0 1.234375 0.09375q0.1875 0.078125 0.1875 0.625l0 0.265625l1.921875 -1.15625q0.40625 0 1.1875 0.171875q0 0.84375 -0.15625 0.984375q-0.15625 0.125 -1.03125 0.125l-2.046875 1.125l0.125 0.59375l0 10.062515q-1.0625 0 -1.25 -0.140625q-0.171875 -0.140625 -0.171875 -0.96875zm11.221603 1.0q-0.328125 0.109375 -0.75 0.1875q-0.40625 0.09375 -1.0 0.09375q-0.59375 0 -1.0625 -0.078125q-0.46875 -0.0625 -0.8125 -0.296875q-0.34375 -0.25 -0.578125 -0.453125q-0.21875 -0.203125 -0.375 -0.734375q-0.15625 -0.53125 -0.25 -0.890625q-0.078125 -0.359375 -0.125 -1.1875153q-0.03125 -0.828125 -0.046875 -1.359375q0 -0.53125 0 -1.671875q0 -1.15625 0 -1.671875q0.015625 -0.515625 0.046875 -1.34375q0.046875 -0.828125 0.125 -1.171875q0.09375 -0.359375 0.25 -0.875q0.15625 -0.515625 0.375 -0.703125q0.234375 -0.1875 0.59375 -0.40625q0.546875 -0.390625 1.5 -0.390625q0.953125 0 1.359375 0.09375q0.421875 0.078125 0.75 0.171875q0.34375 0.09375 0.578125 0.40625q0.25 0.296875 0.421875 0.5q0.171875 0.203125 0.265625 0.71875q0.09375 0.515625 0.15625 0.84375q0.0625 0.3125 0.09375 1.09375q0.03125 0.765625 0.03125 1.25l0 1.484375q0 0 0 0.09375q0 0 0 1.46875q0 1.625 -0.09375 2.1406403q-0.09375 0.515625 -0.1875 1.046875q-0.09375 0.53125 -0.265625 0.734375q-0.171875 0.203125 -0.421875 0.5q-0.234375 0.296875 -0.578125 0.40625zm0.140625 -5.8437653l0 -0.8125q0 -3.140625 -0.265625 -3.96875q-0.390625 -1.03125 -1.59375 -1.046875q-0.984375 0 -1.3125 0.5q-0.203125 0.34375 -0.328125 0.625q-0.109375 0.28125 -0.15625 1.015625q-0.078125 1.046875 -0.078125 2.03125q0 0.984375 0 1.984375q0 1.0 0.015625 1.71875q0.03125 0.71875 0.21875 1.5312653q0.1875 0.796875 0.5625 1.03125q0.390625 0.234375 0.953125 0.234375q0.578125 0 0.890625 -0.09375q0.3125 -0.109375 0.515625 -0.40625q0.203125 -0.3125 0.3125 -0.609375q0.109375 -0.296875 0.15625 -0.95314026q0.109375 -0.9375 0.109375 -2.78125zm3.8353424 -0.484375l0 -1.53125q0 -1.75 0.078125 -2.203125q0.09375 -0.453125 0.1875 -0.984375q0.109375 -0.53125 0.265625 -0.734375q0.15625 -0.203125 0.390625 -0.484375q0.234375 -0.296875 0.5625 -0.390625q0.8125 -0.296875 1.65625 -0.296875l2.0 0.3125q0 1.0625 -0.875 1.0625q-0.171875 0 -0.328125 -0.03125l-0.796875 -0.0625q-1.21875 0 -1.484375 1.015625q-0.265625 1.015625 -0.265625 3.515625q0 2.5 0.015625 3.25q0.03125 0.734375 0.1875 1.5625153q0.171875 0.828125 0.53125 1.078125q0.375 0.25 1.015625 0.25l2.09375 -0.234375l0 1.109375l-2.09375 0.40625q-1.296875 0 -1.734375 -0.3125q-0.421875 -0.3125 -0.640625 -0.515625q-0.21875 -0.203125 -0.375 -0.734375q-0.15625 -0.53125 -0.234375 -0.890625q-0.0625 -0.359375 -0.109375 -1.1718903q-0.046875 -1.390625 -0.046875 -2.984375zm13.652603 6.2031403q-1.84375 0.40625 -2.578125 0.40625q-0.734375 0 -1.140625 -0.046875q-0.390625 -0.03125 -0.71875 -0.1875q-0.3125 -0.15625 -0.5625 -0.265625q-0.234375 -0.109375 -0.421875 -0.421875q-0.1875 -0.328125 -0.3125 -0.53125q-0.125 -0.203125 -0.203125 -0.703125q-0.0625 -0.515625 -0.109375 -0.828125q-0.046875 -0.31251526 -0.078125 -1.0156403q-0.015625 -0.703125 -0.015625 -1.140625l0 -2.71875q0 -1.578125 0.0625 -2.046875q0.078125 -0.46875 0.140625 -0.984375q0.078125 -0.53125 0.203125 -0.765625q0.125 -0.234375 0.3125 -0.5625q0.1875 -0.34375 0.421875 -0.46875q0.25 -0.125 0.5625 -0.28125q0.328125 -0.15625 0.71875 -0.203125q0.40625 -0.0625 0.90625 -0.0625q0.515625 0 0.921875 0.078125q0.40625 0.078125 0.671875 0.296875q0.28125 0.203125 0.484375 0.40625q0.203125 0.1875 0.328125 0.625q0.140625 0.421875 0.203125 0.734375q0.078125 0.296875 0.109375 0.9375q0.046875 0.625 0.046875 1.015625l0 1.234375l0.09375 1.296875l-4.890625 0.125l0.09375 0.59375q0 3.0781403 0.234375 3.5625153q0.390625 0.78125 0.890625 0.90625q0.34375 0.09375 1.3125 0.09375q0.96875 0 2.3125 -0.3125l0 1.234375zm-4.609375 -9.26564q0 0.421875 0 1.296875l-0.09375 0.59375l3.40625 0l-0.125 -0.625q0 -1.921875 -0.265625 -2.734375q-0.25 -0.8125 -1.1875 -0.8125q-0.921875 0 -1.3125 0.5q-0.375 0.484375 -0.421875 1.78125zm11.75322 8.875015q-0.28125 0.359375 -0.765625 0.546875q-0.46875 0.171875 -1.171875 0.171875q-0.6875 0 -2.859375 -0.359375l0 -1.265625q0.09375 0 1.203125 0.125q1.125 0.109375 1.6875 0.109375q1.34375 0 1.34375 -2.5000153q0 -0.15625 0 -0.328125q-0.03125 -0.765625 -1.5 -1.875q-1.453125 -1.125 -2.15625 -1.96875q-0.6875 -0.84375 -0.6875 -1.703125q0 -0.859375 0.015625 -1.1875q0.03125 -0.34375 0.171875 -0.84375q0.140625 -0.515625 0.4375 -0.734375q0.734375 -0.59375 2.25 -0.59375l2.28125 0.328125q0 1.0625 -0.859375 1.0625q-0.171875 0 -0.34375 -0.015625l-0.984375 -0.15625q-1.171875 0 -1.4375 0.53125q-0.21875 0.453125 -0.21875 1.328125q0 0.875 1.875 2.375q0.859375 0.640625 1.296875 1.03125q0.453125 0.375 0.875 1.0q0.421875 0.625 0.421875 1.21875q0 0.578125 -0.03125 1.0q-0.015625 0.42189026 -0.109375 1.0000153q-0.078125 0.578125 -0.265625 0.96875q-0.171875 0.375 -0.46875 0.734375zm8.015976 0q-0.28125 0.359375 -0.765625 0.546875q-0.46875 0.171875 -1.171875 0.171875q-0.6875 0 -2.859375 -0.359375l0 -1.265625q0.09375 0 1.203125 0.125q1.125 0.109375 1.6875 0.109375q1.34375 0 1.34375 -2.5000153q0 -0.15625 0 -0.328125q-0.03125 -0.765625 -1.5 -1.875q-1.453125 -1.125 -2.15625 -1.96875q-0.6875 -0.84375 -0.6875 -1.703125q0 -0.859375 0.015625 -1.1875q0.03125 -0.34375 0.171875 -0.84375q0.140625 -0.515625 0.4375 -0.734375q0.734375 -0.59375 2.25 -0.59375l2.28125 0.328125q0 1.0625 -0.859375 1.0625q-0.171875 0 -0.34375 -0.015625l-0.984375 -0.15625q-1.171875 0 -1.4375 0.53125q-0.21875 0.453125 -0.21875 1.328125q0 0.875 1.875 2.375q0.859375 0.640625 1.296875 1.03125q0.453125 0.375 0.875 1.0q0.421875 0.625 0.421875 1.21875q0 0.578125 -0.03125 1.0q-0.015625 0.42189026 -0.109375 1.0000153q-0.078125 0.578125 -0.265625 0.96875q-0.171875 0.375 -0.46875 0.734375zm2.265976 3.265625q0 -0.84375 0.15625 -0.984375q0.15625 -0.140625 1.046875 -0.140625q1.265625 0 1.5625 -1.875q0.3125 -1.890625 0.3125 -7.4687653q0 -5.59375 -0.25 -7.140625q-0.453125 -2.328125 -1.625 -2.4375q-0.890625 0 -1.046875 -0.140625q-0.15625 -0.140625 -0.15625 -0.984375q1.125 0 1.90625 0.25q0.796875 0.234375 1.296875 0.96875q0.515625 0.734375 0.78125 1.390625q0.28125 0.640625 0.40625 2.140625q0.1875 2.09375 0.1875 4.90625q0 2.796875 -0.015625 3.609375q0 0.796875 -0.046875 2.09375q-0.046875 1.2968903 -0.171875 1.8593903q-0.125 0.5625 -0.34375 1.40625q-0.203125 0.84375 -0.53125 1.171875q-0.328125 0.34375 -0.828125 0.734375q-0.484375 0.40625 -1.140625 0.515625q-0.640625 0.125 -1.5 0.125z" fill-rule="nonzero"/><path fill="#000000" fill-opacity="0.0" d="m287.0315 302.64566l378.86615 0l0 -13.165344l26.330688 26.330719l-26.330688 26.330688l0 -13.165344l-378.86615 0z" fill-rule="evenodd"/><path stroke="#595959" stroke-width="1.0" stroke-linejoin="round" stroke-linecap="butt" d="m287.0315 302.64566l378.86615 0l0 -13.165344l26.330688 26.330719l-26.330688 26.330688l0 -13.165344l-378.86615 0z" fill-rule="evenodd"/><path fill="#000000" d="m297.469 322.73102l0 -13.359375l4.609375 0q1.546875 0 2.375 0.203125q1.140625 0.25 1.953125 0.953125q1.0625 0.890625 1.578125 2.28125q0.53125 1.390625 0.53125 3.171875q0 1.515625 -0.359375 2.703125q-0.359375 1.171875 -0.921875 1.9375q-0.546875 0.765625 -1.203125 1.21875q-0.65625 0.4375 -1.59375 0.671875q-0.9375 0.21875 -2.140625 0.21875l-4.828125 0zm1.765625 -1.578125l2.859375 0q1.3125 0 2.0625 -0.234375q0.75 -0.25 1.203125 -0.703125q0.625 -0.625 0.96875 -1.6875q0.359375 -1.0625 0.359375 -2.578125q0 -2.09375 -0.6875 -3.21875q-0.6875 -1.125 -1.671875 -1.5q-0.703125 -0.28125 -2.28125 -0.28125l-2.8125 0l0 10.203125zm18.129211 -1.53125l1.6875 0.203125q-0.40625 1.484375 -1.484375 2.3125q-1.078125 0.8125 -2.765625 0.8125q-2.125 0 -3.375 -1.296875q-1.234375 -1.3125 -1.234375 -3.671875q0 -2.453125 1.25 -3.796875q1.265625 -1.34375 3.265625 -1.34375q1.9375 0 3.15625 1.328125q1.234375 1.3125 1.234375 3.703125q0 0.15625 0 0.4375l-7.21875 0q0.09375 1.59375 0.90625 2.453125q0.8125 0.84375 2.015625 0.84375q0.90625 0 1.546875 -0.46875q0.640625 -0.484375 1.015625 -1.515625zm-5.390625 -2.65625l5.40625 0q-0.109375 -1.21875 -0.625 -1.828125q-0.78125 -0.953125 -2.03125 -0.953125q-1.125 0 -1.90625 0.765625q-0.765625 0.75 -0.84375 2.015625zm8.485077 2.875l1.625 -0.25q0.125 0.96875 0.75 1.5q0.625 0.515625 1.75 0.515625q1.125 0 1.671875 -0.453125q0.546875 -0.46875 0.546875 -1.09375q0 -0.546875 -0.484375 -0.875q-0.328125 -0.21875 -1.671875 -0.546875q-1.8125 -0.46875 -2.515625 -0.796875q-0.6875 -0.328125 -1.046875 -0.90625q-0.359375 -0.59375 -0.359375 -1.3125q0 -0.640625 0.296875 -1.1875q0.296875 -0.5625 0.8125 -0.921875q0.375 -0.28125 1.03125 -0.46875q0.671875 -0.203125 1.421875 -0.203125q1.140625 0 2.0 0.328125q0.859375 0.328125 1.265625 0.890625q0.421875 0.5625 0.578125 1.5l-1.609375 0.21875q-0.109375 -0.75 -0.640625 -1.171875q-0.515625 -0.421875 -1.46875 -0.421875q-1.140625 0 -1.625 0.375q-0.46875 0.375 -0.46875 0.875q0 0.3125 0.1875 0.578125q0.203125 0.265625 0.640625 0.4375q0.234375 0.09375 1.4375 0.421875q1.75 0.453125 2.4375 0.75q0.6875 0.296875 1.078125 0.859375q0.390625 0.5625 0.390625 1.40625q0 0.828125 -0.484375 1.546875q-0.46875 0.71875 -1.375 1.125q-0.90625 0.390625 -2.046875 0.390625q-1.875 0 -2.875 -0.78125q-0.984375 -0.78125 -1.25 -2.328125zm13.5625 1.421875l0.234375 1.453125q-0.6875 0.140625 -1.234375 0.140625q-0.890625 0 -1.390625 -0.28125q-0.484375 -0.28125 -0.6875 -0.734375q-0.203125 -0.46875 -0.203125 -1.9375l0 -5.578125l-1.203125 0l0 -1.265625l1.203125 0l0 -2.390625l1.625 -0.984375l0 3.375l1.65625 0l0 1.265625l-1.65625 0l0 5.671875q0 0.6875 0.078125 0.890625q0.09375 0.203125 0.28125 0.328125q0.203125 0.109375 0.578125 0.109375q0.265625 0 0.71875 -0.0625zm1.5895691 1.46875l0 -9.671875l1.46875 0l0 1.46875q0.5625 -1.03125 1.03125 -1.359375q0.484375 -0.328125 1.0625 -0.328125q0.828125 0 1.6875 0.53125l-0.5625 1.515625q-0.609375 -0.359375 -1.203125 -0.359375q-0.546875 0 -0.96875 0.328125q-0.421875 0.328125 -0.609375 0.890625q-0.28125 0.875 -0.28125 1.921875l0 5.0625l-1.625 0zm5.618927 -4.84375q0 -2.6875 1.484375 -3.96875q1.25 -1.078125 3.046875 -1.078125q2.0 0 3.265625 1.3125q1.265625 1.296875 1.265625 3.609375q0 1.859375 -0.5625 2.9375q-0.5625 1.0625 -1.640625 1.65625q-1.0625 0.59375 -2.328125 0.59375q-2.03125 0 -3.28125 -1.296875q-1.25 -1.3125 -1.25 -3.765625zm1.6875 0q0 1.859375 0.796875 2.796875q0.8125 0.921875 2.046875 0.921875q1.21875 0 2.03125 -0.921875q0.8125 -0.9375 0.8125 -2.84375q0 -1.796875 -0.8125 -2.71875q-0.8125 -0.921875 -2.03125 -0.921875q-1.234375 0 -2.046875 0.921875q-0.796875 0.90625 -0.796875 2.765625zm9.219452 8.5625l-0.1875 -1.53125q0.546875 0.140625 0.9375 0.140625q0.546875 0 0.875 -0.1875q0.328125 -0.171875 0.546875 -0.5q0.15625 -0.25 0.5 -1.21875q0.046875 -0.140625 0.140625 -0.40625l-3.671875 -9.6875l1.765625 0l2.015625 5.59375q0.390625 1.078125 0.703125 2.25q0.28125 -1.125 0.671875 -2.203125l2.078125 -5.640625l1.640625 0l-3.6875 9.828125q-0.59375 1.609375 -0.921875 2.203125q-0.4375 0.8125 -1.0 1.1875q-0.5625 0.375 -1.34375 0.375q-0.484375 0 -1.0625 -0.203125z" fill-rule="nonzero"/><path fill="#000000" fill-opacity="0.0" d="m287.03018 223.25197l378.86612 0l0 -13.1653595l26.33075 26.330719l-26.33075 26.330688l0 -13.165344l-378.86612 0z" fill-rule="evenodd"/><path stroke="#595959" stroke-width="1.0" stroke-linejoin="round" stroke-linecap="butt" d="m287.03018 223.25197l378.86612 0l0 -13.1653595l26.33075 26.330719l-26.33075 26.330688l0 -13.165344l-378.86612 0z" fill-rule="evenodd"/><path fill="#000000" d="m296.87393 237.04045l1.65625 -0.140625q0.125 1.0 0.546875 1.640625q0.4375 0.640625 1.34375 1.046875q0.921875 0.390625 2.0625 0.390625q1.0 0 1.78125 -0.296875q0.78125 -0.296875 1.15625 -0.8125q0.375 -0.53125 0.375 -1.15625q0 -0.625 -0.375 -1.09375q-0.359375 -0.46875 -1.1875 -0.796875q-0.546875 -0.203125 -2.390625 -0.640625q-1.828125 -0.453125 -2.5625 -0.84375q-0.96875 -0.5 -1.4375 -1.234375q-0.46875 -0.75 -0.46875 -1.671875q0 -1.0 0.578125 -1.875q0.578125 -0.890625 1.671875 -1.34375q1.109375 -0.453125 2.453125 -0.453125q1.484375 0 2.609375 0.484375q1.140625 0.46875 1.75 1.40625q0.609375 0.921875 0.65625 2.09375l-1.6875 0.125q-0.140625 -1.265625 -0.9375 -1.90625q-0.78125 -0.65625 -2.3125 -0.65625q-1.609375 0 -2.34375 0.59375q-0.734375 0.59375 -0.734375 1.421875q0 0.71875 0.53125 1.171875q0.5 0.46875 2.65625 0.96875q2.15625 0.484375 2.953125 0.84375q1.171875 0.53125 1.71875 1.359375q0.5625 0.828125 0.5625 1.90625q0 1.0625 -0.609375 2.015625q-0.609375 0.9375 -1.75 1.46875q-1.140625 0.515625 -2.578125 0.515625q-1.8125 0 -3.046875 -0.53125q-1.21875 -0.53125 -1.921875 -1.59375q-0.6875 -1.0625 -0.71875 -2.40625zm16.412323 2.828125l0.234375 1.453125q-0.6875 0.140625 -1.234375 0.140625q-0.890625 0 -1.390625 -0.28125q-0.484375 -0.28125 -0.6875 -0.734375q-0.203125 -0.46875 -0.203125 -1.9375l0 -5.578125l-1.203125 0l0 -1.265625l1.203125 0l0 -2.390625l1.625 -0.984375l0 3.375l1.65625 0l0 1.265625l-1.65625 0l0 5.671875q0 0.6875 0.078125 0.890625q0.09375 0.203125 0.28125 0.328125q0.203125 0.109375 0.578125 0.109375q0.265625 0 0.71875 -0.0625zm0.9958191 -3.375q0 -2.6875 1.484375 -3.96875q1.25 -1.078125 3.046875 -1.078125q2.0 0 3.265625 1.3125q1.265625 1.296875 1.265625 3.609375q0 1.859375 -0.5625 2.9375q-0.5625 1.0625 -1.640625 1.65625q-1.0625 0.59375 -2.328125 0.59375q-2.03125 0 -3.28125 -1.296875q-1.25 -1.3125 -1.25 -3.765625zm1.6875 0q0 1.859375 0.796875 2.796875q0.8125 0.921875 2.046875 0.921875q1.21875 0 2.03125 -0.921875q0.8125 -0.9375 0.8125 -2.84375q0 -1.796875 -0.8125 -2.71875q-0.8125 -0.921875 -2.03125 -0.921875q-1.234375 0 -2.046875 0.921875q-0.796875 0.90625 -0.796875 2.765625zm9.297577 8.546875l0 -13.375l1.484375 0l0 1.25q0.53125 -0.734375 1.1875 -1.09375q0.671875 -0.375 1.625 -0.375q1.234375 0 2.171875 0.640625q0.953125 0.625 1.4375 1.796875q0.484375 1.15625 0.484375 2.546875q0 1.484375 -0.53125 2.671875q-0.53125 1.1875 -1.546875 1.828125q-1.015625 0.625 -2.140625 0.625q-0.8125 0 -1.46875 -0.34375q-0.65625 -0.34375 -1.0625 -0.875l0 4.703125l-1.640625 0zm1.484375 -8.484375q0 1.859375 0.75 2.765625q0.765625 0.890625 1.828125 0.890625q1.09375 0 1.875 -0.921875q0.78125 -0.9375 0.78125 -2.875q0 -1.84375 -0.765625 -2.765625q-0.75 -0.921875 -1.8125 -0.921875q-1.046875 0 -1.859375 0.984375q-0.796875 0.96875 -0.796875 2.84375z" fill-rule="nonzero"/></g></svg>