<svg width="160" height="160" viewBox="0 0 160 160" fill="none" xmlns="http://www.w3.org/2000/svg">
<g clip-path="url(#clip0_2699_97)">
<path d="M80 160C115.061 160 134.541 160 147.277 147.278C160 134.556 160 115.064 160 80.0063C160 44.9485 160 25.4691 147.277 12.7346C134.554 0 115.061 0 80 0C44.9394 0 25.4585 0 12.723 12.722C0 25.4565 0 44.9485 0 79.9937C0 115.039 0 134.531 12.723 147.265C25.4585 160 44.952 160 80 160Z" fill="#EF3939" style="fill:#EF3939;fill:color(display-p3 0.9373 0.2235 0.2235);fill-opacity:1;"/>
<path d="M132.062 50.4097C124.398 36.9705 111.575 26.4758 95.4413 22.1596C63.4262 13.5902 30.505 32.5788 21.9223 64.5662C17.6058 80.6732 20.2737 96.994 28.0762 110.345C28.1894 110.534 28.3027 110.735 28.4159 110.924L56.6053 159.799C61.2868 159.924 66.3332 159.975 71.7949 159.987C71.8075 159.987 71.8201 159.987 71.8326 159.987C72.3234 159.987 72.8268 159.987 73.3302 159.987C73.3428 159.987 73.368 159.987 73.3805 159.987C74.3873 159.987 75.3941 159.987 76.426 159.987C76.5141 159.987 76.6022 159.987 76.6903 159.987C77.697 159.987 78.7038 159.987 79.7357 159.987C95.328 159.987 107.837 159.987 118.056 158.867C130.804 157.471 139.965 154.325 147.038 147.265C157.357 136.947 159.308 122.199 159.685 98.3279C143.212 69.7381 132.087 50.46 132.062 50.4097Z" fill="url(#paint0_linear_2699_97)" style=""/>
<path d="M122.133 37.6626C98.7384 14.2446 60.8086 14.2446 37.4013 37.6626C14.0066 61.0806 14.0066 99.0326 37.4013 122.451C60.796 145.869 98.7258 145.869 122.133 122.451C145.528 99.0452 145.528 61.0806 122.133 37.6626ZM118.546 65.2457C108.668 82.4349 98.7762 99.624 88.9099 116.826C87.0725 120.022 84.4172 121.96 80.7551 122.224C76.6651 122.526 73.4435 120.79 71.3796 117.241C65.1251 106.457 58.9461 95.635 52.7293 84.8383C48.9539 78.2697 45.166 71.7011 41.4032 65.1199C37.6152 58.4884 41.894 50.4097 49.4951 50.0196C53.5095 49.8183 56.6179 51.6681 58.6566 55.1663C61.4504 59.9481 64.1812 64.755 66.9372 69.5493C68.9256 73.0098 70.8762 76.4829 72.9275 79.9056C75.8849 84.8635 80.2391 87.6696 86.0406 88.0094C94.2457 88.5002 101.859 82.5481 102.841 73.8151C102.916 73.1608 102.967 72.5064 102.992 72.1793C102.942 69.348 102.426 66.9697 101.293 64.7172C98.235 58.5764 101.494 51.6807 108.152 50.2084C113.576 49.0129 119.188 53.0019 119.906 58.5135C120.233 60.9422 119.755 63.1694 118.546 65.2457Z" fill="white" style="fill:white;fill-opacity:1;"/>
</g>
<defs>
<linearGradient id="paint0_linear_2699_97" x1="49.899" y1="28.1499" x2="126.337" y2="160.555" gradientUnits="userSpaceOnUse">
<stop stop-opacity="0.2" style="stop-color:black;stop-opacity:0.2;"/>
<stop offset="0.7908" stop-opacity="0.05" style="stop-color:black;stop-opacity:0.05;"/>
</linearGradient>
<clipPath id="clip0_2699_97">
<rect width="160" height="160" fill="white" style="fill:white;fill-opacity:1;"/>
</clipPath>
</defs>
</svg>
