/* XPM */
static char *product_logo_32_xpm[] = {
/* columns rows colors chars-per-pixel */
"32 32 22 1",
"O c #D5433D",
": c #D8504B",
"* c #FCF2F2",
"  c #FFFFFF",
"; c #E89B98",
"1 c #F7D9D8",
"@ c #DD6864",
"X c #E07571",
"+ c #E3827E",
"2 c #E3827F",
"& c #EBA7A5",
"= c #EEB4B1",
"- c #E68E8B",
"o c #D23731",
"% c #D5443E",
". c #F9E6E5",
", c #F1C0BE",
"# c #F4CDCB",
"$ c #D74F4A",
"> c #DA5C57",
"< c #DD6965",
"3 c #E07672",
/* pixels */
"                                ",
"                                ",
" .XoO+.                  .XOOX. ",
".OooooO.                .OooooO.",
"Xoooooo@                Xoooooo+",
"oooooooo#               OooooooO",
"oooooooo$               %ooooooo",
"Xoooooooo&              XooooooX",
"#ooooooooO*             =oooooo#",
" +oooooooo-             #ooooo+ ",
" .%oooooooo.            #oooo%. ",
"  ;oooooooo@            &oooo;  ",
"  *:oooooooo#           >ooo:*  ",
"   ,oooooooo$*         ,oooo=   ",
"    <oooooooo+        1Oooo<    ",
"    1ooooooooo>#     &Ooooo1    ",
"     +oooooooooo>+;@Oooooo+     ",
"     *%oooooooooooooooooo%*     ",
"      ;oooooooooooooooooo;      ",
"       :oooooooooooooooo:       ",
"       ,oooooooooooooooo,       ",
"        <oooooooooooooo<        ",
"        1oooooooooooooo1        ",
"         +oooooooooooo+         ",
"         *%oooooooooo%*         ",
"          ;oooooooooo;          ",
"           :oooooooo:           ",
"           ,oooooooo,           ",
"            <oooooo<            ",
"            .%oooo%.            ",
"             .2o%31             ",
"                                "
};
