/* XPM */
static char *_59b965d33f64cb6a02826fa13728bbeYsnNITN7sVsrjgqS[] = {
/* columns rows colors chars-per-pixel */
"32 32 116 2 ",
"   c None",
".  c #21A669",
"X  c #21A66A",
"o  c #21A76A",
"O  c #20A86A",
"+  c #21A86A",
"@  c #20A86B",
"#  c #20A96B",
"$  c #20AA6B",
"%  c #20AB6C",
"&  c #20AC6C",
"*  c #20AC6D",
"=  c #20AD6D",
"-  c #20AE6D",
";  c #20AE6E",
":  c #20AF6E",
">  c #20B06E",
",  c #20B06F",
"<  c #20B16F",
"1  c #20B26F",
"2  c #2EAE74",
"3  c #20B270",
"4  c #20B370",
"5  c #20B471",
"6  c #20B571",
"7  c #20B672",
"8  c #20B772",
"9  c #20B773",
"0  c #2EB477",
"q  c #20B873",
"w  c #21B874",
"e  c #20B974",
"r  c #21BB75",
"t  c #21BC76",
"y  c #21BE77",
"u  c #2EB678",
"i  c #2EB779",
"p  c #21BF78",
"a  c #22BF78",
"s  c #2EB879",
"d  c #3CB67E",
"f  c #22C179",
"g  c #22C279",
"h  c #22C37A",
"j  c #3CB880",
"k  c #3CBA80",
"l  c #3CBC82",
"z  c #4BB786",
"x  c #4ABC88",
"c  c #59BC8F",
"v  c #4AC48D",
"b  c #58C091",
"n  c #58C292",
"m  c #58C493",
"M  c #58C996",
"N  c #58CA96",
"B  c #59CB98",
"V  c #59CD98",
"C  c #59CE98",
"Z  c #67C198",
"A  c #67C298",
"S  c #67C399",
"D  c #66C599",
"F  c #66C59A",
"G  c #66C69A",
"H  c #66C79B",
"J  c #66C99C",
"K  c #66CC9E",
"L  c #67CFA0",
"P  c #74CDA5",
"I  c #74CEA5",
"U  c #67D0A0",
"Y  c #67D1A1",
"T  c #75D3A9",
"R  c #75D5AA",
"E  c #90D2B4",
"W  c #90D4B5",
"Q  c #90D5B5",
"!  c #90D7B7",
"~  c #90DAB9",
"^  c #90DCB9",
"/  c #9EDBBF",
"(  c #9EDCBF",
")  c #9EDCC0",
"_  c #9EDDC0",
"`  c #9EDEC1",
"'  c #9EDFC1",
"]  c #ACDEC7",
"[  c #9EE0C2",
"{  c #ACE0C8",
"}  c #ACE0C9",
"|  c #ACE1C9",
" . c #ADE1C9",
".. c #ACE2C9",
"X. c #ADE2C9",
"o. c #ADE2CA",
"O. c #ACE3CA",
"+. c #ACE5CB",
"@. c #BBE6D2",
"#. c #BAE7D2",
"$. c #BAE7D3",
"%. c #C8E9DA",
"&. c #C8EADB",
"*. c #C8EBDB",
"=. c #C8ECDB",
"-. c #C8EDDC",
";. c #D6EEE3",
":. c #D6EFE4",
">. c #D6F0E4",
",. c #D6F1E5",
"<. c #E4F4ED",
"1. c #E4F5ED",
"2. c #E4F6EE",
"3. c #F2FAF6",
"4. c #F2FBF7",
"5. c white",
/* pixels */
"            h h h h h h h h h h h h h h h h h h h h             ",
"        h h h h h h h h h h h h h h h h h h h h h h h h         ",
"    h h h h h h h h h h h h h h h h h h h h h h h h h h h h     ",
"    h h h h h h h h h h h h h h h h h h h h h h h h h h h h     ",
"  h h h h h h h h h h L  .<.5.5.5.5.<. .V h h h h h h h h h h   ",
"  h h h h h h h h U <.5.5.5.5.5.5.5.5.5.5.>.V h h h h h h h h   ",
"h h h h h h h h  .5.5.5.5.5.5.5.5.5.5.5.5.5.5.` h h h h h h h h ",
"h h h h h h h  .5.5.5.5.5.5.5.5.5.5.5.5.5.5.5.5. .h h h h h h h ",
"h h h h h h  .5.5.5.5.5.5.5.5.5.5.5.5.5.5.5.5.5.5.~ h h h h h h ",
"h h h h h L 5.5.5.5.5.5.5.5.5.5.5.5.5.5.5.5.5.5.5.5.V h h h h h ",
"h h h h h <.5.5.;.c E 5.5.5.5.5.5.5.5.5.:.G G ;.5.5.*.h h h h h ",
"h h h h T 5.5.5.Z . . z 5.5.5.5.5.5.5.5.G $ * G 5.5.5.B h h h h ",
"h h h h @.5.5.5.Z . . @ ] 5.5.5.5.5.5.5.Z * * G 5.5.5.` h h h h ",
"h h h h 3.5.5.5.%.+ + . 2 3.5.5.5.5.5.5./ : * =.5.5.5.>.q h h h ",
"h h h h 5.5.5.5.5.Z + $ @ ! 5.5.5.5.5.5.%.: G 5.5.5.5.5.< a h h ",
"h h h V 5.5.5.5.5.<.$ $ @ @ <.5.5.5.5.5.( : <.5.5.5.5.5.< 8 h h ",
"h h h C 5.5.5.5.5.5.E % % * b 5.5.5.5.3.k ! 5.5.5.5.5.5.< < a h ",
"h h h h 5.5.5.5.5.5.3.d % * * x ] =.` 0 k 3.5.5.5.5.5.5.6 6 6 h ",
"h h h h 3.5.5.5.5.5.5.{ * * * > * > * > ..5.5.5.5.5.5.>.6 6 6 a ",
"h h h h @.5.5.5.5.5.5.5.m * > * > > > m 5.5.5.5.5.5.5.` 9 6 6 9 ",
"h h h h R 5.5.5.5.5.5.5.*.* * > > < > =.5.5.5.5.5.5.5.v 6 9 q q ",
"h h h h h 2.5.5.5.5.5.5.5.I > < < < I 5.5.5.5.5.5.5.=.q q q q q ",
"h h h h h U 5.5.5.5.5.5.5.2.i > < i 2.5.5.5.5.5.5.5.B q q q q q ",
"h h h h h h ..5.5.5.5.5.5.5.@.l s $.5.5.5.5.5.5.5.^ q q q q q y ",
"h h h h h h a  .5.5.5.5.5.5.5.5.3.5.5.5.5.5.5.5.+.q q y q t q q ",
"h h h h h h h e  .5.5.5.5.5.5.5.5.5.5.5.5.5.5.' q q q q q q q y ",
"  h h h h h h h 5 G <.5.5.5.5.5.5.5.5.5.5.-.M e q t q t t q q   ",
"  h h h h h h h e 5 5 K  .2.5.5.5.5.,.+.M e e e q q q q 9 q t   ",
"    h h h h h h h 8 5 5 5 8 8 8 8 q q e q t e e t q q 9 q q     ",
"    h h h h h h h y 5 8 8 8 9 q q e e e 9 t e e 9 9 t t t 9     ",
"        h h h h h h e 8 9 9 q q e e e e 9 q t q q t r q         ",
"            h h h h h e 9 9 e e e e e e t q 9 9 9 t             "
};
