/* XPM */
static char *_fc04d565215473ad5885f9ba54cefb8DYTPL7iVv9bWCVtf[] = {
/* columns rows colors chars-per-pixel */
"32 32 41 1 ",
"  c None",
". c gray20",
"X c #343333",
"o c #343434",
"O c #353434",
"+ c #353435",
"@ c #353535",
"# c gray21",
"$ c #373737",
"% c gray22",
"& c gray25",
"* c #414041",
"= c #414141",
"- c gray30",
"; c gray35",
": c #5A5A5A",
"> c gray40",
", c #676666",
"< c #686868",
"1 c DimGray",
"2 c gray45",
"3 c #747474",
"4 c #767575",
"5 c #767676",
"6 c #808080",
"7 c gray51",
"8 c gray60",
"9 c #9A9A9A",
"0 c gray65",
"q c #A7A6A6",
"w c #A7A7A7",
"e c gray70",
"r c #B4B4B4",
"t c #C0C0C0",
"y c #CDCDCD",
"u c gray85",
"i c #DAD9D9",
"p c #DADADA",
"a c #E6E6E6",
"s c #F3F3F3",
"d c white",
/* pixels */
"      %%%%%%%%%%%%%%%%%%%%      ",
"    %%%%%%%%%%%%%%%%%%%%%%%%    ",
"  %%%%%%%%%%%%%%%%%%%%%%%%%%%%  ",
"  %%%%%%%%%%%%%%%%%%%%%%%%%%%%  ",
" %%%%%%%%%%4raddddar1%%%%%%%%%% ",
" %%%%%%%%4addddddddddu1%%%%%%%% ",
"%%%%%%%%rddddddddddddddw%%%%%%%%",
"%%%%%%%rddddddddddddddddr%%%%%%%",
"%%%%%%rdddddddddddddddddd8%%%%%%",
"%%%%%4dddddddddddddddddddd1%%%%%",
"%%%%%addu>8dddddddddu22uddy$%%%%",
"%%%%7ddd2..;dddddddd2..2ddd1%%%%",
"%%%%tddd2...eddddddd2..2dddw%$%%",
"%%%%sdddy...&sddddddw..ydddu$$%%",
"%%%%ddddd2...8ddddddy.2ddddd.$%%",
"%%%1ddddda....adddddw.addddd.$%%",
"%%%1dddddd8...>dddds-8dddddd$.$%",
"%%%%dddddds-...;eyw%-sdddddd..$%",
"%%%%sdddddde......$Xeddddddu...$",
"%%%%tddddddd>....XX>dddddddw.$X.",
"%%%%7dddddddy....X.yddddddd;$.$.",
"%%%%%addddddd6.XXX7dddddddy.X$.$",
"%%%%%4ddddddda&.$=addddddd>$.$$.",
"%%%%%$edddddddt-%tddddddd8$.$.$$",
"%%%%%%$eddddddddsdddddddr$$.$.$.",
"%%%%%%$$eddddddddddddddw.$.$.$.$",
" %%%%%$%.2addddddddddy>$$.$.$.$ ",
" %%%%%%%$$.2eaddddar>.$..$.$.$$ ",
"  %%%%%%%$.....$$$.$.$.$.$.$$.  ",
"  %%%%%%%$.$$.$.$.$.$.$.$.$..$  ",
"    %%%%%%$X.$.$.$.$.$.$.$$$    ",
"      %%%$$.$.$.$.$.$.$..$      "
};
