<svg width="130" height="40" xmlns="http://www.w3.org/2000/svg"><g fill="#000" fill-rule="evenodd"><path d="M39.972 16.969c-4.685 0-8.62-3.81-8.62-8.485C31.352 3.81 35.287 0 39.972 0c2.593 0 4.438 1.012 5.826 2.342l-1.635 1.631c-.995-.93-2.346-1.658-4.191-1.658-3.424 0-6.1 2.752-6.1 6.17 0 3.416 2.676 6.169 6.1 6.169 2.219 0 3.48-.894 4.292-1.695.667-.665 1.096-1.613 1.26-2.916h-5.552V7.719h7.817c.082.41.128.911.128 1.449 0 1.74-.475 3.891-2.01 5.422-1.497 1.55-3.396 2.379-5.935 2.379zm17.79-5.367c0-1.983-1.41-3.333-3.038-3.333-1.63 0-3.039 1.359-3.039 3.333 0 1.956 1.41 3.333 3.039 3.333 1.629 0 3.038-1.368 3.038-3.333zm2.37 0c0 3.168-2.425 5.5-5.408 5.5-2.984 0-5.41-2.332-5.41-5.5 0-3.186 2.426-5.5 5.41-5.5 2.983 0 5.409 2.314 5.409 5.5zm9.683 0c0-1.983-1.41-3.333-3.039-3.333-1.63 0-3.039 1.359-3.039 3.333 0 1.956 1.41 3.333 3.039 3.333 1.63.01 3.039-1.368 3.039-3.333zm2.361 0c0 3.168-2.425 5.5-5.41 5.5-2.974 0-5.408-2.332-5.408-5.5 0-3.186 2.425-5.5 5.409-5.5s5.41 2.314 5.41 5.5zm9.533.016c0-1.93-1.277-3.348-2.9-3.348-1.648 0-3.025 1.409-3.025 3.348 0 1.912 1.377 3.302 3.026 3.302 1.622 0 2.899-1.39 2.899-3.302zm2.102-5.178v9.843c0 4.052-2.365 5.708-5.164 5.708-2.637 0-4.212-1.784-4.81-3.238l2.074-.87c.372.898 1.278 1.949 2.736 1.949 1.795 0 2.899-1.125 2.899-3.22v-.786h-.082c-.533.668-1.567 1.244-2.863 1.244-2.718 0-5.2-2.388-5.2-5.461 0-3.092 2.491-5.507 5.2-5.507 1.296 0 2.33.585 2.863 1.226h.082V6.44h2.265zm2.041 10.254V.602h2.45v16.092h-2.45zm5.98-5.267L96.72 9.39c-.273-.689-1.075-1.166-2.033-1.166-1.222 0-2.917 1.083-2.855 3.204zm5.736 1.984l1.86 1.249c-.602.9-2.052 2.442-4.56 2.442-3.108 0-5.342-2.415-5.342-5.5 0-3.269 2.26-5.5 5.078-5.5 2.836 0 4.222 2.268 4.678 3.498l.246.625-7.303 3.048c.556 1.102 1.431 1.671 2.653 1.671 1.223 0 2.07-.615 2.69-1.533z"/><rect y="30" width="130" height="10" rx="5"/></g></svg>