<svg width="200" height="200" viewBox="0 0 200 200" xmlns="http://www.w3.org/2000/svg"><g fill="none" fill-rule="evenodd"><path d="M0 0h200v200H0z"/><path d="M150.441 100.728c0 26.949-21.772 48.794-48.63 48.794-26.858 0-48.63-21.845-48.63-48.794 0-26.95 21.772-48.795 48.63-48.795 26.858 0 48.63 21.845 48.63 48.795" fill="#D2E3FC"/><path d="M176.711 53.44l-12.39-3.317a1.021 1.021 0 0 1-.722-1.25l3.32-12.383a1.022 1.022 0 0 1 1.252-.722l12.39 3.317c.544.146.868.707.722 1.251l-3.32 12.383a1.022 1.022 0 0 1-1.252.722" fill="#34A853"/><path d="M31.832 148.371l-9.514 5.538c-3.553 2.068-4.77 6.644-2.72 10.223 2.053 3.584 6.603 4.813 10.161 2.742l9.514-5.538c3.48-2.026 4.718-6.454 2.844-9.998l-.124-.225c-2.053-3.584-6.603-4.813-10.161-2.742zm8.425 3.736c1.505 2.627.612 5.986-1.99 7.5l-9.514 5.539c-2.597 1.511-5.918.614-7.42-2.008-1.504-2.627-.61-5.986 1.991-7.5l9.514-5.539c2.529-1.471 5.743-.66 7.297 1.804l.122.204z" fill="#EA4335" fill-rule="nonzero"/><path d="M26.693 54.6l-5.899-5.896a2.743 2.743 0 0 1-.711-2.653l2.159-8.054a2.745 2.745 0 0 1 1.943-1.941l8.058-2.158a2.75 2.75 0 0 1 2.655.71l5.9 5.896c.693.694.965 1.705.71 2.653L39.35 51.21a2.746 2.746 0 0 1-1.943 1.942l-8.058 2.158a2.751 2.751 0 0 1-2.655-.71" fill="#FBBC05"/><path d="M26.536 141.312l-5.553-4.145a.552.552 0 0 1-.113-.773l4.149-5.55a.552.552 0 0 1 .773-.112l5.554 4.145a.552.552 0 0 1 .112.773l-4.149 5.55a.552.552 0 0 1-.773.112" fill="#F882FF"/><path d="M102.004 29.332c-39.453 0-71.437 31.965-71.437 71.396 0 39.43 31.984 71.395 71.437 71.395 39.453 0 71.437-31.965 71.437-71.395 0-39.431-31.983-71.396-71.437-71.396zm0 2c38.35 0 69.437 31.07 69.437 69.396s-31.088 69.395-69.437 69.395-69.437-31.07-69.437-69.395c0-38.326 31.088-69.396 69.437-69.396z" fill="#4285F4" fill-rule="nonzero"/><path d="M104.18 73.085a8.864 8.864 0 0 0-4.738 0l-19.099 7.12c-1.232.342-2.075 1.387-2.075 2.572v14.13c0 11.668 5.686 22.805 15.688 29.978 3.332 2.39 6.297 3.737 7.855 3.737 1.558 0 4.523-1.348 7.855-3.737 10.003-7.173 15.688-18.31 15.688-29.977V82.777c0-1.185-.842-2.23-2.075-2.573l-19.099-7.12z" fill="#4285F4"/><path d="M101.768 94.59c-3.19 0-5.789 2.668-5.789 5.945 0 3.276 2.599 5.945 5.79 5.945 3.19 0 5.789-2.669 5.789-5.945 0-3.277-2.6-5.945-5.79-5.945zm-.193 9.115c-1.81 0-3.28-1.51-3.28-3.368 0-1.86 1.47-3.37 3.28-3.37 1.81 0 3.281 1.51 3.281 3.37 0 1.859-1.47 3.368-3.28 3.368zm.193-12.682c-6.14 0-11.384 3.944-13.508 9.512 2.124 5.567 7.368 9.512 13.508 9.512 6.14 0 11.384-3.945 13.509-9.512-2.125-5.568-7.368-9.512-13.509-9.512zm-.193 16.646c-4.726 0-8.942-2.763-11-7.134 2.058-4.371 6.274-7.134 11-7.134 4.727 0 8.942 2.763 11 7.134-2.058 4.37-6.273 7.134-11 7.134z" fill="#FFF" fill-rule="nonzero"/></g></svg>