<svg width="256" height="256" viewBox="0 0 256 256" fill="none" xmlns="http://www.w3.org/2000/svg">
<g clip-path="url(#clip0_2697_45)">
<path d="M128 256C184.097 256 215.266 256 235.643 235.645C256 215.29 256 184.103 256 128.01C256 71.9176 256 40.7506 235.643 20.3753C215.286 0 184.097 0 128 0C71.9031 0 40.7337 0 20.3568 20.3552C0 40.7305 0 71.9176 0 127.99C0 184.062 0 215.249 20.3568 235.625C40.7337 256 71.9232 256 128 256Z" fill="#EF3939" style="fill:#EF3939;fill:color(display-p3 0.9373 0.2235 0.2235);fill-opacity:1;"/>
<path d="M211.3 80.6556C199.037 59.1528 178.519 42.3613 152.706 35.4555C101.482 21.7444 48.808 52.1262 35.0757 103.306C28.1693 129.077 32.438 155.191 44.9219 176.552C45.1031 176.854 45.2843 177.177 45.4655 177.479L90.5685 255.678C98.0589 255.879 106.133 255.96 114.872 255.98C114.892 255.98 114.912 255.98 114.932 255.98C115.718 255.98 116.523 255.98 117.328 255.98C117.348 255.98 117.389 255.98 117.409 255.98C119.02 255.98 120.631 255.98 122.282 255.98C122.423 255.98 122.564 255.98 122.704 255.98C124.315 255.98 125.926 255.98 127.577 255.98C152.525 255.98 172.539 255.98 188.889 254.188C209.286 251.953 223.945 246.92 235.261 235.625C251.772 219.115 254.893 195.518 255.497 157.325C229.14 111.581 211.34 80.7361 211.3 80.6556Z" fill="url(#paint0_linear_2697_45)" style=""/>
<path d="M195.413 60.2601C157.981 22.7913 97.2937 22.7913 59.8421 60.2601C22.4106 97.7289 22.4106 158.452 59.8421 195.921C97.2736 233.39 157.961 233.39 195.413 195.921C232.844 158.472 232.844 97.7289 195.413 60.2601ZM189.674 104.393C173.868 131.896 158.042 159.398 142.256 186.921C139.316 192.035 135.067 195.136 129.208 195.559C122.664 196.042 117.51 193.263 114.207 187.586C104.2 170.331 94.3137 153.016 84.3668 135.741C78.3263 125.232 72.2655 114.722 66.2451 104.192C60.1844 93.5814 67.0304 80.6556 79.1921 80.0314C85.6152 79.7093 90.5886 82.6689 93.8506 88.2661C98.3206 95.9169 102.69 103.608 107.1 111.279C110.281 116.816 113.402 122.373 116.684 127.849C121.416 135.782 128.383 140.271 137.665 140.815C150.793 141.6 162.975 132.077 164.546 118.104C164.666 117.057 164.747 116.01 164.787 115.487C164.707 110.957 163.881 107.152 162.069 103.548C157.176 93.7223 162.391 82.6891 173.043 80.3334C181.721 78.4207 190.701 84.8031 191.849 93.6217C192.373 97.5075 191.607 101.071 189.674 104.393Z" fill="white" style="fill:white;fill-opacity:1;"/>
</g>
<defs>
<linearGradient id="paint0_linear_2697_45" x1="79.8385" y1="45.0399" x2="202.14" y2="256.889" gradientUnits="userSpaceOnUse">
<stop stop-opacity="0.2" style="stop-color:black;stop-opacity:0.2;"/>
<stop offset="0.7908" stop-opacity="0.05" style="stop-color:black;stop-opacity:0.05;"/>
</linearGradient>
<clipPath id="clip0_2697_45">
<rect width="256" height="256" fill="white" style="fill:white;fill-opacity:1;"/>
</clipPath>
</defs>
</svg>
