<svg width="192" height="192" viewBox="0 0 192 192" fill="none" xmlns="http://www.w3.org/2000/svg">
  <circle cx="96" cy="95.9998" r="88" fill="#5F6368"/>
  <path d="M150 73.0003C150 68.5821 146.418 65.0003 142 65.0003L50 65.0003C45.5817 65.0003 42 68.5821 42 73.0003L42 125C42 129.419 45.5817 133 50 133L142 133C146.418 133 150 129.419 150 125L150 73.0003Z" fill="#AECBFA"/>
  <rect x="58" y="103" width="76" height="16" rx="2" fill="#5F6368"/>
  <path d="M65 48.0002C65 46.8956 65.8954 46.0002 67 46.0002H125C126.105 46.0002 127 46.8956 127 48.0002V65.0001H65V48.0002Z" fill="white"/>
  <path d="M65 110H127V142C127 143.104 126.105 144 125 144H67C65.8954 144 65 143.104 65 142V110Z" fill="white"/>
  <rect x="75" y="130" width="42" height="4" rx="2" fill="#5F6368"/>
  <rect x="75" y="120" width="42" height="4" rx="2" fill="#5F6368"/>
  <circle cx="128" cy="88.9997" r="6" fill="#1A73E8"/>
  <circle cx="96" cy="96" r="88" fill="#5F6368"/>
  <path d="M156 70.8642C156 65.9686 152.031 62 147.136 62L44.8642 62C39.9686 62 36 65.9686 36 70.8642L36 129.136C36 134.031 39.9686 138 44.8642 138L147.136 138C152.031 138 156 134.031 156 129.136L156 70.8642Z" fill="#4285F4"/>
  <rect x="54" y="104" width="84" height="18" rx="2.21605" fill="#5F6368"/>
  <path d="M62 43.216C62 41.9922 62.9922 41 64.216 41H127.784C129.008 41 130 41.9922 130 43.216V62.0525H62V43.216Z" fill="white"/>
  <path d="M62 112H130V147.784C130 149.008 129.008 150 127.784 150H64.216C62.9922 150 62 149.008 62 147.784V112Z" fill="white"/>
  <rect x="73" y="134" width="46" height="4" rx="2" fill="#5F6368"/>
  <rect x="73" y="122" width="46" height="4" rx="2" fill="#5F6368"/>
  <circle cx="132" cy="88" r="6" fill="#80F9F9"/>
</svg>