<svg width="24" height="24" viewBox="0 0 24 24" fill="none" xmlns="http://www.w3.org/2000/svg">
<path d="M21.2889 2.71111C19.4556 1 16.7667 1 12 1C7.23333 1 4.54444 1 2.71111 2.71111C1 4.54444 1 7.23333 1 12C1 16.7667 1 19.4556 2.71111 21.2889C4.54444 23 7.23333 23 12 23C16.7667 23 19.4556 23 21.2889 21.2889C23 19.4556 23 16.7667 23 12C23 7.23333 23 4.54444 21.2889 2.71111ZM18.6 9.06667L13.4667 17.8667C13.1 18.3556 12.7333 18.7222 12.1222 18.8444C11.3889 18.8444 10.9 18.6 10.5333 17.9889C9.43333 16.1556 8.45556 14.3222 7.35556 12.4889C6.74444 11.3889 6.01111 10.2889 5.4 9.06667C4.66667 7.96667 5.4 6.62222 6.74444 6.5C7.47778 6.5 7.96667 6.74444 8.33333 7.35556C8.82222 8.21111 9.31111 8.94444 9.8 9.8C10.1667 10.4111 10.5333 11.0222 10.7778 11.6333C11.2667 12.4889 12 12.9778 12.9778 12.9778C14.4444 13.1 15.6667 12 15.9111 10.5333V10.2889C15.9111 9.8 15.7889 9.43333 15.6667 9.06667C15.1778 7.96667 15.6667 6.86667 16.8889 6.62222C17.8667 6.37778 18.8444 7.11111 18.9667 8.08889C18.9667 8.33333 18.8444 8.7 18.6 9.06667Z" fill="white"/>
</svg>
