/* XPM */
static char *ecf351b48651420dc83d72db290cc457oZvLW70h0Pp4k0jG[] = {
/* columns rows colors chars-per-pixel */
"32 32 116 2 ",
"   c None",
".  c #CB3334",
"X  c #CC3334",
"o  c #CE3334",
"O  c #CF3334",
"+  c #CB3434",
"@  c #CC3434",
"#  c #CD3434",
"$  c #CF3434",
"%  c #D03334",
"&  c #D03434",
"*  c #D13434",
"=  c #D23434",
"-  c #D33434",
";  c #D43434",
":  c #D53434",
">  c #D63434",
",  c #D73434",
"<  c #D83434",
"1  c #D93434",
"2  c #DA3435",
"3  c #DA3535",
"4  c #DB3535",
"5  c #DC3535",
"6  c #DD3535",
"7  c #DE3535",
"8  c #DF3535",
"9  c #E03636",
"0  c #E13636",
"q  c #E23636",
"w  c #E33636",
"e  c #E53737",
"r  c #E63737",
"t  c #E73737",
"y  c #E93838",
"u  c #EA3838",
"i  c #EB3838",
"p  c #ED3939",
"a  c #EF3939",
"s  c #D14141",
"d  c #D94141",
"f  c #DB4141",
"g  c #DC4242",
"h  c #DD4242",
"j  c #D74D4D",
"k  c #DB4D4D",
"l  c #DC4D4D",
"z  c #DF4E4E",
"x  c #D5595A",
"c  c #DC5A5A",
"v  c #E45B5B",
"b  c #D76767",
"n  c #DD6767",
"m  c #DF6767",
"M  c #DB7374",
"N  c #DB7474",
"B  c #DD7474",
"V  c #DF7474",
"C  c #E26767",
"Z  c #E86868",
"A  c #E96868",
"S  c #EB6969",
"D  c #EC6A6A",
"F  c #ED6A6A",
"G  c #E07474",
"H  c #E17474",
"J  c #E27474",
"K  c #E57474",
"L  c #E77474",
"P  c #EB7676",
"I  c #ED7676",
"U  c #EE7676",
"Y  c #E58080",
"T  c #E78080",
"R  c #EE8282",
"E  c #EF8282",
"W  c #E59A9A",
"Q  c #E8999A",
"!  c #E89A9A",
"~  c #EB9A9A",
"^  c #EF9B9B",
"/  c #F09B9B",
"(  c #EBA7A7",
")  c #EDA7A7",
"_  c #EEA7A7",
"`  c #F1A7A7",
"'  c #F0A8A8",
"]  c #F2A8A8",
"[  c #ECB3B3",
"{  c #EFB3B3",
"}  c #EFB4B4",
"|  c #F0B3B3",
" . c #F0B4B4",
".. c #F2B4B4",
"X. c #F4B4B4",
"o. c #F2C0C0",
"O. c #F3C0C0",
"+. c #F4C0C0",
"@. c #F2CDCD",
"#. c #F4CDCD",
"$. c #F5CDCD",
"%. c #F6CDCD",
"&. c #F7CDCD",
"*. c #F8CDCD",
"=. c #F5D9DA",
"-. c #F6DADA",
";. c #F7DADA",
":. c #F8DADA",
">. c #F9DADA",
",. c #F9E6E6",
"<. c #FAE6E6",
"1. c #FBE6E6",
"2. c #FBE7E7",
"3. c #FCF3F3",
"4. c #FDF3F3",
"5. c white",
/* pixels */
"            a a a a a a a a a a a a a a a a a a a a             ",
"        a a a a a a a a a a a a a a a a a a a a a a a a         ",
"    a a a a a a a a a a a a a a a a a a a a a a a a a a a a     ",
"    a a a a a a a a a a a a a a a a a a a a a a a a a a a a     ",
"  a a a a a a a a a a P } ,.5.5.5.5.,. .D a a a a a a a a a a   ",
"  a a a a a a a a I ,.5.5.5.5.5.5.5.5.5.5.=.D a a a a a a a a   ",
"a a a a a a a a  .5.5.5.5.5.5.5.5.5.5.5.5.5.5.' a a a a a a a a ",
"a a a a a a a } 5.5.5.5.5.5.5.5.5.5.5.5.5.5.5.5. .a a a a a a a ",
"a a a a a a } 5.5.5.5.5.5.5.5.5.5.5.5.5.5.5.5.5.5.^ a a a a a a ",
"a a a a a P 5.5.5.5.5.5.5.5.5.5.5.5.5.5.5.5.5.5.5.5.D a a a a a ",
"a a a a a ,.5.5.=.b W 5.5.5.5.5.5.5.5.5.=.J B =.5.5.$.a a a a a ",
"a a a a R 5.5.5.N + . x 5.5.5.5.5.5.5.5.B * * J 5.5.5.S a a a a ",
"a a a a o.5.5.5.M + # # [ 5.5.5.5.5.5.5.J * * J 5.5.5._ a a a a ",
"a a a a 3.5.5.5.@.X # # s 3.5.5.5.5.5.5.( * , @.5.5.5.:.0 a a a ",
"a a a a 5.5.5.5.5.B # X X Q 5.5.5.5.5.5.@., J 5.5.5.5.5.1 u a a ",
"a a a D 5.5.5.5.5.,.# * = = ,.5.5.5.5.5._ , ,.5.5.5.5.5.1 0 a a ",
"a a a D 5.5.5.5.5.5.Q # * * n 5.5.5.5.3.l Q 5.5.5.5.5.5.1 1 u a ",
"a a a a 5.5.5.5.5.5.3.k * * * c [ $._ d l 3.5.5.5.5.5.5.6 6 0 a ",
"a a a a 3.5.5.5.5.5.5.[ , * * , , , , , | 5.5.5.5.5.5.:.6 0 6 t ",
"a a a a o.5.5.5.5.5.5.5.m , , , , , 1 C 5.5.5.5.5.5.5.` 6 6 6 0 ",
"a a a a E 5.5.5.5.5.5.5.$., , , , , 1 $.5.5.5.5.5.5.5.v 0 6 0 0 ",
"a a a a a 1.5.5.5.5.5.5.5.T , , 1 1 T 5.5.5.5.5.5.5.&.0 0 0 0 e ",
"a a a a a I 5.5.5.5.5.5.5.,.g 1 1 g ,.5.5.5.5.5.5.5.A 0 0 0 0 e ",
"a a a a a a  .5.5.5.5.5.5.5.+.l g o.5.5.5.5.5.5.5./ 0 0 e e 0 e ",
"a a a a a a a [ 5.5.5.5.5.5.5.5.3.5.5.5.5.5.5.5.X.0 w w w w w w ",
"a a a a a a a 0 | 5.5.5.5.5.5.5.5.5.5.5.5.5.5.` e 0 w w w w w e ",
"  a a a a a a a 1 L ,.5.5.5.5.5.5.5.5.5.5.*.A w w w w w e 0 w   ",
"  a a a a a a a e 1 6 L  .1.5.5.5.5.1.X.A 0 w w w w w w 0 e 0   ",
"    a a a a a a a 0 8 1 8 8 w 6 0 0 0 e w w w w 0 e 0 e e w     ",
"    a a a a a a a i 8 8 8 w 6 8 0 0 w e w w w w e 0 e 0 0 e     ",
"        a a a a a a 0 8 6 0 w w w w w w w w w w w w 0 e         ",
"            a a a a i 0 0 0 w w w w w w w w w w w e             "
};
